<svg width="20" height="20" viewBox="0 0 20 20" fill="none" xmlns="http://www.w3.org/2000/svg">
<g id="sign-out-alt 1" clip-path="url(#clip0_437_18986)">
<path id="Vector" d="M9.56236 12.5C9.34134 12.5 9.12938 12.5878 8.9731 12.7441C8.81682 12.9004 8.72902 13.1123 8.72902 13.3333V15.8333C8.72902 16.4964 8.46563 17.1323 7.99679 17.6011C7.52795 18.0699 6.89206 18.3333 6.22902 18.3333H4.16569C3.50265 18.3333 2.86676 18.0699 2.39792 17.6011C1.92908 17.1323 1.66569 16.4964 1.66569 15.8333V4.16667C1.66569 3.50363 1.92908 2.86774 2.39792 2.3989C2.86676 1.93006 3.50265 1.66667 4.16569 1.66667H6.22902C6.89206 1.66667 7.52795 1.93006 7.99679 2.3989C8.46563 2.86774 8.72902 3.50363 8.72902 4.16667V6.66667C8.72902 6.88768 8.81682 7.09964 8.9731 7.25592C9.12938 7.4122 9.34134 7.5 9.56236 7.5C9.78337 7.5 9.99533 7.4122 10.1516 7.25592C10.3079 7.09964 10.3957 6.88768 10.3957 6.66667V4.16667C10.3944 3.062 9.95496 2.00296 9.17384 1.22185C8.39272 0.440735 7.33369 0.00132321 6.22902 0H4.16569C3.06103 0.00132321 2.00199 0.440735 1.22087 1.22185C0.439758 2.00296 0.000346652 3.062 -0.000976562 4.16667L-0.000976562 15.8333C0.000346652 16.938 0.439758 17.997 1.22087 18.7782C2.00199 19.5593 3.06103 19.9987 4.16569 20H6.22902C7.33369 19.9987 8.39272 19.5593 9.17384 18.7782C9.95496 17.997 10.3944 16.938 10.3957 15.8333V13.3333C10.3957 13.1123 10.3079 12.9004 10.1516 12.7441C9.99533 12.5878 9.78337 12.5 9.56236 12.5Z" fill="white"/>
<path id="Vector_2" d="M19.0547 8.23251L15.233 4.41084C15.1562 4.33125 15.0642 4.26776 14.9625 4.22409C14.8609 4.18041 14.7515 4.15743 14.6409 4.15646C14.5302 4.1555 14.4205 4.17659 14.3181 4.21849C14.2157 4.26039 14.1226 4.32227 14.0444 4.40051C13.9661 4.47875 13.9042 4.5718 13.8623 4.67421C13.8204 4.77663 13.7994 4.88636 13.8003 4.99701C13.8013 5.10766 13.8243 5.21701 13.8679 5.31868C13.9116 5.42035 13.9751 5.5123 14.0547 5.58917L17.6064 9.14167L4.99886 9.16667C4.77785 9.16667 4.56589 9.25447 4.40961 9.41075C4.25332 9.56703 4.16553 9.77899 4.16553 10C4.16553 10.221 4.25332 10.433 4.40961 10.5893C4.56589 10.7455 4.77785 10.8333 4.99886 10.8333L17.6555 10.8075L14.053 14.4108C13.9734 14.4877 13.91 14.5797 13.8663 14.6813C13.8226 14.783 13.7996 14.8924 13.7987 15.003C13.7977 15.1137 13.8188 15.2234 13.8607 15.3258C13.9026 15.4282 13.9645 15.5213 14.0427 15.5995C14.1209 15.6777 14.214 15.7396 14.3164 15.7815C14.4188 15.8234 14.5285 15.8445 14.6392 15.8435C14.7498 15.8426 14.8592 15.8196 14.9609 15.7759C15.0625 15.7322 15.1545 15.6688 15.2314 15.5892L19.053 11.7675C19.5219 11.2989 19.7855 10.6633 19.7858 10.0004C19.7861 9.33744 19.5232 8.70155 19.0547 8.23251Z" fill="white"/>
</g>
<defs>
<clipPath id="clip0_437_18986">
<rect width="20" height="20" fill="white" transform="translate(-0.000976562)"/>
</clipPath>
</defs>
</svg>
