<svg width="59" height="59" viewBox="0 0 59 59" fill="none" xmlns="http://www.w3.org/2000/svg">
<rect x="0.390137" y="58.3125" width="57.9485" height="57.9485" rx="28.9743" transform="rotate(-90 0.390137 58.3125)" fill="#2A9DF4"/>
<path d="M25.165 18.0823C25.0069 18.2391 24.8814 18.4257 24.7957 18.6313C24.7101 18.8368 24.666 19.0573 24.666 19.28C24.666 19.5027 24.7101 19.7232 24.7957 19.9287C24.8814 20.1343 25.0069 20.3208 25.165 20.4777L32.8909 28.2036C33.049 28.3604 33.1745 28.5469 33.2601 28.7525C33.3458 28.9581 33.3899 29.1785 33.3899 29.4012C33.3899 29.6239 33.3458 29.8444 33.2601 30.05C33.1745 30.2555 33.049 30.4421 32.8909 30.5989L25.165 38.3248C25.0069 38.4816 24.8814 38.6682 24.7957 38.8737C24.7101 39.0793 24.666 39.2998 24.666 39.5225C24.666 39.7452 24.7101 39.9657 24.7957 40.1712C24.8814 40.3768 25.0069 40.5633 25.165 40.7202C25.481 41.0343 25.9086 41.2107 26.3542 41.2107C26.7999 41.2107 27.2274 41.0343 27.5435 40.7202L35.2862 32.9774C36.2339 32.0285 36.7662 30.7423 36.7662 29.4012C36.7662 28.0602 36.2339 26.7739 35.2862 25.8251L27.5435 18.0823C27.2274 17.7681 26.7999 17.5918 26.3542 17.5918C25.9086 17.5918 25.481 17.7681 25.165 18.0823Z" fill="white"/>
</svg>
