<svg width="34" height="34" viewBox="0 0 34 34" fill="none" xmlns="http://www.w3.org/2000/svg">
<path d="M15.7137 17L23.4542 24.6951C23.8181 25.0568 24 25.5172 24 26.0762C24 26.6353 23.8181 27.0957 23.4542 27.4574C23.0903 27.8191 22.6272 28 22.0649 28C21.5025 28 21.0394 27.8191 20.6756 27.4574L11.5458 18.3812C11.3473 18.1839 11.2067 17.9701 11.124 17.7399C11.0413 17.5097 11 17.2631 11 17C11 16.7369 11.0413 16.4903 11.124 16.2601C11.2067 16.0299 11.3473 15.8161 11.5458 15.6188L20.6756 6.5426C21.0394 6.18087 21.5025 6 22.0649 6C22.6272 6 23.0903 6.18087 23.4542 6.5426C23.8181 6.90434 24 7.36472 24 7.92377C24 8.48281 23.8181 8.9432 23.4542 9.30493L15.7137 17Z" fill="#343434"/>
</svg>
