<svg width="59" height="59" viewBox="0 0 59 59" fill="none" xmlns="http://www.w3.org/2000/svg">
<rect x="58.6106" y="0.36377" width="57.9485" height="57.9485" rx="28.9743" transform="rotate(90 58.6106 0.36377)" fill="#2A9DF4"/>
<path d="M33.8357 40.594C33.9938 40.4371 34.1193 40.2506 34.205 40.045C34.2906 39.8395 34.3347 39.619 34.3347 39.3963C34.3347 39.1736 34.2906 38.9531 34.205 38.7476C34.1193 38.542 33.9938 38.3554 33.8357 38.1986L26.1099 30.4727C25.9517 30.3159 25.8263 30.1293 25.7406 29.9238C25.655 29.7182 25.6109 29.4977 25.6109 29.275C25.6109 29.0523 25.655 28.8319 25.7406 28.6263C25.8263 28.4207 25.9517 28.2342 26.1099 28.0774L33.8357 20.3515C33.9939 20.1947 34.1193 20.0081 34.205 19.8025C34.2906 19.597 34.3347 19.3765 34.3347 19.1538C34.3347 18.9311 34.2906 18.7106 34.205 18.5051C34.1193 18.2995 33.9939 18.1129 33.8357 17.9561C33.5197 17.6419 33.0921 17.4656 32.6465 17.4656C32.2008 17.4656 31.7733 17.6419 31.4572 17.9561L23.7145 25.6989C22.7668 26.6477 22.2345 27.934 22.2345 29.275C22.2345 30.6161 22.7668 31.9023 23.7145 32.8512L31.4572 40.594C31.7733 40.9081 32.2008 41.0845 32.6465 41.0845C33.0921 41.0845 33.5197 40.9081 33.8357 40.594Z" fill="white"/>
</svg>
