<?xml version="1.0" standalone="no"?>
<!DOCTYPE svg PUBLIC "-//W3C//DTD SVG 20010904//EN"
 "http://www.w3.org/TR/2001/REC-SVG-20010904/DTD/svg10.dtd">
<svg version="1.0" xmlns="http://www.w3.org/2000/svg"
 width="30.000000pt" height="31.000000pt" viewBox="0 0 30.000000 31.000000"
 preserveAspectRatio="xMidYMid meet">
<metadata>
Created by potrace 1.16, written by Peter Selinger 2001-2019
</metadata>
<g transform="translate(0.000000,31.000000) scale(0.100000,-0.100000)"
fill="#000000" stroke="none">
<path d="M84 273 c-17 -8 -38 -28 -47 -43 -17 -29 -24 -110 -9 -110 12 0 52
44 52 56 0 18 46 54 68 54 55 0 84 -78 45 -122 -13 -15 -12 -19 6 -37 l20 -20
26 30 c25 31 30 50 26 103 -7 85 -103 131 -187 89z"/>
</g>
</svg>
