<svg width="20" height="20" viewBox="0 0 20 20" fill="none" xmlns="http://www.w3.org/2000/svg">
<g id="ci:puzzle">
<path id="Vector" d="M16.6657 5.83333H14.8732C14.4574 5.83333 14.1657 5.415 14.1657 5C14.1657 4.6717 14.101 4.34661 13.9754 4.04329C13.8498 3.73998 13.6656 3.46438 13.4335 3.23223C13.2013 3.00009 12.9257 2.81594 12.6224 2.6903C12.3191 2.56466 11.994 2.5 11.6657 2.5C11.3374 2.5 11.0123 2.56466 10.709 2.6903C10.4057 2.81594 10.1301 3.00009 9.89792 3.23223C9.66578 3.46438 9.48163 3.73998 9.35599 4.04329C9.23035 4.34661 9.16569 4.6717 9.16569 5C9.16569 5.415 8.87319 5.83333 8.45819 5.83333H6.66569C6.44468 5.83333 6.23271 5.92113 6.07643 6.07741C5.92015 6.23369 5.83236 6.44565 5.83236 6.66667V8.45917C5.83236 8.875 5.41402 9.16667 4.99902 9.16667C4.67072 9.16667 4.34563 9.23133 4.04231 9.35697C3.739 9.4826 3.4634 9.66675 3.23126 9.8989C2.99911 10.131 2.81496 10.4066 2.68932 10.71C2.56369 11.0133 2.49902 11.3384 2.49902 11.6667C2.49902 11.995 2.56369 12.3201 2.68932 12.6234C2.81496 12.9267 2.99911 13.2023 3.23126 13.4344C3.4634 13.6666 3.739 13.8507 4.04231 13.9764C4.34563 14.102 4.67072 14.1667 4.99902 14.1667C5.41402 14.1667 5.83236 14.4592 5.83236 14.8742V16.6667C5.83236 16.8877 5.92015 17.0996 6.07643 17.2559C6.23271 17.4122 6.44468 17.5 6.66569 17.5H16.6657C16.8867 17.5 17.0987 17.4122 17.2549 17.2559C17.4112 17.0996 17.499 16.8877 17.499 16.6667V14.8742C17.499 14.4592 17.0799 14.1667 16.6657 14.1667C16.3374 14.1667 16.0123 14.102 15.709 13.9764C15.4057 13.8507 15.1301 13.6666 14.8979 13.4344C14.6658 13.2023 14.4816 12.9267 14.356 12.6234C14.2304 12.3201 14.1657 11.995 14.1657 11.6667C14.1657 11.3384 14.2304 11.0133 14.356 10.71C14.4816 10.4066 14.6658 10.131 14.8979 9.8989C15.1301 9.66675 15.4057 9.4826 15.709 9.35697C16.0123 9.23133 16.3374 9.16667 16.6657 9.16667C17.0799 9.16667 17.499 8.87417 17.499 8.45917V6.66667C17.499 6.44565 17.4112 6.23369 17.2549 6.07741C17.0987 5.92113 16.8867 5.83333 16.6657 5.83333Z" stroke="#343434" stroke-width="2" stroke-linecap="round" stroke-linejoin="round"/>
</g>
</svg>
