<svg width="30" height="30" viewBox="0 0 30 30" fill="none" xmlns="http://www.w3.org/2000/svg">
<path d="M22.185 16.7961C21.1192 16.7961 20.0774 17.1122 19.1912 17.7043C18.305 18.2964 17.6143 19.138 17.2065 20.1227C16.7986 21.1074 16.6919 22.1909 16.8998 23.2362C17.1077 24.2815 17.621 25.2417 18.3746 25.9953C19.1282 26.7489 20.0884 27.2622 21.1337 27.4701C22.179 27.678 23.2625 27.5713 24.2472 27.1634C25.2319 26.7556 26.0735 26.0649 26.6656 25.1787C27.2577 24.2925 27.5738 23.2507 27.5738 22.1849C27.5738 20.7557 27.006 19.3851 25.9954 18.3745C24.9849 17.3639 23.6142 16.7961 22.185 16.7961ZM22.185 25.7774C21.4745 25.7774 20.7799 25.5667 20.1891 25.1719C19.5983 24.7772 19.1379 24.2161 18.866 23.5597C18.5941 22.9032 18.5229 22.1809 18.6615 21.484C18.8002 20.7872 19.1423 20.147 19.6447 19.6446C20.1472 19.1422 20.7873 18.8 21.4842 18.6614C22.181 18.5228 22.9034 18.5939 23.5598 18.8659C24.2163 19.1378 24.7773 19.5982 25.1721 20.189C25.5668 20.7798 25.7775 21.4744 25.7775 22.1849C25.7775 23.1377 25.399 24.0514 24.7253 24.7252C24.0516 25.3989 23.1378 25.7774 22.185 25.7774Z" fill="black"/>
<path d="M23.9813 21.2867H23.0831V20.3886C23.0831 20.1504 22.9885 19.922 22.8201 19.7535C22.6516 19.5851 22.4232 19.4905 22.185 19.4905C21.9468 19.4905 21.7184 19.5851 21.5499 19.7535C21.3815 19.922 21.2869 20.1504 21.2869 20.3886V21.2867H20.3888C20.1506 21.2867 19.9221 21.3814 19.7537 21.5498C19.5853 21.7182 19.4906 21.9467 19.4906 22.1849C19.4906 22.4231 19.5853 22.6515 19.7537 22.8199C19.9221 22.9884 20.1506 23.083 20.3888 23.083H21.2869V23.9811C21.2869 24.2193 21.3815 24.4477 21.5499 24.6162C21.7184 24.7846 21.9468 24.8792 22.185 24.8792C22.4232 24.8792 22.6516 24.7846 22.8201 24.6162C22.9885 24.4477 23.0831 24.2193 23.0831 23.9811V23.083H23.9813C24.2195 23.083 24.4479 22.9884 24.6163 22.8199C24.7848 22.6515 24.8794 22.4231 24.8794 22.1849C24.8794 21.9467 24.7848 21.7182 24.6163 21.5498C24.4479 21.3814 24.2195 21.2867 23.9813 21.2867Z" fill="black"/>
<path d="M15.8981 24.8792H5.80322C5.38399 24.8792 4.98193 24.7127 4.6855 24.4162C4.38906 24.1198 4.22252 23.7177 4.22252 23.2985V12.988C4.22252 12.5688 4.38906 12.1667 4.6855 11.8703C4.98193 11.5739 5.38399 11.4073 5.80322 11.4073H23.2987C23.7179 11.4073 24.12 11.5739 24.4164 11.8703C24.7129 12.1667 24.8794 12.5688 24.8794 12.988V15.898C24.8794 16.1362 24.974 16.3646 25.1424 16.533C25.3109 16.7015 25.5393 16.7961 25.7775 16.7961C26.0157 16.7961 26.2442 16.7015 26.4126 16.533C26.581 16.3646 26.6756 16.1362 26.6756 15.898V12.988C26.6733 12.0931 26.3167 11.2356 25.6839 10.6028C25.0512 9.97 24.1936 9.61345 23.2987 9.61108H5.80322C4.90833 9.61345 4.05076 9.97 3.41797 10.6028C2.78519 11.2356 2.42864 12.0931 2.42627 12.988V23.2985C2.42864 24.1934 2.78519 25.051 3.41797 25.6838C4.05076 26.3165 4.90833 26.6731 5.80322 26.6755H15.8981C16.1363 26.6755 16.3648 26.5808 16.5332 26.4124C16.7016 26.244 16.7963 26.0155 16.7963 25.7773C16.7963 25.5391 16.7016 25.3107 16.5332 25.1423C16.3648 24.9738 16.1363 24.8792 15.8981 24.8792Z" fill="black"/>
<path d="M6.91689 4.22228H22.185C22.4232 4.22228 22.6517 4.12765 22.8201 3.95922C22.9885 3.79079 23.0831 3.56235 23.0831 3.32415C23.0831 3.08595 22.9885 2.85751 22.8201 2.68908C22.6517 2.52065 22.4232 2.42603 22.185 2.42603H6.91689C6.6787 2.42603 6.45025 2.52065 6.28182 2.68908C6.11339 2.85751 6.01877 3.08595 6.01877 3.32415C6.01877 3.56235 6.11339 3.79079 6.28182 3.95922C6.45025 4.12765 6.6787 4.22228 6.91689 4.22228Z" fill="black"/>
<path d="M5.12066 7.8148H23.9813C24.2195 7.8148 24.4479 7.72018 24.6164 7.55175C24.7848 7.38332 24.8794 7.15488 24.8794 6.91668C24.8794 6.67848 24.7848 6.45004 24.6164 6.28161C24.4479 6.11318 24.2195 6.01855 23.9813 6.01855H5.12066C4.88246 6.01855 4.65402 6.11318 4.48559 6.28161C4.31716 6.45004 4.22253 6.67848 4.22253 6.91668C4.22253 7.15488 4.31716 7.38332 4.48559 7.55175C4.65402 7.72018 4.88246 7.8148 5.12066 7.8148Z" fill="black"/>
</svg>
