<svg width="20" height="20" viewBox="0 0 20 20" fill="none" xmlns="http://www.w3.org/2000/svg">
<path d="M14.4554 2.59259L6.29312 10.7549C5.98137 11.065 5.73422 11.4338 5.56599 11.84C5.39775 12.2462 5.31176 12.6818 5.313 13.1215V14.0206C5.313 14.1982 5.38354 14.3685 5.50909 14.494C5.63464 14.6196 5.80492 14.6901 5.98248 14.6901H6.88159C7.32128 14.6913 7.75685 14.6054 8.16308 14.4371C8.56932 14.2689 8.93814 14.0217 9.24821 13.71L17.4105 5.54768C17.8018 5.15548 18.0215 4.62411 18.0215 4.07013C18.0215 3.51616 17.8018 2.98479 17.4105 2.59259C17.0126 2.21225 16.4834 2 15.933 2C15.3825 2 14.8533 2.21225 14.4554 2.59259ZM16.4639 4.60103L8.30156 12.7633C7.92406 13.1385 7.41384 13.3497 6.88159 13.3511H6.65196V13.1215C6.65336 12.5893 6.86457 12.079 7.23977 11.7015L15.4021 3.53924C15.5451 3.40263 15.7352 3.3264 15.933 3.3264C16.1307 3.3264 16.3209 3.40263 16.4639 3.53924C16.6044 3.68017 16.6833 3.87109 16.6833 4.07013C16.6833 4.26918 16.6044 4.4601 16.4639 4.60103Z" fill="#353535"/>
<rect x="1.96631" y="17.0332" width="16.0675" height="1.00422" rx="0.50211" fill="#353535"/>
</svg>
