<svg width="20" height="20" viewBox="0 0 20 20" fill="none" xmlns="http://www.w3.org/2000/svg">
<g clip-path="url(#clip0_1132_29559)">
<path d="M6.65785 2.95896L9.32155 0.292913C9.50227 0.112239 9.74735 0.0107422 10.0029 0.0107422C10.2584 0.0107422 10.5035 0.112239 10.6842 0.292913L13.3479 2.95896C13.5229 3.13509 13.621 3.37326 13.621 3.6215C13.621 3.86974 13.5229 4.10791 13.3479 4.28405C13.1718 4.45916 12.9335 4.55745 12.6851 4.55745C12.4367 4.55745 12.1984 4.45916 12.0223 4.28405L10.9387 3.20106V7.49658C10.9379 7.74482 10.839 7.98267 10.6635 8.15826C10.488 8.33385 10.2502 8.43291 10.002 8.43384C9.75368 8.43306 9.51573 8.33407 9.34013 8.15847C9.16453 7.98286 9.06553 7.74492 9.06476 7.49658V3.20106L8.00057 4.26936C7.91192 4.35826 7.8066 4.4288 7.69064 4.47693C7.57467 4.52506 7.45036 4.54984 7.3248 4.54984C7.19925 4.54984 7.07493 4.52506 6.95897 4.47693C6.84301 4.4288 6.73769 4.35826 6.64904 4.26936C6.47887 4.09316 6.38449 3.85731 6.38614 3.61236C6.38779 3.36741 6.48533 3.13285 6.65785 2.95896Z" fill="#333333"/>
<path d="M4.26917 13.3599C4.09235 13.53 3.85582 13.624 3.61044 13.6216C3.36506 13.6192 3.13043 13.5206 2.957 13.347L0.290959 10.6815C0.201428 10.5921 0.130404 10.4858 0.0819454 10.3689C0.033487 10.252 0.00854492 10.1267 0.00854492 10.0001C0.00854492 9.87359 0.033487 9.74828 0.0819454 9.63137C0.130404 9.51446 0.201428 9.40824 0.290959 9.3188L2.95642 6.65452C3.13255 6.47958 3.37072 6.38141 3.61896 6.38141C3.8672 6.38141 4.10537 6.47958 4.28151 6.65452C4.36855 6.7415 4.4376 6.84479 4.48471 6.95847C4.53182 7.07215 4.55607 7.194 4.55607 7.31706C4.55607 7.44012 4.53182 7.56197 4.48471 7.67565C4.4376 7.78934 4.36855 7.89262 4.28151 7.97961L3.19852 9.06318H7.49463C7.74337 9.06412 7.98161 9.16358 8.15717 9.3398C8.33273 9.51602 8.4313 9.75463 8.4313 10.0034C8.43068 10.2514 8.33172 10.489 8.15612 10.6642C7.98053 10.8393 7.74264 10.9377 7.49463 10.9377H3.19852L4.26682 12.006C4.35597 12.0945 4.42676 12.1997 4.47515 12.3157C4.52353 12.4316 4.54855 12.5559 4.54877 12.6816C4.54899 12.8072 4.5244 12.9316 4.47642 13.0477C4.42844 13.1638 4.35801 13.2693 4.26917 13.3581V13.3599Z" fill="#333333"/>
<path d="M13.3479 17.0519L10.6837 19.718C10.5942 19.8074 10.488 19.8784 10.3712 19.9268C10.2543 19.9752 10.1291 20.0001 10.0026 20.0001C9.87612 20.0001 9.75087 19.9752 9.63401 19.9268C9.51716 19.8784 9.41098 19.8074 9.32155 19.718L6.65726 17.0519C6.57022 16.9649 6.50117 16.8616 6.45406 16.748C6.40695 16.6343 6.3827 16.5124 6.3827 16.3894C6.3827 16.2663 6.40695 16.1445 6.45406 16.0308C6.50117 15.9171 6.57022 15.8138 6.65726 15.7268C6.74425 15.6398 6.84754 15.5707 6.96122 15.5236C7.0749 15.4765 7.19675 15.4523 7.31981 15.4523C7.44287 15.4523 7.56472 15.4765 7.6784 15.5236C7.79208 15.5707 7.89537 15.6398 7.98235 15.7268L9.06534 16.8098V12.5137C9.08402 12.2779 9.19087 12.0579 9.36458 11.8974C9.53829 11.7369 9.7661 11.6478 10.0026 11.6478C10.2391 11.6478 10.4669 11.7369 10.6406 11.8974C10.8143 12.0579 10.9212 12.2779 10.9399 12.5137V16.8098L12.0076 15.7415C12.0962 15.6526 12.2015 15.5821 12.3175 15.5339C12.4335 15.4858 12.5578 15.461 12.6833 15.461C12.8089 15.461 12.9332 15.4858 13.0492 15.5339C13.1651 15.5821 13.2705 15.6526 13.3591 15.7415C13.5281 15.9184 13.6215 16.1543 13.6194 16.399C13.6173 16.6437 13.52 16.8779 13.3479 17.0519Z" fill="#333333"/>
<path d="M19.7154 10.6809L17.05 13.347C16.8738 13.5219 16.6357 13.6201 16.3874 13.6201C16.1392 13.6201 15.901 13.5219 15.7249 13.347C15.6378 13.26 15.5688 13.1567 15.5217 13.043C15.4746 12.9293 15.4503 12.8075 15.4503 12.6844C15.4503 12.5614 15.4746 12.4395 15.5217 12.3258C15.5688 12.2121 15.6378 12.1088 15.7249 12.0219L16.8073 10.9377H12.5118C12.2629 10.9369 12.0245 10.8375 11.8488 10.6613C11.6731 10.4851 11.5745 10.2464 11.5745 9.9975C11.5754 9.74927 11.6745 9.51147 11.8501 9.336C12.0257 9.16052 12.2635 9.06161 12.5118 9.06083H16.8073L15.739 7.99253C15.6501 7.90388 15.5795 7.79856 15.5314 7.6826C15.4833 7.56664 15.4585 7.44232 15.4585 7.31677C15.4585 7.19122 15.4833 7.0669 15.5314 6.95094C15.5795 6.83498 15.6501 6.72965 15.739 6.641C15.9161 6.47161 16.1525 6.3781 16.3976 6.3804C16.6427 6.38271 16.8772 6.48064 17.0511 6.65334L19.7172 9.31762C19.8068 9.40712 19.8779 9.51343 19.9264 9.63047C19.9748 9.74751 19.9997 9.87296 19.9995 9.99963C19.9993 10.1263 19.9742 10.2517 19.9254 10.3686C19.8767 10.4855 19.8053 10.5916 19.7154 10.6809Z" fill="#333333"/>
</g>
<defs>
<clipPath id="clip0_1132_29559">
<rect width="20" height="20" fill="white"/>
</clipPath>
</defs>
</svg>
