<svg width="20" height="20" viewBox="0 0 20 20" fill="none" xmlns="http://www.w3.org/2000/svg">
<g clip-path="url(#clip0_2054_4887)">
<path d="M13.0892 9.75583L11.1783 11.6667L13.0892 13.5775C13.415 13.9033 13.415 14.43 13.0892 14.7558C12.9267 14.9183 12.7133 15 12.5 15C12.2867 15 12.0733 14.9183 11.9108 14.7558L10 12.845L8.08917 14.7558C7.92667 14.9183 7.71333 15 7.5 15C7.28667 15 7.07333 14.9183 6.91083 14.7558C6.585 14.43 6.585 13.9033 6.91083 13.5775L8.82167 11.6667L6.91083 9.75583C6.585 9.43 6.585 8.90333 6.91083 8.5775C7.23667 8.25167 7.76333 8.25167 8.08917 8.5775L10 10.4883L11.9108 8.5775C12.2367 8.25167 12.7633 8.25167 13.0892 8.5775C13.415 8.90333 13.415 9.43 13.0892 9.75583ZM19.1667 4.16667C19.1667 4.6275 18.7933 5 18.3333 5H17.5958L16.5325 16.2267C16.3283 18.3775 14.545 20 12.3842 20H7.61167C5.45417 20 3.67083 18.3808 3.46417 16.2325L2.38417 5H1.6675C1.2075 5 0.834167 4.6275 0.834167 4.16667C0.834167 3.70583 1.2075 3.33333 1.6675 3.33333H5.085C5.4725 1.43417 7.15583 0 9.1675 0H10.8342C12.8458 0 14.53 1.43417 14.9167 3.33333H18.3342C18.7942 3.33333 19.1667 3.70583 19.1667 4.16667ZM6.81 3.33333H13.19C12.8458 2.36333 11.92 1.66667 10.8333 1.66667H9.16667C8.08 1.66667 7.15417 2.36333 6.81 3.33333ZM15.9217 5H4.05833L5.12333 16.0725C5.24667 17.3617 6.31667 18.3333 7.61167 18.3333H12.3842C13.6808 18.3333 14.7508 17.36 14.8733 16.0683L15.9217 5Z" fill="white"/>
</g>
<defs>
<clipPath id="clip0_2054_4887">
<rect width="20" height="20" fill="white"/>
</clipPath>
</defs>
</svg>
