<svg width="80" height="80" viewBox="0 0 80 80" fill="none" xmlns="http://www.w3.org/2000/svg">
<rect width="80" height="80" rx="40" fill="#2A9DF4" fill-opacity="0.15"/>
<path d="M29.6378 31.3079C29.6378 30.1299 28.6791 29.1716 27.5009 29.1716H25.8228C25.252 29.1716 24.7876 29.636 24.7876 30.2067V32.9483V35.6901C24.7876 36.2607 25.252 36.7251 25.8228 36.7251H28.2664C29.4446 36.7251 30.4033 35.7668 30.4033 34.5888V34.3376C30.4033 33.5768 30.0021 32.9095 29.4015 32.5309C29.5514 32.239 29.6378 31.9092 29.6378 31.5592V31.3079ZM26.2817 30.6657H27.5009C27.8553 30.6657 28.1436 30.9537 28.1436 31.3078V31.5591C28.1436 31.9071 27.8493 32.2012 27.5009 32.2012H26.2817V30.6657ZM28.9091 34.5888C28.9091 34.9429 28.6208 35.231 28.2664 35.231H26.2817V33.6954H27.5009H28.2665C28.6209 33.6954 28.9092 33.9835 28.9092 34.3376V34.5888H28.9091Z" fill="#2A9DF4"/>
<path d="M41.2412 36.7252C42.6952 36.7252 43.8781 35.5426 43.8781 34.0891V31.8077C43.8781 30.3542 42.6952 29.1716 41.2412 29.1716H40.8994C39.4454 29.1716 38.2625 30.3542 38.2625 31.8077V34.0891C38.2625 35.5426 39.4454 36.7252 40.8994 36.7252H41.2412ZM39.7566 34.0891V31.8077C39.7566 31.1781 40.2693 30.6658 40.8994 30.6658H41.2412C41.8713 30.6658 42.384 31.1781 42.384 31.8077V34.0891C42.384 34.7188 41.8713 35.2311 41.2412 35.2311H40.8994C40.2693 35.2311 39.7566 34.7188 39.7566 34.0891Z" fill="#2A9DF4"/>
<path d="M32.7805 29.1716C32.3679 29.1716 32.0334 29.5061 32.0334 29.9187V35.9781C32.0334 36.3907 32.3679 36.7252 32.7805 36.7252H36.3964C36.809 36.7252 37.1435 36.3907 37.1435 35.9781C37.1435 35.5656 36.809 35.2311 36.3964 35.2311H33.5276V29.9187C33.5276 29.5061 33.1932 29.1716 32.7805 29.1716Z" fill="#2A9DF4"/>
<path d="M48.5945 19.0378C48.1819 19.0378 47.8474 19.3723 47.8474 19.7849V19.7934C47.8474 20.206 48.1819 20.5363 48.5945 20.5363C49.0071 20.5363 49.3416 20.1976 49.3416 19.785C49.3416 19.3724 49.0071 19.0378 48.5945 19.0378Z" fill="#2A9DF4"/>
<path d="M44.7554 19.0264C44.3428 19.0264 44.0083 19.3609 44.0083 19.7734V19.7847C44.0083 20.1973 44.3428 20.5318 44.7554 20.5318C45.168 20.5318 45.5024 20.1973 45.5024 19.7847V19.7734C45.5024 19.3609 45.168 19.0264 44.7554 19.0264Z" fill="#2A9DF4"/>
<path d="M52.4336 19.0574C52.021 19.0574 51.6865 19.3919 51.6865 19.8044V19.8157C51.6865 20.2283 52.021 20.5628 52.4336 20.5628C52.8462 20.5628 53.1807 20.2283 53.1807 19.8157V19.8044C53.1807 19.3919 52.8462 19.0574 52.4336 19.0574Z" fill="#2A9DF4"/>
<path d="M40.1649 19.0461H23.834C23.4214 19.0461 23.0869 19.3806 23.0869 19.7932C23.0869 20.2058 23.4214 20.5403 23.834 20.5403H40.1649C40.5775 20.5403 40.912 20.2058 40.912 19.7932C40.912 19.3806 40.5775 19.0461 40.1649 19.0461Z" fill="#2A9DF4"/>
<path d="M47.3262 30.6658H49.75C50.1625 30.6658 50.497 30.3313 50.497 29.9187C50.497 29.5061 50.1625 29.1716 49.75 29.1716H47.3262C46.1241 29.1716 45.2175 30.1301 45.2175 31.4011V34.73C45.2175 35.5347 45.8491 36.7251 47.2047 36.7251H48.7755C50.1263 36.7251 51.0338 35.8348 51.0338 34.5098V33.9959C51.0338 32.8411 50.2062 32.0347 49.0212 32.0347H48.6059C48.1934 32.0347 47.8589 32.3692 47.8589 32.7818C47.8589 33.1944 48.1934 33.5288 48.6059 33.5288H49.0212C49.2906 33.5288 49.5397 33.5854 49.5397 33.9959V34.5098C49.5397 34.707 49.5397 35.231 48.7755 35.231H47.2047C46.7407 35.231 46.7117 34.735 46.7117 34.73V31.4011C46.7116 30.9476 46.947 30.6658 47.3262 30.6658Z" fill="#2A9DF4"/>
<path d="M64.3862 30.0894C64.0896 29.3734 63.5279 28.7902 62.8059 28.448L60.9682 27.5719C60.1967 27.2062 59.3589 27.1694 58.6326 27.4044V16.8427C58.6326 15.8267 57.8057 15 56.7894 15H19.2348C18.2185 15 17.3916 15.8266 17.3916 16.8427V39.9763C17.3916 40.3888 17.7261 40.7233 18.1387 40.7233C18.5513 40.7233 18.8857 40.3888 18.8857 39.9763V24.2307H57.1384V28.5492C57.0845 28.6351 57.0349 28.7248 56.9905 28.8183L53.8633 35.3916C53.686 35.7643 53.8443 36.2099 54.2169 36.3872C54.5895 36.5645 55.0352 36.4061 55.2125 36.0336L56.6623 32.9863L61.3244 35.2023L53.0767 52.54L48.4148 50.3263L53.7464 39.1168C53.9236 38.7443 53.7653 38.2985 53.3927 38.1213C53.02 37.944 52.5744 38.1026 52.3971 38.475L50.6512 42.1458H28.6446C28.232 42.1458 27.8975 42.4803 27.8975 42.8929C27.8975 43.3055 28.232 43.64 28.6446 43.64H49.9405L48.1236 47.4599H23.5456C23.133 47.4599 22.7985 47.7944 22.7985 48.207C22.7985 48.6196 23.133 48.954 23.5456 48.954H47.413L46.7445 50.3595C46.7039 50.445 46.6797 50.5375 46.6737 50.6321L46.5349 52.7738H23.7179C23.3053 52.7738 22.9708 53.1083 22.9708 53.5208C22.9708 53.9334 23.3053 54.2679 23.7179 54.2679H46.438L46.1452 58.7865C46.1439 58.8068 46.1434 58.8271 46.1437 58.8475C46.1513 59.2956 46.3767 59.668 46.7469 59.8438C46.8866 59.9103 47.0352 59.943 47.1849 59.943C47.4316 59.943 47.6814 59.8543 47.9009 59.6817C47.9168 59.6691 47.9321 59.656 47.947 59.6422L53.9387 54.0825C54.008 54.0182 54.0645 53.9413 54.1051 53.8558L57.1384 47.4796V64.1572C57.1384 64.3461 56.9787 64.5058 56.7894 64.5058H19.2348C19.0456 64.5058 18.8857 64.3462 18.8857 64.1572V43.4265C18.8857 43.0139 18.5513 42.6795 18.1387 42.6795C17.7261 42.6795 17.3916 43.0139 17.3916 43.4265V64.1572C17.3916 65.1732 18.2185 65.9999 19.2348 65.9999H56.7894C57.8057 65.9999 58.6326 65.1733 58.6326 64.1572V44.3389L64.3516 32.317C64.6812 31.6222 64.6934 30.8312 64.3862 30.0894ZM47.7046 57.8289L47.8292 55.905L49.1177 56.5178L47.7046 57.8289ZM50.2966 55.424L47.9333 54.2999L48.0935 51.8277L52.1145 53.7371L50.2966 55.424ZM57.1384 22.7366H18.8857V16.8427C18.8857 16.6505 19.0423 16.4941 19.2348 16.4941H56.7894C56.9818 16.4941 57.1384 16.6504 57.1384 16.8427V22.7366ZM63.0019 31.6759L61.9663 33.853L57.3042 31.637L58.3401 29.4595C58.6561 28.7933 59.5479 28.5524 60.3268 28.9214L62.1645 29.7975C62.5526 29.9813 62.8513 30.2881 63.0058 30.6612C63.1494 31.0077 63.1479 31.3683 63.0019 31.6759Z" fill="#2A9DF4"/>
</svg>
