<svg width="33" height="32" viewBox="0 0 33 32" fill="none" xmlns="http://www.w3.org/2000/svg">
<path fill-rule="evenodd" clip-rule="evenodd" d="M11.3864 16.9427C11.1364 16.6927 10.996 16.3536 10.996 16.0001C10.996 15.6465 11.1364 15.3074 11.3864 15.0574L18.9291 7.51472C19.052 7.38737 19.1992 7.28579 19.3618 7.21592C19.5245 7.14604 19.6995 7.10925 19.8765 7.10772C20.0536 7.10618 20.2291 7.13991 20.393 7.20696C20.5569 7.274 20.7057 7.373 20.8309 7.49819C20.9561 7.62338 21.0551 7.77225 21.1221 7.93611C21.1892 8.09997 21.2229 8.27555 21.2214 8.45259C21.2198 8.62962 21.1831 8.80458 21.1132 8.96726C21.0433 9.12993 20.9417 9.27706 20.8144 9.40005L14.2144 16.0001L20.8144 22.6001C21.0573 22.8515 21.1917 23.1883 21.1886 23.5379C21.1856 23.8875 21.0454 24.2219 20.7981 24.4691C20.5509 24.7164 20.2165 24.8566 19.8669 24.8596C19.5173 24.8627 19.1805 24.7283 18.9291 24.4854L11.3864 16.9427Z" fill="#2A9DF4"/>
</svg>
