<svg width="8" height="12" viewBox="0 0 8 12" fill="none" xmlns="http://www.w3.org/2000/svg">
<path d="M0.118896 11.1564V0.568115H4.32468C5.13632 0.568115 5.84036 0.832821 6.43679 1.36223C7.03322 1.89164 7.33144 2.55971 7.33144 3.36643C7.33144 3.84543 7.20231 4.2866 6.94407 4.68996C6.68582 5.09333 6.34148 5.40215 5.91107 5.61643V5.72988C6.43986 5.90635 6.86721 6.22148 7.19309 6.67526C7.51898 7.12904 7.68192 7.63954 7.68192 8.20677C7.68192 9.06391 7.35911 9.7698 6.71349 10.3244C6.06786 10.879 5.31463 11.1564 4.4538 11.1564H0.118896ZM1.70529 5.04921H4.214C4.64441 5.04921 5.01642 4.90425 5.33001 4.61433C5.64359 4.32442 5.80039 3.95887 5.80039 3.51769C5.80039 3.07652 5.64359 2.70782 5.33001 2.4116C5.01642 2.11538 4.64441 1.96727 4.214 1.96727H1.70529V5.04921ZM1.70529 9.71938H4.36157C4.82888 9.71938 5.2347 9.56181 5.57903 9.24669C5.92336 8.93156 6.09553 8.5345 6.09553 8.05551C6.09553 7.58912 5.92336 7.19837 5.57903 6.88324C5.2347 6.56812 4.82888 6.41055 4.36157 6.41055H1.70529V9.71938Z" fill="black"/>
</svg>
