<svg width="18" height="19" viewBox="0 0 18 19" fill="none" xmlns="http://www.w3.org/2000/svg">
<g clip-path="url(#clip0_1706_13016)">
<path d="M14.625 3.3125H3.375C3.06434 3.3125 2.8125 3.56434 2.8125 3.875V15.125C2.8125 15.4357 3.06434 15.6875 3.375 15.6875H14.625C14.9357 15.6875 15.1875 15.4357 15.1875 15.125V3.875C15.1875 3.56434 14.9357 3.3125 14.625 3.3125Z" stroke="#333333" stroke-width="1.125" stroke-linecap="round" stroke-linejoin="round"/>
<path d="M12.375 2.1875V4.4375" stroke="#333333" stroke-width="1.125" stroke-linecap="round" stroke-linejoin="round"/>
<path d="M5.625 2.1875V4.4375" stroke="#333333" stroke-width="1.125" stroke-linecap="round" stroke-linejoin="round"/>
<path d="M2.8125 6.6875H15.1875" stroke="#333333" stroke-width="1.125" stroke-linecap="round" stroke-linejoin="round"/>
<path d="M6.1875 9.5L7.3125 8.9375V13.4375" stroke="#333333" stroke-width="1.125" stroke-linecap="round" stroke-linejoin="round"/>
<path d="M9.71297 9.49993C9.78995 9.36739 9.89319 9.25198 10.0164 9.16078C10.1396 9.06958 10.2801 9.00451 10.4293 8.96957C10.5786 8.93462 10.7334 8.93055 10.8842 8.95758C11.0351 8.98461 11.1788 9.04219 11.3067 9.12678C11.4345 9.21136 11.5437 9.32118 11.6275 9.44948C11.7114 9.57778 11.7681 9.72186 11.7943 9.87288C11.8204 10.0239 11.8155 10.1787 11.7797 10.3277C11.7439 10.4767 11.678 10.6169 11.5861 10.7395L9.5625 13.4374H11.8125" stroke="#333333" stroke-width="1.125" stroke-linecap="round" stroke-linejoin="round"/>
</g>
<defs>
<clipPath id="clip0_1706_13016">
<rect width="18" height="18" fill="white" transform="translate(0 0.5)"/>
</clipPath>
</defs>
</svg>
