<svg width="30" height="30" viewBox="0 0 30 30" fill="none" xmlns="http://www.w3.org/2000/svg">
<path d="M22.1777 6.69135H20.06V5.63248C20.06 5.35165 19.9484 5.08232 19.7498 4.88375C19.5513 4.68517 19.2819 4.57361 19.0011 4.57361C18.7203 4.57361 18.4509 4.68517 18.2524 4.88375C18.0538 5.08232 17.9422 5.35165 17.9422 5.63248V6.69135H11.589V5.63248C11.589 5.35165 11.4774 5.08232 11.2789 4.88375C11.0803 4.68517 10.8109 4.57361 10.5301 4.57361C10.2493 4.57361 9.97996 4.68517 9.78138 4.88375C9.5828 5.08232 9.47124 5.35165 9.47124 5.63248V6.69135H7.3535C6.51101 6.69135 5.70302 7.02603 5.10729 7.62176C4.51156 8.2175 4.17688 9.02548 4.17688 9.86797V22.5744C4.17688 23.4169 4.51156 24.2249 5.10729 24.8207C5.70302 25.4164 6.51101 25.7511 7.3535 25.7511H22.1777C23.0202 25.7511 23.8282 25.4164 24.4239 24.8207C25.0197 24.2249 25.3543 23.4169 25.3543 22.5744V9.86797C25.3543 9.02548 25.0197 8.2175 24.4239 7.62176C23.8282 7.02603 23.0202 6.69135 22.1777 6.69135ZM23.2366 22.5744C23.2366 22.8553 23.125 23.1246 22.9265 23.3232C22.7279 23.5218 22.4585 23.6333 22.1777 23.6333H7.3535C7.07267 23.6333 6.80334 23.5218 6.60476 23.3232C6.40619 23.1246 6.29463 22.8553 6.29463 22.5744V15.1623H23.2366V22.5744ZM23.2366 13.0446H6.29463V9.86797C6.29463 9.58714 6.40619 9.31781 6.60476 9.11924C6.80334 8.92066 7.07267 8.8091 7.3535 8.8091H9.47124V9.86797C9.47124 10.1488 9.5828 10.4181 9.78138 10.6167C9.97996 10.8153 10.2493 10.9268 10.5301 10.9268C10.8109 10.9268 11.0803 10.8153 11.2789 10.6167C11.4774 10.4181 11.589 10.1488 11.589 9.86797V8.8091H17.9422V9.86797C17.9422 10.1488 18.0538 10.4181 18.2524 10.6167C18.4509 10.8153 18.7203 10.9268 19.0011 10.9268C19.2819 10.9268 19.5513 10.8153 19.7498 10.6167C19.9484 10.4181 20.06 10.1488 20.06 9.86797V8.8091H22.1777C22.4585 8.8091 22.7279 8.92066 22.9265 9.11924C23.125 9.31781 23.2366 9.58714 23.2366 9.86797V13.0446Z" fill="black"/>
</svg>
