<svg width="29" height="29" viewBox="0 0 29 29" fill="none" xmlns="http://www.w3.org/2000/svg">
<path d="M11.2779 18.4178L21.3393 8.3564C21.5767 8.11896 21.8587 8.00024 22.1852 8.00024C22.5117 8.00024 22.7936 8.11896 23.0311 8.3564C23.2685 8.59384 23.3872 8.8758 23.3872 9.20228C23.3872 9.52875 23.2685 9.81071 23.0311 10.0481L12.1089 20.9703C11.8715 21.2077 11.5944 21.3265 11.2779 21.3265C10.9613 21.3265 10.6843 21.2077 10.4468 20.9703L5.34191 15.8654C5.10447 15.6279 4.9907 15.346 5.00059 15.0195C5.01049 14.693 5.13415 14.4111 5.37159 14.1736C5.60903 13.9362 5.89099 13.8175 6.21746 13.8175C6.54394 13.8175 6.8259 13.9362 7.06334 14.1736L11.2779 18.4178Z" fill="white"/>
</svg>
