<svg width="107" height="108" viewBox="0 0 107 108" fill="none" xmlns="http://www.w3.org/2000/svg">
<circle cx="53.4999" cy="54" r="51.8337" fill="#2AACEA" fill-opacity="0.06" stroke="#2A9DF4" stroke-width="3.01944"/>
<path d="M51.6013 60.3628L68.0569 43.9072C68.4452 43.5189 68.9064 43.3247 69.4403 43.3247C69.9743 43.3247 70.4354 43.5189 70.8238 43.9072C71.2121 44.2955 71.4063 44.7567 71.4063 45.2906C71.4063 45.8246 71.2121 46.2857 70.8238 46.6741L52.9604 64.5374C52.5721 64.9258 52.1191 65.1199 51.6013 65.1199C51.0835 65.1199 50.6304 64.9258 50.2421 64.5374L41.8929 56.1883C41.5046 55.7999 41.3185 55.3388 41.3347 54.8048C41.3509 54.2709 41.5531 53.8097 41.9415 53.4214C42.3298 53.033 42.791 52.8389 43.3249 52.8389C43.8589 52.8389 44.32 53.033 44.7084 53.4214L51.6013 60.3628Z" fill="#2A9DF4"/>
</svg>
