<svg width="21" height="20" viewBox="0 0 21 20" fill="none" xmlns="http://www.w3.org/2000/svg">
<g clip-path="url(#clip0_2054_5784)">
<path d="M13.0558 2.22213H12.4724C12.3207 1.80553 12.0444 1.44569 11.6812 1.19143C11.3179 0.937162 10.8853 0.800781 10.4419 0.800781C9.99849 0.800781 9.56583 0.937162 9.20259 1.19143C8.83935 1.44569 8.5631 1.80553 8.41133 2.22213H7.94466C7.59149 2.22359 7.2532 2.36454 7.00347 2.61427C6.75374 2.864 6.61279 3.20229 6.61133 3.55547V5.55547H14.3891V3.55547C14.3876 3.20229 14.2467 2.864 13.997 2.61427C13.7472 2.36454 13.4089 2.22359 13.0558 2.22213ZM13.278 4.44435H7.72244V3.47213C7.72244 3.4353 7.73707 3.39997 7.76312 3.37392C7.78917 3.34788 7.82449 3.33324 7.86133 3.33324H9.35577L9.42244 2.71658C9.43426 2.61687 9.46774 2.52096 9.52052 2.43555C9.5733 2.35014 9.64411 2.2773 9.728 2.22213C9.8771 2.11098 10.0517 2.03903 10.2358 2.01288C10.42 1.98673 10.6077 2.00721 10.7819 2.07245C10.956 2.13769 11.111 2.2456 11.2326 2.38628C11.3542 2.52697 11.4386 2.69593 11.478 2.87769L11.528 3.34435H13.1391C13.1759 3.34435 13.2113 3.35899 13.2373 3.38503C13.2634 3.41108 13.278 3.44641 13.278 3.48324V4.44435Z" fill="white"/>
<path d="M18.9722 10.0333H12.3499L13.9277 8.46106C13.9795 8.40926 14.0206 8.34777 14.0486 8.28009C14.0767 8.21241 14.0911 8.13987 14.0911 8.06662C14.0911 7.99336 14.0767 7.92082 14.0486 7.85315C14.0206 7.78547 13.9795 7.72397 13.9277 7.67217C13.8759 7.62037 13.8144 7.57928 13.7468 7.55125C13.6791 7.52322 13.6065 7.50879 13.5333 7.50879C13.46 7.50879 13.3875 7.52322 13.3198 7.55125C13.2521 7.57928 13.1906 7.62037 13.1388 7.67217L10.2222 10.5888L13.1388 13.5055C13.1907 13.557 13.2523 13.5977 13.32 13.6254C13.3877 13.653 13.4602 13.667 13.5333 13.6666C13.6425 13.6662 13.7491 13.6335 13.8399 13.5728C13.9307 13.5121 14.0015 13.4259 14.0436 13.3252C14.0857 13.2244 14.0972 13.1135 14.0766 13.0062C14.0559 12.899 14.0042 12.8002 13.9277 12.7222L12.3499 11.1444H18.9722C19.1195 11.1444 19.2608 11.0859 19.365 10.9817C19.4692 10.8775 19.5277 10.7362 19.5277 10.5888C19.5277 10.4415 19.4692 10.3002 19.365 10.196C19.2608 10.0918 19.1195 10.0333 18.9722 10.0333Z" fill="white"/>
<path d="M16.6111 8.88894H17.7222V3.71117C17.7237 3.58959 17.7011 3.46893 17.6558 3.35612C17.6104 3.2433 17.5432 3.14057 17.458 3.05383C17.3728 2.96709 17.2713 2.89805 17.1593 2.85068C17.0474 2.80331 16.9271 2.77856 16.8055 2.77783H15.5444V3.88894H16.6111V8.88894Z" fill="white"/>
<path d="M16.6112 17.2223H4.38901V3.88894H5.50012V2.77783H4.18901C3.94539 2.78076 3.71282 2.87998 3.54211 3.05381C3.3714 3.22765 3.27641 3.46197 3.2779 3.70561V17.4001C3.27643 17.5216 3.29902 17.6423 3.34436 17.7551C3.3897 17.8679 3.4569 17.9706 3.5421 18.0574C3.62729 18.1441 3.7288 18.2132 3.84077 18.2605C3.95275 18.3079 4.07299 18.3327 4.19457 18.3334H16.8112C17.0549 18.3305 17.2874 18.2312 17.4581 18.0574C17.6288 17.8836 17.7238 17.6492 17.7223 17.4056V12.2556H16.6112V17.2223Z" fill="white"/>
</g>
<defs>
<clipPath id="clip0_2054_5784">
<rect width="20" height="20" fill="white" transform="translate(0.5)"/>
</clipPath>
</defs>
</svg>
