<svg width="152" height="114" viewBox="0 0 152 114" fill="none" xmlns="http://www.w3.org/2000/svg">
<g clip-path="url(#clip0_1059_1424)">
<path d="M136.285 104.501H126.297V104.577H136.285V104.501Z" fill="#EBEBEB"/>
<path d="M100.494 105.322H97.8735V105.397H100.494V105.322Z" fill="#EBEBEB"/>
<path d="M125.996 101.703H120.208V101.778H125.996V101.703Z" fill="#EBEBEB"/>
<path d="M29.4518 102.209H16.4268V102.285H29.4518V102.209Z" fill="#EBEBEB"/>
<path d="M34.0479 102.209H32.1389V102.285H34.0479V102.209Z" fill="#EBEBEB"/>
<path d="M68.5058 103.482H40.2542V103.557H68.5058V103.482Z" fill="#EBEBEB"/>
<path d="M72.0827 86.1986H13.8482C12.8983 86.1986 12.1262 85.4266 12.1262 84.4766V2.61971C12.1262 1.66974 12.8983 0.897705 13.8482 0.897705H72.0827C73.0326 0.897705 73.8047 1.66974 73.8047 2.61971V84.4766C73.8047 85.4266 73.0326 86.1986 72.0827 86.1986ZM13.8482 0.973099C12.9405 0.973099 12.2016 1.71196 12.2016 2.61971V84.4766C12.2016 85.3844 12.9405 86.1232 13.8482 86.1232H72.0827C72.9904 86.1232 73.7293 85.3844 73.7293 84.4766V2.61971C73.7293 1.71196 72.9904 0.973099 72.0827 0.973099H13.8482Z" fill="#EBEBEB"/>
<path d="M137.314 86.1986H79.0792C78.1292 86.1986 77.3572 85.4266 77.3572 84.4766V2.61971C77.3572 1.66974 78.1292 0.897705 79.0792 0.897705H137.314C138.264 0.897705 139.036 1.66974 139.036 2.61971V84.4766C139.036 85.4266 138.264 86.1986 137.314 86.1986ZM79.0792 0.973099C78.1714 0.973099 77.4326 1.71196 77.4326 2.61971V84.4766C77.4326 85.3844 78.1714 86.1232 79.0792 86.1232H137.314C138.221 86.1232 138.96 85.3844 138.96 84.4766V2.61971C138.96 1.71196 138.221 0.973099 137.314 0.973099H79.0792Z" fill="#EBEBEB"/>
<path d="M151.394 99.6489H0.605957V99.7243H151.394V99.6489Z" fill="#EBEBEB"/>
<path d="M116.981 81.491C116.948 81.4639 116.93 81.4216 116.927 81.3764C116.891 80.5742 116.408 72.7031 111.589 67.3109C107.512 62.748 111.695 66.0051 113.51 67.4707C113.655 67.5883 113.857 67.4164 113.76 67.2566C112.482 65.0943 109.27 59.3764 110.383 58.2636C111.435 57.2111 113.607 62.4314 114.578 64.9646C114.647 65.1486 114.921 65.0822 114.9 64.8862C114.62 62.2052 114.213 56.6019 115.724 56.7979C117.219 56.9939 116.8 64.3976 116.505 68.0226C116.49 68.2247 116.773 68.2789 116.833 68.0859C117.509 65.8573 118.791 62.561 120.299 63.4326C122.53 64.7264 117.014 69.2621 117.358 74.1898C117.696 79.0181 117.786 82.1846 116.978 81.488L116.981 81.491Z" fill="#F5F5F5"/>
<path d="M119.876 82.2178C119.894 82.2178 119.916 82.1424 119.906 82.0881C118.854 75.4172 125.917 70.5679 130.878 68.1673C131.982 67.6336 133.128 67.0817 134.072 66.2614C132.232 66.385 130.398 67.154 128.637 67.7451C128.405 67.8235 128.284 67.5823 128.483 67.4436C130.733 65.8814 136.997 60.1333 135.193 58.4596C134.376 57.7026 129.88 63.701 128.821 64.7776C128.649 64.9495 128.378 64.7957 128.498 64.5967C129.895 62.2595 130.356 54.8889 128.942 54.9794C128.342 55.0186 128.115 58.4717 127.802 59.877C127.214 62.5098 126.107 64.9797 124.955 67.4013C124.852 67.6155 124.496 67.5793 124.551 67.3651C124.952 65.7547 125.1 61.029 123.118 61.3698C121.68 61.6171 121.912 64.3976 121.897 65.8904C121.873 68.5353 121.653 71.2495 120.513 73.6048C119.738 75.2092 118.77 82.3535 119.882 82.2208L119.876 82.2178Z" fill="#F5F5F5"/>
<path d="M118.278 82.9597C118.299 82.9416 118.311 82.9115 118.314 82.8843C118.338 82.3445 118.664 77.0639 121.897 73.445C124.635 70.384 121.828 72.5674 120.609 73.5535C120.513 73.6319 120.377 73.5173 120.44 73.4088C121.3 71.9582 123.453 68.1191 122.708 67.3742C122.002 66.6685 120.543 70.1729 119.891 71.8738C119.843 71.9974 119.659 71.9522 119.674 71.8225C119.861 70.0221 120.136 66.2614 119.122 66.3941C118.118 66.5238 118.399 71.4968 118.598 73.9305C118.61 74.0662 118.417 74.1024 118.378 73.9727C117.925 72.4769 117.063 70.2633 116.052 70.8484C114.554 71.7169 118.257 74.7629 118.025 78.0681C117.798 81.3101 117.738 83.4362 118.281 82.9688L118.278 82.9597Z" fill="#E6E6E6"/>
<path d="M121.924 97.8123C123.589 91.5998 124.687 82.8511 124.687 80.6948H112.259C112.259 82.8511 113.356 91.5998 115.021 97.8123C115.329 98.9553 116.366 99.7454 117.548 99.7454H119.397C120.579 99.7454 121.616 98.9553 121.924 97.8123Z" fill="#E6E6E6"/>
<path d="M124.328 84.8083C124.421 84.0544 124.496 83.3638 124.554 82.7606H112.391C112.448 83.3638 112.524 84.0544 112.617 84.8083H124.328Z" fill="#F5F5F5"/>
<path d="M18.7638 56.2792H33.1641V41.879H18.7638V56.2792Z" fill="#F5F5F5"/>
<path d="M21.5379 54.8889H30.3862C31.1523 54.8889 31.7734 54.2678 31.7734 53.5017V44.6534C31.7734 43.8872 31.1523 43.2662 30.3862 43.2662H21.5379C20.7718 43.2662 20.1507 43.8872 20.1507 44.6534V53.5017C20.1507 54.2678 20.7718 54.8889 21.5379 54.8889Z" fill="#EBEBEB"/>
<path d="M28.3598 43.2692C28.2754 43.6643 27.9226 43.9629 27.5034 43.9629H24.4182C23.9991 43.9629 23.6462 43.6643 23.5618 43.2692H28.3568H28.3598Z" fill="#E0E0E0"/>
<path d="M18.7638 70.6826H33.1641V56.2823H18.7638V70.6826Z" fill="#F0F0F0"/>
<path d="M21.5379 69.2923H30.3862C31.1523 69.2923 31.7734 68.6712 31.7734 67.905V59.0568C31.7734 58.2906 31.1523 57.6695 30.3862 57.6695H21.5379C20.7718 57.6695 20.1507 58.2906 20.1507 59.0568V67.905C20.1507 68.6712 20.7718 69.2923 21.5379 69.2923Z" fill="#FAFAFA"/>
<path d="M28.3598 57.6696C28.2754 58.0646 27.9226 58.3632 27.5034 58.3632H24.4182C23.9991 58.3632 23.6462 58.0646 23.5618 57.6696H28.3568H28.3598Z" fill="#E0E0E0"/>
<path d="M18.7638 85.0829H33.1641V70.6826H18.7638V85.0829Z" fill="#F5F5F5"/>
<path d="M21.5379 83.6926H30.3862C31.1523 83.6926 31.7734 83.0715 31.7734 82.3053V73.4571C31.7734 72.6909 31.1523 72.0698 30.3862 72.0698H21.5379C20.7718 72.0698 20.1507 72.6909 20.1507 73.4571V82.3053C20.1507 83.0715 20.7718 83.6926 21.5379 83.6926Z" fill="#EBEBEB"/>
<path d="M28.3598 72.0728C28.2754 72.4678 27.9226 72.7664 27.5034 72.7664H24.4182C23.9991 72.7664 23.6462 72.4678 23.5618 72.0728H28.3568H28.3598Z" fill="#E0E0E0"/>
<path d="M18.7638 99.4861H33.1641V85.0858H18.7638V99.4861Z" fill="#F0F0F0"/>
<path d="M21.5379 98.0958H30.3862C31.1523 98.0958 31.7734 97.4747 31.7734 96.7086V87.8603C31.7734 87.0942 31.1523 86.4731 30.3862 86.4731H21.5379C20.7718 86.4731 20.1507 87.0942 20.1507 87.8603V96.7086C20.1507 97.4747 20.7718 98.0958 21.5379 98.0958Z" fill="#FAFAFA"/>
<path d="M28.3598 86.473C28.2754 86.8681 27.9226 87.1666 27.5034 87.1666H24.4182C23.9991 87.1666 23.6462 86.8681 23.5618 86.473H28.3568H28.3598Z" fill="#E0E0E0"/>
<path d="M16.9994 99.4861H18.7637L18.7637 41.8789H16.9994L16.9994 99.4861Z" fill="#E6E6E6"/>
<path d="M132.904 11.9987H118.89V26.013H132.904V11.9987Z" fill="#F0F0F0"/>
<path d="M132.901 26.0101H133.565V11.9958H132.901V26.0101Z" fill="#E6E6E6"/>
<path d="M131.635 13.2655H120.157V24.7435H131.635V13.2655Z" fill="#E6E6E6"/>
<path d="M130.507 14.3933H121.284V23.6155H130.507V14.3933Z" fill="#FAFAFA"/>
<path d="M133.142 28.2508H124.192V43.1004H133.142V28.2508Z" fill="#F0F0F0"/>
<path d="M133.146 43.1004H133.568V28.2508H133.146V43.1004Z" fill="#E6E6E6"/>
<path d="M132.331 29.5928H125V41.7554H132.331V29.5928Z" fill="#E6E6E6"/>
<path d="M131.61 30.79H125.721V40.5611H131.61V30.79Z" fill="#FAFAFA"/>
<path d="M108.968 19.9032C112.439 19.9032 115.253 18.0318 115.253 15.7233C115.253 13.4148 112.439 11.5435 108.968 11.5435C105.497 11.5435 102.683 13.4148 102.683 15.7233C102.683 18.0318 105.497 19.9032 108.968 19.9032Z" fill="#E0E0E0"/>
<path d="M109.396 19.9032C112.867 19.9032 115.681 18.0318 115.681 15.7234C115.681 13.4149 112.867 11.5435 109.396 11.5435C105.925 11.5435 103.112 13.4149 103.112 15.7234C103.112 18.0318 105.925 19.9032 109.396 19.9032Z" fill="#EBEBEB"/>
<path d="M109.396 18.9894C112.11 18.9894 114.309 17.5272 114.309 15.7233C114.309 13.9195 112.11 12.4573 109.396 12.4573C106.683 12.4573 104.484 13.9195 104.484 15.7233C104.484 17.5272 106.683 18.9894 109.396 18.9894Z" fill="#FAFAFA"/>
<path d="M75.9998 113.102C108.293 113.102 134.472 111.574 134.472 109.688C134.472 107.803 108.293 106.275 75.9998 106.275C43.7062 106.275 17.5271 107.803 17.5271 109.688C17.5271 111.574 43.7062 113.102 75.9998 113.102Z" fill="#F5F5F5"/>
<path d="M54.7508 108.165V109.173C54.7508 109.694 55.173 110.12 55.6978 110.12H91.8628C92.3454 110.12 92.7344 109.731 92.7344 109.248V108.277C92.7344 107.794 92.3454 107.405 91.8628 107.405H82.8698C81.8475 107.405 81.0724 106.486 81.2473 105.478L84.4018 87.2511H63.8584L55.0614 106.715C54.8564 107.17 54.7478 107.665 54.7478 108.165H54.7508Z" fill="#2A9DF4"/>
<path opacity="0.2" d="M54.8413 107.372C54.781 107.632 54.7478 107.897 54.7478 108.165V109.173C54.7478 109.694 55.173 110.12 55.6948 110.12H91.8628C92.3454 110.12 92.7344 109.731 92.7344 109.248V108.277C92.7344 107.795 92.3454 107.406 91.8628 107.406H82.8668C82.7492 107.406 82.6376 107.393 82.529 107.369H54.8383L54.8413 107.372Z" fill="white"/>
<path d="M53.9003 106.715L62.6973 87.2511H63.8614L55.0644 106.715C54.8593 107.17 54.7508 107.665 54.7508 108.165V109.173C54.7508 109.694 55.173 110.12 55.6977 110.12H54.5336C54.0119 110.12 53.5867 109.697 53.5867 109.173V108.165C53.5867 107.665 53.6922 107.17 53.9003 106.715Z" fill="#2A9DF4"/>
<g opacity="0.2">
<path d="M53.9003 106.715L62.6973 87.2511H63.8614L55.0644 106.715C54.8593 107.17 54.7508 107.665 54.7508 108.165V109.173C54.7508 109.694 55.173 110.12 55.6977 110.12H54.5336C54.0119 110.12 53.5867 109.697 53.5867 109.173V108.165C53.5867 107.665 53.6922 107.17 53.9003 106.715Z" fill="black"/>
</g>
<path opacity="0.2" d="M63.8586 87.254H84.399L83.5937 91.9043H61.7566L63.8586 87.254Z" fill="black"/>
<path d="M32.3891 89.2958H120.033C121.804 89.2958 123.112 87.8603 122.959 86.0931L117.419 22.759C117.265 20.9888 115.703 19.5563 113.935 19.5563H26.2852C24.515 19.5563 23.2061 20.9918 23.3599 22.759L28.8999 86.0931C29.0537 87.8634 30.6159 89.2958 32.3831 89.2958H32.3891Z" fill="#263238"/>
<path d="M122.359 79.2443L122.959 86.0931C123.113 87.8633 121.804 89.2958 120.033 89.2958H32.3893C30.619 89.2958 29.0598 87.8603 28.906 86.0931L28.3059 79.2443H122.359Z" fill="#2A9DF4"/>
<path d="M31.397 77.3081H118.927C119.886 77.3081 120.597 76.5301 120.513 75.571L115.932 23.2264C115.847 22.2674 115.003 21.4893 114.041 21.4893H26.5145C25.5555 21.4893 24.8437 22.2674 24.9282 23.2264L29.5091 75.571C29.5936 76.5301 30.438 77.3081 31.397 77.3081Z" fill="#2A9DF4"/>
<path d="M31.397 77.3081H118.927C119.886 77.3081 120.597 76.5301 120.513 75.571L115.932 23.2264C115.847 22.2674 115.003 21.4893 114.041 21.4893H26.5145C25.5555 21.4893 24.8437 22.2674 24.9282 23.2264L29.5091 75.571C29.5936 76.5301 30.438 77.3081 31.397 77.3081Z" fill="#2A9DF4"/>
<path d="M24.349 19.5563H26.2881C24.5178 19.5563 23.209 20.9918 23.3628 22.759L28.9028 86.0931C29.0566 87.8634 30.6187 89.2958 32.386 89.2958H30.4468C28.6766 89.2958 27.1174 87.8603 26.9636 86.0931L21.4237 22.759C21.2699 20.9888 22.5787 19.5563 24.349 19.5563Z" fill="#2A9DF4"/>
<path opacity="0.2" d="M24.349 19.5563H26.2881C24.5178 19.5563 23.209 20.9918 23.3628 22.759L28.9028 86.0931C29.0566 87.8634 30.6187 89.2958 32.386 89.2958H30.4468C28.6766 89.2958 27.1174 87.8603 26.9636 86.0931L21.4237 22.759C21.2699 20.9888 22.5787 19.5563 24.349 19.5563Z" fill="#2A9DF4"/>
<g opacity="0.3">
<path d="M27.6904 21.4893H31.056L42.92 77.3081H39.5544L27.6904 21.4893Z" fill="white"/>
<path d="M46.3215 77.3081L34.4575 21.4893H47.1056L58.9727 77.3081H46.3215Z" fill="white"/>
</g>
<path opacity="0.6" d="M122.358 79.2443L122.958 86.0931C123.112 87.8633 121.803 89.2958 120.033 89.2958H32.389C30.6188 89.2958 29.0596 87.8603 28.9058 86.0931L28.3057 79.2443H122.358Z" fill="white"/>
<path opacity="0.2" d="M24.349 19.6165H26.2881C24.5178 19.6165 23.209 21.052 23.3628 22.8193L28.9028 86.1533C29.0566 87.9236 30.6187 89.3561 32.386 89.3561H30.4468C28.6766 89.3561 27.1174 87.9206 26.9636 86.1533L21.4237 22.8193C21.2699 21.049 22.5787 19.6165 24.349 19.6165Z" fill="white"/>
<path d="M96.3956 4.38995H52.1182V77.3896H96.3956V4.38995Z" fill="#2A9DF4"/>
<g opacity="0.9">
<path d="M96.3956 4.38995H52.1182V77.3896H96.3956V4.38995Z" fill="white"/>
</g>
<path d="M74.3774 36.7611H74.0789V75.1307H74.3774V36.7611Z" fill="#2A9DF4"/>
<path d="M94.0767 55.8297H80.4937V56.5445H94.0767V55.8297Z" fill="#263238"/>
<path d="M94.0767 57.6392H80.4937V58.354H94.0767V57.6392Z" fill="#263238"/>
<path d="M94.0767 59.4517H80.4937V60.1665H94.0767V59.4517Z" fill="#263238"/>
<path d="M94.0767 61.2611H80.4937V61.9758H94.0767V61.2611Z" fill="#263238"/>
<path d="M86.4015 52.2139H80.4937V52.9286H86.4015V52.2139Z" fill="#2A9DF4"/>
<path d="M87.2852 55.8297H80.4937V56.5445H87.2852V55.8297Z" fill="#2A9DF4"/>
<path d="M85.1048 57.6392H80.4937V58.354H85.1048V57.6392Z" fill="#2A9DF4"/>
<path d="M91.3293 59.4517H80.4937V60.1665H91.3293V59.4517Z" fill="#2A9DF4"/>
<path d="M88.7267 61.2611H80.4937V61.9758H88.7267V61.2611Z" fill="#2A9DF4"/>
<path d="M79.3417 56.0077H76.4707V56.3635H79.3417V56.0077Z" fill="#263238"/>
<path d="M79.3417 57.8202H76.4707V58.176H79.3417V57.8202Z" fill="#263238"/>
<path d="M79.3417 59.6296H76.4707V59.9854H79.3417V59.6296Z" fill="#263238"/>
<path d="M79.3417 61.4421H76.4707V61.7979H79.3417V61.4421Z" fill="#263238"/>
<path d="M76.2834 52.7265L76.5488 52.7687C76.582 52.9014 76.6332 53.0281 76.7056 53.1457L76.5518 53.3598C76.5247 53.399 76.5277 53.4533 76.5639 53.4895L76.8474 53.773C76.8805 53.8061 76.9378 53.8122 76.977 53.785L77.1912 53.6312C77.3088 53.7006 77.4354 53.7549 77.5681 53.788L77.6104 54.0534C77.6194 54.1017 77.6586 54.1379 77.7099 54.1379H78.111C78.1592 54.1379 78.2014 54.1017 78.2105 54.0534L78.2527 53.788C78.3854 53.7549 78.5121 53.7036 78.6297 53.6312L78.8438 53.785C78.883 53.8122 78.9373 53.8091 78.9735 53.773L79.257 53.4895C79.2901 53.4563 79.2962 53.399 79.269 53.3598L79.1152 53.1457C79.1846 53.0281 79.2389 52.9014 79.272 52.7687L79.5374 52.7265C79.5857 52.7174 79.6219 52.6782 79.6219 52.627V52.2259C79.6219 52.1776 79.5857 52.1354 79.5374 52.1263L79.272 52.0841C79.2389 51.9514 79.1876 51.8248 79.1152 51.7072L79.269 51.493C79.2962 51.4538 79.2931 51.3995 79.257 51.3634L78.9735 51.0799C78.9373 51.0467 78.883 51.0407 78.8438 51.0678L78.6297 51.2216C78.5121 51.1522 78.3854 51.098 78.2527 51.0648L78.2105 50.7994C78.2014 50.7512 78.1622 50.715 78.111 50.715H77.7099C77.6616 50.715 77.6194 50.7512 77.6104 50.7994L77.5681 51.0648C77.4354 51.098 77.3088 51.1492 77.1912 51.2216L76.977 51.0678C76.9378 51.0407 76.8836 51.0437 76.8474 51.0799L76.5639 51.3634C76.5307 51.3965 76.5247 51.4538 76.5518 51.493L76.7056 51.7072C76.6363 51.8248 76.582 51.9514 76.5488 52.0841L76.2834 52.1263C76.2352 52.1354 76.199 52.1746 76.199 52.2259V52.627C76.199 52.6752 76.2352 52.7174 76.2834 52.7265ZM77.9059 51.3272C78.5121 51.3272 79.0067 51.8217 79.0067 52.4279C79.0067 53.0341 78.5121 53.5287 77.9059 53.5287C77.2997 53.5287 76.8051 53.0341 76.8051 52.4279C76.8051 51.8217 77.2997 51.3272 77.9059 51.3272Z" fill="#2A9DF4"/>
<path d="M77.9058 68.2759C78.2656 68.2759 78.5572 67.9491 78.5572 67.546C78.5572 67.143 78.2656 66.8162 77.9058 66.8162C77.546 66.8162 77.2544 67.143 77.2544 67.546C77.2544 67.9491 77.546 68.2759 77.9058 68.2759Z" fill="#2A9DF4"/>
<path d="M76.9166 69.9978V69.4007C76.9166 68.9936 77.2182 68.6498 77.6313 68.5352L77.9269 68.6649L78.1862 68.5261C78.3611 68.5653 78.518 68.6498 78.6416 68.7583C78.8256 68.9212 78.9372 69.1474 78.9372 69.3977V69.9948H76.9136L76.9166 69.9978Z" fill="#2A9DF4"/>
<path d="M58.0046 55.9413H54.2258V57.3165H58.0046V55.9413Z" fill="#2A9DF4"/>
<path d="M58.0046 57.5338H54.2258V58.6707H58.0046V57.5338Z" fill="#2A9DF4"/>
<path d="M56.9733 56.2943H56.735V55.872C56.735 55.7454 56.6325 55.6428 56.5058 55.6428H55.7851C55.6584 55.6428 55.5559 55.7454 55.5559 55.872V56.2943H55.3176V55.872C55.3176 55.6157 55.5257 55.4046 55.7851 55.4046H56.5058C56.7622 55.4046 56.9733 55.6127 56.9733 55.872V56.2943Z" fill="#2A9DF4"/>
<path d="M79.7936 36.7974H76.0149V38.1726H79.7936V36.7974Z" fill="#2A9DF4"/>
<path d="M79.7936 38.4349H76.0149V39.5236H79.7936V38.4349Z" fill="#2A9DF4"/>
<path d="M78.7623 37.1472H78.5241V36.725C78.5241 36.5983 78.4216 36.4958 78.2949 36.4958H77.5741C77.4475 36.4958 77.3449 36.5983 77.3449 36.725V37.1472H77.1067V36.725C77.1067 36.4686 77.3148 36.2575 77.5741 36.2575H78.2949C78.5512 36.2575 78.7623 36.4656 78.7623 36.725V37.1472Z" fill="#2A9DF4"/>
<path d="M58.0201 37.8589L57.3717 38.257L56.3011 38.9144C56.2167 38.9687 56.0719 38.9687 55.9875 38.9144L54.9169 38.257L54.2685 37.8589C54.181 37.8076 54.181 37.7172 54.2685 37.6659L55.9875 36.8064C56.0719 36.7551 56.2167 36.7551 56.3011 36.8064L58.0201 37.6659C58.1075 37.7172 58.1075 37.8076 58.0201 37.8589Z" fill="#2A9DF4"/>
<path d="M57.3717 38.5193V40.1237C56.5665 40.3439 55.719 40.3439 54.9138 40.1237V38.5193L55.9844 39.1768C56.0689 39.2311 56.2136 39.2311 56.2981 39.1768L57.3687 38.5193H57.3717Z" fill="#2A9DF4"/>
<path d="M57.9177 37.8137H57.8V39.8343H57.9177V37.8137Z" fill="#2A9DF4"/>
<path d="M57.6582 39.6985C57.6582 39.8161 57.7517 39.9096 57.8693 39.9096C57.9869 39.9096 58.0804 39.8161 58.0804 39.6985C58.0804 39.5809 57.9869 39.4874 57.8693 39.4874C57.7517 39.4874 57.6582 39.5809 57.6582 39.6985Z" fill="#2A9DF4"/>
<path d="M86.4013 68.9032H80.4934V69.6179H86.4013V68.9032Z" fill="#2A9DF4"/>
<path d="M86.4013 38.3776H80.4934V39.0923H86.4013V38.3776Z" fill="#2A9DF4"/>
<path d="M94.0735 71.3942H77.0525V71.75H94.0735V71.3942Z" fill="#263238"/>
<path d="M94.0735 72.9713H77.0525V73.3272H94.0735V72.9713Z" fill="#263238"/>
<path d="M80.4935 74.5486H77.0525V74.9044H80.4935V74.5486Z" fill="#263238"/>
<path d="M70.4419 43.3385H59.0393V43.6944H70.4419V43.3385Z" fill="#263238"/>
<path d="M65.1945 44.9156H59.0393V45.2715H65.1945V44.9156Z" fill="#263238"/>
<path d="M70.4419 48.8423H59.0393V49.1981H70.4419V48.8423Z" fill="#263238"/>
<path d="M65.1945 50.4166H59.0393V50.7724H65.1945V50.4166Z" fill="#263238"/>
<path d="M70.4419 62.7842H59.0393V63.14H70.4419V62.7842Z" fill="#263238"/>
<path d="M65.1945 64.3615H59.0393V64.7173H65.1945V64.3615Z" fill="#263238"/>
<path d="M70.4419 68.2939H59.0393V68.6498H70.4419V68.2939Z" fill="#263238"/>
<path d="M65.1945 69.8711H59.0393V70.227H65.1945V69.8711Z" fill="#263238"/>
<path d="M93.1172 41.1129H76.0962V41.4687H93.1172V41.1129Z" fill="#263238"/>
<path d="M93.1172 42.6901H76.0962V43.046H93.1172V42.6901Z" fill="#263238"/>
<path d="M79.5372 44.2673H76.0962V44.6232H79.5372V44.2673Z" fill="#263238"/>
<path d="M64.9804 38.3776H59.0725V39.0923H64.9804V38.3776Z" fill="#2A9DF4"/>
<path d="M71.4158 41.2214H59.0723V42.1262H71.4158V41.2214Z" fill="#263238"/>
<path d="M56.1439 41.9754C56.3688 41.9754 56.5511 41.7931 56.5511 41.5683C56.5511 41.3434 56.3688 41.1611 56.1439 41.1611C55.9191 41.1611 55.7368 41.3434 55.7368 41.5683C55.7368 41.7931 55.9191 41.9754 56.1439 41.9754Z" fill="#263238"/>
<path d="M71.4158 46.7222H59.0723V47.627H71.4158V46.7222Z" fill="#263238"/>
<path d="M56.1439 47.4762C56.3688 47.4762 56.5511 47.294 56.5511 47.0691C56.5511 46.8443 56.3688 46.662 56.1439 46.662C55.9191 46.662 55.7368 46.8443 55.7368 47.0691C55.7368 47.294 55.9191 47.4762 56.1439 47.4762Z" fill="#263238"/>
<path d="M71.4158 52.223H59.0723V53.1278H71.4158V52.223Z" fill="#263238"/>
<path d="M56.1439 52.9769C56.3688 52.9769 56.5511 52.7946 56.5511 52.5697C56.5511 52.3449 56.3688 52.1626 56.1439 52.1626C55.9191 52.1626 55.7368 52.3449 55.7368 52.5697C55.7368 52.7946 55.9191 52.9769 56.1439 52.9769Z" fill="#263238"/>
<path d="M64.9804 57.8111H59.0725V58.5258H64.9804V57.8111Z" fill="#2A9DF4"/>
<path d="M71.4158 60.6521H59.0723V61.5568H71.4158V60.6521Z" fill="#263238"/>
<path d="M56.1439 61.4089C56.3688 61.4089 56.5511 61.2266 56.5511 61.0018C56.5511 60.7769 56.3688 60.5947 56.1439 60.5947C55.9191 60.5947 55.7368 60.7769 55.7368 61.0018C55.7368 61.2266 55.9191 61.4089 56.1439 61.4089Z" fill="#263238"/>
<path d="M71.4158 66.1528H59.0723V67.0575H71.4158V66.1528Z" fill="#263238"/>
<path d="M56.1439 66.9097C56.3688 66.9097 56.5511 66.7274 56.5511 66.5026C56.5511 66.2777 56.3688 66.0955 56.1439 66.0955C55.9191 66.0955 55.7368 66.2777 55.7368 66.5026C55.7368 66.7274 55.9191 66.9097 56.1439 66.9097Z" fill="#263238"/>
<path d="M71.4158 71.6535H59.0723V72.5582H71.4158V71.6535Z" fill="#263238"/>
<path d="M56.1439 72.4105C56.3688 72.4105 56.5511 72.2282 56.5511 72.0034C56.5511 71.7785 56.3688 71.5963 56.1439 71.5963C55.9191 71.5963 55.7368 71.7785 55.7368 72.0034C55.7368 72.2282 55.9191 72.4105 56.1439 72.4105Z" fill="#263238"/>
<path d="M96.3956 7.85797H52.1182V34.3424H96.3956V7.85797Z" fill="#2A9DF4"/>
<g opacity="0.8">
<path d="M96.3956 7.85797H52.1182V34.3424H96.3956V7.85797Z" fill="white"/>
</g>
<path d="M59.4343 28.3984C59.4343 29.3997 58.6231 30.2079 57.6249 30.2079C56.6267 30.2079 55.8154 29.3967 55.8154 28.3984C55.8154 27.4002 56.6267 26.589 57.6249 26.589C58.6231 26.589 59.4343 27.4002 59.4343 28.3984Z" fill="white"/>
<path d="M64.2625 28.3984C64.2625 29.3996 63.4512 30.2078 62.453 30.2078C61.4548 30.2078 60.6436 29.3966 60.6436 28.3984C60.6436 27.4002 61.4548 26.5889 62.453 26.5889C63.4512 26.5889 64.2625 27.4002 64.2625 28.3984Z" fill="white"/>
<path d="M68.8887 28.3984C68.8887 29.3996 68.0775 30.2078 67.0792 30.2078C66.081 30.2078 65.2698 29.3966 65.2698 28.3984C65.2698 27.4002 66.081 26.5889 67.0792 26.5889C68.0775 26.5889 68.8887 27.4002 68.8887 28.3984Z" fill="white"/>
<path d="M73.4155 28.3984C73.4155 29.3996 72.6043 30.2078 71.6061 30.2078C70.6079 30.2078 69.7966 29.3966 69.7966 28.3984C69.7966 27.4002 70.6079 26.5889 71.6061 26.5889C72.6043 26.5889 73.4155 27.4002 73.4155 28.3984Z" fill="white"/>
<path d="M58.0832 28.0334H57.1453V28.4013H58.0832V28.0334Z" fill="#263238"/>
<path d="M57.7244 29.4689H57.3564V27.8917C57.3564 27.5962 57.5977 27.3579 57.8902 27.3579H58.0652V27.7258H57.8902C57.7998 27.7258 57.7244 27.8012 57.7244 27.8917V29.4689Z" fill="#263238"/>
<path d="M66.6692 27.8315H66.3013V29.0287H66.6692V27.8315Z" fill="#263238"/>
<path d="M67.2393 27.8586H66.8713V29.0288H67.2393V27.8586Z" fill="#263238"/>
<path d="M67.6823 29.0287C67.6823 29.0287 67.6823 29.0136 67.6823 28.9955C67.7185 28.4858 67.628 28.32 67.6008 28.3019C67.3837 28.2898 67.2389 28.4134 67.1877 28.4707L66.9163 28.2204C67.0037 28.1269 67.251 27.9068 67.628 27.937C67.9537 27.9611 68.0954 28.326 68.0472 29.0226L67.6762 29.0287H67.6823Z" fill="#263238"/>
<path d="M66.5696 27.361H66.3917C66.3384 27.361 66.2952 27.4042 66.2952 27.4575V27.6384C66.2952 27.6917 66.3384 27.7349 66.3917 27.7349H66.5696C66.6229 27.7349 66.6661 27.6917 66.6661 27.6384V27.4575C66.6661 27.4042 66.6229 27.361 66.5696 27.361Z" fill="#263238"/>
<path d="M62.4801 28.9081C62.1906 28.9081 61.9553 28.6729 61.9553 28.3834C61.9553 28.0939 62.1906 27.8586 62.4801 27.8586C62.7696 27.8586 63.0048 28.0939 63.0048 28.3834C63.0048 28.6729 62.7696 28.9081 62.4801 28.9081ZM62.4801 28.0396C62.2931 28.0396 62.1393 28.1934 62.1393 28.3804C62.1393 28.5673 62.2931 28.7212 62.4801 28.7212C62.667 28.7212 62.8209 28.5673 62.8209 28.3804C62.8209 28.1934 62.667 28.0396 62.4801 28.0396Z" fill="#263238"/>
<path d="M62.8963 29.4841H62.064C61.687 29.4841 61.3794 29.1765 61.3794 28.7995V27.9672C61.3794 27.5902 61.687 27.2826 62.064 27.2826H62.8963C63.2733 27.2826 63.5809 27.5902 63.5809 27.9672V28.7995C63.5809 29.1765 63.2733 29.4841 62.8963 29.4841ZM62.064 27.4696C61.7895 27.4696 61.5634 27.6927 61.5634 27.9702V28.8025C61.5634 29.077 61.7865 29.3032 62.064 29.3032H62.8963C63.1708 29.3032 63.3969 29.08 63.3969 28.8025V27.9702C63.3969 27.6958 63.1738 27.4696 62.8963 27.4696H62.064Z" fill="#263238"/>
<path d="M70.9031 29.0558C70.873 29.0558 70.8428 29.0437 70.8217 29.0226C70.7976 28.9985 70.7855 28.9653 70.7885 28.9352V27.9339C70.7885 27.8706 70.8398 27.8193 70.9031 27.8193H71.3947C71.5787 27.8193 71.7264 27.9671 71.7264 28.1511C71.7264 28.2446 71.6903 28.326 71.6269 28.3863C71.7264 28.4496 71.7928 28.5642 71.7928 28.6909C71.7928 28.7874 71.7536 28.8809 71.6842 28.9502C71.6149 29.0196 71.5244 29.0528 71.4249 29.0558C71.069 29.0498 70.9665 29.0558 70.9363 29.0558C70.9243 29.0588 70.9152 29.0618 70.9031 29.0618V29.0558ZM71.0871 28.8176C71.1715 28.8176 71.2831 28.8176 71.4309 28.8206C71.4611 28.8206 71.5003 28.8085 71.5244 28.7814C71.5485 28.7572 71.5636 28.7241 71.5636 28.6879C71.5636 28.6155 71.5033 28.5552 71.4309 28.5552H71.0177V28.8145C71.0388 28.8145 71.06 28.8145 71.0871 28.8145V28.8176ZM71.0177 28.2536H71.3947C71.452 28.2536 71.4972 28.2084 71.4972 28.1511C71.4972 28.0938 71.452 28.0485 71.3947 28.0485H71.0177V28.2536Z" fill="#263238"/>
<path d="M72.5831 28.6517H71.9588C71.8955 28.6517 71.8442 28.6004 71.8442 28.5371C71.8442 28.5159 71.8442 28.3139 71.986 28.1872C72.0433 28.136 72.1458 28.0756 72.3087 28.0937C72.4504 28.1088 72.556 28.1601 72.6253 28.2506C72.7248 28.3832 72.7007 28.5401 72.6977 28.5551C72.6887 28.6094 72.6404 28.6517 72.5831 28.6517ZM72.0976 28.4225H72.4564C72.4564 28.4225 72.4474 28.4013 72.4383 28.3893C72.4082 28.3531 72.3569 28.329 72.2845 28.3229C72.2212 28.3169 72.173 28.329 72.1398 28.3591C72.1217 28.3772 72.1066 28.3983 72.0976 28.4225Z" fill="#263238"/>
<path d="M72.2845 29.0437C72.0703 29.0437 71.8502 28.8899 71.8472 28.5461V28.4315L72.0764 28.4285V28.5431C72.0824 28.7934 72.2362 28.8145 72.2845 28.8145C72.3689 28.8145 72.4081 28.7934 72.4232 28.7813V28.6999L72.6524 28.6908V28.8054C72.6524 28.8054 72.6524 28.8356 72.6494 28.8477C72.6433 28.8688 72.583 29.0467 72.2845 29.0467V29.0437Z" fill="#263238"/>
<path d="M72.2512 16.9927H56.1711V17.7075H72.2512V16.9927Z" fill="#263238"/>
<path d="M64.2112 19.5411H56.1711V20.2559H64.2112V19.5411Z" fill="#263238"/>
<path d="M72.2512 22.2643H56.1711V22.6201H72.2512V22.2643Z" fill="#263238"/>
<path d="M64.2112 24.8097H56.1711V25.1656H64.2112V24.8097Z" fill="#263238"/>
<path d="M58.6593 12.84V15.2074H57.9898V14.2846H57.076V15.2074H56.4065V12.84H57.076V13.7297H57.9898V12.84H58.6593Z" fill="#2A9DF4"/>
<path d="M60.9694 14.4535H59.6364C59.6907 14.6404 59.8505 14.749 60.0858 14.749C60.2637 14.749 60.3843 14.6977 60.508 14.5892L60.8457 14.942C60.6708 15.138 60.4115 15.2406 60.0647 15.2406C59.4102 15.2406 58.988 14.8365 58.988 14.2906C58.988 13.7448 59.4163 13.3467 59.9953 13.3467C60.5381 13.3467 60.9754 13.6905 60.9754 14.2966C60.9754 14.3449 60.9694 14.4052 60.9664 14.4565L60.9694 14.4535ZM59.6274 14.1157H60.3783C60.3451 13.9227 60.2034 13.8021 60.0013 13.8021C59.7993 13.8021 59.6636 13.9227 59.6244 14.1157H59.6274Z" fill="#2A9DF4"/>
<path d="M61.2769 12.6983H61.9192V15.2074H61.2769V12.6983Z" fill="#2A9DF4"/>
<path d="M62.3354 12.6983H62.9778V15.2074H62.3354V12.6983Z" fill="#2A9DF4"/>
<path d="M63.2795 14.2876C63.2795 13.7357 63.7168 13.3437 64.3139 13.3437C64.9111 13.3437 65.3484 13.7357 65.3484 14.2876C65.3484 14.8395 64.9201 15.2376 64.3139 15.2376C63.7078 15.2376 63.2795 14.8425 63.2795 14.2876ZM64.7 14.2876C64.7 14.0102 64.5341 13.8534 64.3139 13.8534C64.0938 13.8534 63.9279 14.0102 63.9279 14.2876C63.9279 14.5651 64.0968 14.7279 64.3139 14.7279C64.5311 14.7279 64.7 14.5681 64.7 14.2876Z" fill="#2A9DF4"/>
<path d="M65.5652 14.8818C65.5652 14.6827 65.725 14.532 65.9512 14.532C66.1774 14.532 66.3342 14.6797 66.3342 14.8818C66.3342 15.0838 66.1774 15.2376 65.9512 15.2376C65.725 15.2376 65.5652 15.0778 65.5652 14.8818ZM65.5682 12.8371H66.3342L66.2045 14.342H65.6949L65.5712 12.8371H65.5682Z" fill="#2A9DF4"/>
<path d="M96.3956 4.38995H52.1182V7.85808H96.3956V4.38995Z" fill="#2A9DF4"/>
<g opacity="0.2">
<path d="M80.4028 25.7446C81.8082 24.0347 81.3377 22.0865 81.3377 22.0865H80.813L79.9233 22.762C80.0711 23.6396 80.243 24.7102 80.3998 25.7446H80.4028Z" fill="black"/>
</g>
<path d="M80.8615 34.4028C80.8615 34.4028 80.9037 31.2151 80.8464 29.5384C80.8374 29.3182 80.8283 29.1222 80.8193 28.9654C80.6896 27.1589 79.8482 22.2553 79.6461 21.0912C79.613 20.9133 79.6823 20.7353 79.818 20.6177C80.0171 20.4458 80.2644 20.3071 80.5449 20.1985C81.139 19.9663 81.8959 19.8638 82.7192 19.8457C83.256 19.8336 83.817 19.8547 84.3809 19.9C84.4955 19.909 84.6131 19.9181 84.7307 19.9331C85.2525 19.9814 85.7742 20.0508 86.2688 20.1292C86.4889 20.1623 86.7061 20.1985 86.9141 20.2347C87.2398 20.292 87.5505 20.3493 87.837 20.4096C88.4854 20.5393 89.0161 20.663 89.3539 20.7474C89.3629 20.7474 89.375 20.7504 89.3841 20.7534C89.4775 20.7745 89.556 20.8258 89.6193 20.8891C89.6977 20.9766 89.7459 21.0912 89.7459 21.2149L89.761 28.2717V29.7374L89.7731 34.4299L80.8585 34.4028H80.8615Z" fill="#2A9DF4"/>
<g opacity="0.2">
<path d="M86.1447 21.8391C86.1387 22.0321 85.9759 22.1799 85.7859 22.1738C85.5929 22.1678 85.4451 22.005 85.4511 21.815C85.4571 21.622 85.62 21.4742 85.81 21.4802C86.003 21.4863 86.1508 21.6491 86.1447 21.8391Z" fill="black"/>
</g>
<g opacity="0.2">
<path d="M86.5219 24.8066C86.5159 24.9996 86.3531 25.1473 86.1631 25.1413C85.97 25.1353 85.8223 24.9724 85.8283 24.7824C85.8343 24.5894 85.9972 24.4417 86.1872 24.4477C86.3802 24.4537 86.528 24.6166 86.5219 24.8066Z" fill="black"/>
</g>
<g opacity="0.2">
<path d="M86.7331 28.3924C86.7271 28.5854 86.5642 28.7332 86.3742 28.7271C86.1812 28.7211 86.0335 28.5582 86.0395 28.3683C86.0455 28.1752 86.2084 28.0275 86.3984 28.0335C86.5914 28.0395 86.7391 28.2024 86.7331 28.3924Z" fill="black"/>
</g>
<g opacity="0.2">
<path d="M86.5974 31.9631C86.5913 32.1561 86.4285 32.3038 86.2385 32.2978C86.0455 32.2918 85.8977 32.1289 85.9037 31.9389C85.9098 31.7459 86.0726 31.5982 86.2626 31.6042C86.4556 31.6102 86.6034 31.7731 86.5974 31.9631Z" fill="black"/>
</g>
<path d="M84.0068 19.4024L84.4532 20.0025L85.3247 20.5785L85.8465 20.7082L86.6577 20.467L87.0136 20.4308L87.0859 20.3765C86.2747 19.7884 86.332 18.8294 86.6306 18.0031L84.3476 15.6116C84.4411 16.646 84.4652 18.3318 84.0068 19.4024Z" fill="#CE7A63"/>
<g opacity="0.3">
<path d="M86.4314 18.9259C86.4465 18.6152 86.5219 18.2986 86.6304 18L85.2341 16.5374L84.3867 16.1453C84.4048 16.5042 84.4108 16.9023 84.3958 17.3064C84.6823 17.8945 85.2673 18.6333 86.4314 18.9289V18.9259Z" fill="black"/>
</g>
<path d="M87.2096 12.6501C87.2096 12.6501 88.6391 12.9215 88.4038 11.8298C88.4038 11.8298 88.3194 12.1494 86.7512 11.9987C85.183 11.8479 87.2096 12.6501 87.2096 12.6501Z" fill="#263238"/>
<g opacity="0.9">
<path d="M87.2096 12.6501C87.2096 12.6501 88.6391 12.9215 88.4038 11.8298C88.4038 11.8298 88.3194 12.1494 86.7512 11.9987C85.183 11.8479 87.2096 12.6501 87.2096 12.6501Z" fill="black"/>
</g>
<path d="M84.0281 14.1609C84.0703 15.7442 84.019 16.673 84.791 17.5114C85.9491 18.772 87.9274 18.1085 88.3527 16.5494C88.7387 15.135 88.6 12.7887 87.074 12.1072C85.9883 11.6156 84.7096 12.0981 84.2181 13.1868C84.0793 13.4944 84.016 13.8292 84.0281 14.1639V14.1609Z" fill="#CE7A63"/>
<path d="M86.4857 14.7007C86.4827 14.8304 86.546 14.9359 86.6305 14.9389C86.7149 14.9389 86.7873 14.8394 86.7903 14.7097C86.7933 14.5801 86.73 14.4745 86.6455 14.4715C86.5611 14.4715 86.4887 14.571 86.4857 14.6977V14.7007Z" fill="#263238"/>
<path d="M87.9396 14.749C87.9365 14.8756 87.9999 14.9842 88.0843 14.9872C88.1688 14.9872 88.2411 14.8877 88.2442 14.761C88.2472 14.6344 88.1838 14.5258 88.0994 14.5228C88.015 14.5198 87.9426 14.6223 87.9396 14.752V14.749Z" fill="#263238"/>
<path d="M86.0065 14.0795C86.0065 14.0795 85.9794 14.0765 85.9703 14.0704C85.9402 14.0433 85.9341 13.9981 85.9582 13.9649C86.109 13.7719 86.3412 13.6663 86.5825 13.6724C86.6247 13.6754 86.6549 13.7146 86.6519 13.7568C86.6489 13.799 86.6097 13.8292 86.5674 13.8262C86.3744 13.8201 86.1905 13.9076 86.0759 14.0614C86.0578 14.0795 86.0306 14.0885 86.0065 14.0825V14.0795Z" fill="#263238"/>
<path d="M88.5245 14.182C88.5004 14.179 88.4763 14.1609 88.4672 14.1368C88.3949 13.9588 88.2411 13.8291 88.0571 13.7809C88.0149 13.7749 87.9877 13.7357 87.9938 13.6934C87.9998 13.6512 88.039 13.6241 88.0812 13.6301C88.3195 13.6844 88.5155 13.8503 88.612 14.0764C88.6301 14.1126 88.612 14.1579 88.5758 14.1729C88.5607 14.179 88.5426 14.182 88.5276 14.179L88.5245 14.182Z" fill="#263238"/>
<path d="M87.252 16.5826C87.3394 16.5916 87.4269 16.5946 87.5113 16.5886C87.5354 16.5886 87.5566 16.5645 87.5535 16.5404C87.5535 16.5162 87.5324 16.4981 87.5053 16.4981C87.1163 16.5313 86.7333 16.3805 86.4739 16.088C86.4588 16.0669 86.4317 16.0639 86.4106 16.0789C86.3895 16.094 86.3864 16.1212 86.4015 16.1423C86.6156 16.3926 86.9202 16.5524 87.2489 16.5856L87.252 16.5826Z" fill="#263238"/>
<path d="M87.5685 14.6796C87.7042 15.0656 87.8942 15.4336 88.1324 15.7683C87.8972 15.9674 87.5293 15.8618 87.5293 15.8618L87.5685 14.6796Z" fill="#BA4D3C"/>
<path d="M82.6587 20.0146C82.7009 19.6527 83.4428 19.0314 83.868 19.2003C84.2932 19.3692 84.9989 20.4308 85.6865 20.473C86.3741 20.5152 86.5309 19.2576 86.8928 19.3813C87.2547 19.5049 87.6709 19.8819 87.7825 20.1533C87.9091 20.47 87.9031 21.6491 87.5774 21.4953C87.5774 21.4953 87.1341 20.6539 86.8536 20.5544C86.5943 20.4609 86.0514 20.8047 85.774 20.8077C85.4724 20.8077 84.8723 20.4398 84.5978 20.5604C84.3204 20.6811 84.0731 21.4531 83.7715 21.441C83.3191 21.4199 82.6044 20.4639 82.6587 20.0146Z" fill="#2A9DF4"/>
<g opacity="0.4">
<path d="M82.6587 20.0146C82.7009 19.6527 83.4428 19.0314 83.868 19.2003C84.2932 19.3692 84.9989 20.4308 85.6865 20.473C86.3741 20.5152 86.5309 19.2576 86.8928 19.3813C87.2547 19.5049 87.6709 19.8819 87.7825 20.1533C87.9091 20.47 87.9031 21.6491 87.5774 21.4953C87.5774 21.4953 87.1341 20.6539 86.8536 20.5544C86.5943 20.4609 86.0514 20.8047 85.774 20.8077C85.4724 20.8077 84.8723 20.4398 84.5978 20.5604C84.3204 20.6811 84.0731 21.4531 83.7715 21.441C83.3191 21.4199 82.6044 20.4639 82.6587 20.0146Z" fill="white"/>
</g>
<path d="M87.0405 28.0124C88.1021 28.4708 88.9525 27.5148 88.9525 27.5148L87.4296 26.3658L86.7148 27.4515L87.0405 28.0124Z" fill="#CE7A63"/>
<path d="M87.4294 26.3658L88.9494 27.5118L89.5013 26.7669L88.8619 25.7747L87.4294 26.3658Z" fill="#CE7A63"/>
<path d="M79.4862 21.4381C79.4832 22.2644 79.4982 23.0877 79.5284 23.917C79.5525 24.5443 79.5797 25.1716 79.6249 25.7988C79.6701 26.4261 79.7184 27.0594 79.7938 27.6988L79.8179 27.934L79.83 28.0546L79.8601 28.2507C79.8933 28.4256 79.9446 28.5945 80.02 28.7573C80.1346 29.0076 80.3125 29.2217 80.5387 29.3786C80.7829 29.5444 81.0664 29.6349 81.362 29.6379C81.552 29.6409 81.745 29.6138 81.9289 29.5535L87.2819 28.1119C87.2819 28.1119 86.911 27.2193 86.9743 27.1198C86.6758 27.168 83.859 27.3761 82.0375 27.5088L82.0616 27.0504C82.0707 26.8393 82.2848 21.7215 82.2848 21.7215C82.2848 21.0309 81.4585 20.1956 80.7679 20.1865C80.0652 20.1775 79.4862 20.7414 79.4832 21.4441L79.4862 21.4381Z" fill="#2A9DF4"/>
<g opacity="0.1">
<path d="M79.4862 21.4381C79.4832 22.2644 79.4982 23.0877 79.5284 23.917C79.5525 24.5443 79.5797 25.1716 79.6249 25.7988C79.6701 26.4261 79.7184 27.0594 79.7938 27.6988L79.8179 27.934L79.83 28.0546L79.8601 28.2507C79.8933 28.4256 79.9446 28.5945 80.02 28.7573C80.1346 29.0076 80.3125 29.2217 80.5387 29.3786C80.7829 29.5444 81.0664 29.6349 81.362 29.6379C81.552 29.6409 81.745 29.6138 81.9289 29.5535L87.2819 28.1119C87.2819 28.1119 86.911 27.2193 86.9743 27.1198C86.6758 27.168 83.859 27.3761 82.0375 27.5088L82.0616 27.0504C82.0707 26.8393 82.2848 21.7215 82.2848 21.7215C82.2848 21.0309 81.4585 20.1956 80.7679 20.1865C80.0652 20.1775 79.4862 20.7414 79.4832 21.4441L79.4862 21.4381Z" fill="white"/>
</g>
<path d="M86.9773 27.1168C86.9984 27.1138 87.0044 27.1108 86.9984 27.1078C86.9863 27.1047 86.9803 27.1078 86.9773 27.1168Z" fill="#2A9DF4"/>
<path d="M84.2359 15.479C84.2359 15.479 84.827 15.1895 84.827 14.0284C84.827 14.0284 85.4422 13.6695 85.4935 12.8794C85.4935 12.8794 88.5002 12.5809 88.0267 11.5133C87.5532 10.4457 85.4392 10.0476 85.4392 10.0476C85.4392 10.0476 86.0544 11.1242 84.0941 11.9596C82.1339 12.798 83.693 15.3915 83.693 15.3915L84.2359 15.479Z" fill="#263238"/>
<path d="M83.2769 12.9819C83.2769 12.9819 82.3932 12.3968 82.7431 12.056C83.0899 11.7152 83.2769 12.9819 83.2769 12.9819Z" fill="#263238"/>
<path d="M83.2075 15.6116C83.4096 15.9554 83.7383 16.2027 84.1213 16.3052C84.634 16.4349 84.8782 15.9735 84.7244 15.497C84.5887 15.0687 84.1544 14.4837 83.6478 14.5651C83.1412 14.6465 82.9632 15.1833 83.2075 15.6085V15.6116Z" fill="#CE7A63"/>
<path d="M84.0429 28.115C82.9813 28.5734 82.1309 27.6174 82.1309 27.6174L83.6538 26.4684L84.3686 27.5541L84.0429 28.115Z" fill="#CE7A63"/>
<path d="M83.6507 26.4683L82.1338 27.6143L81.5789 26.8725L82.2212 25.8773L83.6507 26.4683Z" fill="#CE7A63"/>
<path d="M91.2867 27.8012L91.2626 28.0365L91.2505 28.1571L91.2204 28.3531C91.1872 28.528 91.1359 28.6969 91.0606 28.8598C90.946 29.1101 90.768 29.3242 90.5418 29.481C90.3126 29.6378 90.0442 29.7283 89.7638 29.7374C89.7487 29.7374 89.7336 29.7374 89.7185 29.7374C89.5285 29.7404 89.3355 29.7132 89.1516 29.6529L85.3487 28.6276L83.7986 28.2084C83.7986 28.2084 83.7986 28.2023 83.8046 28.1933C83.8438 28.0998 84.0459 27.5992 84.0972 27.3489C84.1122 27.2825 84.1152 27.2343 84.1032 27.2162C84.1152 27.2162 84.1273 27.2222 84.1484 27.2222C84.266 27.2373 84.5284 27.2614 84.8843 27.2916C85.3698 27.3338 86.0272 27.3851 86.7239 27.4333C86.8264 27.4424 86.932 27.4484 87.0375 27.4574C87.6648 27.5057 88.3072 27.5509 88.8711 27.5901C88.9284 27.5962 89.2782 27.6052 89.3325 27.6112L88.7595 21.818C88.7595 21.7999 88.7927 21.7788 88.7957 21.7607C88.8138 21.441 89.0008 21.1002 89.2632 20.8258C89.2903 20.7956 89.3174 20.7685 89.3476 20.7413C89.3566 20.7413 89.3687 20.7443 89.3777 20.7474C89.616 20.7323 89.8271 20.8107 90.002 20.9253C90.3669 21.1605 90.5931 21.5556 90.6504 21.9838C90.8344 23.4103 91.335 27.37 91.2837 27.7982L91.2867 27.8012Z" fill="#2A9DF4"/>
<g opacity="0.1">
<path d="M91.2867 27.8012L91.2626 28.0365L91.2505 28.1571L91.2204 28.3531C91.1872 28.528 91.1359 28.6969 91.0606 28.8598C90.946 29.1101 90.768 29.3242 90.5418 29.481C90.3126 29.6378 90.0442 29.7283 89.7638 29.7374C89.7487 29.7374 89.7336 29.7374 89.7185 29.7374C89.5285 29.7404 89.3355 29.7132 89.1516 29.6529L85.3487 28.6276L83.7986 28.2084C83.7986 28.2084 83.7986 28.2023 83.8046 28.1933C83.8438 28.0998 84.0459 27.5992 84.0972 27.3489C84.1122 27.2825 84.1152 27.2343 84.1032 27.2162C84.1152 27.2162 84.1273 27.2222 84.1484 27.2222C84.266 27.2373 84.5284 27.2614 84.8843 27.2916C85.3698 27.3338 86.0272 27.3851 86.7239 27.4333C86.8264 27.4424 86.932 27.4484 87.0375 27.4574C87.6648 27.5057 88.3072 27.5509 88.8711 27.5901C88.9284 27.5962 89.2782 27.6052 89.3325 27.6112L88.7595 21.818C88.7595 21.7999 88.7927 21.7788 88.7957 21.7607C88.8138 21.441 89.0008 21.1002 89.2632 20.8258C89.2903 20.7956 89.3174 20.7685 89.3476 20.7413C89.3566 20.7413 89.3687 20.7443 89.3777 20.7474C89.616 20.7323 89.8271 20.8107 90.002 20.9253C90.3669 21.1605 90.5931 21.5556 90.6504 21.9838C90.8344 23.4103 91.335 27.37 91.2837 27.7982L91.2867 27.8012Z" fill="white"/>
</g>
<path d="M84.1061 27.2193C84.085 27.2163 84.0789 27.2133 84.085 27.2102C84.097 27.2072 84.1031 27.2102 84.1061 27.2193Z" fill="#2A9DF4"/>
<path d="M55.7402 6.14504C55.7402 6.41947 55.517 6.63962 55.2456 6.63962C54.9741 6.63962 54.751 6.41646 54.751 6.14504C54.751 5.87362 54.9741 5.65045 55.2456 5.65045C55.517 5.65045 55.7402 5.87362 55.7402 6.14504Z" fill="white"/>
<path d="M57.6398 6.14504C57.6398 6.41947 57.4166 6.63962 57.1452 6.63962C56.8738 6.63962 56.6506 6.41646 56.6506 6.14504C56.6506 5.87362 56.8738 5.65045 57.1452 5.65045C57.4166 5.65045 57.6398 5.87362 57.6398 6.14504Z" fill="white"/>
<path d="M59.5429 6.14504C59.5429 6.41947 59.3197 6.63962 59.0483 6.63962C58.7769 6.63962 58.5537 6.41646 58.5537 6.14504C58.5537 5.87362 58.7769 5.65045 59.0483 5.65045C59.3197 5.65045 59.5429 5.87362 59.5429 6.14504Z" fill="white"/>
<path d="M103.359 102.83L102.928 107.849L100.235 107.689L100.434 102.475L103.359 102.83Z" fill="#CE7A63"/>
<path d="M126.336 101.027L128.402 105.578L126.038 106.944L123.682 102.354L126.336 101.027Z" fill="#CE7A63"/>
<path d="M108.389 57.6935C108.389 57.6935 102.201 77.9021 101.019 84.0905C100.084 88.982 100.018 104.064 100.018 104.064L103.615 104.375C103.615 104.375 104.445 97.0945 105.277 91.072C105.642 88.4362 106.191 86.0417 106.637 84.6032C108.103 79.8835 113.441 71.8042 115.151 67.1841C115.742 65.5888 115.929 57.9317 115.929 57.9317L108.392 57.6935H108.389Z" fill="#263238"/>
<path d="M104.24 103.494L99.5171 103.099L99.5231 104.932L103.932 105.246L104.24 103.494Z" fill="#2A9DF4"/>
<path opacity="0.5" d="M112.657 64.3735L115.829 67.0273C115.09 68.4598 111.957 73.3363 110.908 75.0282C110.546 70.969 112.654 64.3735 112.654 64.3735H112.657Z" fill="black"/>
<path d="M109.508 57.6936C109.508 57.6936 113.356 80.5923 115.377 86.9737C116.812 91.5184 124.225 103.913 124.225 103.913L127.162 102.288C127.162 102.288 124.361 95.5595 122.416 90.3362C121.752 88.5539 120.95 86.9465 120.715 85.8397C119.713 81.1201 120.106 71.355 119.831 66.5298C119.744 64.9978 119.321 57.8655 119.321 57.8655L109.505 57.6876L109.508 57.6936Z" fill="#263238"/>
<path d="M127.16 101.084L127.929 102.731L124.162 104.833L123.3 103.235L127.16 101.084Z" fill="#2A9DF4"/>
<path d="M99.1853 107.776C98.8747 107.773 98.555 107.707 98.4525 107.562C98.3982 107.478 98.4012 107.366 98.4585 107.288C98.5007 107.215 98.5671 107.161 98.6455 107.14C99.0617 107.022 99.9332 107.565 99.9694 107.589C99.9905 107.601 100.003 107.629 99.9965 107.656C99.9905 107.683 99.9724 107.701 99.9483 107.707C99.695 107.752 99.4416 107.776 99.1853 107.773V107.776ZM98.7902 107.252C98.751 107.252 98.7148 107.255 98.6756 107.267C98.6274 107.276 98.5821 107.306 98.558 107.354C98.5128 107.432 98.5309 107.472 98.546 107.493C98.6606 107.668 99.2908 107.68 99.7553 107.622C99.4567 107.435 99.128 107.309 98.7872 107.252H98.7902Z" fill="#2A9DF4"/>
<path d="M99.9393 107.707C99.9393 107.707 99.9212 107.707 99.9151 107.707C99.6166 107.562 99.0195 106.974 99.0707 106.672C99.0768 106.6 99.128 106.513 99.2909 106.498C99.4085 106.485 99.5291 106.525 99.6196 106.609C99.9363 106.893 100.003 107.616 100.006 107.65C100.006 107.674 99.9966 107.695 99.9785 107.707C99.9664 107.713 99.9513 107.713 99.9393 107.707ZM99.3301 106.615H99.2969C99.1914 106.621 99.1823 106.666 99.1793 106.682C99.1642 106.862 99.5563 107.321 99.8639 107.523C99.8337 107.218 99.7191 106.932 99.5352 106.697C99.4779 106.642 99.4055 106.615 99.3301 106.615Z" fill="#2A9DF4"/>
<path d="M100.205 107.336L102.928 107.369C103.03 107.369 103.121 107.448 103.142 107.556L103.63 109.942C103.676 110.153 103.552 110.361 103.356 110.406C103.332 110.412 103.305 110.415 103.281 110.415C102.298 110.385 101.426 110.319 100.202 110.303C98.76 110.288 99.1249 110.475 97.4271 110.481C96.4047 110.481 96.2208 109.236 96.652 109.179C98.6364 108.934 98.8415 108.295 99.6075 107.541C99.7733 107.396 99.9844 107.324 100.199 107.336H100.205Z" fill="#263238"/>
<path d="M125.202 107.487C124.928 107.638 124.617 107.74 124.463 107.665C124.379 107.617 124.334 107.517 124.349 107.417C124.355 107.333 124.391 107.252 124.448 107.194C124.765 106.881 125.766 106.929 125.811 106.932C125.836 106.932 125.857 106.95 125.866 106.977C125.872 107.001 125.866 107.031 125.845 107.047C125.643 107.212 125.428 107.36 125.202 107.487ZM124.626 107.218C124.593 107.237 124.56 107.261 124.533 107.288C124.494 107.321 124.469 107.369 124.469 107.424C124.463 107.514 124.494 107.541 124.518 107.553C124.696 107.653 125.254 107.348 125.64 107.065C125.296 107.047 124.952 107.098 124.626 107.218Z" fill="#2A9DF4"/>
<path d="M125.836 107.05C125.836 107.05 125.821 107.059 125.812 107.059C125.486 107.077 124.705 106.854 124.62 106.561C124.593 106.495 124.602 106.389 124.738 106.296C124.838 106.226 124.958 106.202 125.076 106.232C125.48 106.326 125.851 106.938 125.869 106.965C125.881 106.983 125.881 107.01 125.869 107.029C125.86 107.041 125.848 107.05 125.833 107.05H125.836ZM124.826 106.383L124.795 106.398C124.705 106.459 124.72 106.504 124.723 106.519C124.789 106.688 125.332 106.899 125.691 106.923C125.534 106.667 125.308 106.468 125.043 106.353C124.97 106.335 124.892 106.344 124.829 106.383H124.826Z" fill="#2A9DF4"/>
<path d="M125.908 106.588L128.32 105.255C128.411 105.204 128.523 105.228 128.589 105.315L130.055 107.191C130.184 107.357 130.169 107.604 130.015 107.743C129.994 107.761 129.973 107.776 129.952 107.788C129.074 108.253 128.275 108.63 127.193 109.227C125.914 109.933 126.318 109.918 124.828 110.771C123.93 111.284 123.224 110.264 123.583 109.999C125.223 108.79 125.127 108.117 125.477 107.065C125.561 106.854 125.715 106.682 125.908 106.585V106.588Z" fill="#263238"/>
<path d="M103.175 42.9585L100.536 44.6232C100.367 44.8042 94.936 39.5356 94.936 39.5356C94.936 39.5356 94.7491 37.8981 94.6767 37.6297L94.4927 36.9692C94.4716 36.8969 94.4595 36.8215 94.4565 36.743V36.725C94.4234 36.161 93.9559 35.7207 93.392 35.7207C93.1809 35.7207 92.9728 35.784 92.7979 35.9016L91.5614 36.728C91.1965 36.9722 91.0186 37.4186 91.1151 37.8498L93.8473 40.184C93.8473 40.184 97.614 47.2771 99.5321 48.396C101.302 49.4274 105.123 45.2746 105.123 45.2746L103.175 42.9616V42.9585Z" fill="#CE7A63"/>
<path d="M107.946 40.7842C107.503 40.2926 107.026 39.8613 106.076 39.9307C104.605 40.0363 101.709 43.3295 101.709 43.3295L104.327 47.4973C104.327 47.4973 107.759 44.4724 108.314 43.2209C108.745 42.2438 108.486 41.3843 107.946 40.7842Z" fill="#2A9DF4"/>
<path opacity="0.5" d="M107.946 40.7842C107.503 40.2926 107.026 39.8613 106.076 39.9307C104.605 40.0363 101.709 43.3295 101.709 43.3295L104.327 47.4973C104.327 47.4973 107.759 44.4724 108.314 43.2209C108.745 42.2438 108.486 41.3843 107.946 40.7842Z" fill="black"/>
<path opacity="0.2" d="M105.808 46.122C105.702 44.4633 105.642 42.6539 105.642 42.6539L106.896 45.0273C106.541 45.4042 106.161 45.7812 105.805 46.122H105.808Z" fill="black"/>
<path d="M111.115 40.184L109.78 39.7226C109.789 39.3456 109.674 38.9626 109.496 38.5856C109.384 38.3534 109.261 38.1272 109.122 37.9101L110.386 35.781L111.315 34.2188C111.498 35.7749 112.023 38.4107 113.199 39.3939L111.112 40.184H111.115Z" fill="#CE7A63"/>
<path opacity="0.2" d="M109.125 37.9131C109.264 38.1333 109.388 38.3625 109.499 38.5977C110.12 38.2238 110.76 37.1924 110.609 36.4776C110.561 36.2394 110.488 36.0072 110.389 35.784L109.125 37.9131Z" fill="black"/>
<path d="M119.596 40.9319L119.273 58.2273L118.058 58.4113C114.792 58.9059 111.456 58.6827 108.284 57.7569L105.389 41.3873C105.235 40.6213 105.814 39.9035 106.595 39.8915L118.323 39.6864C119.023 39.6743 119.596 40.2353 119.596 40.9349V40.9319Z" fill="#2A9DF4"/>
<path opacity="0.5" d="M119.596 40.9319L119.273 58.2273L118.058 58.4113C114.792 58.9059 111.456 58.6827 108.284 57.7569L105.389 41.3873C105.235 40.6213 105.814 39.9035 106.595 39.8915L118.323 39.6864C119.023 39.6743 119.596 40.2353 119.596 40.9349V40.9319Z" fill="black"/>
<path opacity="0.2" d="M119.412 49.759C116.077 45.9079 116.077 43.1122 116.077 43.1122L119.578 44.204L119.412 49.759Z" fill="black"/>
<path d="M107.442 30.1867C107.442 30.1867 105.25 30.4732 105.708 28.7964C105.708 28.7964 105.805 29.3 108.196 29.2126C110.588 29.1251 107.442 30.1867 107.442 30.1867Z" fill="#263238"/>
<path opacity="0.9" d="M107.442 30.1867C107.442 30.1867 105.25 30.4732 105.708 28.7964C105.708 28.7964 105.805 29.3 108.196 29.2126C110.588 29.1251 107.442 30.1867 107.442 30.1867Z" fill="black"/>
<path d="M112.141 32.9613C111.616 35.1899 111.429 36.5199 110.09 37.5181C108.785 38.5163 106.918 38.269 105.92 36.9632C105.552 36.4837 105.34 35.9016 105.31 35.2985C105.166 33.2146 106.046 29.9183 108.408 29.3212C110.009 28.8719 111.671 29.8037 112.12 31.4051C112.262 31.9148 112.271 32.4486 112.138 32.9613H112.141Z" fill="#CE7A63"/>
<path d="M108.606 33.13C108.576 33.314 108.453 33.4467 108.335 33.4196C108.217 33.3924 108.145 33.2416 108.172 33.0607C108.202 32.8767 108.326 32.741 108.447 32.7712C108.567 32.8013 108.637 32.9491 108.606 33.13Z" fill="#263238"/>
<path d="M106.526 32.8497C106.495 33.0336 106.375 33.1663 106.254 33.1392C106.134 33.112 106.064 32.9613 106.091 32.7773C106.121 32.5903 106.245 32.4606 106.366 32.4878C106.486 32.5149 106.556 32.6657 106.526 32.8497Z" fill="#263238"/>
<path d="M107.174 33.0307C106.857 33.5614 106.474 34.05 106.031 34.4782C106.302 34.822 106.881 34.7677 106.881 34.7677L107.177 33.0276L107.174 33.0307Z" fill="#BA4D3C"/>
<path d="M108.621 34.8188C108.257 35.1717 107.75 35.3315 107.252 35.2531C107.222 35.2441 107.189 35.2591 107.177 35.2893C107.168 35.3195 107.183 35.3526 107.213 35.3647C107.219 35.3647 107.228 35.3677 107.234 35.3647C107.31 35.3768 107.388 35.3858 107.466 35.3858C107.928 35.3979 108.377 35.2199 108.703 34.8942C108.724 34.8731 108.724 34.8369 108.703 34.8128" fill="#263238"/>
<path d="M109.364 32.5481C109.382 32.5511 109.4 32.5511 109.415 32.5481C109.469 32.5209 109.49 32.4576 109.463 32.4033C109.463 32.4033 109.463 32.4033 109.463 32.4003C109.309 32.0837 109.005 31.8665 108.658 31.8213C108.598 31.8152 108.546 31.8605 108.543 31.9178C108.543 31.9178 108.543 31.9178 108.543 31.9208C108.537 31.9811 108.582 32.0324 108.64 32.0354C108.64 32.0354 108.64 32.0354 108.643 32.0354C108.914 32.0746 109.146 32.2435 109.273 32.4847C109.288 32.5209 109.324 32.5451 109.367 32.5451L109.364 32.5481Z" fill="#263238"/>
<path d="M105.757 32.0173C105.793 32.0173 105.826 32.0022 105.847 31.9721C106.004 31.7368 106.26 31.5861 106.544 31.568C106.604 31.5589 106.643 31.5016 106.634 31.4413C106.625 31.3961 106.589 31.3569 106.544 31.3508C106.191 31.3689 105.868 31.5559 105.672 31.8484C105.639 31.8967 105.648 31.963 105.696 31.9992C105.711 32.0113 105.732 32.0203 105.754 32.0203L105.757 32.0173Z" fill="#263238"/>
<path opacity="0.9" d="M112.177 40.9139L111.484 42.3071L111.276 42.6087L112.367 53.7248L110.911 55.0126L109.454 53.5228L110.621 42.6087L110.389 42.1714L109.762 40.9108L110.259 40.184L111.55 39.8945L112.177 40.9139Z" fill="white"/>
<path d="M113.483 38.8541L111.067 39.7829L109.11 38.9295L108.079 40.1026L109.089 42.5182L111.083 40.4464L113.058 42.6087L114.475 39.9066L113.483 38.8541Z" fill="#2A9DF4"/>
<path opacity="0.3" d="M113.483 38.8541L111.067 39.7829L109.11 38.9295L108.079 40.1026L109.089 42.5182L111.083 40.4464L113.058 42.6087L114.475 39.9066L113.483 38.8541Z" fill="black"/>
<path d="M121.939 44.9338C121.939 44.9338 124.593 48.5407 124.509 49.9491C124.373 52.1958 119.466 57.4161 119.466 57.4161L118.851 59.3824C118.773 59.6297 118.604 59.8347 118.377 59.9584L116.8 60.8209C116.342 61.0712 115.772 60.9264 115.488 60.4892L115.123 59.9252C114.882 59.5512 114.918 59.0597 115.214 58.7249L115.829 58.0313C115.859 57.9981 115.889 57.968 115.923 57.9378L117.943 56.5717C117.943 56.5717 119.526 53.7519 120.395 51.7223C120.721 50.9624 120.941 50.2657 120.935 49.7832C120.923 48.7066 119.023 45.923 119.023 45.923L121.936 44.9399L121.939 44.9338Z" fill="#CE7A63"/>
<path d="M116.722 39.9247C117.262 39.5417 118.516 39.6231 119.104 39.9247C120.657 40.7269 123.161 45.3561 123.161 45.3561L118.658 47.823C118.658 47.823 115.968 43.7758 115.838 42.1714C115.784 41.5079 116.179 40.3077 116.722 39.9217V39.9247Z" fill="#2A9DF4"/>
<path opacity="0.5" d="M116.722 39.9247C117.262 39.5417 118.516 39.6231 119.104 39.9247C120.657 40.7269 123.161 45.3561 123.161 45.3561L118.658 47.823C118.658 47.823 115.968 43.7758 115.838 42.1714C115.784 41.5079 116.179 40.3077 116.722 39.9217V39.9247Z" fill="black"/>
<path d="M89.4141 37.9686L88.5342 38.119L88.588 38.4341L89.4679 38.2837L89.4141 37.9686Z" fill="#263238"/>
<path opacity="0.2" d="M89.4141 37.9686L88.5342 38.119L88.588 38.4341L89.4679 38.2837L89.4141 37.9686Z" fill="white"/>
<path d="M92.243 37.4114L89.3149 37.9119L89.3942 38.3757L92.3223 37.8752L92.243 37.4114Z" fill="#263238"/>
<path opacity="0.4" d="M92.243 37.4114L89.3149 37.9119L89.3942 38.3757L92.3223 37.8752L92.243 37.4114Z" fill="white"/>
<path d="M95.6054 36.7781L91.9817 37.3975L92.0803 37.9742L95.7039 37.3548L95.6054 36.7781Z" fill="#263238"/>
<path opacity="0.5" d="M95.6054 36.7781L91.9817 37.3975L92.0803 37.9742L95.7039 37.3548L95.6054 36.7781Z" fill="white"/>
<path d="M95.9092 36.6655L95.5347 36.7296L95.6536 37.4252L96.0281 37.3611L95.9092 36.6655Z" fill="#2A9DF4"/>
<path d="M111.685 34.8642C111.685 34.8642 110.817 34.3576 110.925 32.5541C110.925 32.5541 110.024 31.9389 110.027 30.7025C110.027 30.7025 105.494 29.9576 106.314 28.3411C107.135 26.7247 110.38 26.2994 110.38 26.2994C110.38 26.2994 109.345 27.9159 112.237 29.4027C115.129 30.8894 112.518 34.7798 112.518 34.7798L111.685 34.8642Z" fill="#263238"/>
<path d="M113.375 31.0644C113.375 31.0644 114.768 30.2351 114.273 29.6711C113.779 29.1102 113.375 31.0644 113.375 31.0644Z" fill="#263238"/>
<path d="M112.675 34.9759C112.445 35.4343 112.05 35.7871 111.571 35.9681C110.941 36.1973 110.612 35.6394 110.775 35.0181C110.923 34.4572 111.429 33.664 112.066 33.7063C112.705 33.7485 112.952 34.4089 112.675 34.9759Z" fill="#CE7A63"/>
</g>
<defs>
<clipPath id="clip0_1059_1424">
<rect width="150.788" height="112.205" fill="white" transform="translate(0.605957 0.897705)"/>
</clipPath>
</defs>
</svg>
