<svg width="29" height="28" viewBox="0 0 29 28" fill="none" xmlns="http://www.w3.org/2000/svg">
<rect x="0.5" width="28" height="28" rx="4" fill="#FF3C3C"/>
<path d="M11.1666 8.66671C11.1666 8.31309 11.3071 7.97395 11.5572 7.7239C11.8072 7.47385 12.1464 7.33337 12.5 7.33337H16.5C16.8536 7.33337 17.1927 7.47385 17.4428 7.7239C17.6928 7.97395 17.8333 8.31309 17.8333 8.66671V10H20.5C20.6768 10 20.8464 10.0703 20.9714 10.1953C21.0964 10.3203 21.1666 10.4899 21.1666 10.6667C21.1666 10.8435 21.0964 11.0131 20.9714 11.1381C20.8464 11.2631 20.6768 11.3334 20.5 11.3334H19.7873L19.2093 19.428C19.1854 19.7644 19.0348 20.0792 18.7881 20.3091C18.5413 20.5389 18.2166 20.6667 17.8793 20.6667H11.12C10.7827 20.6667 10.458 20.5389 10.2112 20.3091C9.96445 20.0792 9.81392 19.7644 9.78998 19.428L9.21331 11.3334H8.49998C8.32317 11.3334 8.1536 11.2631 8.02858 11.1381C7.90355 11.0131 7.83331 10.8435 7.83331 10.6667C7.83331 10.4899 7.90355 10.3203 8.02858 10.1953C8.1536 10.0703 8.32317 10 8.49998 10H11.1666V8.66671ZM12.5 10H16.5V8.66671H12.5V10ZM10.5493 11.3334L11.1206 19.3334H17.88L18.4513 11.3334H10.5493ZM13.1666 12.6667C13.3435 12.6667 13.513 12.7369 13.6381 12.862C13.7631 12.987 13.8333 13.1566 13.8333 13.3334V17.3334C13.8333 17.5102 13.7631 17.6798 13.6381 17.8048C13.513 17.9298 13.3435 18 13.1666 18C12.9898 18 12.8203 17.9298 12.6952 17.8048C12.5702 17.6798 12.5 17.5102 12.5 17.3334V13.3334C12.5 13.1566 12.5702 12.987 12.6952 12.862C12.8203 12.7369 12.9898 12.6667 13.1666 12.6667ZM15.8333 12.6667C16.0101 12.6667 16.1797 12.7369 16.3047 12.862C16.4297 12.987 16.5 13.1566 16.5 13.3334V17.3334C16.5 17.5102 16.4297 17.6798 16.3047 17.8048C16.1797 17.9298 16.0101 18 15.8333 18C15.6565 18 15.4869 17.9298 15.3619 17.8048C15.2369 17.6798 15.1666 17.5102 15.1666 17.3334V13.3334C15.1666 13.1566 15.2369 12.987 15.3619 12.862C15.4869 12.7369 15.6565 12.6667 15.8333 12.6667Z" fill="white"/>
</svg>
