<svg width="12" height="16" viewBox="0 0 12 16" fill="none" xmlns="http://www.w3.org/2000/svg">
<path fill-rule="evenodd" clip-rule="evenodd" d="M6.18783 1.73534L6.19308 1.74284C7.30172 3.3732 8.30164 5.07489 9.18633 6.83684C9.72839 7.80963 10.072 8.8803 10.1973 9.98684C10.1973 10.5384 10.0887 11.0845 9.87763 11.5941C9.66656 12.1037 9.35719 12.5667 8.96718 12.9567C8.57717 13.3467 8.11417 13.6561 7.6046 13.8671C7.09503 14.0782 6.54888 14.1868 5.99733 14.1868C5.44578 14.1868 4.89963 14.0782 4.39006 13.8671C3.88049 13.6561 3.41749 13.3467 3.02748 12.9567C2.63747 12.5667 2.3281 12.1037 2.11704 11.5941C1.90597 11.0845 1.79733 10.5384 1.79733 9.98684C1.92264 8.8803 2.26627 7.80963 2.80833 6.83684C3.69302 5.07489 4.69294 3.3732 5.80158 1.74284L5.80683 1.73459C5.82735 1.70365 5.85522 1.67827 5.88793 1.66071C5.92065 1.64315 5.9572 1.63396 5.99433 1.63396C6.03146 1.63396 6.06801 1.64315 6.10073 1.66071C6.13344 1.67827 6.16131 1.70365 6.18183 1.73459L6.18783 1.73534ZM7.12758 1.11734C7.00477 0.929951 6.83726 0.776072 6.64014 0.669579C6.44302 0.563085 6.2225 0.507324 5.99846 0.507324C5.77441 0.507324 5.55389 0.563085 5.35677 0.669579C5.15965 0.776072 4.99214 0.929951 4.86933 1.11734C3.73218 2.79236 2.70646 4.54039 1.79883 6.35009C1.18363 7.47566 0.801051 8.71345 0.673828 9.98984C0.673828 10.6891 0.811564 11.3816 1.07917 12.0276C1.34678 12.6737 1.73901 13.2607 2.23349 13.7552C2.72796 14.2497 3.31498 14.6419 3.96104 14.9095C4.6071 15.1771 5.29954 15.3148 5.99883 15.3148C6.69812 15.3148 7.39056 15.1771 8.03662 14.9095C8.68268 14.6419 9.2697 14.2497 9.76417 13.7552C10.2586 13.2607 10.6509 12.6737 10.9185 12.0276C11.1861 11.3816 11.3238 10.6891 11.3238 9.98984C11.1966 8.71345 10.814 7.47566 10.1988 6.35009C9.29148 4.54009 8.26549 2.79203 7.12758 1.11734Z" fill="#333333"/>
</svg>
