<svg width="16" height="16" viewBox="0 0 16 16" fill="none" xmlns="http://www.w3.org/2000/svg">
<g clip-path="url(#clip0_2228_1792)">
<path d="M15.3333 16H0.666667C0.3 16 0 15.7 0 15.3333C0 14.9667 0.3 14.6667 0.666667 14.6667H15.3333C15.7 14.6667 16 14.9667 16 15.3333C16 15.7 15.7 16 15.3333 16ZM9.84667 12.5733L14.08 8.07333C14.66 7.49333 14.8267 6.66667 14.5133 5.91333C14.2 5.16 13.5 4.68667 12.68 4.68H11.3L11.28 2.64667C11.28 1.18667 10.0933 0 8.63333 0H7.31333C5.85333 0 4.66667 1.18667 4.66667 2.65333V4.66667H3.3C2.48 4.66667 1.78 5.14 1.46667 5.9C1.15333 6.65333 1.32 7.48667 1.88667 8.04667L6.10667 12.58C6.62 13.0933 7.3 13.3533 7.98 13.3533C8.66 13.3533 9.33333 13.0933 9.85333 12.58L9.84667 12.5733ZM5.33333 6C5.51333 6 5.68 5.92667 5.80667 5.80667C5.93333 5.68 6 5.51333 6 5.33333V2.64667C6 1.92 6.58667 1.33333 7.31333 1.33333H8.63333C9.36 1.33333 9.94667 1.92667 9.94667 2.65333L9.96667 5.35333C9.96667 5.72 10.2667 6.01333 10.6333 6.01333H12.6667C13.0733 6.01333 13.2333 6.32667 13.2667 6.42C13.3067 6.51333 13.4133 6.84667 13.1067 7.14667L8.88667 11.6333C8.37333 12.14 7.54667 12.1333 7.05333 11.64L2.83333 7.10667C2.54667 6.82 2.65333 6.48667 2.69333 6.39333C2.73333 6.3 2.89333 5.98667 3.29333 5.98667H5.33333V6Z" fill="white"/>
</g>
<defs>
<clipPath id="clip0_2228_1792">
<rect width="16" height="16" fill="white"/>
</clipPath>
</defs>
</svg>
