<svg width="20" height="20" viewBox="0 0 20 20" fill="none" xmlns="http://www.w3.org/2000/svg">
<path d="M6.10502 9.98351L9.87534 13.7549C9.94401 13.8235 10.0558 13.8235 10.1244 13.7549L13.8947 9.98351C13.9622 9.9171 14.0054 9.83405 14.0231 9.74546C14.0397 9.65909 14.032 9.56718 13.9954 9.47858C13.9589 9.39112 13.8991 9.31917 13.8249 9.26933C13.7496 9.21952 13.661 9.19183 13.5669 9.19183H11.7887V3.96878C11.7887 3.87136 11.7089 3.79272 11.6126 3.79272H8.38709C8.28967 3.79272 8.21104 3.87136 8.21104 3.96878V9.19183H6.43276C6.33862 9.19183 6.25006 9.21948 6.17475 9.26933C6.10057 9.31913 6.04081 9.39112 6.00424 9.47858C5.96772 9.56718 5.95999 9.65909 5.97659 9.74546C5.99432 9.83401 6.03749 9.91706 6.10502 9.98351Z" stroke="#333333"/>
<rect x="4" y="16" width="12" height="1" rx="0.5" fill="#333333"/>
</svg>
