<svg width="29" height="28" viewBox="0 0 29 28" fill="none" xmlns="http://www.w3.org/2000/svg">
<rect x="0.5" width="28" height="28" rx="4" fill="#FF3C3C"/>
<path d="M11.1666 8.66683C11.1666 8.31321 11.3071 7.97407 11.5571 7.72402C11.8072 7.47397 12.1463 7.3335 12.4999 7.3335H16.4999C16.8535 7.3335 17.1927 7.47397 17.4427 7.72402C17.6928 7.97407 17.8333 8.31321 17.8333 8.66683V10.0002H20.4999C20.6767 10.0002 20.8463 10.0704 20.9713 10.1954C21.0963 10.3204 21.1666 10.49 21.1666 10.6668C21.1666 10.8436 21.0963 11.0132 20.9713 11.1382C20.8463 11.2633 20.6767 11.3335 20.4999 11.3335H19.7873L19.2093 19.4282C19.1853 19.7646 19.0348 20.0794 18.788 20.3092C18.5412 20.5391 18.2165 20.6668 17.8793 20.6668H11.1199C10.7827 20.6668 10.458 20.5391 10.2112 20.3092C9.96439 20.0794 9.81386 19.7646 9.78992 19.4282L9.21325 11.3335H8.49992C8.32311 11.3335 8.15354 11.2633 8.02851 11.1382C7.90349 11.0132 7.83325 10.8436 7.83325 10.6668C7.83325 10.49 7.90349 10.3204 8.02851 10.1954C8.15354 10.0704 8.32311 10.0002 8.49992 10.0002H11.1666V8.66683ZM12.4999 10.0002H16.4999V8.66683H12.4999V10.0002ZM10.5493 11.3335L11.1206 19.3335H17.8799L18.4513 11.3335H10.5493ZM13.1666 12.6668C13.3434 12.6668 13.513 12.7371 13.638 12.8621C13.763 12.9871 13.8333 13.1567 13.8333 13.3335V17.3335C13.8333 17.5103 13.763 17.6799 13.638 17.8049C13.513 17.9299 13.3434 18.0002 13.1666 18.0002C12.9898 18.0002 12.8202 17.9299 12.6952 17.8049C12.5702 17.6799 12.4999 17.5103 12.4999 17.3335V13.3335C12.4999 13.1567 12.5702 12.9871 12.6952 12.8621C12.8202 12.7371 12.9898 12.6668 13.1666 12.6668ZM15.8333 12.6668C16.0101 12.6668 16.1796 12.7371 16.3047 12.8621C16.4297 12.9871 16.4999 13.1567 16.4999 13.3335V17.3335C16.4999 17.5103 16.4297 17.6799 16.3047 17.8049C16.1796 17.9299 16.0101 18.0002 15.8333 18.0002C15.6564 18.0002 15.4869 17.9299 15.3618 17.8049C15.2368 17.6799 15.1666 17.5103 15.1666 17.3335V13.3335C15.1666 13.1567 15.2368 12.9871 15.3618 12.8621C15.4869 12.7371 15.6564 12.6668 15.8333 12.6668Z" fill="white"/>
</svg>
