<svg width="17" height="16" viewBox="0 0 17 16" fill="none" xmlns="http://www.w3.org/2000/svg">
<path d="M5.16669 4.66663H4.50002C4.1464 4.66663 3.80726 4.8071 3.55721 5.05715C3.30716 5.3072 3.16669 5.64634 3.16669 5.99996V12C3.16669 12.3536 3.30716 12.6927 3.55721 12.9428C3.80726 13.1928 4.1464 13.3333 4.50002 13.3333H10.5C10.8536 13.3333 11.1928 13.1928 11.4428 12.9428C11.6929 12.6927 11.8334 12.3536 11.8334 12V11.3333" stroke="white" stroke-width="1.33333" stroke-linecap="round" stroke-linejoin="round"/>
<path d="M11.1667 3.33328L13.1667 5.33328M14.09 4.38995C14.3526 4.12739 14.5001 3.77127 14.5001 3.39995C14.5001 3.02863 14.3526 2.67251 14.09 2.40995C13.8274 2.14738 13.4713 1.99988 13.1 1.99988C12.7287 1.99988 12.3726 2.14738 12.11 2.40995L6.5 7.99995V9.99995H8.5L14.09 4.38995Z" stroke="white" stroke-width="1.33333" stroke-linecap="round" stroke-linejoin="round"/>
</svg>
