<svg width="20" height="20" viewBox="0 0 20 20" fill="none" xmlns="http://www.w3.org/2000/svg">
<g id="Layer_1">
<g id="Group">
<path id="Vector" fill-rule="evenodd" clip-rule="evenodd" d="M15.5814 13.2502H14.9249C14.548 13.2502 14.2427 13.5561 14.2427 13.9325V16.6355H3.36455V14.3009C5.06455 14.2867 6.44331 12.8994 6.44331 11.1966C6.44331 9.49312 5.06449 8.10583 3.36455 8.09162V5.7571H6.06726C6.44399 5.7571 6.74948 5.45184 6.74948 5.07477V4.41876C6.74948 3.28613 7.67095 2.36455 8.80358 2.36455C9.93621 2.36455 10.8577 3.28613 10.8577 4.41876V5.07477C10.8577 5.45178 11.1632 5.7571 11.5399 5.7571H14.2426V8.46004C14.2426 8.83649 14.548 9.14237 14.9248 9.14237H15.5813C16.7139 9.14237 17.6354 10.064 17.6354 11.1966C17.6355 12.3291 16.7139 13.2502 15.5814 13.2502ZM15.6072 7.77783V5.07483C15.6072 4.69787 15.3017 4.39261 14.9249 4.39261H12.2222C12.2082 2.51977 10.6801 1 8.80358 1C6.92716 1 5.39898 2.51971 5.38505 4.39261H2.68233C2.30549 4.39261 2 4.69793 2 5.07483V8.77395C2 9.1509 2.30549 9.45616 2.68233 9.45616H3.33868C4.29813 9.45616 5.07882 10.2369 5.07882 11.1966C5.07882 12.1557 4.29813 12.9363 3.33868 12.9363H2.68233C2.30549 12.9363 2 13.2417 2 13.6187V17.3177C2 17.6946 2.30549 18 2.68233 18H14.9249C15.3017 18 15.6072 17.6946 15.6072 17.3177V14.6147C17.4804 14.6011 19 13.0728 19 11.1965C19 9.31971 17.4804 7.79193 15.6072 7.77783Z" fill="#333333"/>
</g>
</g>
</svg>
