<svg width="36" height="36" viewBox="0 0 36 36" fill="none" xmlns="http://www.w3.org/2000/svg">
<rect width="36" height="36" rx="18" fill="#D4EBFD"/>
<path d="M26.8657 17.3857C26.2072 15.9457 23.6249 11.25 17.9999 11.25C12.3749 11.25 9.79265 15.9457 9.13415 17.3857C9.04576 17.5787 9 17.7885 9 18.0008C9 18.213 9.04576 18.4228 9.13415 18.6158C9.79265 20.0542 12.3749 24.75 17.9999 24.75C23.6249 24.75 26.2072 20.0542 26.8657 18.6143C26.9539 18.4215 26.9995 18.212 26.9995 18C26.9995 17.788 26.9539 17.5785 26.8657 17.3857ZM17.9999 23.25C13.2697 23.25 11.0624 19.2255 10.4999 18.0082C11.0624 16.7745 13.2697 12.75 17.9999 12.75C22.7189 12.75 24.9269 16.7572 25.4999 18C24.9269 19.2428 22.7189 23.25 17.9999 23.25Z" fill="#333333"/>
<path d="M18 14.25C17.2583 14.25 16.5333 14.4699 15.9166 14.882C15.2999 15.294 14.8193 15.8797 14.5355 16.5649C14.2516 17.2502 14.1774 18.0042 14.3221 18.7316C14.4668 19.459 14.8239 20.1272 15.3484 20.6517C15.8728 21.1761 16.541 21.5333 17.2684 21.6779C17.9958 21.8226 18.7498 21.7484 19.4351 21.4645C20.1203 21.1807 20.706 20.7001 21.118 20.0834C21.5301 19.4667 21.75 18.7417 21.75 18C21.7488 17.0058 21.3533 16.0527 20.6503 15.3497C19.9473 14.6467 18.9942 14.2512 18 14.25ZM18 20.25C17.555 20.25 17.12 20.118 16.75 19.8708C16.38 19.6236 16.0916 19.2722 15.9213 18.861C15.751 18.4499 15.7064 17.9975 15.7932 17.561C15.8801 17.1246 16.0943 16.7237 16.409 16.409C16.7237 16.0943 17.1246 15.88 17.561 15.7932C17.9975 15.7064 18.4499 15.751 18.861 15.9213C19.2722 16.0916 19.6236 16.38 19.8708 16.75C20.118 17.12 20.25 17.555 20.25 18C20.25 18.5967 20.0129 19.169 19.591 19.591C19.169 20.0129 18.5967 20.25 18 20.25Z" fill="#333333"/>
</svg>
