<svg width="80" height="80" viewBox="0 0 80 80" fill="none" xmlns="http://www.w3.org/2000/svg">
<rect width="80" height="80" rx="40" fill="#2A9DF4" fill-opacity="0.15"/>
<path d="M35.3144 55.8077L36.6557 56.0025C36.4635 55.4655 36.4644 54.8574 36.6678 54.269L30.3172 50.5413C29.9459 50.3232 29.5302 50.208 29.1151 50.208C28.4198 50.208 27.8172 50.5273 27.5034 51.0621C27.4803 51.1014 27.4593 51.1428 27.4395 51.1853L35.3144 55.8077Z" fill="#8ACDFF"/>
<path d="M37.4047 54.2747C37.077 54.9803 37.147 55.745 37.5883 56.2721C37.9069 56.6528 38.3803 56.8674 38.9219 56.8774C38.9238 56.8774 38.9256 56.8769 38.9276 56.877C39.469 56.8853 40.0099 56.6874 40.4496 56.3195C40.4607 56.3102 40.4725 56.3016 40.4848 56.2937L46.0321 52.7411C46.1919 52.6387 46.4045 52.6853 46.5069 52.8452C46.6093 53.005 46.5626 53.2176 46.4028 53.3201L40.8735 56.8611C40.3222 57.3159 39.6455 57.5648 38.9609 57.5648C38.9513 57.5648 38.9415 57.5647 38.9319 57.5646C38.9286 57.5647 38.9256 57.5655 38.9223 57.5655H31.6496C31.6051 57.5655 31.5611 57.5569 31.52 57.5402L23.5928 54.3137C23.5906 54.3127 23.5888 54.3113 23.5866 54.3103L22.7769 53.9807C22.4826 53.8609 22.1765 53.8002 21.8668 53.8002C21.0457 53.8002 20.3393 54.2321 20.0672 54.9006C19.678 55.8573 20.2598 57.0016 21.3642 57.4515L30.8488 61.3127L44.3133 61.3122L54.6587 57.0869L54.6585 47.5901H46.3264L38.0331 53.4551C37.7651 53.6819 37.5551 53.9555 37.4087 54.2683C37.4076 54.2706 37.4059 54.2725 37.4047 54.2747Z" fill="#8ACDFF"/>
<path d="M31.7166 56.8777H37.2127C37.1756 56.8411 37.1412 56.8016 37.1064 56.7624L35.1489 56.4781C35.105 56.4718 35.0626 56.4569 35.0243 56.4344L26.8836 51.6559C26.8782 51.6528 26.8741 51.6487 26.8691 51.6453C26.8617 51.6417 26.8538 51.6398 26.8467 51.6358C26.4845 51.4312 26.0808 51.323 25.6796 51.323C24.985 51.323 24.3832 51.6418 24.0697 52.1758C23.8023 52.6317 23.7734 53.1921 23.9851 53.7307L31.7166 56.8777Z" fill="#8ACDFF"/>
<path d="M55.3461 58.7386C55.3461 58.973 55.4383 59.1942 55.6057 59.3616C55.7731 59.5289 55.9942 59.6211 56.2286 59.621L59.1702 59.6209C59.6568 59.6209 60.0527 59.2249 60.0527 58.7383L60.0528 46.0164C60.0528 45.5299 59.657 45.134 59.1704 45.134L56.2283 45.1342C55.7417 45.1344 55.3457 45.5303 55.3457 46.0169L55.3461 58.7386ZM57.6993 55.0146C58.7107 55.0146 59.5335 55.8375 59.5335 56.8489C59.5335 57.8603 58.7107 58.6831 57.6993 58.6831C56.6879 58.6831 55.865 57.8603 55.865 56.8489C55.865 55.8375 56.6879 55.0146 57.6993 55.0146Z" fill="#8ACDFF"/>
<path d="M57.6992 57.9957C58.3316 57.9957 58.846 57.4812 58.846 56.849C58.846 56.2167 58.3317 55.7021 57.6992 55.7021C57.0668 55.7021 56.5525 56.2166 56.5525 56.849C56.5525 57.4812 57.0669 57.9957 57.6992 57.9957Z" fill="#8ACDFF"/>
<path d="M29.887 43.7013C29.968 43.7803 30.005 43.894 29.9859 44.0056L29.5472 46.5631L31.844 45.3557C31.8941 45.3294 31.949 45.3162 32.0039 45.3162C32.0588 45.3162 32.1138 45.3294 32.1639 45.3557L34.4607 46.5631L34.0221 44.0056C34.0029 43.894 34.04 43.7803 34.1209 43.7013L35.9791 41.8901L33.4112 41.5169C33.2992 41.5007 33.2024 41.4303 33.1523 41.3289L32.0039 39.002L30.8556 41.3289C30.8054 41.4303 30.7087 41.5007 30.5967 41.5169L28.0288 41.8901L29.887 43.7013Z" fill="#8ACDFF"/>
<path d="M39.776 44.397H51.4766C52.0739 44.397 52.5597 43.9111 52.5597 43.3139C52.5597 42.7166 52.0739 42.2307 51.4766 42.2307H39.776C39.1787 42.2307 38.6929 42.7166 38.6929 43.3139C38.6929 43.9111 39.1787 44.397 39.776 44.397Z" fill="#8ACDFF"/>
<path d="M29.8872 33.7606C29.9681 33.8396 30.0052 33.9534 29.986 34.0649L29.5474 36.6224L31.8442 35.4149C31.9443 35.3623 32.064 35.3623 32.1641 35.4149L34.461 36.6224L34.0223 34.0649C34.0032 33.9534 34.0402 33.8396 34.1212 33.7606L35.9793 31.9494L33.4114 31.5762C33.2994 31.56 33.2027 31.4896 33.1526 31.3882L32.0042 29.0613L30.8558 31.3882C30.8057 31.4896 30.7089 31.56 30.597 31.5762L28.0291 31.9494L29.8872 33.7606Z" fill="#8ACDFF"/>
<path d="M39.776 34.4564H51.4766C52.0739 34.4564 52.5597 33.9705 52.5597 33.3732C52.5597 32.7759 52.0739 32.29 51.4766 32.29H39.776C39.1787 32.29 38.6929 32.7759 38.6929 33.3732C38.6929 33.9705 39.1787 34.4564 39.776 34.4564Z" fill="#8ACDFF"/>
<path d="M33.1526 21.4475L32.0042 19.1206L30.8558 21.4475C30.8057 21.5489 30.7089 21.6193 30.597 21.6356L28.0291 22.0088L29.8872 23.82C29.9681 23.899 30.0052 24.0128 29.986 24.1243L29.5474 26.6818L31.8442 25.4743C31.9443 25.4217 32.064 25.4217 32.1641 25.4743L34.461 26.6818L34.0223 24.1243C34.0032 24.0128 34.0402 23.899 34.1212 23.82L35.9793 22.0088L33.4114 21.6356C33.2994 21.6192 33.2027 21.5489 33.1526 21.4475Z" fill="#8ACDFF"/>
<path d="M39.776 24.5154H51.4766C52.0739 24.5154 52.5597 24.0295 52.5597 23.4323C52.5597 22.835 52.0739 22.3491 51.4766 22.3491H39.776C39.1787 22.3491 38.6929 22.835 38.6929 23.4323C38.6929 24.0295 39.1787 24.5154 39.776 24.5154Z" fill="#8ACDFF"/>
<path d="M21.8667 53.1125C20.7648 53.1125 19.8084 53.7125 19.4302 54.6412C18.8983 55.9489 19.6494 57.4951 21.1048 58.088L30.652 61.9746C30.6931 61.9914 30.7371 62 30.7816 62L44.3808 61.9995C44.4254 61.9995 44.4695 61.9908 44.5108 61.974L54.6588 57.8293V58.7386C54.6588 59.1566 54.8225 59.5505 55.1197 59.8477C55.4168 60.1449 55.8106 60.3085 56.2285 60.3085H56.2286L59.1702 60.3084C60.0359 60.3083 60.7401 59.6039 60.7401 58.7383L60.7402 46.0164C60.7402 45.1508 60.0361 44.4465 59.1702 44.4465L56.2281 44.4467C55.3624 44.447 54.6582 45.1514 54.6582 46.0169V46.9025H46.2169C46.1458 46.9025 46.0765 46.9245 46.0184 46.9655L37.6239 52.9019C37.6163 52.9073 37.6089 52.913 37.6016 52.919C37.3492 53.1303 37.1362 53.3741 36.9654 53.6466L30.6649 49.9483C30.1882 49.6683 29.6522 49.5204 29.1148 49.5204C28.173 49.5204 27.3489 49.9666 26.9102 50.7138C26.8815 50.7628 26.8544 50.8132 26.8292 50.865C26.4613 50.7143 26.0701 50.6358 25.6794 50.6358C24.7384 50.6358 23.915 51.0815 23.4766 51.8281C23.1978 52.3034 23.1006 52.8529 23.1869 53.4054L23.0357 53.3439C22.6592 53.1903 22.2658 53.1125 21.8667 53.1125ZM24.0699 52.176C24.3834 51.642 24.9852 51.3232 25.6798 51.3232C26.081 51.3232 26.4846 51.4313 26.8469 51.636C26.854 51.64 26.8619 51.642 26.8693 51.6454C26.8744 51.6488 26.8785 51.6529 26.8838 51.6561L35.0245 56.4346C35.0628 56.4571 35.1051 56.4719 35.1491 56.4783L37.1066 56.7626C37.1414 56.8018 37.1758 56.8414 37.2129 56.8778H31.7168L23.9854 53.731C23.7737 53.1923 23.8026 52.6319 24.0699 52.176ZM29.1152 50.2078C29.5303 50.2078 29.946 50.323 30.3173 50.541L36.6678 54.2688C36.4645 54.8573 36.4636 55.4653 36.6558 56.0023L35.3145 55.8075L27.4395 51.1849C27.4594 51.1425 27.4804 51.101 27.5035 51.0617C27.8173 50.527 28.4199 50.2078 29.1152 50.2078ZM38.0331 53.4548L46.3264 47.5898H54.6585L54.6588 57.0866L44.3134 61.312L30.8488 61.3125L21.3642 57.4513C20.2598 57.0014 19.6779 55.8571 20.0671 54.9004C20.3393 54.232 21.0457 53.8 21.8667 53.8C22.1765 53.8 22.4826 53.8607 22.7768 53.9805L23.5865 54.3101C23.5888 54.311 23.5906 54.3125 23.5928 54.3134L31.5199 57.54C31.5611 57.5567 31.6051 57.5653 31.6495 57.5653H38.9222C38.9256 57.5653 38.9286 57.5645 38.9319 57.5644C38.9415 57.5645 38.9512 57.5645 38.9608 57.5645C39.6455 57.5645 40.3223 57.3158 40.8735 56.8609L46.4028 53.3198C46.5626 53.2174 46.6093 53.0047 46.5068 52.8449C46.4045 52.685 46.1919 52.6384 46.032 52.7408L40.4848 56.2934C40.4725 56.3013 40.4607 56.3099 40.4495 56.3192C40.0099 56.6871 39.469 56.885 38.9276 56.8767C38.9257 56.8767 38.9238 56.8772 38.9219 56.8771C38.3803 56.8671 37.9068 56.6524 37.5882 56.2718C37.1469 55.7447 37.077 54.9801 37.4047 54.2744C37.4059 54.2722 37.4075 54.2703 37.4086 54.268C37.5551 53.9553 37.7652 53.6817 38.0331 53.4548ZM55.346 46.0168C55.346 45.5302 55.7419 45.1343 56.2286 45.1341L59.1707 45.1339C59.6572 45.1339 60.0531 45.5298 60.0531 46.0163L60.053 58.7382C60.053 59.2248 59.6571 59.6208 59.1705 59.6209L56.2289 59.6209C55.9946 59.6209 55.7734 59.5288 55.606 59.3615C55.4387 59.1942 55.3464 58.973 55.3464 58.7385L55.346 46.0168Z" fill="#005EA5"/>
<path d="M55.865 56.849C55.865 57.8604 56.6878 58.6832 57.6992 58.6832C58.7106 58.6832 59.5335 57.8603 59.5335 56.849C59.5335 55.8375 58.7106 55.0146 57.6992 55.0146C56.6878 55.0146 55.865 55.8375 55.865 56.849ZM57.6992 55.7021C58.3316 55.7021 58.846 56.2166 58.846 56.849C58.846 57.4812 58.3317 57.9957 57.6992 57.9957C57.0668 57.9957 56.5525 57.4812 56.5525 56.849C56.5525 56.2166 57.0669 55.7021 57.6992 55.7021Z" fill="#005EA5"/>
<path d="M27.0503 41.8962L29.2778 44.0675L28.752 47.1333C28.7299 47.2623 28.7828 47.3926 28.8887 47.4695C28.9486 47.513 29.0195 47.5351 29.0908 47.5351C29.1456 47.5351 29.2005 47.5221 29.2507 47.4957L32.0041 46.0482L34.7574 47.4957C34.8733 47.5565 35.0136 47.5464 35.1194 47.4695C35.2253 47.3926 35.2783 47.2622 35.2562 47.1333L34.7304 44.0675L36.9579 41.8962C37.0515 41.8048 37.0853 41.6683 37.0448 41.5438C37.0044 41.4194 36.8969 41.3286 36.7674 41.3098L33.6891 40.8625L32.3124 38.0731C32.2544 37.9558 32.135 37.8816 32.0041 37.8816C31.8732 37.8816 31.7538 37.9558 31.6958 38.0731L30.3191 40.8625L27.2408 41.3098C27.1113 41.3286 27.0038 41.4193 26.9633 41.5438C26.923 41.6683 26.9566 41.8049 27.0503 41.8962ZM30.8557 41.3289L32.0041 39.002L33.1525 41.3289C33.2026 41.4303 33.2993 41.5007 33.4113 41.5169L35.9792 41.8901L34.1211 43.7013C34.04 43.7803 34.0031 43.894 34.0223 44.0056L34.4609 46.5631L32.164 45.3557C32.1139 45.3294 32.059 45.3162 32.0041 45.3162C31.9492 45.3162 31.8942 45.3294 31.8442 45.3557L29.5474 46.5631L29.986 44.0056C30.0052 43.894 29.9682 43.7803 29.8872 43.7013L28.0291 41.8901L30.597 41.5169C30.7088 41.5007 30.8056 41.4304 30.8557 41.3289Z" fill="#005EA5"/>
<path d="M39.776 45.0845H51.4766C52.4529 45.0845 53.2472 44.2902 53.2472 43.3139C53.2472 42.3375 52.4529 41.5432 51.4766 41.5432H39.776C38.7996 41.5432 38.0054 42.3375 38.0054 43.3139C38.0054 44.2902 38.7996 45.0845 39.776 45.0845ZM39.776 42.2307H51.4766C52.0739 42.2307 52.5597 42.7166 52.5597 43.3139C52.5597 43.9111 52.0739 44.397 51.4766 44.397H39.776C39.1787 44.397 38.6929 43.9111 38.6929 43.3139C38.6929 42.7166 39.1787 42.2307 39.776 42.2307Z" fill="#005EA5"/>
<path d="M27.0503 31.9554L29.2778 34.1267L28.752 37.1925C28.7299 37.3215 28.7828 37.4519 28.8887 37.5287C28.9486 37.5723 29.0195 37.5944 29.0908 37.5944C29.1455 37.5944 29.2005 37.5813 29.2507 37.5549L32.0041 36.1074L34.7574 37.5549C34.8733 37.6158 35.0136 37.6056 35.1194 37.5287C35.2253 37.4518 35.2783 37.3214 35.2562 37.1925L34.7304 34.1267L36.9579 31.9554C37.0515 31.8641 37.0853 31.7275 37.0448 31.6031C37.0045 31.4786 36.8969 31.388 36.7674 31.3691L33.6891 30.9217L32.3124 28.1322C32.2544 28.0149 32.135 27.9407 32.0041 27.9407C31.8732 27.9407 31.7538 28.0149 31.6958 28.1322L30.3191 30.9217L27.2408 31.3691C27.1113 31.3879 27.0037 31.4785 26.9633 31.6031C26.923 31.7274 26.9566 31.8641 27.0503 31.9554ZM30.8557 31.3881L32.0041 29.0611L33.1525 31.3881C33.2026 31.4895 33.2993 31.5598 33.4113 31.5761L35.9792 31.9492L34.1211 33.7604C34.04 33.8394 34.0031 33.9532 34.0223 34.0648L34.4609 36.6223L32.164 35.4147C32.0639 35.3622 31.9442 35.3622 31.8441 35.4147L29.5473 36.6223L29.9859 34.0648C30.0051 33.9532 29.9681 33.8394 29.8871 33.7604L28.029 31.9492L30.5969 31.5761C30.7088 31.5598 30.8056 31.4895 30.8557 31.3881Z" fill="#005EA5"/>
<path d="M39.776 35.1439H51.4766C52.4529 35.1439 53.2472 34.3495 53.2472 33.3732C53.2472 32.3969 52.4529 31.6025 51.4766 31.6025H39.776C38.7996 31.6025 38.0054 32.3969 38.0054 33.3732C38.0054 34.3496 38.7996 35.1439 39.776 35.1439ZM39.776 32.29H51.4766C52.0739 32.29 52.5597 32.7759 52.5597 33.3732C52.5597 33.9705 52.0739 34.4564 51.4766 34.4564H39.776C39.1787 34.4564 38.6929 33.9705 38.6929 33.3732C38.6929 32.776 39.1787 32.29 39.776 32.29Z" fill="#005EA5"/>
<path d="M37.0448 21.6624C37.0045 21.538 36.8969 21.4473 36.7674 21.4284L33.6891 20.981L32.3124 18.1916C32.2544 18.0743 32.1349 18 32.0041 18C31.8733 18 31.7538 18.0743 31.6958 18.1916L30.3191 20.981L27.2408 21.4284C27.1113 21.4472 27.0037 21.5379 26.9633 21.6624C26.923 21.7868 26.9566 21.9235 27.0504 22.0147L29.2779 24.186L28.752 27.2518C28.73 27.3808 28.7829 27.5111 28.8888 27.588C28.9487 27.6314 29.0196 27.6536 29.0909 27.6536C29.1456 27.6536 29.2006 27.6406 29.2508 27.6142L32.0042 26.1666L34.7575 27.6142C34.8734 27.675 35.0137 27.6649 35.1195 27.588C35.2254 27.511 35.2784 27.3807 35.2563 27.2518L34.7305 24.186L36.958 22.0147C37.0515 21.9234 37.0852 21.7868 37.0448 21.6624ZM34.1211 23.8198C34.04 23.8987 34.0031 24.0125 34.0223 24.1241L34.4609 26.6816L32.164 25.4741C32.0639 25.4215 31.9442 25.4215 31.8441 25.4741L29.5473 26.6816L29.9859 24.1241C30.0051 24.0125 29.9681 23.8987 29.8871 23.8198L28.029 22.0086L30.5969 21.6353C30.7088 21.6191 30.8056 21.5487 30.8557 21.4473L32.0041 19.1204L33.1525 21.4473C33.2026 21.5487 33.2993 21.6191 33.4113 21.6353L35.9792 22.0086L34.1211 23.8198Z" fill="#005EA5"/>
<path d="M39.776 25.2029H51.4766C52.4529 25.2029 53.2472 24.4086 53.2472 23.4323C53.2472 22.4559 52.4529 21.6616 51.4766 21.6616H39.776C38.7996 21.6616 38.0054 22.4559 38.0054 23.4323C38.0054 24.4086 38.7996 25.2029 39.776 25.2029ZM39.776 22.3491H51.4766C52.0739 22.3491 52.5597 22.835 52.5597 23.4323C52.5597 24.0295 52.0739 24.5154 51.4766 24.5154H39.776C39.1787 24.5154 38.6929 24.0295 38.6929 23.4323C38.6929 22.835 39.1787 22.3491 39.776 22.3491Z" fill="#005EA5"/>
</svg>
