<svg width="20" height="20" viewBox="0 0 20 20" fill="none" xmlns="http://www.w3.org/2000/svg">
<g id="feedback-review 1" clip-path="url(#clip0_437_18962)">
<path id="Vector" d="M19.8017 5.49736L18.4875 6.56819L19.0309 8.22402C19.105 8.44819 19.03 8.69486 18.8425 8.83902C18.655 8.98319 18.3975 8.99319 18.2 8.86486L16.67 7.86819L15.1659 8.87486C15.0725 8.93736 14.9642 8.96902 14.8567 8.96902C14.7392 8.96902 14.6217 8.93152 14.5234 8.85819C14.3342 8.71652 14.2559 8.47152 14.3267 8.24652L14.8492 6.57069L13.5284 5.49569C13.3509 5.34486 13.2859 5.09902 13.3667 4.88069C13.4467 4.66236 13.655 4.51652 13.8884 4.51652H15.5559L16.1459 2.86069C16.2267 2.64319 16.4342 2.49902 16.6667 2.49902C16.8992 2.49902 17.1067 2.64319 17.1875 2.86069L17.7775 4.51652H19.445C19.6784 4.51652 19.8867 4.66236 19.9667 4.88152C20.0467 5.10069 19.98 5.34652 19.8017 5.49736ZM6.86254 2.99569L8.18337 4.07069L7.66087 5.74652C7.59004 5.97152 7.66921 6.21652 7.85754 6.35819C7.95587 6.43236 8.07337 6.46902 8.19087 6.46902C8.29837 6.46902 8.40587 6.43819 8.50004 6.37486L10.0042 5.36819L11.5342 6.36486C11.7317 6.49319 11.9892 6.48319 12.1767 6.33902C12.3642 6.19486 12.4392 5.94819 12.365 5.72402L11.8217 4.06819L13.1359 2.99736C13.3142 2.84736 13.38 2.60069 13.3 2.38152C13.22 2.16236 13.0117 2.01652 12.7784 2.01652H11.1109L10.5209 0.36069C10.44 0.14319 10.2325 -0.000976562 10 -0.000976562C9.76754 -0.000976562 9.56004 0.14319 9.47921 0.36069L8.88921 2.01652H7.22171C6.98837 2.01652 6.78087 2.16152 6.70004 2.38069C6.61921 2.59902 6.68421 2.84486 6.86171 2.99569H6.86254ZM4.86754 8.86402C5.06504 8.99236 5.32254 8.98236 5.51004 8.83819C5.69754 8.69402 5.77254 8.44736 5.69837 8.22319L5.15504 6.56736L6.46921 5.49652C6.64754 5.34652 6.71337 5.09986 6.63337 4.88069C6.55337 4.66152 6.34504 4.51569 6.11171 4.51569H4.44421L3.85421 2.85986C3.77337 2.64236 3.56587 2.49819 3.33337 2.49819C3.10087 2.49819 2.89337 2.64236 2.81254 2.85986L2.22254 4.51569H0.555039C0.321706 4.51569 0.114206 4.66069 0.0333726 4.87986C-0.0474607 5.09819 0.0175393 5.34402 0.195039 5.49486L1.51587 6.56986L0.993373 8.24569C0.922539 8.47069 1.00171 8.71569 1.19004 8.85736C1.28837 8.93152 1.40587 8.96819 1.52337 8.96819C1.63087 8.96819 1.73837 8.93736 1.83254 8.87402L3.33671 7.86736L4.86754 8.86402ZM16.6175 14.6565L16.085 17.3199C15.7734 18.8782 14.405 19.9999 12.8167 19.9999H5.83254C4.45171 19.9999 3.33254 18.8807 3.33254 17.4999V14.1665C3.33254 12.7857 4.45171 11.6665 5.83254 11.6665H7.04587L8.87337 8.20902C9.02337 7.91569 9.23004 7.69736 9.44171 7.60986C9.61837 7.53652 9.79754 7.49986 9.97504 7.49986C10.5434 7.49986 11.0117 7.87152 11.1684 8.44652C11.1867 8.51319 11.21 8.66736 11.1625 8.94569L10.6792 11.6665H14.165C15.7425 11.6665 16.9267 13.1099 16.6175 14.6565ZM5.83337 18.3332H6.66671V13.3332H5.83337C5.37421 13.3332 5.00004 13.7074 5.00004 14.1665V17.4999C5.00004 17.959 5.37421 18.3332 5.83337 18.3332ZM14.81 13.6382C14.7167 13.524 14.5084 13.3332 14.1659 13.3332H8.33337V18.3332H12.8159C13.6075 18.3332 14.295 17.7699 14.45 16.9932L14.9825 14.3299C15.05 13.9932 14.9034 13.7524 14.81 13.6382Z" fill="#343434"/>
</g>
<defs>
<clipPath id="clip0_437_18962">
<rect width="20" height="20" fill="white" transform="translate(-0.000976562)"/>
</clipPath>
</defs>
</svg>
