<svg width="47" height="12" viewBox="0 0 47 12" fill="none" xmlns="http://www.w3.org/2000/svg">
<path d="M0.118896 11.1564V0.568115H4.32468C5.13632 0.568115 5.84036 0.832821 6.43679 1.36223C7.03322 1.89164 7.33144 2.55971 7.33144 3.36643C7.33144 3.84543 7.20231 4.2866 6.94407 4.68996C6.68582 5.09333 6.34148 5.40215 5.91107 5.61643V5.72988C6.43986 5.90635 6.86721 6.22148 7.19309 6.67526C7.51898 7.12904 7.68192 7.63954 7.68192 8.20677C7.68192 9.06391 7.35911 9.7698 6.71349 10.3244C6.06786 10.879 5.31463 11.1564 4.4538 11.1564H0.118896ZM1.70529 5.04921H4.214C4.64441 5.04921 5.01642 4.90425 5.33001 4.61433C5.64359 4.32442 5.80039 3.95887 5.80039 3.51769C5.80039 3.07652 5.64359 2.70782 5.33001 2.4116C5.01642 2.11538 4.64441 1.96727 4.214 1.96727H1.70529V5.04921ZM1.70529 9.71938H4.36157C4.82888 9.71938 5.2347 9.56181 5.57903 9.24669C5.92336 8.93156 6.09553 8.5345 6.09553 8.05551C6.09553 7.58912 5.92336 7.19837 5.57903 6.88324C5.2347 6.56812 4.82888 6.41055 4.36157 6.41055H1.70529V9.71938Z" fill="black"/>
<path d="M18.2703 11.1566V9.50218H20.4906L23.3753 2.22277H20.8633V0.568359H27.3459V2.22277H25.1256L22.2409 9.50218H24.7529V11.1566H18.2703Z" fill="black"/>
<path d="M37.9341 11.9129V10.9675H47.0098V11.9129H37.9341ZM42.472 9.39189C41.3807 9.39189 40.4597 9.02949 39.7088 8.3047C38.9579 7.57991 38.5824 6.69231 38.5824 5.64189V0.568359H39.8789V5.6734C39.8789 6.36668 40.1274 6.94966 40.6244 7.42235C41.1214 7.89504 41.7373 8.13138 42.472 8.13138C43.2067 8.13138 43.8225 7.89504 44.3195 7.42235C44.8165 6.94966 45.065 6.36668 45.065 5.6734V0.568359H46.3615V5.64189C46.3615 6.69231 45.9861 7.57991 45.2352 8.3047C44.4843 9.02949 43.5632 9.39189 42.472 9.39189Z" fill="black"/>
</svg>
