<svg width="20" height="20" viewBox="0 0 20 20" fill="none" xmlns="http://www.w3.org/2000/svg">
<g clip-path="url(#clip0_1706_13026)">
<path d="M17.8511 10C18.9241 8.39667 19.3071 6.844 18.9261 5.60833C18.8719 5.43234 18.6853 5.33362 18.5093 5.38783C18.3333 5.44205 18.2346 5.62867 18.2888 5.80467C18.5938 6.79333 18.2851 8.06433 17.4314 9.41667C16.7484 8.5464 15.9685 7.75675 15.1068 7.063C14.94 5.96268 14.6466 4.88531 14.2324 3.85233C16.0351 3.781 17.3628 4.25233 17.9968 5.205C18.0989 5.35817 18.3059 5.39951 18.4591 5.29733C18.6123 5.19516 18.6536 4.98817 18.5514 4.835C17.7514 3.635 16.1181 3.05967 13.9411 3.20167C12.9734 1.223 11.5768 0 9.9991 0C8.42143 0 7.02477 1.22333 6.05643 3.2C3.7161 3.05033 1.98077 3.74633 1.2721 5.13333C1.25671 5.16652 1.24681 5.20198 1.24277 5.23833C1.20898 5.26999 1.18238 5.30852 1.16477 5.35133C0.640099 6.62867 0.990765 8.27333 2.14743 10C0.915765 11.8377 0.599098 13.5607 1.26577 14.87C1.32263 14.9819 1.43756 15.0524 1.5631 15.0523H1.57577C1.52292 15.1663 1.53933 15.3004 1.6181 15.3983C2.3781 16.329 3.71443 16.823 5.4341 16.823C5.63577 16.823 5.84477 16.814 6.05677 16.8C7.02477 18.777 8.42143 20 9.9991 20C11.5768 20 12.9734 18.777 13.9418 16.8C14.1561 16.814 14.3671 16.8233 14.5708 16.8233C16.3728 16.8233 17.7444 16.2823 18.4838 15.264C18.5849 15.1229 18.5599 14.9277 18.4264 14.8167C18.5936 14.8795 18.78 14.7951 18.8431 14.628C19.3538 13.352 18.9991 11.7157 17.8511 10ZM17.0348 10C16.5018 10.7096 15.8988 11.3636 15.2348 11.9523C15.3002 11.3036 15.3328 10.652 15.3324 10C15.3321 9.34795 15.2987 8.69634 15.2324 8.04767C15.8973 8.63624 16.5011 9.29033 17.0348 10ZM13.5294 16.0933C12.6421 15.9871 11.7678 15.7908 10.9201 15.5077C11.5168 15.2414 12.0994 14.9448 12.6658 14.619C13.2341 14.291 13.7847 13.933 14.3151 13.5467C14.1403 14.42 13.8771 15.2733 13.5294 16.0933ZM5.68343 13.5467C6.21372 13.9331 6.76416 14.291 7.33243 14.619C7.89797 14.9444 8.47961 15.241 9.0751 15.5077C8.2283 15.7907 7.35492 15.9869 6.46843 16.0933C6.12101 15.2733 5.85799 14.42 5.68343 13.5467ZM6.46877 3.90667C7.35615 4.01294 8.23042 4.20917 9.0781 4.49233C8.48145 4.75862 7.8988 5.05522 7.33243 5.381C6.76407 5.70902 6.21352 6.06697 5.6831 6.45333C5.85787 5.57998 6.12112 4.72669 6.46877 3.90667ZM7.66577 14.0413C6.91407 13.6087 6.19544 13.1211 5.51577 12.5823C5.27177 10.8694 5.27177 9.13058 5.51577 7.41767C6.19546 6.87896 6.91409 6.3913 7.66577 5.95867C8.41578 5.52492 9.19628 5.14615 10.0011 4.82533C10.8053 5.14618 11.5851 5.52496 12.3344 5.95867C13.0861 6.39127 13.8048 6.87893 14.4844 7.41767C14.6063 8.27302 14.6669 9.136 14.6658 10C14.6664 10.864 14.6052 11.727 14.4828 12.5823C13.803 13.121 13.0842 13.6087 12.3324 14.0413C11.583 14.4748 10.8032 14.8533 9.9991 15.174C9.19499 14.8533 8.41517 14.4748 7.66577 14.0413ZM4.76577 11.9523C4.10075 11.3639 3.49691 10.7098 2.96343 10C3.49635 9.29043 4.0994 8.63635 4.76343 8.04767C4.63232 9.34592 4.63232 10.6541 4.76343 11.9523H4.76577ZM10.9244 4.49233C11.7712 4.20929 12.6446 4.01306 13.5311 3.90667C13.8786 4.7267 14.1418 5.57999 14.3164 6.45333C13.7856 6.06689 13.2346 5.70894 12.6658 5.381C12.1001 5.05559 11.5184 4.75899 10.9228 4.49233H10.9244ZM9.9991 0.666667C11.2511 0.666667 12.3888 1.65967 13.2278 3.27033C12.1236 3.42708 11.0409 3.70935 10.0008 4.11167C8.95968 3.70906 7.87598 3.42678 6.77077 3.27033C7.60977 1.65967 8.7471 0.666667 9.9991 0.666667ZM1.78143 5.603C1.79026 5.57682 1.79553 5.54958 1.7971 5.522C1.82477 5.49729 1.8481 5.46811 1.8661 5.43567C2.4241 4.344 3.83277 3.77867 5.7661 3.85267C5.3521 4.88566 5.05882 5.96303 4.8921 7.06333C4.02965 7.75797 3.24917 8.54863 2.56577 9.42C1.64343 7.96667 1.36377 6.62133 1.78143 5.603ZM2.13443 14.9757C2.06678 14.8948 1.96427 14.8514 1.8591 14.8593C1.90459 14.7676 1.90459 14.6598 1.8591 14.568C1.34043 13.546 1.5991 12.1097 2.56577 10.5803C3.24946 11.4516 4.03016 12.2421 4.89277 12.9367C5.05935 14.0356 5.35206 15.1117 5.7651 16.1437C4.09143 16.208 2.8101 15.803 2.13443 14.9757ZM9.9991 19.3333C8.7471 19.3333 7.60943 18.3403 6.77043 16.7297C7.87517 16.573 8.95841 16.2908 9.9991 15.8883C11.0402 16.2909 12.1239 16.5732 13.2291 16.7297C12.3884 18.3403 11.2511 19.3333 9.9991 19.3333ZM17.9441 14.871C17.2918 15.771 15.9828 16.2113 14.2348 16.143C14.6477 15.1113 14.9403 14.0354 15.1068 12.9367C15.9691 12.2421 16.7493 11.4514 17.4324 10.58C18.3471 12.026 18.6298 13.363 18.2228 14.38C18.1688 14.5182 18.2138 14.6754 18.3328 14.764C18.194 14.7066 18.0339 14.7506 17.9441 14.871Z" fill="#2A9DF4"/>
<path d="M1.66553 6.3335C2.21781 6.3335 2.66553 5.88578 2.66553 5.3335C2.66553 4.78121 2.21781 4.3335 1.66553 4.3335C1.11324 4.3335 0.665527 4.78121 0.665527 5.3335C0.665527 5.88578 1.11324 6.3335 1.66553 6.3335Z" fill="#0087ED"/>
<path d="M18.3323 15.6667C18.8846 15.6667 19.3323 15.219 19.3323 14.6667C19.3323 14.1145 18.8846 13.6667 18.3323 13.6667C17.78 13.6667 17.3323 14.1145 17.3323 14.6667C17.3323 15.219 17.78 15.6667 18.3323 15.6667Z" fill="#0087ED"/>
<path d="M1.66553 15.6667C2.21781 15.6667 2.66553 15.219 2.66553 14.6667C2.66553 14.1145 2.21781 13.6667 1.66553 13.6667C1.11324 13.6667 0.665527 14.1145 0.665527 14.6667C0.665527 15.219 1.11324 15.6667 1.66553 15.6667Z" fill="#0087ED"/>
<path d="M18.3323 6.3335C18.8846 6.3335 19.3323 5.88578 19.3323 5.3335C19.3323 4.78121 18.8846 4.3335 18.3323 4.3335C17.78 4.3335 17.3323 4.78121 17.3323 5.3335C17.3323 5.88578 17.78 6.3335 18.3323 6.3335Z" fill="#0087ED"/>
</g>
<defs>
<clipPath id="clip0_1706_13026">
<rect width="20" height="20" fill="white"/>
</clipPath>
</defs>
</svg>
