<svg width="25" height="24" viewBox="0 0 25 24" fill="none" xmlns="http://www.w3.org/2000/svg">
<rect x="1.25" y="0.75" width="22.5" height="22.5" rx="11.25" stroke="white" stroke-width="1.5"/>
<path d="M17.6429 12.8571H13.3571V17.1429C13.3571 17.6143 12.9714 18 12.5 18C12.0286 18 11.6429 17.6143 11.6429 17.1429V12.8571H7.35714C6.88571 12.8571 6.5 12.4714 6.5 12C6.5 11.5286 6.88571 11.1429 7.35714 11.1429H11.6429V6.85714C11.6429 6.38571 12.0286 6 12.5 6C12.9714 6 13.3571 6.38571 13.3571 6.85714V11.1429H17.6429C18.1143 11.1429 18.5 11.5286 18.5 12C18.5 12.4714 18.1143 12.8571 17.6429 12.8571Z" fill="white"/>
</svg>
