<svg width="154" height="114" viewBox="0 0 154 114" fill="none" xmlns="http://www.w3.org/2000/svg">
<g clip-path="url(#clip0_1059_2988)">
<path d="M47.9428 19.6523C12.6703 38.2488 -6.6048 71.3494 5.01703 94.0337C16.8767 117.182 56.3071 120.785 92.955 101.603C129.701 82.3698 148.617 48.1129 135.364 25.5562C122.378 3.45266 83.3061 1.00722 47.9428 19.6523ZM93.5279 94.8848C59.1939 114.896 20.8349 113.111 9.30514 90.6945C-1.95244 68.8061 17.3298 36.5351 51.0079 18.7482C83.4986 1.58666 118.451 3.81173 130.332 23.5703C142.481 43.7749 126.6 75.6084 93.5273 94.8848H93.5279Z" fill="#2A9DF4"/>
<path opacity="0.4" d="M151.931 98.2188C152.218 96.6283 151.174 95.1064 149.595 94.7959L150.919 83.1547C152.289 83.1197 153.491 82.13 153.746 80.728C154.036 79.1245 152.971 77.5884 151.368 77.2974C149.762 77.007 148.226 78.0713 147.935 79.6761C147.868 80.0455 147.877 80.4104 147.943 80.7572L139.783 83.5487C139.482 82.502 138.616 81.662 137.472 81.4546C137.369 81.4358 137.264 81.4235 137.161 81.4157L137.283 71.7227C138.431 71.4881 139.377 70.5807 139.599 69.3577C139.891 67.7529 138.826 66.2161 137.22 65.9251C136.903 65.8674 136.588 65.8655 136.286 65.907L132.862 55.9022C133.655 55.4978 134.259 54.744 134.429 53.7997C134.565 53.0543 134.405 52.3264 134.039 51.7282L138.955 47.6611C139.37 48.0889 139.915 48.3981 140.547 48.5121C142.152 48.8038 143.687 47.7402 143.979 46.1347C144.27 44.5293 143.205 42.9926 141.6 42.7015C140.393 42.4825 139.225 43.0314 138.596 44.0004L129.743 39.6417C129.745 39.6274 129.749 39.6138 129.752 39.6002C130.043 37.9954 128.977 36.4586 127.374 36.1683C125.769 35.8773 124.232 36.9421 123.94 38.5476C123.651 40.1524 124.714 41.6891 126.32 41.9802C127.629 42.2167 128.892 41.553 129.47 40.4285L138.249 44.7503C138.216 44.8573 138.187 44.9681 138.167 45.0809C138.043 45.7601 138.167 46.4271 138.469 46.9929L133.514 51.0917C133.117 50.7294 132.619 50.4689 132.053 50.3665C130.448 50.0754 128.911 51.1397 128.62 52.7445C128.467 53.5864 128.691 54.407 129.166 55.0415L122.376 61.8094C122.02 61.5385 121.596 61.3427 121.125 61.2585C119.52 60.9668 117.984 62.0317 117.692 63.6385C117.401 65.2426 118.466 66.78 120.071 67.0704C121.43 67.316 122.735 66.5888 123.282 65.3872L133.764 68.4879C133.584 70.0227 134.624 71.4544 136.166 71.7338C136.264 71.7519 136.361 71.7636 136.457 71.772L136.335 81.4695C135.197 81.7113 134.26 82.6154 134.04 83.832C133.749 85.4368 134.814 86.9729 136.419 87.2639C138.023 87.5549 139.56 86.4894 139.851 84.8852C139.882 84.7154 139.895 84.5462 139.896 84.379L148.21 81.5363C148.582 82.2693 149.255 82.8377 150.1 83.0568L148.769 94.7499C147.474 94.8608 146.36 95.8213 146.117 97.163C145.826 98.7678 146.891 100.305 148.496 100.596C150.101 100.886 151.638 99.821 151.93 98.2162L151.931 98.2188ZM129.747 55.6281C130.104 55.8984 130.527 56.0928 130.999 56.179C131.368 56.2464 131.734 56.238 132.082 56.1719L135.492 66.1345C134.818 66.4365 134.265 66.9868 133.971 67.6919L123.517 64.599C123.637 63.7901 123.417 63.0065 122.959 62.3953L129.747 55.6274V55.6281Z" fill="#2A9DF4"/>
<path opacity="0.4" d="M2.93794 37.6954C4.54923 37.816 5.9544 36.6195 6.09958 35.0167L17.8147 35.121C17.993 36.4795 19.102 37.5716 20.5227 37.6786C22.1482 37.7998 23.5657 36.5806 23.6882 34.9551C23.8101 33.3276 22.5903 31.9114 20.9641 31.7896C20.5894 31.761 20.2278 31.8077 19.8888 31.9108L16.2618 24.0857C17.2716 23.6774 18.0163 22.7279 18.1038 21.5697C18.1116 21.4647 18.1135 21.3597 18.1103 21.2566L27.7637 20.3673C28.117 21.4847 29.1177 22.3312 30.3576 22.4239C31.9844 22.5464 33.4013 21.3279 33.5238 19.7011C33.5477 19.3789 33.5166 19.0665 33.4434 18.769L43.0372 14.3202C43.522 15.0675 44.3348 15.5892 45.2921 15.6612C46.0472 15.7176 46.7549 15.483 47.311 15.0565L51.8688 19.5222C51.4864 19.9798 51.2355 20.554 51.1882 21.1944C51.0657 22.8212 52.2842 24.2368 53.9104 24.3593C55.5379 24.4811 56.9548 23.2626 57.0766 21.6351C57.1686 20.4121 56.501 19.3076 55.4718 18.7826L58.8836 9.52328C58.8979 9.52523 58.9121 9.52782 58.9257 9.52912C60.5519 9.65097 61.9694 8.43181 62.0913 6.80627C62.2138 5.17944 60.9946 3.7626 59.3671 3.6401C57.7403 3.51825 56.3235 4.73676 56.2016 6.36424C56.1018 7.69034 56.8945 8.87644 58.0734 9.33532L54.6901 18.5169C54.58 18.4949 54.4672 18.4787 54.3525 18.4702C53.6635 18.419 53.0134 18.6102 52.4819 18.9693L47.8892 14.4693C48.2087 14.0363 48.4155 13.5145 48.4589 12.9403C48.5814 11.3135 47.3629 9.89661 45.7361 9.77476C44.8825 9.7106 44.0891 10.0178 43.5077 10.5571L36.0697 4.51055C36.3017 4.12685 36.4521 3.68612 36.4877 3.20844C36.6102 1.58225 35.3904 0.164763 33.7629 0.0422642C32.1367 -0.0795865 30.7193 1.14022 30.5974 2.7664C30.495 4.14241 31.3544 5.36545 32.606 5.78415L30.6143 16.5316C29.0691 16.5135 27.7547 17.697 27.636 19.2603C27.6289 19.3588 27.627 19.4567 27.6289 19.5533L17.9703 20.4432C17.6119 19.3362 16.6144 18.4981 15.3816 18.4067C13.7548 18.2849 12.3392 19.504 12.2161 21.1296C12.0942 22.7564 13.3134 24.1739 14.9389 24.2951C15.112 24.3087 15.2812 24.3035 15.4484 24.2873L19.1421 32.2601C18.4519 32.7067 17.956 33.4352 17.8277 34.2985L6.0594 34.1935C5.8144 32.9167 4.74237 31.9101 3.38257 31.8077C1.75573 31.6859 0.338895 32.905 0.217045 34.5312C0.095842 36.1574 1.31565 37.5755 2.94119 37.6974L2.93794 37.6954ZM42.9866 11.1942C42.7546 11.5779 42.6049 12.0193 42.5686 12.4963C42.5407 12.8709 42.5861 13.2332 42.6891 13.5722L33.1355 18.0029C32.7648 17.3639 32.1601 16.8719 31.4277 16.6528L33.4136 5.93258C34.2309 5.96758 34.9873 5.66684 35.5466 5.14768L42.9853 11.1935L42.9866 11.1942Z" fill="#2A9DF4"/>
<g style="mix-blend-mode:multiply">
<path d="M143.867 104.828C143.867 106.937 112.565 108.647 73.9521 108.647C35.3391 108.647 4.03833 106.936 4.03833 104.828C4.03833 102.72 35.3397 101.008 73.9521 101.008C112.565 101.009 143.867 102.718 143.867 104.828Z" fill="#D6D6D7"/>
</g>
<path d="M127.079 96.1066C127.079 97.712 125.765 99.0258 124.159 99.0258H23.7465C22.1411 99.0258 20.8267 97.712 20.8267 96.1066V33.4753C20.8267 31.8705 22.1411 30.5561 23.7465 30.5561H124.159C125.764 30.5561 127.078 31.8712 127.078 33.4753V96.1066H127.079Z" fill="white"/>
<path d="M23.7462 97.9596C22.7241 97.9596 21.8918 97.1287 21.8918 96.1066V33.4753C21.8918 32.4532 22.7234 31.6216 23.7462 31.6216H124.158C125.18 31.6216 126.011 32.4532 126.011 33.4753V96.1066C126.011 97.1287 125.18 97.9596 124.158 97.9596H23.7462Z" fill="#231F20"/>
<path d="M123.673 34.3147H24.2327V99.0252H123.673V34.3147Z" fill="#2A9DF4"/>
<path d="M123.672 38.2055L24.2327 38.2061V34.3147H123.672V38.2055Z" fill="#414042"/>
<g opacity="0.28">
<path d="M114.674 92.7972H33.2306C33.1232 92.7972 33.0361 92.8842 33.0361 92.9916V93.7221C33.0361 93.8295 33.1232 93.9165 33.2306 93.9165H114.674C114.782 93.9165 114.869 93.8295 114.869 93.7221V92.9916C114.869 92.8842 114.782 92.7972 114.674 92.7972Z" fill="white"/>
</g>
<path d="M8.51123 96.8358V101.944C8.51123 103.549 9.82501 104.864 11.4305 104.864H136.474C138.079 104.864 139.392 103.549 139.392 101.944V96.8365H8.51123V96.8358Z" fill="#E6E7E8"/>
<path d="M83.7288 96.8358H64.1763V99.0726H83.7288V96.8358Z" fill="white"/>
<g style="mix-blend-mode:multiply" opacity="0.4">
<path d="M8.51123 101.944C8.51123 103.549 9.82501 104.864 11.4305 104.864H136.474C138.079 104.864 139.392 103.549 139.392 101.944V101.459H8.51123V101.944Z" fill="#D6D6D7"/>
</g>
<g style="mix-blend-mode:multiply" opacity="0.3">
<path d="M123.672 34.3147V96.8364L24.2327 96.8358L123.672 34.3147Z" fill="#FF7300"/>
</g>
<mask id="mask0_1059_2988" style="mask-type:luminance" maskUnits="userSpaceOnUse" x="56" y="14" width="66" height="83">
<path d="M121.851 14.5537H56.9314V96.836H121.851V14.5537Z" fill="white"/>
</mask>
<g mask="url(#mask0_1059_2988)">
<path d="M118.284 68.2468H60.4985V107.105H118.284V68.2468Z" fill="#0072AB"/>
<path d="M60.4985 68.2467L86.3704 48.1128C88.0316 46.8198 90.7499 46.8198 92.4124 48.1128L118.284 68.2467H60.4985Z" fill="#005A81"/>
<g style="mix-blend-mode:multiply" opacity="0.4">
<path d="M90.5206 47.2625C90.5206 47.2625 105.128 61.0815 104.884 69.252C104.64 77.4224 89.7571 87.9217 89.7571 87.9217L118.284 95.5263V68.2467L92.4125 48.1128C91.87 47.6909 91.2147 47.4089 90.5212 47.2625H90.5206Z" fill="#0080C3"/>
</g>
<path d="M115.646 16.7901H63.1357V90.1371H115.646V16.7901Z" fill="white"/>
<path d="M110.184 53.438H68.5977V54.2255H110.184V53.438Z" fill="#A0A0A0"/>
<path d="M110.184 55.5287H68.5977V56.3156H110.184V55.5287Z" fill="#D6D6D7"/>
<path d="M110.184 57.542H68.5977V58.3295H110.184V57.542Z" fill="#D6D6D7"/>
<path d="M94.3853 59.6413H68.5977V60.4288H94.3853V59.6413Z" fill="#D6D6D7"/>
<path d="M113.723 20.5875H66.0762V31.2708H113.723V20.5875Z" fill="#00728E"/>
<path d="M70.452 27.8014V24.2351H71.2082V27.8014H70.452ZM75.2501 25.023C75.5591 25.023 75.7925 25.1027 75.9502 25.2621C76.1096 25.4198 76.1892 25.6735 76.1892 26.0231V27.8014H75.4428V26.2085C75.4428 26.0134 75.4095 25.8662 75.3428 25.767C75.2761 25.6678 75.1729 25.6182 75.033 25.6182C74.8362 25.6182 74.6964 25.689 74.6135 25.8304C74.5305 25.9703 74.4891 26.1711 74.4891 26.4329V27.8014H73.7451V26.2085C73.7451 26.0784 73.7304 25.9695 73.7012 25.8817C73.6719 25.7939 73.6272 25.728 73.567 25.6841C73.5068 25.6402 73.4296 25.6182 73.3353 25.6182C73.197 25.6182 73.0881 25.6532 73.0084 25.7231C72.9303 25.7914 72.8742 25.893 72.8401 26.028C72.8076 26.1614 72.7913 26.3248 72.7913 26.5183V27.8014H72.0473V25.0743H72.6157L72.7157 25.4231H72.7572C72.8124 25.3288 72.8816 25.2523 72.9645 25.1938C73.0491 25.1352 73.1418 25.0921 73.2426 25.0645C73.3434 25.0369 73.4459 25.023 73.5499 25.023C73.7499 25.023 73.9191 25.0556 74.0573 25.1206C74.1972 25.1857 74.3045 25.2865 74.3793 25.4231H74.4451C74.5265 25.2832 74.6411 25.1816 74.7891 25.1182C74.9387 25.0547 75.0924 25.023 75.2501 25.023ZM78.4724 25.023C78.7798 25.023 79.0278 25.1426 79.2164 25.3816C79.4067 25.6207 79.5018 25.9711 79.5018 26.4329C79.5018 26.7419 79.4571 27.0021 79.3676 27.2135C79.2782 27.4233 79.1546 27.5819 78.9969 27.6892C78.8391 27.7965 78.6578 27.8502 78.4529 27.8502C78.3212 27.8502 78.2082 27.8339 78.1139 27.8014C78.0195 27.7672 77.939 27.7241 77.8724 27.6721C77.8057 27.6184 77.748 27.5615 77.6992 27.5014H77.6601C77.6732 27.5664 77.6829 27.6331 77.6894 27.7014C77.6959 27.7697 77.6992 27.8364 77.6992 27.9014V29.0015H76.9552V25.0743H77.5601L77.665 25.428H77.6992C77.748 25.3548 77.8073 25.2873 77.8772 25.2255C77.9472 25.1637 78.0309 25.1149 78.1285 25.0791C78.2277 25.0417 78.3423 25.023 78.4724 25.023ZM78.2334 25.6182C78.1033 25.6182 78 25.6451 77.9236 25.6987C77.8472 25.7524 77.7911 25.8329 77.7553 25.9402C77.7211 26.0475 77.7024 26.1833 77.6992 26.3476V26.4281C77.6992 26.6037 77.7154 26.7525 77.748 26.8745C77.7821 26.9964 77.8382 27.0891 77.9163 27.1525C77.996 27.216 78.1049 27.2477 78.2431 27.2477C78.357 27.2477 78.4505 27.216 78.5237 27.1525C78.5968 27.0891 78.6513 26.9964 78.6871 26.8745C78.7245 26.7509 78.7432 26.6004 78.7432 26.4232C78.7432 26.1565 78.7017 25.9557 78.6188 25.8207C78.5358 25.6857 78.4074 25.6182 78.2334 25.6182ZM82.5948 26.4329C82.5948 26.6606 82.5639 26.8623 82.5021 27.0379C82.442 27.2135 82.3533 27.3623 82.2363 27.4843C82.1208 27.6046 81.9809 27.6957 81.8167 27.7575C81.6541 27.8193 81.4703 27.8502 81.2654 27.8502C81.0735 27.8502 80.8971 27.8193 80.7361 27.7575C80.5767 27.6957 80.4377 27.6046 80.319 27.4843C80.2019 27.3623 80.1108 27.2135 80.0458 27.0379C79.9824 26.8623 79.9506 26.6606 79.9506 26.4329C79.9506 26.1305 80.0043 25.8743 80.1116 25.6646C80.219 25.4548 80.3718 25.2954 80.5702 25.1865C80.7686 25.0775 81.0052 25.023 81.2801 25.023C81.5354 25.023 81.7614 25.0775 81.9582 25.1865C82.1566 25.2954 82.3119 25.4548 82.4241 25.6646C82.5379 25.8743 82.5948 26.1305 82.5948 26.4329ZM80.7093 26.4329C80.7093 26.6118 80.7288 26.7623 80.7678 26.8842C80.8068 27.0062 80.8678 27.0981 80.9508 27.1599C81.0337 27.2217 81.1418 27.2525 81.2752 27.2525C81.4069 27.2525 81.5134 27.2217 81.5947 27.1599C81.6777 27.0981 81.7378 27.0062 81.7752 26.8842C81.8143 26.7623 81.8338 26.6118 81.8338 26.4329C81.8338 26.2524 81.8143 26.1028 81.7752 25.9841C81.7378 25.8638 81.6777 25.7735 81.5947 25.7134C81.5118 25.6532 81.4036 25.6231 81.2703 25.6231C81.0735 25.6231 80.9304 25.6906 80.841 25.8256C80.7532 25.9605 80.7093 26.163 80.7093 26.4329ZM84.7317 25.023C84.7691 25.023 84.8122 25.0255 84.8609 25.0304C84.9114 25.0336 84.952 25.0385 84.9829 25.045L84.9268 25.7426C84.9024 25.7345 84.8675 25.7288 84.8219 25.7256C84.778 25.7207 84.7398 25.7182 84.7073 25.7182C84.6113 25.7182 84.5178 25.7304 84.4268 25.7548C84.3373 25.7792 84.2568 25.8191 84.1853 25.8743C84.1137 25.928 84.0568 25.9996 84.0145 26.089C83.9739 26.1768 83.9535 26.285 83.9535 26.4134V27.8014H83.2095V25.0743H83.773L83.8828 25.5328H83.9194C83.973 25.4402 84.0397 25.3556 84.1194 25.2792C84.2007 25.2011 84.2926 25.1393 84.395 25.0938C84.4991 25.0466 84.6113 25.023 84.7317 25.023ZM86.627 27.2574C86.7083 27.2574 86.7872 27.2493 86.8636 27.233C86.9417 27.2168 87.0189 27.1964 87.0953 27.1721V27.7258C87.0157 27.7615 86.9165 27.7908 86.7977 27.8136C86.6807 27.838 86.5522 27.8502 86.4123 27.8502C86.2497 27.8502 86.1034 27.8242 85.9733 27.7721C85.8448 27.7185 85.7432 27.6266 85.6684 27.4965C85.5952 27.3648 85.5586 27.1818 85.5586 26.9476V25.6329H85.2024V25.3182L85.6122 25.0694L85.8269 24.4937H86.3026V25.0743H87.0661V25.6329H86.3026V26.9476C86.3026 27.0517 86.3318 27.1298 86.3904 27.1818C86.4506 27.2322 86.5294 27.2574 86.627 27.2574ZM90.0445 24.2351C90.3681 24.2351 90.6348 24.2742 90.8445 24.3522C91.0559 24.4303 91.2129 24.5482 91.3153 24.7059C91.4178 24.8637 91.469 25.0629 91.469 25.3036C91.469 25.4662 91.4381 25.6085 91.3763 25.7304C91.3145 25.8524 91.2332 25.9557 91.1324 26.0402C91.0316 26.1248 90.9226 26.1939 90.8055 26.2476L91.8544 27.8014H91.0153L90.164 26.4329H89.7615V27.8014H89.0053V24.2351H90.0445ZM89.9908 24.8547H89.7615V25.8182H90.0054C90.2559 25.8182 90.4347 25.7768 90.5421 25.6938C90.651 25.6093 90.7055 25.4857 90.7055 25.3231C90.7055 25.1539 90.647 25.0336 90.5299 24.9621C90.4144 24.8905 90.2347 24.8547 89.9908 24.8547ZM93.3692 25.023C93.6213 25.023 93.8384 25.0718 94.0205 25.1694C94.2026 25.2653 94.3433 25.4052 94.4425 25.5889C94.5417 25.7727 94.5913 25.9971 94.5913 26.2622V26.6232H92.8326C92.8407 26.833 92.9033 26.998 93.0204 27.1184C93.1391 27.2371 93.3034 27.2965 93.5131 27.2965C93.6871 27.2965 93.8465 27.2786 93.9912 27.2428C94.136 27.207 94.2848 27.1534 94.4376 27.0818V27.6575C94.3027 27.7241 94.1612 27.7729 94.0132 27.8038C93.8668 27.8347 93.6888 27.8502 93.479 27.8502C93.2058 27.8502 92.9635 27.7998 92.7521 27.6989C92.5423 27.5981 92.3772 27.4444 92.2569 27.2379C92.1382 27.0314 92.0788 26.7712 92.0788 26.4573C92.0788 26.1386 92.1325 25.8735 92.2398 25.6621C92.3488 25.4491 92.5 25.2897 92.6935 25.184C92.887 25.0767 93.1123 25.023 93.3692 25.023ZM93.3741 25.5524C93.2294 25.5524 93.109 25.5987 93.0131 25.6914C92.9188 25.7841 92.8643 25.9296 92.8496 26.128H93.8937C93.892 26.0175 93.8717 25.9191 93.8327 25.8329C93.7953 25.7467 93.7384 25.6784 93.6619 25.628C93.5871 25.5776 93.4912 25.5524 93.3741 25.5524ZM97.0989 26.9915C97.0989 27.1769 97.055 27.3339 96.9672 27.4623C96.881 27.5892 96.7517 27.6859 96.5793 27.7526C96.407 27.8177 96.1923 27.8502 95.9354 27.8502C95.7451 27.8502 95.5817 27.838 95.4451 27.8136C95.3101 27.7892 95.1735 27.7485 95.0353 27.6916V27.0769C95.1832 27.1436 95.3418 27.1989 95.5109 27.2428C95.6817 27.2851 95.8313 27.3062 95.9597 27.3062C96.1045 27.3062 96.2077 27.2851 96.2695 27.2428C96.333 27.1989 96.3647 27.142 96.3647 27.072C96.3647 27.0265 96.3517 26.9859 96.3256 26.9501C96.3012 26.9127 96.2476 26.8712 96.1646 26.8257C96.0817 26.7785 95.9516 26.7175 95.7744 26.6427C95.6036 26.5712 95.4629 26.4988 95.3524 26.4256C95.2434 26.3524 95.1621 26.2663 95.1084 26.1671C95.0564 26.0662 95.0304 25.9386 95.0304 25.7841C95.0304 25.532 95.1279 25.3426 95.3231 25.2157C95.5199 25.0873 95.7825 25.023 96.111 25.023C96.2801 25.023 96.4411 25.0401 96.594 25.0743C96.7485 25.1084 96.907 25.1629 97.0696 25.2377L96.8452 25.7743C96.7102 25.7158 96.5826 25.6678 96.4622 25.6304C96.3435 25.593 96.2224 25.5743 96.0988 25.5743C95.9898 25.5743 95.9077 25.5889 95.8524 25.6182C95.7971 25.6475 95.7695 25.6922 95.7695 25.7524C95.7695 25.7963 95.7833 25.8353 95.8109 25.8695C95.8402 25.9036 95.8955 25.9418 95.9768 25.9841C96.0598 26.0248 96.1809 26.0776 96.3403 26.1427C96.4948 26.2061 96.6289 26.2728 96.7428 26.3427C96.8566 26.411 96.9444 26.4964 97.0062 26.5988C97.068 26.6996 97.0989 26.8306 97.0989 26.9915ZM100.182 25.0743V27.8014H99.6114L99.5114 27.4526H99.4723C99.4138 27.5453 99.3406 27.6209 99.2528 27.6794C99.165 27.738 99.0682 27.7811 98.9625 27.8087C98.8568 27.8364 98.747 27.8502 98.6332 27.8502C98.4381 27.8502 98.2681 27.816 98.1234 27.7477C97.9787 27.6778 97.8657 27.5697 97.7843 27.4233C97.7047 27.2769 97.6648 27.0867 97.6648 26.8525V25.0743H98.4088V26.6671C98.4088 26.8623 98.4438 27.0094 98.5137 27.1086C98.5836 27.2078 98.695 27.2574 98.8479 27.2574C98.9991 27.2574 99.1178 27.2233 99.204 27.155C99.2902 27.0851 99.3504 26.9834 99.3845 26.8501C99.4203 26.7151 99.4382 26.5508 99.4382 26.3573V25.0743H100.182ZM104.166 25.023C104.475 25.023 104.708 25.1027 104.866 25.2621C105.025 25.4198 105.105 25.6735 105.105 26.0231V27.8014H104.358V26.2085C104.358 26.0134 104.325 25.8662 104.258 25.767C104.192 25.6678 104.088 25.6182 103.948 25.6182C103.752 25.6182 103.612 25.689 103.529 25.8304C103.446 25.9703 103.404 26.1711 103.404 26.4329V27.8014H102.66V26.2085C102.66 26.0784 102.646 25.9695 102.617 25.8817C102.587 25.7939 102.543 25.728 102.482 25.6841C102.422 25.6402 102.345 25.6182 102.251 25.6182C102.112 25.6182 102.004 25.6532 101.924 25.7231C101.846 25.7914 101.79 25.893 101.756 26.028C101.723 26.1614 101.707 26.3248 101.707 26.5183V27.8014H100.963V25.0743H101.531L101.631 25.4231H101.673C101.728 25.3288 101.797 25.2523 101.88 25.1938C101.964 25.1352 102.057 25.0921 102.158 25.0645C102.259 25.0369 102.361 25.023 102.465 25.023C102.665 25.023 102.834 25.0556 102.973 25.1206C103.113 25.1857 103.22 25.2865 103.295 25.4231H103.361C103.442 25.2832 103.557 25.1816 103.705 25.1182C103.854 25.0547 104.008 25.023 104.166 25.023ZM106.995 25.023C107.247 25.023 107.464 25.0718 107.646 25.1694C107.829 25.2653 107.969 25.4052 108.068 25.5889C108.168 25.7727 108.217 25.9971 108.217 26.2622V26.6232H106.458C106.467 26.833 106.529 26.998 106.646 27.1184C106.765 27.2371 106.929 27.2965 107.139 27.2965C107.313 27.2965 107.472 27.2786 107.617 27.2428C107.762 27.207 107.911 27.1534 108.064 27.0818V27.6575C107.929 27.7241 107.787 27.7729 107.639 27.8038C107.493 27.8347 107.315 27.8502 107.105 27.8502C106.832 27.8502 106.589 27.7998 106.378 27.6989C106.168 27.5981 106.003 27.4444 105.883 27.2379C105.764 27.0314 105.705 26.7712 105.705 26.4573C105.705 26.1386 105.758 25.8735 105.866 25.6621C105.975 25.4491 106.126 25.2897 106.319 25.184C106.513 25.0767 106.738 25.023 106.995 25.023ZM107 25.5524C106.855 25.5524 106.735 25.5987 106.639 25.6914C106.545 25.7841 106.49 25.9296 106.476 26.128H107.52C107.518 26.0175 107.498 25.9191 107.459 25.8329C107.421 25.7467 107.364 25.6784 107.288 25.628C107.213 25.5776 107.117 25.5524 107 25.5524Z" fill="white"/>
<path d="M111.151 36.2578H84.3242V37.486H111.151V36.2578Z" fill="#A0A0A0"/>
<path d="M111.151 39.5199H84.3242V40.7481H111.151V39.5199Z" fill="#D6D6D7"/>
<path d="M111.151 42.6588H84.3242V43.887H111.151V42.6588Z" fill="#D6D6D7"/>
<path d="M100.96 47.1621L84.3242 47.1634V45.9339H100.96V47.1621Z" fill="#D6D6D7"/>
<path d="M80.9236 35.3723H67.6309V49.3521H80.9236V35.3723Z" fill="#E6E7E8"/>
<path fill-rule="evenodd" clip-rule="evenodd" d="M79.5196 45.009C79.5196 45.009 79.2895 44.0919 78.1533 44.0588C77.0229 44.0264 75.9179 44.1243 75.2937 43.4722H73.2592C72.6344 44.1243 71.5286 44.0264 70.3989 44.0588C69.2621 44.0912 69.0326 45.009 69.0326 45.009L67.7798 49.3528H80.7724L79.5189 45.009H79.5196Z" fill="#00B1B0"/>
<path fill-rule="evenodd" clip-rule="evenodd" d="M72.604 43.8314C72.604 43.8314 73.8303 44.5807 75.9497 43.8898C75.9497 43.8898 75.3923 47.8447 74.2749 49.3529C74.2749 49.3529 72.7207 47.1006 72.604 43.8314Z" fill="white"/>
<path fill-rule="evenodd" clip-rule="evenodd" d="M75.2151 42.3232H73.3362C73.3362 42.3232 73.2046 43.5761 72.6433 43.8723C72.6433 43.8723 73.2869 44.6546 74.276 44.6054C75.265 44.6546 75.908 43.8723 75.908 43.8723C75.3474 43.5761 75.2151 42.3232 75.2151 42.3232Z" fill="#EFD6BD"/>
<path fill-rule="evenodd" clip-rule="evenodd" d="M74.2793 43.4615C74.7564 43.4615 75.1654 43.2437 75.3365 42.9352C75.2457 42.6066 75.2153 42.3234 75.2153 42.3234H73.3363C73.3363 42.3234 73.3065 42.6021 73.217 42.9268C73.3875 43.2405 73.7978 43.4615 74.2793 43.4615Z" fill="#E6C29F"/>
<path fill-rule="evenodd" clip-rule="evenodd" d="M76.4625 40.7936C76.4625 42.1449 75.4825 43.2396 74.275 43.2396C73.0676 43.2396 72.0869 42.1443 72.0869 40.7936C72.0869 39.4428 71.9365 38.3475 74.275 38.3475C76.0801 38.3475 76.4625 39.4428 76.4625 40.7936Z" fill="#EFD6BD"/>
<path fill-rule="evenodd" clip-rule="evenodd" d="M72.3824 40.3152C72.431 40.6426 72.3183 40.9297 72.1309 40.9576C71.943 40.9848 71.7524 40.743 71.7045 40.4151C71.6552 40.0877 71.7673 39.8 71.9553 39.7721C72.1426 39.7449 72.3338 39.9873 72.3824 40.3152Z" fill="#EFD6BD"/>
<path fill-rule="evenodd" clip-rule="evenodd" d="M76.7872 40.5707C76.7328 40.8967 76.5377 41.1372 76.3504 41.1054C76.1637 41.075 76.0561 40.7852 76.1093 40.4586C76.1637 40.1326 76.3601 39.8927 76.5455 39.9239C76.7328 39.955 76.841 40.2447 76.7872 40.5707Z" fill="#EFD6BD"/>
<path fill-rule="evenodd" clip-rule="evenodd" d="M76.415 39.8954L75.853 40.0795L75.8213 39.9816L76.3845 39.7988L76.415 39.8954Z" fill="black"/>
<path fill-rule="evenodd" clip-rule="evenodd" d="M71.9202 39.8954L72.4828 40.0795L72.5145 39.9816L71.9519 39.7988L71.9202 39.8954Z" fill="black"/>
<path fill-rule="evenodd" clip-rule="evenodd" d="M75.9505 39.9214C75.8656 39.8987 75.419 39.8371 75.1086 39.8339C74.7527 39.83 74.3424 40.0665 74.135 40.051C73.927 40.0665 73.518 39.8293 73.1615 39.8339C72.8511 39.8371 72.4039 39.8987 72.3196 39.9214C72.236 39.9453 72.2626 39.968 72.2626 39.968L72.2814 40.1476L72.3196 40.1586C72.3196 40.1586 72.3922 40.5034 72.4382 40.7594C72.4816 41.0161 72.9943 41.1114 73.4428 41.0284C73.8913 40.9454 73.916 40.6142 73.9743 40.4716C74.0236 40.3517 74.1344 40.3556 74.1344 40.3556C74.1344 40.3556 74.231 40.3297 74.2951 40.4716C74.358 40.6123 74.3774 40.9454 74.826 41.0284C75.2745 41.1114 75.7878 41.0161 75.8325 40.7594C75.8772 40.5027 75.9498 40.1586 75.9498 40.1586L75.9881 40.1476L76.0069 39.968C76.0069 39.968 76.0334 39.9453 75.9498 39.9214H75.9505ZM73.8434 40.4457C73.82 40.5643 73.7436 40.8327 73.4798 40.9169C73.2153 41.0012 72.8323 40.9973 72.7143 40.8521C72.5957 40.7069 72.4499 40.3433 72.5419 40.1443C72.6339 39.946 72.7636 39.9609 73.0928 39.9797C73.4221 39.9985 73.8518 40.0672 73.8544 40.1515C73.8544 40.1515 73.8667 40.3277 73.8434 40.4457ZM75.5558 40.8521C75.4372 40.9979 75.0541 41.0018 74.7903 40.9169C74.5265 40.8327 74.45 40.5643 74.4274 40.4457C74.4047 40.3277 74.415 40.1515 74.415 40.1515C74.4176 40.0672 74.848 39.9985 75.1766 39.9797C75.5052 39.9609 75.6348 39.946 75.7275 40.1443C75.8196 40.3433 75.6744 40.7069 75.5558 40.8521Z" fill="black"/>
<path fill-rule="evenodd" clip-rule="evenodd" d="M76.4667 40.5699C76.4667 40.5699 76.3501 40.4532 76.3404 40.1253C76.3287 39.7973 76.2334 39.6068 76.1381 39.5219C76.0435 39.4376 75.8633 39.1835 75.8633 39.0993C75.8633 39.015 75.8102 38.8873 75.8102 38.8873C75.8102 38.8873 75.7577 38.9191 75.4498 39.015C75.1432 39.1097 74.7634 39.1524 74.7096 39.1946C74.6571 39.2373 74.4342 39.2373 74.1918 39.0682C73.9487 38.8984 73.5676 38.8134 73.2183 38.8355C72.8696 38.8562 72.7218 38.7934 72.6265 38.8679C72.5319 38.9411 72.5526 39.2795 72.5526 39.3112C72.5526 39.343 72.4463 39.5011 72.3199 39.5867C72.1935 39.6709 72.1404 39.7455 72.1508 39.9354C72.1618 40.1259 72.2149 40.4746 71.9712 40.6438C71.9712 40.6438 71.9285 39.1103 71.8753 38.9197C71.8228 38.7292 71.1883 37.7557 71.537 36.5612C71.537 36.5612 71.8753 36.8463 72.5209 36.7835C73.1671 36.72 74.5943 36.6461 75.081 37.4076C75.081 37.4076 74.9119 36.9423 74.4251 36.7835C74.4251 36.7835 75.5892 36.7303 76.3611 37.6293C76.3611 37.6293 76.2341 37.2385 76.096 37.1328C76.096 37.1328 76.7642 37.3811 76.6683 38.0525C76.5517 38.8672 76.6839 39.3922 76.6644 39.5763C76.6405 39.8122 76.4868 40.1532 76.4674 40.5706L76.4667 40.5699Z" fill="black"/>
<mask id="mask1_1059_2988" style="mask-type:luminance" maskUnits="userSpaceOnUse" x="72" y="43" width="4" height="7">
<path d="M72.604 43.8314C72.604 43.8314 73.8303 44.5807 75.9497 43.8898C75.9497 43.8898 75.3923 47.8447 74.2749 49.3529C74.2749 49.3529 72.7207 47.1006 72.604 43.8314Z" fill="white"/>
</mask>
<g mask="url(#mask1_1059_2988)">
<path fill-rule="evenodd" clip-rule="evenodd" d="M74.2749 49.3529L73.5801 48.6866L73.8886 45.4718H74.2749H74.6612L74.969 48.6866L74.2749 49.3529Z" fill="#00467F"/>
<path fill-rule="evenodd" clip-rule="evenodd" d="M74.2749 44.1813L73.5801 44.8476L73.8886 45.4718H74.2749H74.6612L74.969 44.8476L74.2749 44.1813Z" fill="#003767"/>
</g>
<path fill-rule="evenodd" clip-rule="evenodd" d="M74.2749 44.1812L75.1129 45.1217C75.1129 45.1217 75.739 44.6479 75.9789 43.9006L75.8466 43.8578C75.8466 43.8578 75.1214 44.1715 74.2749 44.1812Z" fill="#E6E7E8"/>
<path fill-rule="evenodd" clip-rule="evenodd" d="M74.2774 44.1813L73.4394 45.1218C73.4394 45.1218 72.8139 44.648 72.5735 43.9007L72.707 43.8579C72.707 43.8579 73.4323 44.1716 74.2774 44.1813Z" fill="#E6E7E8"/>
<path d="M110.184 65.5511H91.9365V66.2317H110.184V65.5511Z" fill="#D6D6D7"/>
<path d="M110.184 67.3556H91.9365V68.0355H110.184V67.3556Z" fill="#D6D6D7"/>
<path d="M110.184 69.0919H91.9365V69.7725H110.184V69.0919Z" fill="#D6D6D7"/>
<path d="M103.252 70.9054H91.9365V71.584H103.252V70.9054Z" fill="#D6D6D7"/>
<path d="M110.184 74.4637H91.9365V75.1442H110.184V74.4637Z" fill="#D6D6D7"/>
<path d="M110.184 76.2687H91.9365V76.9486H110.184V76.2687Z" fill="#D6D6D7"/>
<path d="M110.184 78.0058H91.9365V78.6857H110.184V78.0058Z" fill="#D6D6D7"/>
<path d="M103.252 79.8187H91.9365V80.4993H103.252V79.8187Z" fill="#D6D6D7"/>
<path d="M87.9978 64.3022H68.5977V83.0471H87.9978V64.3022Z" fill="#E6E7E8"/>
<path d="M87.9978 64.3022H68.5977V68.0588H87.9978V64.3022Z" fill="#00728E"/>
<path d="M85.3784 70.7123H69.9617V71.8141H85.3784V70.7123Z" fill="#A0A0A0"/>
<path d="M80.6256 73.4656H69.9617V74.5668H80.6256V73.4656Z" fill="#A0A0A0"/>
<g style="mix-blend-mode:multiply">
<path d="M63.1357 70.0201L88.6913 85.906L115.646 70.0201L89.4892 87.7403L63.1357 70.0201Z" fill="#D6D6D7"/>
</g>
<path d="M60.4985 68.2467L89.4893 87.7402L60.4985 107.105V68.2467Z" fill="#4195D3"/>
<path d="M118.283 68.2468L89.3909 87.6761L118.283 107.105V68.2468Z" fill="#4195D3"/>
<g style="mix-blend-mode:multiply" opacity="0.5">
<path d="M118.283 107.105H60.4985L87.8592 86.6436L89.3908 87.676L90.9236 86.6449L118.283 107.105Z" fill="#4195D3"/>
</g>
<path d="M118.283 107.105H60.4985L89.3908 87.6761L118.283 107.105Z" fill="#4195D3"/>
</g>
<mask id="mask2_1059_2988" style="mask-type:luminance" maskUnits="userSpaceOnUse" x="24" y="34" width="47" height="33">
<path d="M70.7168 34.7744H24.2327V66.5599H70.7168V34.7744Z" fill="white"/>
</mask>
<g mask="url(#mask2_1059_2988)">
<path d="M23.2137 50.1845C23.2137 50.1845 36.3917 48.3613 37.9213 46.5212C39.4509 44.6824 45.0632 39.6684 47.0608 39.1557C49.0583 38.645 52.5544 39.494 56.2009 38.7726C56.2009 38.7726 57.7143 39.1939 56.6811 40.4805C55.648 41.7671 53.6394 42.8086 51.5932 41.8001C51.5932 41.8001 48.6643 43.088 48.5275 43.7186C48.5275 43.7186 51.4065 43.4918 54.8125 44.322C58.2192 45.1523 64.3214 46.4019 65.9249 46.844C67.5284 47.284 67.6231 48.1947 67.439 49.045C67.2549 49.8961 66.2218 50.4748 64.0187 49.9537C61.8157 49.4326 58.0578 48.8344 58.0578 48.8344C58.0578 48.8344 61.0211 49.6874 60.314 51.4587C59.7611 52.8432 58.7208 54.0092 56.6733 53.3889C56.6733 53.3889 58.4104 54.2088 57.7758 55.4973C57.142 56.7845 56.243 57.9797 54.5449 57.3899C54.5449 57.3899 55.6279 58.7121 54.3575 60.1905C53.2285 61.5049 51.1071 60.6021 48.8613 60.0719C46.6161 59.5411 42.7461 58.0827 39.3518 58.9519C35.9574 59.8223 24.0822 62.5426 24.0822 62.5426C24.0822 62.5426 16.25 54.9062 23.2143 50.1845H23.2137Z" fill="#FFDDD2"/>
<path opacity="0.6" d="M52.5218 39.078C52.5218 39.078 52.2276 39.9562 52.9678 40.0223C53.7079 40.0878 56.2363 40.0437 55.9 38.8271L52.5218 39.078Z" fill="white"/>
<path opacity="0.6" d="M65.284 47.1285C65.284 47.1285 64.7143 49.2169 65.0474 49.4962C65.2587 49.6738 66.6425 49.9538 66.9069 48.7236C67.148 47.601 66.1149 47.2134 65.2846 47.1285H65.284Z" fill="white"/>
<g style="mix-blend-mode:multiply" opacity="0.4">
<path d="M48.5275 43.7187C48.6636 43.0881 51.5932 41.8002 51.5932 41.8002C52.5032 42.2494 53.4061 42.2902 54.2182 42.0861C54.1975 42.0867 52.1805 42.1126 51.2653 41.353C51.2653 41.353 49.3092 42.1088 48.652 42.5333C47.9941 42.9578 47.5151 44.0798 47.5151 44.0798C47.5151 44.0798 51.2115 43.6987 52.5188 43.895C50.2088 43.5878 48.5282 43.7181 48.5282 43.7181L48.5275 43.7187Z" fill="#FFDDD2"/>
</g>
<g style="mix-blend-mode:multiply" opacity="0.4">
<path d="M59.2269 53.0474C59.2269 53.0474 57.263 53.5459 55.7729 52.7992C55.7729 52.7992 58.3571 54.5887 57.7154 55.6154C57.7355 55.5758 57.7563 55.5363 57.7757 55.4968C58.4102 54.2089 56.6732 53.3884 56.6732 53.3884C57.8016 53.7299 58.6235 53.5277 59.2269 53.0468V53.0474Z" fill="#FFDDD2"/>
</g>
<g style="mix-blend-mode:multiply" opacity="0.4">
<path d="M48.8614 60.0719C51.1072 60.6021 53.2279 61.505 54.3576 60.1905C54.8385 59.6305 54.9811 59.0945 54.9746 58.6428C54.972 58.6493 54.099 60.9754 51.9809 60.0933C49.8601 59.2112 41.8355 57.2311 37.6997 59.3616C38.3582 59.2015 38.9234 59.0628 39.3518 58.9519C42.7461 58.0828 46.6162 59.5411 48.8614 60.0719Z" fill="#FFDDD2"/>
</g>
<g style="mix-blend-mode:multiply" opacity="0.4">
<path d="M62.2603 49.58C62.2441 49.4789 60.275 48.937 59.2873 48.7588C58.3001 48.5812 56.9377 48.4995 56.9377 48.4995C56.9377 48.4995 58.8187 49.0887 59.5575 49.5592C58.8815 49.0744 58.0577 48.8346 58.0577 48.8346C58.0577 48.8346 60.2446 49.1833 62.2603 49.58Z" fill="#FFDDD2"/>
</g>
<g style="mix-blend-mode:multiply" opacity="0.4">
<path d="M34.1078 48.113C29.7075 49.2855 23.2138 50.1851 23.2138 50.1851C16.2502 54.9068 24.0817 62.5432 24.0817 62.5432C24.0817 62.5432 32.2081 60.6811 36.9375 59.5456C32.3928 57.5272 34.0105 48.1434 34.1078 48.1136V48.113Z" fill="#FFDDD2"/>
</g>
<path d="M32.7983 47.8598L34.7058 62.6271L9.3213 65.4698L7.03076 45.8551L32.7983 47.8598Z" fill="white"/>
<path d="M31.8911 47.2611L33.0578 63.2443L5.21557 66.3618L2.70337 44.8487L31.8911 47.2611Z" fill="#314464"/>
</g>
</g>
<defs>
<clipPath id="clip0_1059_2988">
<rect width="153.588" height="113.935" fill="white" transform="translate(0.205811 0.0325317)"/>
</clipPath>
</defs>
</svg>
