<svg width="20" height="20" viewBox="0 0 20 20" fill="none" xmlns="http://www.w3.org/2000/svg">
<g clip-path="url(#clip0_971_2606)">
<path d="M0.75 10C0.75 4.90005 4.90005 0.75 10 0.75C15.1 0.75 19.25 4.90005 19.25 10C19.25 15.1 15.1 19.25 10 19.25C4.90005 19.25 0.75 15.1 0.75 10Z" stroke="#333333" stroke-width="1.5"/>
<path d="M9.99984 4.16669C10.4607 4.16669 10.8332 4.53919 10.8332 5.00002C10.8332 5.46085 10.4607 5.83335 9.99984 5.83335C9.539 5.83335 9.1665 5.46085 9.1665 5.00002C9.1665 4.53919 9.539 4.16669 9.99984 4.16669Z" fill="#333333"/>
<path d="M11.8748 15.8333H8.12484C7.664 15.8333 7.2915 15.4608 7.2915 15C7.2915 14.5392 7.664 14.1667 8.12484 14.1667H9.1665V9.16667H8.5415C8.08067 9.16667 7.70817 8.79417 7.70817 8.33333C7.70817 7.8725 8.08067 7.5 8.5415 7.5H9.99984C10.4607 7.5 10.8332 7.8725 10.8332 8.33333V14.1667H11.8748C12.3357 14.1667 12.7082 14.5392 12.7082 15C12.7082 15.4608 12.3357 15.8333 11.8748 15.8333Z" fill="#333333"/>
</g>
<defs>
<clipPath id="clip0_971_2606">
<rect width="20" height="20" fill="white"/>
</clipPath>
</defs>
</svg>
