<svg width="14" height="14" viewBox="0 0 14 14" fill="none" xmlns="http://www.w3.org/2000/svg">
<g clip-path="url(#clip0_91_5707)">
<path d="M6.31528 10.092C6.37477 10.1513 6.42197 10.2217 6.45418 10.2993C6.48639 10.3769 6.50297 10.46 6.50297 10.544C6.50297 10.628 6.48639 10.7112 6.45418 10.7887C6.42197 10.8663 6.37477 10.9368 6.31528 10.996L6.04301 11.2683C5.75399 11.5584 5.41032 11.7883 5.03189 11.9448C4.65346 12.1012 4.24776 12.1811 3.83827 12.1798C3.22159 12.18 2.6187 11.9972 2.10589 11.6547C1.59307 11.3122 1.19337 10.8253 0.957346 10.2556C0.721325 9.68583 0.659592 9.0589 0.779955 8.45408C0.900318 7.84925 1.19737 7.29372 1.63353 6.85776L3.48145 5.00984C3.8745 4.61685 4.36545 4.33605 4.90347 4.19652C5.4415 4.05699 6.00704 4.0638 6.54154 4.21625C7.07605 4.36869 7.56009 4.66123 7.94357 5.06358C8.32705 5.46592 8.59601 5.96345 8.72262 6.50466C8.74359 6.58695 8.74793 6.6726 8.73537 6.75658C8.72282 6.84057 8.69363 6.9212 8.64951 6.99376C8.6054 7.06632 8.54724 7.12934 8.47846 7.17914C8.40967 7.22894 8.33164 7.2645 8.24893 7.28375C8.16622 7.30301 8.08051 7.30556 7.9968 7.29126C7.91309 7.27696 7.83309 7.2461 7.76146 7.20048C7.68983 7.15486 7.62803 7.09541 7.57968 7.0256C7.53133 6.95579 7.49739 6.87704 7.47987 6.79395C7.40473 6.47447 7.24564 6.18086 7.01903 5.94347C6.79242 5.70608 6.50651 5.53352 6.19087 5.44363C5.87523 5.35374 5.54131 5.34978 5.22363 5.43217C4.90595 5.51456 4.61604 5.6803 4.38387 5.91226L2.53595 7.76018C2.27836 8.01756 2.10289 8.34554 2.03171 8.70266C1.96054 9.05977 1.99686 9.42996 2.1361 9.76643C2.27533 10.1029 2.51121 10.3905 2.81391 10.5929C3.11661 10.7953 3.47254 10.9034 3.83667 10.9035C4.07862 10.9042 4.3183 10.8569 4.54184 10.7643C4.76538 10.6718 4.96834 10.5358 5.13899 10.3643L5.41073 10.092C5.47002 10.0324 5.5405 9.98518 5.61812 9.95292C5.69573 9.92067 5.77895 9.90406 5.863 9.90406C5.94705 9.90406 6.03028 9.92067 6.10789 9.95292C6.18551 9.98518 6.25598 10.0324 6.31528 10.092ZM12.1462 2.45732C11.5613 1.87264 10.7682 1.54419 9.94119 1.54419C9.11419 1.54419 8.32105 1.87264 7.73618 2.45732L7.46444 2.72906C7.34456 2.84894 7.27722 3.01153 7.27722 3.18107C7.27722 3.3506 7.34456 3.5132 7.46444 3.63308C7.58432 3.75296 7.74692 3.8203 7.91645 3.8203C8.08599 3.8203 8.24858 3.75296 8.36846 3.63308L8.64073 3.36081C8.98627 3.01527 9.45492 2.82115 9.94358 2.82115C10.4322 2.82115 10.9009 3.01527 11.2464 3.36081C11.592 3.70634 11.7861 4.17499 11.7861 4.66366C11.7861 5.15232 11.592 5.62097 11.2464 5.96651L9.39532 7.81177C9.22471 7.98333 9.02175 8.11933 8.7982 8.21189C8.57465 8.30445 8.33496 8.35173 8.093 8.35099C7.67795 8.35069 7.27517 8.21019 6.94998 7.95228C6.62478 7.69437 6.39626 7.33416 6.30145 6.93008C6.26309 6.76521 6.16081 6.62233 6.0171 6.53288C5.87339 6.44342 5.70003 6.41472 5.53516 6.45308C5.37029 6.49144 5.22741 6.59373 5.13796 6.73743C5.0485 6.88114 5.0198 7.0545 5.05816 7.21937C5.21828 7.9037 5.60488 8.51387 6.15526 8.95093C6.70565 9.38799 7.38753 9.62631 8.09034 9.62725H8.093C8.50269 9.62837 8.90854 9.54825 9.28706 9.39153C9.66559 9.2348 10.0093 9.00459 10.2983 8.71419L12.1462 6.86627C12.4357 6.5768 12.6654 6.23312 12.8221 5.85487C12.9788 5.47663 13.0595 5.07122 13.0595 4.66179C13.0595 4.25237 12.9788 3.84696 12.8221 3.46872C12.6654 3.09047 12.4357 2.74679 12.1462 2.45732Z" fill="black"/>
</g>
<defs>
<clipPath id="clip0_91_5707">
<rect width="13.6134" height="13.6134" fill="white" transform="translate(0.0852661 0.0554199)"/>
</clipPath>
</defs>
</svg>
