<svg width="147" height="20" viewBox="0 0 147 20" fill="none" xmlns="http://www.w3.org/2000/svg">
<g clip-path="url(#clip0_437_18985)">
<path d="M9.56236 12.5C9.34134 12.5 9.12938 12.5878 8.9731 12.7441C8.81682 12.9004 8.72902 13.1123 8.72902 13.3333V15.8333C8.72902 16.4964 8.46563 17.1323 7.99679 17.6011C7.52795 18.0699 6.89206 18.3333 6.22902 18.3333H4.16569C3.50265 18.3333 2.86676 18.0699 2.39792 17.6011C1.92908 17.1323 1.66569 16.4964 1.66569 15.8333V4.16667C1.66569 3.50363 1.92908 2.86774 2.39792 2.3989C2.86676 1.93006 3.50265 1.66667 4.16569 1.66667H6.22902C6.89206 1.66667 7.52795 1.93006 7.99679 2.3989C8.46563 2.86774 8.72902 3.50363 8.72902 4.16667V6.66667C8.72902 6.88768 8.81682 7.09964 8.9731 7.25592C9.12938 7.4122 9.34134 7.5 9.56236 7.5C9.78337 7.5 9.99533 7.4122 10.1516 7.25592C10.3079 7.09964 10.3957 6.88768 10.3957 6.66667V4.16667C10.3944 3.062 9.95496 2.00296 9.17384 1.22185C8.39272 0.440735 7.33369 0.00132321 6.22902 0H4.16569C3.06103 0.00132321 2.00199 0.440735 1.22087 1.22185C0.439758 2.00296 0.000346652 3.062 -0.000976562 4.16667L-0.000976562 15.8333C0.000346652 16.938 0.439758 17.997 1.22087 18.7782C2.00199 19.5593 3.06103 19.9987 4.16569 20H6.22902C7.33369 19.9987 8.39272 19.5593 9.17384 18.7782C9.95496 17.997 10.3944 16.938 10.3957 15.8333V13.3333C10.3957 13.1123 10.3079 12.9004 10.1516 12.7441C9.99533 12.5878 9.78337 12.5 9.56236 12.5Z" fill="white"/>
<path d="M19.0547 8.23251L15.233 4.41084C15.1562 4.33125 15.0642 4.26776 14.9625 4.22409C14.8609 4.18041 14.7515 4.15743 14.6409 4.15646C14.5302 4.1555 14.4205 4.17659 14.3181 4.21849C14.2157 4.26039 14.1226 4.32227 14.0444 4.40051C13.9661 4.47875 13.9042 4.5718 13.8623 4.67421C13.8204 4.77663 13.7994 4.88636 13.8003 4.99701C13.8013 5.10766 13.8243 5.21701 13.8679 5.31868C13.9116 5.42035 13.9751 5.5123 14.0547 5.58917L17.6064 9.14167L4.99886 9.16667C4.77785 9.16667 4.56589 9.25447 4.40961 9.41075C4.25332 9.56703 4.16553 9.77899 4.16553 10C4.16553 10.221 4.25332 10.433 4.40961 10.5893C4.56589 10.7455 4.77785 10.8333 4.99886 10.8333L17.6555 10.8075L14.053 14.4108C13.9734 14.4877 13.91 14.5797 13.8663 14.6813C13.8226 14.783 13.7996 14.8924 13.7987 15.003C13.7977 15.1137 13.8188 15.2234 13.8607 15.3258C13.9026 15.4282 13.9645 15.5213 14.0427 15.5995C14.1209 15.6777 14.214 15.7396 14.3164 15.7815C14.4188 15.8234 14.5285 15.8445 14.6392 15.8435C14.7498 15.8426 14.8592 15.8196 14.9609 15.7759C15.0625 15.7322 15.1545 15.6688 15.2314 15.5892L19.053 11.7675C19.5219 11.2989 19.7855 10.6633 19.7858 10.0004C19.7861 9.33744 19.5232 8.70155 19.0547 8.23251Z" fill="white"/>
</g>
<path d="M37.3115 15V5.00586H38.9521V13.6055H43.1973V15H37.3115ZM51.4619 11.1992C51.4619 11.8281 51.3799 12.3864 51.2158 12.874C51.0518 13.3617 50.8125 13.7741 50.498 14.1113C50.1836 14.444 49.8053 14.6992 49.3633 14.877C48.9212 15.0501 48.4222 15.1367 47.8662 15.1367C47.3467 15.1367 46.8704 15.0501 46.4375 14.877C46.0046 14.6992 45.6286 14.444 45.3096 14.1113C44.9951 13.7741 44.7513 13.3617 44.5781 12.874C44.4049 12.3864 44.3184 11.8281 44.3184 11.1992C44.3184 10.3652 44.4619 9.65885 44.749 9.08008C45.0407 8.49674 45.4554 8.05241 45.9932 7.74707C46.5309 7.44173 47.1712 7.28906 47.9141 7.28906C48.6113 7.28906 49.2266 7.44173 49.7598 7.74707C50.293 8.05241 50.71 8.49674 51.0107 9.08008C51.3115 9.66341 51.4619 10.3698 51.4619 11.1992ZM45.9727 11.1992C45.9727 11.7507 46.0387 12.2223 46.1709 12.6143C46.3076 13.0062 46.5173 13.307 46.7998 13.5166C47.0824 13.7217 47.4469 13.8242 47.8936 13.8242C48.3402 13.8242 48.7048 13.7217 48.9873 13.5166C49.2699 13.307 49.4772 13.0062 49.6094 12.6143C49.7415 12.2223 49.8076 11.7507 49.8076 11.1992C49.8076 10.6478 49.7415 10.1807 49.6094 9.79785C49.4772 9.41048 49.2699 9.11654 48.9873 8.91602C48.7048 8.71094 48.3379 8.6084 47.8867 8.6084C47.2214 8.6084 46.736 8.83171 46.4307 9.27832C46.1253 9.72493 45.9727 10.3652 45.9727 11.1992ZM55.4678 18.3633C54.4424 18.3633 53.6562 18.1787 53.1094 17.8096C52.5625 17.4404 52.2891 16.9232 52.2891 16.2578C52.2891 15.793 52.4349 15.3988 52.7266 15.0752C53.0182 14.7562 53.4352 14.5352 53.9775 14.4121C53.7725 14.321 53.5947 14.1797 53.4443 13.9883C53.2985 13.7923 53.2256 13.5758 53.2256 13.3389C53.2256 13.0563 53.3053 12.8148 53.4648 12.6143C53.6243 12.4137 53.8636 12.2201 54.1826 12.0332C53.7861 11.8646 53.4671 11.5911 53.2256 11.2129C52.9886 10.8301 52.8701 10.3812 52.8701 9.86621C52.8701 9.31934 52.9863 8.85449 53.2188 8.47168C53.4512 8.08431 53.7907 7.79036 54.2373 7.58984C54.6839 7.38477 55.224 7.28223 55.8574 7.28223C55.9941 7.28223 56.1423 7.29134 56.3018 7.30957C56.4658 7.32324 56.6162 7.34147 56.7529 7.36426C56.8942 7.38249 57.0013 7.40299 57.0742 7.42578H59.6924V8.32129L58.4072 8.56055C58.5303 8.73372 58.6283 8.93197 58.7012 9.15527C58.7741 9.37402 58.8105 9.61328 58.8105 9.87305C58.8105 10.6569 58.5394 11.2744 57.9971 11.7256C57.4593 12.1722 56.7165 12.3955 55.7686 12.3955C55.5407 12.3864 55.3197 12.3682 55.1055 12.3408C54.9414 12.4411 54.8161 12.5527 54.7295 12.6758C54.6429 12.7943 54.5996 12.9287 54.5996 13.0791C54.5996 13.2021 54.6429 13.3024 54.7295 13.3799C54.8161 13.4528 54.9437 13.5075 55.1123 13.5439C55.2855 13.5804 55.4951 13.5986 55.7412 13.5986H57.0469C57.8763 13.5986 58.5098 13.7741 58.9473 14.125C59.3848 14.4759 59.6035 14.9909 59.6035 15.6699C59.6035 16.5312 59.248 17.1943 58.5371 17.6592C57.8262 18.1286 56.8031 18.3633 55.4678 18.3633ZM55.5293 17.2354C56.0898 17.2354 56.5615 17.1807 56.9443 17.0713C57.3271 16.9619 57.6165 16.8047 57.8125 16.5996C58.0085 16.3991 58.1064 16.1598 58.1064 15.8818C58.1064 15.6357 58.0449 15.4466 57.9219 15.3145C57.7988 15.1823 57.6143 15.0911 57.3682 15.041C57.1221 14.9909 56.8167 14.9658 56.4521 14.9658H55.2627C54.9665 14.9658 54.7044 15.0114 54.4766 15.1025C54.2487 15.1982 54.071 15.335 53.9434 15.5127C53.8203 15.6904 53.7588 15.9046 53.7588 16.1553C53.7588 16.5016 53.9115 16.7682 54.2168 16.9551C54.5267 17.1419 54.9642 17.2354 55.5293 17.2354ZM55.8438 11.3428C56.3132 11.3428 56.6618 11.2152 56.8896 10.96C57.1175 10.7002 57.2314 10.3356 57.2314 9.86621C57.2314 9.35579 57.113 8.97298 56.876 8.71777C56.6436 8.46257 56.2972 8.33496 55.8369 8.33496C55.3857 8.33496 55.0417 8.46484 54.8047 8.72461C54.5723 8.98438 54.4561 9.36947 54.4561 9.87988C54.4561 10.3402 54.5723 10.7002 54.8047 10.96C55.0417 11.2152 55.388 11.3428 55.8438 11.3428ZM67.7725 11.1992C67.7725 11.8281 67.6904 12.3864 67.5264 12.874C67.3623 13.3617 67.123 13.7741 66.8086 14.1113C66.4941 14.444 66.1159 14.6992 65.6738 14.877C65.2318 15.0501 64.7327 15.1367 64.1768 15.1367C63.6572 15.1367 63.181 15.0501 62.748 14.877C62.3151 14.6992 61.9391 14.444 61.6201 14.1113C61.3057 13.7741 61.0618 13.3617 60.8887 12.874C60.7155 12.3864 60.6289 11.8281 60.6289 11.1992C60.6289 10.3652 60.7725 9.65885 61.0596 9.08008C61.3512 8.49674 61.766 8.05241 62.3037 7.74707C62.8415 7.44173 63.4818 7.28906 64.2246 7.28906C64.9219 7.28906 65.5371 7.44173 66.0703 7.74707C66.6035 8.05241 67.0205 8.49674 67.3213 9.08008C67.6221 9.66341 67.7725 10.3698 67.7725 11.1992ZM62.2832 11.1992C62.2832 11.7507 62.3493 12.2223 62.4814 12.6143C62.6182 13.0062 62.8278 13.307 63.1104 13.5166C63.3929 13.7217 63.7575 13.8242 64.2041 13.8242C64.6507 13.8242 65.0153 13.7217 65.2979 13.5166C65.5804 13.307 65.7878 13.0062 65.9199 12.6143C66.0521 12.2223 66.1182 11.7507 66.1182 11.1992C66.1182 10.6478 66.0521 10.1807 65.9199 9.79785C65.7878 9.41048 65.5804 9.11654 65.2979 8.91602C65.0153 8.71094 64.6484 8.6084 64.1973 8.6084C63.5319 8.6084 63.0465 8.83171 62.7412 9.27832C62.4359 9.72493 62.2832 10.3652 62.2832 11.1992ZM76.2148 7.43262V15H74.9502L74.7314 13.9814H74.6426C74.4831 14.2412 74.2803 14.4577 74.0342 14.6309C73.7881 14.7995 73.5146 14.9248 73.2139 15.0068C72.9131 15.0934 72.5964 15.1367 72.2637 15.1367C71.694 15.1367 71.2064 15.041 70.8008 14.8496C70.3997 14.6536 70.0921 14.3529 69.8779 13.9473C69.6637 13.5417 69.5566 13.0176 69.5566 12.375V7.43262H71.1699V12.0742C71.1699 12.6621 71.2884 13.1019 71.5254 13.3936C71.7669 13.6852 72.1406 13.8311 72.6465 13.8311C73.1341 13.8311 73.5215 13.7308 73.8086 13.5303C74.0957 13.3298 74.2985 13.0335 74.417 12.6416C74.54 12.2497 74.6016 11.7689 74.6016 11.1992V7.43262H76.2148ZM81.335 13.8379C81.5446 13.8379 81.752 13.8197 81.957 13.7832C82.1621 13.7422 82.349 13.6943 82.5176 13.6396V14.8564C82.3398 14.9339 82.1097 15 81.8271 15.0547C81.5446 15.1094 81.2507 15.1367 80.9453 15.1367C80.5169 15.1367 80.1318 15.0661 79.79 14.9248C79.4482 14.779 79.1771 14.5306 78.9766 14.1797C78.776 13.8288 78.6758 13.3434 78.6758 12.7236V8.65625H77.6436V7.93848L78.751 7.37109L79.2773 5.75098H80.2891V7.43262H82.4561V8.65625H80.2891V12.7031C80.2891 13.0859 80.3848 13.3708 80.5762 13.5576C80.7676 13.7445 81.0205 13.8379 81.335 13.8379Z" fill="white"/>
<defs>
<clipPath id="clip0_437_18985">
<rect width="20" height="20" fill="white" transform="translate(-0.000976562)"/>
</clipPath>
</defs>
</svg>
