<svg width="20" height="22" viewBox="0 0 20 22" fill="none" xmlns="http://www.w3.org/2000/svg">
<g clip-path="url(#clip0_897_7893)">
<path d="M15.7103 15.9435C15.4251 15.9435 15.1472 15.8895 14.8842 15.7832C14.6119 15.673 14.3677 15.5111 14.1588 15.3021C13.9498 15.0931 13.7879 14.8491 13.6778 14.5767C13.5714 14.3137 13.5175 14.0358 13.5175 13.7507C13.5175 13.4655 13.5714 13.1876 13.6778 12.9247C13.7879 12.6523 13.9498 12.4081 14.1588 12.1992C14.3678 11.9902 14.6119 11.8283 14.8843 11.7182C15.1473 11.6118 15.4253 11.5579 15.7107 11.5579C15.996 11.5579 16.2742 11.6118 16.5375 11.7182C16.8103 11.8283 17.055 11.9901 17.2648 12.1991C17.6786 12.6128 17.9063 13.1638 17.9063 13.7507C17.9063 14.3376 17.6774 14.8865 17.2617 15.3022C17.0527 15.5112 16.8086 15.673 16.5362 15.7832C16.2733 15.8896 15.9954 15.9435 15.7102 15.9435L15.7103 15.9435ZM15.707 12.3545C15.3331 12.3545 14.9817 12.5 14.7174 12.7643C14.4536 13.0267 14.3081 13.3769 14.3076 13.7507C14.3071 14.1262 14.4526 14.4787 14.7174 14.7435C14.9817 15.0078 15.3337 15.1533 15.7086 15.1533C16.0835 15.1533 16.4356 15.0078 16.6998 14.7435C16.965 14.4783 17.1094 14.1272 17.1063 13.7548V13.754C17.1063 13.3801 16.9608 13.0286 16.6965 12.7644C16.4323 12.5001 16.0808 12.3546 15.7069 12.3546L15.707 12.3545Z" fill="#333333"/>
<path d="M19.7641 12.8305L19.1223 12.7192C19.0536 12.4933 18.9652 12.2771 18.8538 12.0708L19.2271 11.537C19.3057 11.4224 19.2926 11.2685 19.1944 11.1703L18.2906 10.2665C18.1924 10.1682 18.0385 10.1552 17.9239 10.2337L17.3901 10.607C17.1838 10.4957 16.9677 10.4073 16.7417 10.3385L16.6304 9.69671C16.6075 9.55919 16.4863 9.46094 16.3488 9.46094H15.0684C14.9309 9.46094 14.8097 9.56246 14.7868 9.69671L14.6755 10.3385C14.4495 10.4073 14.2334 10.4957 14.0271 10.607L13.4933 10.2337C13.3787 10.1551 13.2248 10.1682 13.1266 10.2665L12.2228 11.1703C12.1245 11.2685 12.1115 11.4224 12.1901 11.537L12.5634 12.0708C12.452 12.2771 12.3636 12.4965 12.2949 12.7192L11.6531 12.8305C11.5156 12.8534 11.4173 12.9746 11.4173 13.1121V14.3925C11.4173 14.53 11.5156 14.6512 11.6531 14.6741L12.2949 14.7854C12.3636 15.0114 12.452 15.2275 12.5634 15.4338L12.1901 15.9676C12.1115 16.0822 12.1246 16.2361 12.2228 16.3344L13.1266 17.2381C13.2248 17.3364 13.3787 17.3494 13.4933 17.2708L14.0271 16.8975C14.2334 17.0089 14.4495 17.0973 14.6755 17.166L14.7868 17.8078C14.8097 17.9454 14.9309 18.0436 15.0684 18.0436H16.3488C16.4863 18.0436 16.6075 17.9421 16.6304 17.8078L16.7417 17.166C16.9677 17.0973 17.1838 17.0089 17.3901 16.8975L17.9239 17.2708C18.0385 17.3494 18.1924 17.3363 18.2906 17.2381L19.1944 16.3344C19.2927 16.2361 19.3057 16.0822 19.2271 15.9676L18.8538 15.4338C18.9652 15.2275 19.0536 15.0114 19.1223 14.7854L19.7641 14.6741C19.9017 14.6512 19.9999 14.53 19.9999 14.3925V13.1121C20.0032 12.9746 19.9017 12.8534 19.7641 12.8305ZM19.4301 14.1502L18.8473 14.2517C18.7359 14.2714 18.6442 14.3565 18.618 14.4646C18.546 14.7593 18.4281 15.0409 18.2709 15.2996C18.212 15.3978 18.2152 15.519 18.2807 15.6139L18.6213 16.0985L18.0581 16.6618L17.5734 16.3212C17.4817 16.2557 17.3573 16.2524 17.2591 16.3114C17.0004 16.4686 16.7188 16.5832 16.4241 16.6585C16.3128 16.6847 16.2309 16.7764 16.2112 16.8877L16.1097 17.4706H15.3107L15.2092 16.8877C15.1895 16.7764 15.1044 16.6847 14.9963 16.6585C14.7016 16.5865 14.42 16.4686 14.1613 16.3114C14.0631 16.2524 13.9419 16.2557 13.847 16.3212L13.3623 16.665L12.7958 16.1018L13.1364 15.6172C13.2019 15.5255 13.2052 15.4011 13.1462 15.3028C12.989 15.0441 12.8711 14.7625 12.7991 14.4678C12.7729 14.3565 12.6812 14.2746 12.5699 14.255L11.987 14.1535V13.3544L12.5699 13.2529C12.6812 13.2333 12.7729 13.1481 12.7991 13.0401C12.8711 12.7453 12.989 12.4638 13.1462 12.2051C13.2052 12.1068 13.2019 11.9857 13.1364 11.8907L12.7958 11.4061L13.3623 10.8429L13.847 11.1834C13.9419 11.2489 14.0631 11.2522 14.1613 11.1932C14.42 11.0361 14.7016 10.9215 14.9963 10.8461C15.1076 10.8199 15.1895 10.7283 15.2092 10.6169L15.3107 10.034H16.1097L16.2112 10.6169C16.2309 10.7282 16.316 10.8199 16.4241 10.8461C16.7188 10.9182 17.0004 11.0361 17.2591 11.1932C17.354 11.2522 17.4785 11.2489 17.5734 11.1834L18.0581 10.8429L18.6213 11.4061L18.2807 11.8907C18.2152 11.9824 18.212 12.1068 18.2709 12.2051C18.4281 12.4638 18.5427 12.7454 18.618 13.0401C18.6442 13.1514 18.7359 13.2333 18.8473 13.2529L19.4301 13.3544V14.1502Z" fill="#333333"/>
<path d="M2.03238 8.26792C1.81273 8.26792 1.63403 8.08922 1.63403 7.86957V2.67935C1.63403 2.4597 1.81273 2.28101 2.03238 2.28101H9.81933C10.039 2.28101 10.2177 2.4597 10.2177 2.67935V7.86954C10.2177 7.97499 10.1764 8.07431 10.1015 8.14924C10.0272 8.22355 9.92776 8.26568 9.82157 8.26785H9.82043H2.03238V8.26792ZM5.67219 7.4745L5.24031 6.79923L4.21647 5.20497L2.75807 7.47453H5.67215L5.67219 7.4745ZM9.42425 7.47123V3.07116H2.43073V6.5149L3.88475 4.25055C3.95425 4.14201 4.07891 4.07711 4.21816 4.07711C4.35741 4.07711 4.48207 4.14201 4.55164 4.2507L5.57551 5.84805L6.1278 4.98737C6.20056 4.87366 6.32585 4.8057 6.46286 4.8057C6.59986 4.8057 6.72515 4.87365 6.79799 4.98748L8.39285 7.47123H9.42421H9.42425ZM7.44978 7.47123L6.4629 5.93518L6.04699 6.58267L6.61801 7.47123H7.44978Z" fill="#333333"/>
<path d="M8.05104 5.33385C7.9097 5.33385 7.77221 5.30597 7.6424 5.25098C7.51712 5.19791 7.4045 5.12198 7.30764 5.02538C7.10779 4.82604 6.99774 4.56151 6.99774 4.28059C6.99774 3.99967 7.10731 3.73488 7.30632 3.53587C7.50529 3.3369 7.76979 3.22729 8.05104 3.22729C8.33228 3.22729 8.59675 3.33686 8.79575 3.53587C8.99473 3.73484 9.10433 3.99934 9.10433 4.28059C9.10433 4.56184 8.99429 4.82604 8.79443 5.02538C8.69757 5.12198 8.58496 5.19791 8.45967 5.25098C8.3299 5.30597 8.19241 5.33385 8.05104 5.33385ZM8.05104 4.02402C7.90775 4.02402 7.7912 4.14057 7.7912 4.28386C7.7912 4.42715 7.90532 4.54369 8.05104 4.54369C8.19675 4.54369 8.31087 4.42957 8.31087 4.28386C8.31087 4.13815 8.19432 4.02402 8.05104 4.02402Z" fill="#333333"/>
<path d="M2.03238 13.9918C1.81273 13.9918 1.63403 13.8131 1.63403 13.5934V9.50675C1.63403 9.28709 1.81273 9.1084 2.03238 9.1084H6.11906C6.33871 9.1084 6.5174 9.28709 6.5174 9.50675V13.5934C6.5174 13.8131 6.33871 13.9918 6.11906 13.9918H2.03238ZM5.72398 13.1983V9.90513H2.43076V13.1983H5.72398Z" fill="#333333"/>
<path d="M3.46991 12.9536C3.35846 12.9536 3.25224 12.9258 3.15409 12.8708L3.15347 12.8704C3.05411 12.8139 2.97099 12.7318 2.9131 12.633C2.85433 12.5327 2.82418 12.4195 2.82594 12.3055V10.8001C2.82594 10.5659 2.95299 10.3496 3.15751 10.2355C3.25283 10.1824 3.36137 10.1543 3.4713 10.1543C3.59244 10.1543 3.71053 10.1878 3.81283 10.2513L5.02454 11.0045C5.2151 11.1236 5.32871 11.3287 5.32871 11.5532C5.32871 11.7778 5.2151 11.9829 5.02476 12.1018L3.81319 12.855C3.7106 12.9195 3.59189 12.9536 3.46987 12.9536L3.46991 12.9536ZM3.61613 12.0422L4.4043 11.5502L3.61613 11.0605V12.0422Z" fill="#333333"/>
<path d="M7.24875 10.835C7.14172 10.835 7.04151 10.7938 6.96658 10.7188C6.89165 10.6439 6.8504 10.5437 6.8504 10.4367C6.8504 10.217 7.0291 10.0383 7.24875 10.0383H10.9916C11.0986 10.0383 11.1988 10.0796 11.2738 10.1545C11.3487 10.2294 11.3899 10.3296 11.3899 10.4367C11.3899 10.6563 11.2112 10.835 10.9916 10.835H7.24875Z" fill="#333333"/>
<path d="M7.24875 11.9517C7.14172 11.9517 7.04151 11.9105 6.96658 11.8355C6.89165 11.7606 6.8504 11.6604 6.8504 11.5534C6.8504 11.3337 7.0291 11.155 7.24875 11.155H10.9916C11.0986 11.155 11.1988 11.1963 11.2738 11.2712C11.3487 11.3461 11.3899 11.4463 11.3899 11.5534C11.3899 11.773 11.2112 11.9517 10.9916 11.9517H7.24875Z" fill="#333333"/>
<path d="M7.24875 13.065C7.0291 13.065 6.8504 12.8863 6.8504 12.6667C6.8504 12.447 7.0291 12.2683 7.24875 12.2683H9.88478C9.99181 12.2683 10.092 12.3096 10.1669 12.3845C10.2419 12.4594 10.2831 12.5596 10.2831 12.6667C10.2831 12.8863 10.1044 13.065 9.88478 13.065H7.24875Z" fill="#333333"/>
<path d="M7.24875 16.5623C7.14172 16.5623 7.04151 16.5211 6.96658 16.4461C6.89165 16.3712 6.8504 16.271 6.8504 16.164C6.8504 15.9443 7.0291 15.7656 7.24875 15.7656H10.9916C11.0986 15.7656 11.1988 15.8069 11.2738 15.8818C11.3487 15.9567 11.3899 16.0569 11.3899 16.164C11.3899 16.3836 11.2112 16.5623 10.9916 16.5623H7.24875Z" fill="#333333"/>
<path d="M7.24875 17.6756C7.14172 17.6756 7.04151 17.6344 6.96658 17.5594C6.89165 17.4845 6.8504 17.3843 6.8504 17.2773C6.8504 17.0576 7.0291 16.8789 7.24875 16.8789H10.9916C11.2112 16.8789 11.3899 17.0576 11.3899 17.2773C11.3899 17.3843 11.3487 17.4845 11.2738 17.5594C11.1988 17.6344 11.0986 17.6756 10.9916 17.6756H7.24875Z" fill="#333333"/>
<path d="M7.24875 18.7923C7.14172 18.7923 7.04151 18.751 6.96658 18.6761C6.89165 18.6012 6.8504 18.501 6.8504 18.394C6.8504 18.1743 7.0291 17.9956 7.24875 17.9956H9.88478C9.99181 17.9956 10.092 18.0369 10.1669 18.1118C10.2419 18.1867 10.2831 18.2869 10.2831 18.394C10.2831 18.6136 10.1044 18.7923 9.88478 18.7923H7.24875Z" fill="#333333"/>
<path d="M2.03238 19.7222C1.81273 19.7222 1.63403 19.5435 1.63403 19.3239V15.2372C1.63403 15.0176 1.81273 14.8389 2.03238 14.8389H6.11906C6.22576 14.8389 6.32585 14.8799 6.40093 14.9543C6.47605 15.0289 6.51744 15.1282 6.51744 15.2339V19.3239C6.51744 19.5435 6.33875 19.7222 6.11909 19.7222H2.03238ZM5.72398 18.9255V15.6323H2.43076V18.9255H5.72398Z" fill="#333333"/>
<path d="M3.46991 18.6809C3.35846 18.6809 3.25224 18.653 3.15409 18.5981L3.15347 18.5977C3.05411 18.5412 2.97099 18.4591 2.9131 18.3603C2.85433 18.26 2.82418 18.1468 2.82594 18.0328V16.5274C2.82594 16.2932 2.95299 16.0769 3.15751 15.9628C3.25283 15.9097 3.36137 15.8816 3.4713 15.8816C3.5924 15.8816 3.71053 15.9151 3.81283 15.9786L5.02454 16.7318C5.2151 16.8508 5.32871 17.056 5.32871 17.2805C5.32871 17.5051 5.2151 17.7102 5.02476 17.8291L3.81319 18.5823C3.7106 18.6468 3.59189 18.6809 3.46987 18.6809L3.46991 18.6809ZM3.61613 17.7667L4.40394 17.2773L3.61613 16.7878V17.7667V17.7667Z" fill="#333333"/>
<path d="M1.70817 21.5495C0.76628 21.5495 0 20.7832 0 19.8413V2.15861C0 1.92849 0.0450688 1.70517 0.133994 1.49485C0.219834 1.2918 0.342736 1.10939 0.499246 0.952624C0.655683 0.795967 0.837978 0.672735 1.04099 0.58638C1.25113 0.497051 1.47438 0.451284 1.7045 0.450439H11.4599C11.5638 0.450439 11.6662 0.493231 11.7408 0.567868L15.9934 4.81715C16.0687 4.88878 16.1119 4.99144 16.1119 5.09921V8.43599C16.1119 8.54302 16.0706 8.64323 15.9957 8.71816C15.9208 8.79309 15.8206 8.83434 15.7135 8.83434C15.4939 8.83434 15.3152 8.65564 15.3152 8.43599V5.49429H12.7697C11.8278 5.49429 11.0615 4.72801 11.0615 3.78612V1.24386H1.7049C1.20051 1.24386 0.790155 1.65422 0.790155 2.15861V19.8413C0.790155 20.3457 1.20051 20.756 1.7049 20.756H14.3971C14.9015 20.756 15.3119 20.3457 15.3119 19.8413V19.0685C15.3119 18.8489 15.4906 18.6702 15.7102 18.6702C15.8152 18.6702 15.9146 18.7119 15.9903 18.7876C16.0643 18.8615 16.1074 18.9597 16.1117 19.064L16.1119 19.0662V19.8413C16.1119 20.7832 15.3456 21.5495 14.4037 21.5495H1.70817ZM11.8549 3.78935C11.8549 4.29194 12.2611 4.70083 12.7605 4.70083H12.7664H14.75L11.8549 1.80574V3.78935Z" fill="#333333"/>
</g>
<defs>
<clipPath id="clip0_897_7893">
<rect width="20" height="21.0991" fill="white" transform="translate(0 0.450439)"/>
</clipPath>
</defs>
</svg>
