<svg width="52" height="52" viewBox="0 0 52 52" fill="none" xmlns="http://www.w3.org/2000/svg">
<rect x="0.5" y="0.5" width="51" height="51" rx="7.5" stroke="#333333" stroke-opacity="0.2" stroke-dasharray="2 2"/>
<path d="M35.4286 27.5714H27.5714V35.4286C27.5714 36.2929 26.8643 37 26 37C25.1357 37 24.4286 36.2929 24.4286 35.4286V27.5714H16.5714C15.7071 27.5714 15 26.8643 15 26C15 25.1357 15.7071 24.4286 16.5714 24.4286H24.4286V16.5714C24.4286 15.7071 25.1357 15 26 15C26.8643 15 27.5714 15.7071 27.5714 16.5714V24.4286H35.4286C36.2929 24.4286 37 25.1357 37 26C37 26.8643 36.2929 27.5714 35.4286 27.5714Z" fill="#2A9DF4"/>
</svg>
