<svg width="80" height="80" viewBox="0 0 80 80" fill="none" xmlns="http://www.w3.org/2000/svg">
<rect width="80" height="80" rx="40" fill="#2A9DF4" fill-opacity="0.15"/>
<path d="M21.6513 57.5C21.4576 57.5008 21.2715 57.4248 21.1337 57.2887C20.996 57.1526 20.9178 56.9674 20.9163 56.7738V20.3825C20.9178 20.1888 20.996 20.0037 21.1337 19.8675C21.2715 19.7314 21.4576 19.6554 21.6513 19.6563H26.595V17.9063H21.6513C20.9934 17.9053 20.3621 18.1656 19.8961 18.63C19.4302 19.0943 19.1676 19.7247 19.1663 20.3825V56.7738C19.1677 57.4316 19.4302 58.0619 19.8962 58.5263C20.3621 58.9906 20.9934 59.2509 21.6513 59.25H39.265C38.9991 58.6834 38.7739 58.0986 38.5913 57.5H21.6513Z" fill="#2A9DF4"/>
<path d="M49.4585 20.3825V41.785C49.7473 41.7588 50.036 41.75 50.3335 41.75C50.631 41.75 50.9198 41.7588 51.2085 41.785V20.3825C51.2072 19.7247 50.9446 19.0943 50.4786 18.63C50.0127 18.1656 49.3814 17.9053 48.7235 17.9063H43.7798V19.6563H48.7235C48.9172 19.6554 49.1033 19.7314 49.2411 19.8675C49.3788 20.0037 49.457 20.1888 49.4585 20.3825Z" fill="#2A9DF4"/>
<path d="M40.2802 15.5H30.0952C29.1287 15.5 28.3452 16.2835 28.3452 17.25V20.3038C28.3452 21.2702 29.1287 22.0538 30.0952 22.0538H40.2802C41.2467 22.0538 42.0302 21.2702 42.0302 20.3038V17.25C42.0302 16.2835 41.2467 15.5 40.2802 15.5Z" fill="#2A9DF4"/>
<path d="M46.8334 27.0503H31.1184C30.8863 27.0503 30.6638 27.1425 30.4997 27.3066C30.3356 27.4707 30.2434 27.6932 30.2434 27.9253C30.2434 28.1574 30.3356 28.3799 30.4997 28.544C30.6638 28.7081 30.8863 28.8003 31.1184 28.8003H46.8334C47.0655 28.8003 47.288 28.7081 47.4521 28.544C47.6162 28.3799 47.7084 28.1574 47.7084 27.9253C47.7084 27.6932 47.6162 27.4707 47.4521 27.3066C47.288 27.1425 47.0655 27.0503 46.8334 27.0503Z" fill="#2A9DF4"/>
<path d="M50.3337 43.5C48.257 43.5 46.227 44.1158 44.5003 45.2696C42.7735 46.4233 41.4277 48.0632 40.633 49.9818C39.8383 51.9004 39.6304 54.0116 40.0355 56.0484C40.4406 58.0852 41.4407 59.9562 42.9091 61.4246C44.3776 62.8931 46.2485 63.8931 48.2853 64.2982C50.3221 64.7034 52.4333 64.4955 54.3519 63.7007C56.2705 62.906 57.9104 61.5602 59.0642 59.8335C60.2179 58.1068 60.8337 56.0767 60.8337 54C60.8315 51.2159 59.7246 48.5465 57.7559 46.5778C55.7873 44.6092 53.1178 43.5022 50.3337 43.5ZM52.2062 53.125C52.77 53.1256 53.3104 53.3498 53.7091 53.7484C54.1077 54.1471 54.3319 54.6875 54.3325 55.2513V57.7538C54.3301 58.3161 54.105 58.8546 53.7065 59.2515C53.308 59.6483 52.7686 59.8711 52.2062 59.8713H51.2087V60.5625C51.2087 60.7946 51.1166 61.0171 50.9525 61.1812C50.7884 61.3453 50.5658 61.4375 50.3337 61.4375C50.1017 61.4375 49.8791 61.3453 49.715 61.1812C49.5509 61.0171 49.4587 60.7946 49.4587 60.5625V59.8713H48.4612C47.8989 59.8711 47.3594 59.6483 46.961 59.2514C46.5625 58.8546 46.3374 58.3161 46.335 57.7538C46.335 57.5217 46.4272 57.2991 46.5913 57.135C46.7554 56.9709 46.9779 56.8788 47.21 56.8788C47.4421 56.8788 47.6646 56.9709 47.8287 57.135C47.9928 57.2991 48.085 57.5217 48.085 57.7538C48.0855 57.8026 48.0957 57.8509 48.1149 57.8958C48.1341 57.9407 48.162 57.9814 48.1969 58.0155C48.2319 58.0496 48.2732 58.0765 48.3186 58.0947C48.3639 58.1128 48.4124 58.1219 48.4612 58.1212H49.4587V54.875H48.4612C47.8975 54.8744 47.3571 54.6502 46.9584 54.2516C46.5598 53.8529 46.3356 53.3125 46.335 52.7487V50.2462C46.3374 49.6839 46.5625 49.1454 46.961 48.7486C47.3595 48.3517 47.8989 48.1289 48.4612 48.1288H49.4587V47.4375C49.4587 47.2054 49.5509 46.9829 49.715 46.8188C49.8791 46.6547 50.1017 46.5625 50.3337 46.5625C50.5658 46.5625 50.7884 46.6547 50.9525 46.8188C51.1166 46.9829 51.2087 47.2054 51.2087 47.4375V48.1288H52.2062C52.7686 48.1289 53.308 48.3517 53.7065 48.7486C54.105 49.1454 54.3301 49.6839 54.3325 50.2462C54.3325 50.4783 54.2403 50.7009 54.0762 50.865C53.9121 51.0291 53.6896 51.1212 53.4575 51.1212C53.2254 51.1212 53.0029 51.0291 52.8388 50.865C52.6747 50.7009 52.5825 50.4783 52.5825 50.2462C52.582 50.1974 52.5718 50.1491 52.5526 50.1042C52.5334 50.0593 52.5055 50.0186 52.4706 49.9845C52.4356 49.9504 52.3943 49.9235 52.3489 49.9053C52.3036 49.8872 52.2551 49.8781 52.2062 49.8788H51.2087V53.125H52.2062Z" fill="#2A9DF4"/>
<path d="M48.0852 50.2464V52.7489C48.0848 52.7984 48.0943 52.8475 48.1131 52.8934C48.1319 52.9392 48.1596 52.9808 48.1946 53.0158C48.2296 53.0508 48.2712 53.0785 48.317 53.0973C48.3629 53.1161 48.4119 53.1256 48.4615 53.1252H49.459V49.8789H48.4615C48.4126 49.8783 48.3641 49.8874 48.3188 49.9055C48.2734 49.9236 48.2321 49.9506 48.1972 49.9847C48.1622 50.0188 48.1343 50.0595 48.1151 50.1044C48.0959 50.1493 48.0858 50.1976 48.0852 50.2464Z" fill="#2A9DF4"/>
<path d="M51.2087 58.1213H52.2062C52.2551 58.1219 52.3036 58.1128 52.3489 58.0947C52.3943 58.0766 52.4356 58.0496 52.4705 58.0155C52.5055 57.9814 52.5334 57.9407 52.5526 57.8958C52.5718 57.8509 52.5819 57.8026 52.5825 57.7538V55.2513C52.5829 55.2017 52.5734 55.1527 52.5546 55.1068C52.5358 55.061 52.5081 55.0194 52.4731 54.9844C52.4381 54.9494 52.3965 54.9217 52.3507 54.9029C52.3048 54.8841 52.2558 54.8746 52.2062 54.875H51.2087V58.1213Z" fill="#2A9DF4"/>
<path d="M24.1601 27.3098C24.0788 27.2286 23.9824 27.1642 23.8762 27.1202C23.7701 27.0762 23.6563 27.0536 23.5414 27.0536C23.4265 27.0536 23.3127 27.0762 23.2066 27.1202C23.1004 27.1642 23.004 27.2286 22.9228 27.3098C22.8415 27.3911 22.7771 27.4875 22.7331 27.5937C22.6891 27.6998 22.6665 27.8136 22.6665 27.9285C22.6665 28.0434 22.6891 28.1572 22.7331 28.2633C22.7771 28.3695 22.8415 28.4659 22.9228 28.5472L24.3805 30.0049C24.4617 30.0862 24.5582 30.1506 24.6643 30.1946C24.7705 30.2386 24.8843 30.2613 24.9992 30.2613C25.1141 30.2613 25.2278 30.2386 25.334 30.1946C25.4401 30.1506 25.5366 30.0862 25.6178 30.0049L28.5351 27.0885C28.6991 26.9244 28.7913 26.7019 28.7913 26.4699C28.7913 26.2378 28.6991 26.0153 28.5351 25.8512C28.371 25.6871 28.1485 25.595 27.9164 25.595C27.6844 25.595 27.4618 25.6871 27.2978 25.8512L24.9992 28.149L24.1601 27.3098Z" fill="#2A9DF4"/>
<path d="M46.8334 33.1753H31.1184C30.8863 33.1753 30.6638 33.2675 30.4997 33.4316C30.3356 33.5957 30.2434 33.8182 30.2434 34.0503C30.2434 34.2824 30.3356 34.5049 30.4997 34.669C30.6638 34.8331 30.8863 34.9253 31.1184 34.9253H46.8334C47.0655 34.9253 47.288 34.8331 47.4521 34.669C47.6162 34.5049 47.7084 34.2824 47.7084 34.0503C47.7084 33.8182 47.6162 33.5957 47.4521 33.4316C47.288 33.2675 47.0655 33.1753 46.8334 33.1753Z" fill="#2A9DF4"/>
<path d="M28.5351 31.9763C28.4538 31.8951 28.3574 31.8306 28.2512 31.7866C28.1451 31.7426 28.0313 31.72 27.9164 31.72C27.8015 31.72 27.6877 31.7426 27.5816 31.7866C27.4754 31.8306 27.379 31.8951 27.2978 31.9763L24.9992 34.2741L24.1601 33.4349C24.0788 33.3537 23.9824 33.2893 23.8762 33.2453C23.7701 33.2013 23.6563 33.1787 23.5414 33.1787C23.4265 33.1787 23.3127 33.2013 23.2066 33.2453C23.1004 33.2893 23.004 33.3537 22.9228 33.4349C22.8415 33.5162 22.7771 33.6126 22.7331 33.7188C22.6891 33.8249 22.6665 33.9387 22.6665 34.0536C22.6665 34.1685 22.6891 34.2823 22.7331 34.3884C22.7771 34.4946 22.8415 34.591 22.9228 34.6723L24.3805 36.13C24.4617 36.2113 24.5582 36.2757 24.6643 36.3197C24.7705 36.3637 24.8843 36.3864 24.9992 36.3864C25.1141 36.3864 25.2278 36.3637 25.334 36.3197C25.4401 36.2757 25.5366 36.2113 25.6178 36.13L28.5351 33.2136C28.6163 33.1324 28.6808 33.036 28.7248 32.9298C28.7688 32.8237 28.7914 32.7099 28.7914 32.595C28.7914 32.4801 28.7688 32.3663 28.7248 32.2601C28.6808 32.154 28.6163 32.0575 28.5351 31.9763Z" fill="#2A9DF4"/>
<path d="M47.7084 40.1753C47.7085 40.0604 47.6859 39.9466 47.6419 39.8404C47.598 39.7342 47.5335 39.6377 47.4523 39.5564C47.371 39.4752 47.2745 39.4107 47.1683 39.3668C47.0621 39.3228 46.9483 39.3002 46.8334 39.3003H31.1184C30.8863 39.3003 30.6638 39.3925 30.4997 39.5566C30.3356 39.7207 30.2434 39.9432 30.2434 40.1753C30.2434 40.4074 30.3356 40.6299 30.4997 40.794C30.6638 40.9581 30.8863 41.0503 31.1184 41.0503H46.8334C46.9483 41.0504 47.0621 41.0278 47.1683 40.9838C47.2745 40.9399 47.371 40.8754 47.4523 40.7942C47.5335 40.7129 47.598 40.6164 47.6419 40.5102C47.6859 40.404 47.7085 40.2902 47.7084 40.1753Z" fill="#2A9DF4"/>
<path d="M28.5351 38.1013C28.4538 38.0201 28.3574 37.9556 28.2512 37.9116C28.1451 37.8676 28.0313 37.845 27.9164 37.845C27.8015 37.845 27.6877 37.8676 27.5816 37.9116C27.4754 37.9556 27.379 38.0201 27.2978 38.1013L24.9992 40.3991L24.1601 39.5599C24.0788 39.4787 23.9824 39.4143 23.8762 39.3703C23.7701 39.3263 23.6563 39.3037 23.5414 39.3037C23.4265 39.3037 23.3127 39.3263 23.2066 39.3703C23.1004 39.4143 23.004 39.4787 22.9228 39.5599C22.8415 39.6412 22.7771 39.7376 22.7331 39.8438C22.6891 39.9499 22.6665 40.0637 22.6665 40.1786C22.6665 40.2935 22.6891 40.4073 22.7331 40.5134C22.7771 40.6196 22.8415 40.716 22.9228 40.7973L24.3805 42.255C24.4617 42.3363 24.5582 42.4007 24.6643 42.4447C24.7705 42.4887 24.8843 42.5113 24.9992 42.5113C25.1141 42.5113 25.2278 42.4887 25.334 42.4447C25.4401 42.4007 25.5366 42.3363 25.6178 42.255L28.5351 39.3386C28.6163 39.2574 28.6808 39.161 28.7248 39.0548C28.7688 38.9487 28.7914 38.8349 28.7914 38.72C28.7914 38.6051 28.7688 38.4913 28.7248 38.3851C28.6808 38.279 28.6163 38.1825 28.5351 38.1013Z" fill="#2A9DF4"/>
<path d="M41.6014 45.425H31.1189C30.8868 45.425 30.6643 45.5172 30.5002 45.6813C30.3361 45.8454 30.2439 46.068 30.2439 46.3C30.2439 46.5321 30.3361 46.7547 30.5002 46.9188C30.6643 47.0829 30.8868 47.175 31.1189 47.175H40.1751C40.5889 46.5441 41.0669 45.9576 41.6014 45.425Z" fill="#2A9DF4"/>
<path d="M28.5351 44.2263C28.4538 44.1451 28.3574 44.0806 28.2512 44.0366C28.1451 43.9926 28.0313 43.97 27.9164 43.97C27.8015 43.97 27.6877 43.9926 27.5816 44.0366C27.4754 44.0806 27.379 44.1451 27.2978 44.2263L24.9992 46.5241L24.1601 45.6849C23.996 45.5209 23.7734 45.4287 23.5414 45.4287C23.3094 45.4287 23.0868 45.5209 22.9228 45.6849C22.7587 45.849 22.6665 46.0716 22.6665 46.3036C22.6665 46.5356 22.7587 46.7582 22.9228 46.9223L24.3805 48.38C24.4617 48.4613 24.5582 48.5257 24.6643 48.5697C24.7705 48.6137 24.8843 48.6363 24.9992 48.6363C25.1141 48.6363 25.2278 48.6137 25.334 48.5697C25.4401 48.5257 25.5366 48.4613 25.6178 48.38L28.5351 45.4636C28.6163 45.3824 28.6808 45.286 28.7248 45.1798C28.7688 45.0737 28.7914 44.9599 28.7914 44.845C28.7914 44.7301 28.7688 44.6163 28.7248 44.5101C28.6808 44.404 28.6163 44.3075 28.5351 44.2263Z" fill="#2A9DF4"/>
<path d="M30.2439 52.425C30.2446 52.6569 30.337 52.8791 30.5009 53.043C30.6649 53.2069 30.887 53.2994 31.1189 53.3H38.1101C38.1368 52.7114 38.2129 52.126 38.3376 51.55H31.1189C30.887 51.5507 30.6649 51.6431 30.5009 51.8071C30.337 51.971 30.2446 52.1932 30.2439 52.425Z" fill="#2A9DF4"/>
<path d="M27.2978 50.3512L24.9992 52.649L24.1601 51.8098C24.0788 51.7286 23.9824 51.6642 23.8762 51.6202C23.7701 51.5762 23.6563 51.5536 23.5414 51.5536C23.4265 51.5536 23.3127 51.5762 23.2066 51.6202C23.1004 51.6642 23.004 51.7286 22.9228 51.8098C22.8415 51.8911 22.7771 51.9875 22.7331 52.0937C22.6891 52.1998 22.6665 52.3136 22.6665 52.4285C22.6665 52.5434 22.6891 52.6572 22.7331 52.7633C22.7771 52.8695 22.8415 52.9659 22.9228 53.0472L24.3805 54.5049C24.4617 54.5862 24.5582 54.6506 24.6643 54.6946C24.7705 54.7386 24.8843 54.7612 24.9992 54.7612C25.1141 54.7612 25.2278 54.7386 25.334 54.6946C25.4401 54.6506 25.5366 54.5862 25.6178 54.5049L28.5351 51.5885C28.6163 51.5073 28.6808 51.4108 28.7247 51.3047C28.7687 51.1985 28.7913 51.0848 28.7913 50.9699C28.7913 50.855 28.7687 50.7412 28.7247 50.6351C28.6808 50.5289 28.6163 50.4325 28.5351 50.3512C28.4538 50.27 28.3574 50.2055 28.2512 50.1616C28.1451 50.1176 28.0313 50.095 27.9164 50.095C27.8015 50.095 27.6878 50.1176 27.5816 50.1616C27.4755 50.2055 27.379 50.27 27.2978 50.3512Z" fill="#2A9DF4"/>
</svg>
