<svg width="20" height="20" viewBox="0 0 20 20" fill="none" xmlns="http://www.w3.org/2000/svg">
<path d="M10.9165 5.655L7.90235 2.63993C7.84745 2.58506 7.75807 2.58506 7.70327 2.63993L4.68907 5.655C4.63508 5.70809 4.60057 5.77448 4.58639 5.8453C4.57312 5.91435 4.5793 5.98783 4.60853 6.05866C4.63773 6.12858 4.68554 6.1861 4.74485 6.22595C4.80502 6.26577 4.87585 6.28791 4.95108 6.28791L6.37274 6.28791L6.37274 10.4635C6.37274 10.5414 6.43647 10.6042 6.51348 10.6042L9.09213 10.6042C9.17002 10.6042 9.23288 10.5414 9.23288 10.4635L9.23288 6.28791L10.6545 6.28791C10.7298 6.28791 10.8006 6.2658 10.8608 6.22595C10.9201 6.18614 10.9679 6.12858 10.9971 6.05866C11.0263 5.98783 11.0325 5.91435 11.0192 5.84531C11.005 5.77451 10.9705 5.70812 10.9165 5.655Z" stroke="#333333" stroke-width="0.799455"/>
<path d="M11.0844 13.9439L14.0986 16.9589C14.1535 17.0138 14.2429 17.0138 14.2977 16.9589L17.3119 13.9439C17.3659 13.8908 17.4004 13.8244 17.4146 13.7536C17.4279 13.6845 17.4217 13.611 17.3924 13.5402C17.3632 13.4703 17.3154 13.4128 17.2561 13.3729C17.196 13.3331 17.1251 13.311 17.0499 13.311H15.6282V9.13538C15.6282 9.05749 15.5645 8.99463 15.4875 8.99463H12.9088C12.831 8.99463 12.7681 9.05749 12.7681 9.13538V13.311H11.3464C11.2712 13.311 11.2004 13.3331 11.1402 13.3729C11.0809 13.4127 11.0331 13.4703 11.0039 13.5402C10.9747 13.611 10.9685 13.6845 10.9818 13.7536C10.9959 13.8244 11.0304 13.8908 11.0844 13.9439Z" stroke="#333333" stroke-width="0.799455"/>
</svg>
