<svg width="72" height="72" viewBox="0 0 72 72" fill="none" xmlns="http://www.w3.org/2000/svg">
<rect width="72" height="72" rx="36" fill="#FF0000" fill-opacity="0.1"/>
<path d="M42.4875 35.4872L38.4747 39.5L42.4875 43.5127C43.1717 44.197 43.1717 45.303 42.4875 45.9873C42.1462 46.3285 41.6982 46.5 41.2502 46.5C40.8022 46.5 40.3542 46.3285 40.013 45.9873L36.0002 41.9745L31.9875 45.9873C31.6462 46.3285 31.1982 46.5 30.7502 46.5C30.3022 46.5 29.8542 46.3285 29.513 45.9873C28.8287 45.303 28.8287 44.197 29.513 43.5127L33.5257 39.5L29.513 35.4872C28.8287 34.803 28.8287 33.697 29.513 33.0128C30.1972 32.3285 31.3032 32.3285 31.9875 33.0128L36.0002 37.0255L40.013 33.0128C40.6972 32.3285 41.8032 32.3285 42.4875 33.0128C43.1717 33.697 43.1717 34.803 42.4875 35.4872ZM55.2502 23.75C55.2502 24.7177 54.4662 25.5 53.5002 25.5H51.9515L49.7185 49.076C49.2897 53.5928 45.5447 57 41.007 57H30.9847C26.454 57 22.709 53.5998 22.275 49.0882L20.007 25.5H18.502C17.536 25.5 16.752 24.7177 16.752 23.75C16.752 22.7822 17.536 22 18.502 22H25.6787C26.4925 18.0117 30.0275 15 34.252 15H37.752C41.9765 15 45.5132 18.0117 46.3252 22H53.502C54.468 22 55.2502 22.7822 55.2502 23.75ZM29.3012 22H42.6992C41.9765 19.963 40.0322 18.5 37.7502 18.5H34.2502C31.9682 18.5 30.024 19.963 29.3012 22ZM48.4357 25.5H23.5227L25.7592 48.7523C26.0182 51.4595 28.2652 53.5 30.9847 53.5H41.007C43.73 53.5 45.977 51.456 46.2342 48.7435L48.4357 25.5Z" fill="#FF0000"/>
</svg>
