<svg width="20" height="20" viewBox="0 0 20 20" fill="none" xmlns="http://www.w3.org/2000/svg">
<rect x="0.5" y="0.5" width="19" height="19" rx="2.5" stroke="black"/>
<path d="M4.34068 8.14923C3.59022 8.14923 3.59022 7.01908 4.34068 7.01908H13.7279C14.4784 7.01908 14.4784 8.14923 13.7279 8.14923H4.34068ZM4.34068 5.63955C3.59022 5.63955 3.59022 4.50968 4.34068 4.50968H13.7279C14.4784 4.50968 14.4784 5.63955 13.7279 5.63955H4.34068ZM4.34068 3.13015C3.59022 3.13015 3.59022 2 4.34068 2H13.7279C14.4784 2 14.4784 3.13015 13.7279 3.13015H4.34068ZM14.0613 16.9667C14.4334 17.6084 13.4505 18.1696 13.0772 17.5273L11.8501 15.42L10.1932 17.7611C9.87836 18.205 9.14083 17.9993 9.15994 17.4002L9.16022 10.6511C9.16022 10.2231 9.63074 9.93696 10.0276 10.173L15.9386 13.5562C16.42 13.8312 16.2534 14.557 15.7044 14.6044L12.8336 14.8582L14.0613 16.9667ZM13.8122 13.6384L10.2955 11.6255V15.6524L11.4108 14.0767C11.5024 13.9301 11.6601 13.8265 11.8467 13.8106L13.8122 13.6384Z" fill="#333333"/>
</svg>
