<svg width="20" height="20" viewBox="0 0 20 20" fill="none" xmlns="http://www.w3.org/2000/svg">
<path d="M18.826 5.37401L14.626 1.17401C14.5699 1.1184 14.5034 1.07441 14.4303 1.04455C14.3572 1.01469 14.279 0.999553 14.2 1.00001H2.8C2.32261 1.00001 1.86477 1.18965 1.52721 1.52722C1.18964 1.86478 1 2.32262 1 2.80001V17.2C1 17.6774 1.18964 18.1352 1.52721 18.4728C1.86477 18.8104 2.32261 19 2.8 19H17.2C17.6774 19 18.1352 18.8104 18.4728 18.4728C18.8104 18.1352 19 17.6774 19 17.2V5.80001C19.0005 5.72105 18.9853 5.64277 18.9555 5.56967C18.9256 5.49656 18.8816 5.43007 18.826 5.37401ZM5.2 2.20001H7.6V5.20001C7.6 5.2788 7.58448 5.35682 7.55433 5.42962C7.52418 5.50242 7.47998 5.56856 7.42426 5.62427C7.36855 5.67999 7.30241 5.72418 7.22961 5.75434C7.15682 5.78449 7.07879 5.80001 7 5.80001H5.8C5.64087 5.80001 5.48826 5.7368 5.37574 5.62427C5.26321 5.51175 5.2 5.35914 5.2 5.20001V2.20001ZM14.8 17.8H5.2V11.2C5.2 11.0409 5.26321 10.8883 5.37574 10.7757C5.48826 10.6632 5.64087 10.6 5.8 10.6H14.2C14.3591 10.6 14.5117 10.6632 14.6243 10.7757C14.7368 10.8883 14.8 11.0409 14.8 11.2V17.8ZM17.8 17.2C17.8 17.3591 17.7368 17.5118 17.6243 17.6243C17.5117 17.7368 17.3591 17.8 17.2 17.8H16V11.2C16 10.7226 15.8104 10.2648 15.4728 9.92722C15.1352 9.58965 14.6774 9.40001 14.2 9.40001H5.8C5.32261 9.40001 4.86477 9.58965 4.52721 9.92722C4.18964 10.2648 4 10.7226 4 11.2V17.8H2.8C2.64087 17.8 2.48826 17.7368 2.37574 17.6243C2.26321 17.5118 2.2 17.3591 2.2 17.2V2.80001C2.2 2.64088 2.26321 2.48827 2.37574 2.37575C2.48826 2.26322 2.64087 2.20001 2.8 2.20001H4V5.20001C4 5.6774 4.18964 6.13524 4.52721 6.4728C4.86477 6.81037 5.32261 7.00001 5.8 7.00001H7C7.47739 7.00001 7.93523 6.81037 8.27279 6.4728C8.61036 6.13524 8.8 5.6774 8.8 5.20001V2.20001H13.5564C13.811 2.20001 14.0551 2.30115 14.2352 2.48119L17.5188 5.76483C17.6989 5.94487 17.8 6.18905 17.8 6.44366V17.2Z" fill="#333333"/>
<path d="M11.25 12.5H8.75C8.25272 12.5 7.77581 12.6975 7.42417 13.0492C7.07254 13.4008 6.875 13.8777 6.875 14.375C6.875 14.8723 7.07254 15.3492 7.42417 15.7008C7.77581 16.0525 8.25272 16.25 8.75 16.25H11.25C11.7473 16.25 12.2242 16.0525 12.5758 15.7008C12.9275 15.3492 13.125 14.8723 13.125 14.375C13.125 13.8777 12.9275 13.4008 12.5758 13.0492C12.2242 12.6975 11.7473 12.5 11.25 12.5ZM11.25 15H8.75C8.58424 15 8.42527 14.9342 8.30806 14.8169C8.19085 14.6997 8.125 14.5408 8.125 14.375C8.125 14.2092 8.19085 14.0503 8.30806 13.9331C8.42527 13.8158 8.58424 13.75 8.75 13.75H11.25C11.4158 13.75 11.5747 13.8158 11.6919 13.9331C11.8092 14.0503 11.875 14.2092 11.875 14.375C11.875 14.5408 11.8092 14.6997 11.6919 14.8169C11.5747 14.9342 11.4158 15 11.25 15Z" fill="#333333"/>
</svg>
