<svg width="16" height="16" viewBox="0 0 16 16" fill="none" xmlns="http://www.w3.org/2000/svg">
<g clip-path="url(#clip0_2228_3370)">
<path d="M13.4247 16C13.1781 15.9993 12.934 15.9498 12.7066 15.8542C12.4793 15.7587 12.2731 15.619 12.1 15.4433L8.00001 11.3673L3.90001 15.446C3.6367 15.7132 3.299 15.8948 2.93096 15.9672C2.56291 16.0396 2.18158 15.9995 1.83668 15.852C1.48836 15.7119 1.19037 15.47 0.98165 15.1579C0.772925 14.8459 0.663156 14.4781 0.666678 14.1027V3.33333C0.666678 2.44928 1.01787 1.60143 1.64299 0.976311C2.26811 0.351189 3.11596 0 4.00001 0L12 0C12.4377 0 12.8712 0.0862192 13.2756 0.253735C13.68 0.421251 14.0475 0.666782 14.357 0.976311C14.6666 1.28584 14.9121 1.6533 15.0796 2.05772C15.2471 2.46214 15.3333 2.89559 15.3333 3.33333V14.1027C15.3371 14.4778 15.2277 14.8453 15.0195 15.1574C14.8112 15.4694 14.5138 15.7115 14.166 15.852C13.9312 15.9502 13.6792 16.0005 13.4247 16ZM4.00001 1.33333C3.46958 1.33333 2.96087 1.54405 2.5858 1.91912C2.21072 2.29419 2.00001 2.8029 2.00001 3.33333V14.1027C1.99977 14.2138 2.03246 14.3224 2.09394 14.4149C2.15543 14.5075 2.24296 14.5797 2.34547 14.6225C2.44798 14.6653 2.56088 14.6768 2.6699 14.6554C2.77893 14.6341 2.87918 14.5809 2.95801 14.5027L7.53334 9.95533C7.65825 9.83117 7.82722 9.76147 8.00334 9.76147C8.17947 9.76147 8.34844 9.83117 8.47334 9.95533L13.0433 14.5013C13.1222 14.5796 13.2224 14.6328 13.3315 14.6541C13.4405 14.6754 13.5534 14.664 13.6559 14.6212C13.7584 14.5784 13.8459 14.5061 13.9074 14.4136C13.9689 14.3211 14.0016 14.2124 14.0013 14.1013V3.33333C14.0013 2.8029 13.7906 2.29419 13.4156 1.91912C13.0405 1.54405 12.5318 1.33333 12.0013 1.33333H4.00001Z" fill="white"/>
</g>
<defs>
<clipPath id="clip0_2228_3370">
<rect width="16" height="16" fill="white"/>
</clipPath>
</defs>
</svg>
