<svg width="20" height="20" viewBox="0 0 20 20" fill="none" xmlns="http://www.w3.org/2000/svg">
<path d="M10.0009 6.66669C9.34167 6.66669 8.6972 6.86218 8.14904 7.22846C7.60087 7.59473 7.17363 8.11532 6.92134 8.72441C6.66905 9.3335 6.60304 10.0037 6.73165 10.6503C6.86027 11.2969 7.17774 11.8909 7.64391 12.357C8.11009 12.8232 8.70403 13.1407 9.35064 13.2693C9.99724 13.3979 10.6675 13.3319 11.2766 13.0796C11.8856 12.8273 12.4062 12.4001 12.7725 11.8519C13.1388 11.3038 13.3343 10.6593 13.3343 10C13.3343 9.11597 12.9831 8.26812 12.358 7.643C11.7328 7.01788 10.885 6.66669 10.0009 6.66669ZM10.0009 11.6667C9.6713 11.6667 9.34907 11.5689 9.07499 11.3858C8.80091 11.2027 8.58728 10.9424 8.46114 10.6378C8.33499 10.3333 8.30199 9.99817 8.3663 9.67487C8.4306 9.35157 8.58934 9.0546 8.82243 8.82151C9.05551 8.58842 9.35249 8.42969 9.67579 8.36538C9.99909 8.30107 10.3342 8.33408 10.6387 8.46022C10.9433 8.58637 11.2036 8.79999 11.3867 9.07407C11.5699 9.34815 11.6676 9.67039 11.6676 10C11.6676 10.442 11.492 10.866 11.1794 11.1785C10.8669 11.4911 10.443 11.6667 10.0009 11.6667Z" fill="#333333"/>
<path d="M17.746 11.5833L17.376 11.37C17.5426 10.4637 17.5426 9.53463 17.376 8.62833L17.746 8.415C18.0305 8.25085 18.28 8.03226 18.48 7.77172C18.6801 7.51118 18.8268 7.21378 18.912 6.89651C18.9971 6.57925 19.0189 6.24832 18.9761 5.92263C18.9333 5.59694 18.8268 5.28286 18.6627 4.99833C18.4985 4.7138 18.2799 4.46439 18.0194 4.26434C17.7589 4.06428 17.4615 3.91751 17.1442 3.83239C16.8269 3.74726 16.496 3.72547 16.1703 3.76824C15.8446 3.81101 15.5305 3.91751 15.246 4.08167L14.8752 4.29583C14.1748 3.69743 13.3699 3.23354 12.501 2.9275V2.5C12.501 1.83696 12.2376 1.20107 11.7688 0.732233C11.2999 0.263392 10.6641 0 10.001 0C9.33797 0 8.70209 0.263392 8.23325 0.732233C7.7644 1.20107 7.50101 1.83696 7.50101 2.5V2.9275C6.63217 3.23464 5.82755 3.69967 5.12768 4.29917L4.75518 4.08333C4.18054 3.75181 3.49775 3.66214 2.857 3.83405C2.21625 4.00596 1.67003 4.42536 1.33851 5C1.00699 5.57464 0.917322 6.25743 1.08923 6.89818C1.26114 7.53893 1.68054 8.08515 2.25518 8.41667L2.62518 8.63C2.4586 9.5363 2.4586 10.4654 2.62518 11.3717L2.25518 11.585C1.68054 11.9165 1.26114 12.4627 1.08923 13.1035C0.917322 13.7442 1.00699 14.427 1.33851 15.0017C1.67003 15.5763 2.21625 15.9957 2.857 16.1676C3.49775 16.3395 4.18054 16.2499 4.75518 15.9183L5.12601 15.7042C5.82665 16.3027 6.63183 16.7666 7.50101 17.0725V17.5C7.50101 18.163 7.7644 18.7989 8.23325 19.2678C8.70209 19.7366 9.33797 20 10.001 20C10.6641 20 11.2999 19.7366 11.7688 19.2678C12.2376 18.7989 12.501 18.163 12.501 17.5V17.0725C13.3699 16.7654 14.1745 16.3003 14.8743 15.7008L15.2468 15.9158C15.8215 16.2474 16.5043 16.337 17.145 16.1651C17.7858 15.9932 18.332 15.5738 18.6635 14.9992C18.995 14.4245 19.0847 13.7417 18.9128 13.101C18.7409 12.4602 18.3215 11.914 17.7468 11.5825L17.746 11.5833ZM15.6227 8.43667C15.9049 9.45922 15.9049 10.5391 15.6227 11.5617C15.5734 11.7396 15.5846 11.9289 15.6546 12.0998C15.7246 12.2707 15.8494 12.4135 16.0093 12.5058L16.9127 13.0275C17.1042 13.138 17.244 13.3201 17.3012 13.5336C17.3585 13.7472 17.3286 13.9747 17.2181 14.1663C17.1076 14.3578 16.9255 14.4975 16.712 14.5548C16.4984 14.6121 16.2709 14.5822 16.0793 14.4717L15.1743 13.9483C15.0143 13.8556 14.8279 13.8188 14.6446 13.8437C14.4612 13.8686 14.2914 13.9538 14.1618 14.0858C13.4201 14.843 12.4857 15.3833 11.4593 15.6483C11.2802 15.6944 11.1215 15.7987 11.0082 15.9449C10.8949 16.0911 10.8334 16.2709 10.8335 16.4558V17.5C10.8335 17.721 10.7457 17.933 10.5894 18.0893C10.4332 18.2455 10.2212 18.3333 10.0002 18.3333C9.77917 18.3333 9.5672 18.2455 9.41092 18.0893C9.25464 17.933 9.16685 17.721 9.16685 17.5V16.4567C9.16694 16.2717 9.10549 16.092 8.99218 15.9458C8.87888 15.7996 8.72015 15.6952 8.54101 15.6492C7.51464 15.3831 6.58045 14.8416 5.83935 14.0833C5.70978 13.9513 5.53996 13.8661 5.35664 13.8412C5.17332 13.8163 4.98693 13.8531 4.82685 13.9458L3.92351 14.4683C3.8287 14.5239 3.72384 14.5602 3.61495 14.5751C3.50606 14.59 3.39531 14.5832 3.28906 14.5551C3.18281 14.527 3.08316 14.4782 2.99586 14.4114C2.90856 14.3446 2.83533 14.2613 2.78038 14.1661C2.72542 14.0709 2.68984 13.9658 2.67568 13.8568C2.66151 13.7479 2.66904 13.6372 2.69784 13.5311C2.72663 13.425 2.77612 13.3257 2.84346 13.2389C2.91079 13.152 2.99464 13.0793 3.09018 13.025L3.99351 12.5033C4.15347 12.411 4.27824 12.2682 4.34823 12.0973C4.41822 11.9264 4.42945 11.7371 4.38018 11.5592C4.09798 10.5366 4.09798 9.45672 4.38018 8.43417C4.42857 8.25657 4.41679 8.06795 4.34669 7.89774C4.27659 7.72754 4.15211 7.58534 3.99268 7.49333L3.08935 6.97167C2.89784 6.86116 2.75807 6.6791 2.70079 6.46555C2.64352 6.25199 2.67342 6.02442 2.78393 5.83292C2.89444 5.64141 3.07649 5.50164 3.29005 5.44437C3.50361 5.38709 3.73117 5.41699 3.92268 5.5275L4.82768 6.05083C4.98733 6.14376 5.17333 6.18101 5.35645 6.15672C5.53957 6.13244 5.70944 6.048 5.83935 5.91667C6.58109 5.15945 7.51553 4.61918 8.54185 4.35417C8.72154 4.30797 8.88068 4.20313 8.99404 4.05625C9.10741 3.90938 9.16851 3.72887 9.16768 3.54333V2.5C9.16768 2.27899 9.25548 2.06702 9.41176 1.91074C9.56804 1.75446 9.78 1.66667 10.001 1.66667C10.222 1.66667 10.434 1.75446 10.5903 1.91074C10.7465 2.06702 10.8343 2.27899 10.8343 2.5V3.54333C10.8343 3.7283 10.8957 3.90804 11.009 4.05423C11.1223 4.20043 11.281 4.30478 11.4602 4.35083C12.4869 4.61679 13.4213 5.15824 14.1627 5.91667C14.2922 6.04872 14.4621 6.13391 14.6454 6.15881C14.8287 6.1837 15.0151 6.14689 15.1752 6.05417L16.0785 5.53167C16.1733 5.47609 16.2782 5.43981 16.3871 5.42492C16.496 5.41003 16.6067 5.41683 16.713 5.44492C16.8192 5.47301 16.9189 5.52184 17.0062 5.58859C17.0935 5.65535 17.1667 5.73872 17.2217 5.83389C17.2766 5.92907 17.3122 6.03417 17.3263 6.14316C17.3405 6.25214 17.333 6.36285 17.3042 6.46891C17.2754 6.57497 17.2259 6.67429 17.1586 6.76114C17.0912 6.848 17.0074 6.92068 16.9118 6.975L16.0085 7.49667C15.8494 7.58892 15.7253 7.73123 15.6555 7.90141C15.5857 8.07159 15.5741 8.26008 15.6227 8.4375V8.43667Z" fill="#333333"/>
</svg>
