<svg width="20" height="20" viewBox="0 0 20 20" fill="none" xmlns="http://www.w3.org/2000/svg">
<path d="M16.5174 2.79793V17.87C16.5174 18.3502 16.1281 18.7394 15.6479 18.7394H4.06673C3.58654 18.7394 3.19727 18.3502 3.19727 17.87V2.79793C3.19727 2.31774 3.58653 1.92847 4.06673 1.92847H15.6479C16.1281 1.92847 16.5174 2.31774 16.5174 2.79793Z" fill="#F2F2F2"/>
<path d="M15.6488 19H4.06771C3.44457 19 2.9375 18.493 2.9375 17.8698V2.79794C2.9375 2.17479 3.44457 1.66772 4.06771 1.66772H15.6488C16.272 1.66772 16.7791 2.17479 16.7791 2.79794V17.8698C16.7791 18.493 16.272 19 15.6488 19ZM4.06771 2.18905C3.73204 2.18905 3.45882 2.46226 3.45882 2.79793V17.8698C3.45882 18.2055 3.73204 18.4787 4.06771 18.4787H15.6488C15.9845 18.4787 16.2577 18.2055 16.2577 17.8698V2.79794C16.2577 2.46227 15.9845 2.18905 15.6488 2.18905L4.06771 2.18905Z" fill="#333333"/>
<path d="M16.5174 2.79793V5.1798H3.19727V2.79793C3.19727 2.31774 3.58654 1.92847 4.06673 1.92847H15.6479C16.1281 1.92847 16.5174 2.31774 16.5174 2.79793Z" fill="#E0E0E0"/>
<path d="M16.5184 5.44054H3.19816C3.05426 5.44054 2.9375 5.32378 2.9375 5.17987V2.79794C2.9375 2.17479 3.44457 1.66772 4.06771 1.66772H15.6488C16.272 1.66772 16.7791 2.17479 16.7791 2.79794V5.17987C16.7791 5.32378 16.6623 5.44054 16.5184 5.44054ZM3.45882 4.91921H16.2577V2.79794C16.2577 2.46227 15.9845 2.18905 15.6488 2.18905H4.06771C3.73204 2.18905 3.45882 2.46227 3.45882 2.79794V4.91921Z" fill="#333333"/>
<path d="M13.1641 7.91439H6.55168C6.40777 7.91439 6.29102 7.79763 6.29102 7.65373C6.29102 7.50982 6.40777 7.39307 6.55168 7.39307H13.1641C13.308 7.39307 13.4248 7.50982 13.4248 7.65373C13.4248 7.79763 13.308 7.91439 13.1641 7.91439Z" fill="#333333"/>
<path d="M13.1641 9.91659H6.55168C6.40777 9.91659 6.29102 9.79983 6.29102 9.65593C6.29102 9.51202 6.40777 9.39526 6.55168 9.39526H13.1641C13.308 9.39526 13.4248 9.51202 13.4248 9.65593C13.4248 9.79983 13.308 9.91659 13.1641 9.91659Z" fill="#333333"/>
<path d="M9.94914 12.5218H5.55607C5.41217 12.5218 5.29541 12.4051 5.29541 12.2612C5.29541 12.1172 5.41217 12.0005 5.55607 12.0005H9.94914C10.093 12.0005 10.2098 12.1172 10.2098 12.2612C10.2098 12.4051 10.093 12.5218 9.94914 12.5218Z" fill="#333333"/>
<path d="M14.1579 12.5218H11.9384C11.7945 12.5218 11.6777 12.4051 11.6777 12.2612C11.6777 12.1172 11.7945 12.0005 11.9384 12.0005H14.1579C14.3018 12.0005 14.4186 12.1172 14.4186 12.2612C14.4186 12.4051 14.3018 12.5218 14.1579 12.5218Z" fill="#333333"/>
<path d="M9.94914 14.524H5.55607C5.41217 14.524 5.29541 14.4073 5.29541 14.2633C5.29541 14.1194 5.41217 14.0027 5.55607 14.0027H9.94914C10.093 14.0027 10.2098 14.1194 10.2098 14.2633C10.2098 14.4073 10.093 14.524 9.94914 14.524Z" fill="#333333"/>
<path d="M14.1579 14.524H11.9384C11.7945 14.524 11.6777 14.4073 11.6777 14.2633C11.6777 14.1194 11.7945 14.0027 11.9384 14.0027H14.1579C14.3018 14.0027 14.4186 14.1194 14.4186 14.2633C14.4186 14.4073 14.3018 14.524 14.1579 14.524Z" fill="#333333"/>
<path d="M9.94914 16.526H5.55607C5.41217 16.526 5.29541 16.4092 5.29541 16.2653C5.29541 16.1214 5.41217 16.0046 5.55607 16.0046H9.94914C10.093 16.0046 10.2098 16.1214 10.2098 16.2653C10.2098 16.4092 10.093 16.526 9.94914 16.526Z" fill="#333333"/>
<path d="M14.1579 16.526H11.9384C11.7945 16.526 11.6777 16.4092 11.6777 16.2653C11.6777 16.1214 11.7945 16.0046 11.9384 16.0046H14.1579C14.3018 16.0046 14.4186 16.1214 14.4186 16.2653C14.4186 16.4092 14.3018 16.526 14.1579 16.526Z" fill="#333333"/>
<path d="M7.78166 3.81478H6.16203C6.01812 3.81478 5.90137 3.69803 5.90137 3.55412C5.90137 3.41021 6.01812 3.29346 6.16203 3.29346H7.78166C7.92557 3.29346 8.04233 3.41021 8.04233 3.55412C8.04233 3.69803 7.92557 3.81478 7.78166 3.81478Z" fill="#333333"/>
<path d="M13.5523 3.81478H9.38762C9.24371 3.81478 9.12695 3.69803 9.12695 3.55412C9.12695 3.41021 9.24371 3.29346 9.38762 3.29346H13.5523C13.6962 3.29346 13.8129 3.41021 13.8129 3.55412C13.8129 3.69803 13.6962 3.81478 13.5523 3.81478Z" fill="#333333"/>
</svg>
