<svg width="18" height="20" viewBox="0 0 18 20" fill="none" xmlns="http://www.w3.org/2000/svg">
<path d="M0.320618 1.78C0.320618 1.46241 0.446781 1.15782 0.671351 0.933253C0.895922 0.708682 1.20051 0.58252 1.5181 0.58252H15.8878C16.2054 0.58252 16.51 0.708682 16.7346 0.933253C16.9592 1.15782 17.0853 1.46241 17.0853 1.78V5.37244C17.0853 5.69003 16.9592 5.99461 16.7346 6.21918C16.51 6.44375 16.2054 6.56991 15.8878 6.56991C15.5703 6.56991 15.2657 6.44375 15.0411 6.21918C14.8165 5.99461 14.6904 5.69003 14.6904 5.37244V2.97748H9.90045V17.3472H11.0979C11.4155 17.3472 11.7201 17.4734 11.9447 17.698C12.1692 17.9225 12.2954 18.2271 12.2954 18.5447C12.2954 18.8623 12.1692 19.1669 11.9447 19.3915C11.7201 19.616 11.4155 19.7422 11.0979 19.7422H6.30801C5.99042 19.7422 5.68584 19.616 5.46127 19.3915C5.2367 19.1669 5.11053 18.8623 5.11053 18.5447C5.11053 18.2271 5.2367 17.9225 5.46127 17.698C5.68584 17.4734 5.99042 17.3472 6.30801 17.3472H7.50549V2.97748H2.71558V5.37244C2.71558 5.69003 2.58941 5.99461 2.36484 6.21918C2.14027 6.44375 1.83569 6.56991 1.5181 6.56991C1.20051 6.56991 0.895922 6.44375 0.671351 6.21918C0.446781 5.99461 0.320618 5.69003 0.320618 5.37244V1.78Z" fill="black"/>
</svg>
