<svg width="80" height="80" viewBox="0 0 80 80" fill="none" xmlns="http://www.w3.org/2000/svg">
<rect width="80" height="80" rx="40" fill="#2A9DF4" fill-opacity="0.15"/>
<g clip-path="url(#clip0_1088_6816)">
<path d="M21.7941 25.5429H49.4512C51.1873 25.5429 52.5941 26.9496 52.5941 28.6857C52.5941 30.4218 51.1873 31.8286 49.4512 31.8286H21.7941C20.0579 31.8286 18.6512 30.4218 18.6512 28.6857C18.6512 26.9496 20.0579 25.5429 21.7941 25.5429Z" fill="#2A9DF4"/>
<path d="M18.6512 40C18.6512 38.2639 20.0579 36.8571 21.7941 36.8571H36.8798C38.6159 36.8571 40.0226 38.2639 40.0226 40C40.0226 41.7361 38.6159 43.1429 36.8798 43.1429H21.7941C20.0579 43.1429 18.6512 41.7361 18.6512 40Z" fill="#2A9DF4"/>
<path d="M52.5941 51.3143C52.5941 53.0504 51.1873 54.4571 49.4512 54.4571H21.7941C20.0579 54.4571 18.6512 53.0504 18.6512 51.3143C18.6512 49.5782 20.0579 48.1714 21.7941 48.1714H49.4512C51.1873 48.1714 52.5941 49.5782 52.5941 51.3143Z" fill="#2A9DF4"/>
<path d="M60.4286 44.0895C61.6555 45.3165 61.6555 47.3065 60.4286 48.5347C59.2016 49.7617 57.2115 49.7617 55.9833 48.5347L49.6712 42.2226C48.4442 40.9957 48.4442 39.0056 49.6712 37.7774L55.9833 31.4653C57.2103 30.2383 59.2003 30.2383 60.4286 31.4653C61.6555 32.6922 61.6555 34.6823 60.4286 35.9105L56.3391 40L60.4286 44.0895Z" fill="#2A9DF4"/>
</g>
<defs>
<clipPath id="clip0_1088_6816">
<rect width="44" height="44" fill="white" transform="translate(18 18)"/>
</clipPath>
</defs>
</svg>
