<svg width="80" height="80" viewBox="0 0 80 80" fill="none" xmlns="http://www.w3.org/2000/svg">
<rect width="80" height="80" rx="40" fill="#2A9DF4" fill-opacity="0.15"/>
<path d="M57.1875 19.375H28.3125C27.4012 19.3761 26.5274 19.7386 25.883 20.383C25.2386 21.0274 24.8761 21.9012 24.875 22.8125V53.75H20.0625C19.8802 53.75 19.7053 53.8224 19.5764 53.9514C19.4474 54.0803 19.375 54.2552 19.375 54.4375V57.1875C19.3761 58.0988 19.7386 58.9726 20.383 59.617C21.0274 60.2614 21.9012 60.6239 22.8125 60.625H51.6875C52.5988 60.6239 53.4726 60.2614 54.117 59.617C54.7614 58.9726 55.1239 58.0988 55.125 57.1875V26.25H59.9375C60.1198 26.25 60.2947 26.1776 60.4236 26.0486C60.5526 25.9197 60.625 25.7448 60.625 25.5625V22.8125C60.6239 21.9012 60.2614 21.0274 59.617 20.383C58.9726 19.7386 58.0988 19.3761 57.1875 19.375ZM20.75 57.1875V55.125H24.875V57.1875C24.875 57.7345 24.6577 58.2591 24.2709 58.6459C23.8841 59.0327 23.3595 59.25 22.8125 59.25C22.2655 59.25 21.7409 59.0327 21.3541 58.6459C20.9673 58.2591 20.75 57.7345 20.75 57.1875ZM53.75 57.1875C53.75 57.7345 53.5327 58.2591 53.1459 58.6459C52.7591 59.0327 52.2345 59.25 51.6875 59.25H25.5446C25.9996 58.6585 26.2475 57.9338 26.25 57.1875V22.8125C26.25 22.2655 26.4673 21.7409 26.8541 21.3541C27.2409 20.9673 27.7655 20.75 28.3125 20.75H54.4554C54.0004 21.3415 53.7525 22.0662 53.75 22.8125V57.1875ZM59.25 24.875H55.125V22.8125C55.125 22.2655 55.3423 21.7409 55.7291 21.3541C56.1159 20.9673 56.6405 20.75 57.1875 20.75C57.7345 20.75 58.2591 20.9673 58.6459 21.3541C59.0327 21.7409 59.25 22.2655 59.25 22.8125V24.875Z" fill="#2A9DF4"/>
<path d="M48.25 44.8125V24.1875C48.25 24.0052 48.1776 23.8303 48.0486 23.7014C47.9197 23.5724 47.7448 23.5 47.5625 23.5H28.3125C28.1302 23.5 27.9553 23.5724 27.8264 23.7014C27.6974 23.8303 27.625 24.0052 27.625 24.1875V44.8125C27.625 44.9948 27.6974 45.1697 27.8264 45.2986C27.9553 45.4276 28.1302 45.5 28.3125 45.5H47.5625C47.7448 45.5 47.9197 45.4276 48.0486 45.2986C48.1776 45.1697 48.25 44.9948 48.25 44.8125ZM46.875 44.125H29V24.875H46.875V44.125Z" fill="#2A9DF4"/>
<path d="M49.625 27.625H52.375V29H49.625V27.625Z" fill="#2A9DF4"/>
<path d="M49.625 31.75H52.375V33.125H49.625V31.75Z" fill="#2A9DF4"/>
<path d="M49.625 35.875H52.375V37.25H49.625V35.875Z" fill="#2A9DF4"/>
<path d="M49.625 40H52.375V41.375H49.625V40Z" fill="#2A9DF4"/>
<path d="M49.625 44.125H52.375V45.5H49.625V44.125Z" fill="#2A9DF4"/>
<path d="M37.9375 42.0625C39.4332 42.0625 40.8954 41.619 42.139 40.788C43.3826 39.957 44.352 38.7759 44.9243 37.394C45.4967 36.0122 45.6465 34.4916 45.3547 33.0246C45.0629 31.5577 44.3426 30.2101 43.285 29.1525C42.2274 28.0949 40.8799 27.3746 39.4129 27.0828C37.9459 26.791 36.4253 26.9408 35.0435 27.5132C33.6616 28.0856 32.4805 29.0549 31.6495 30.2985C30.8185 31.5422 30.375 33.0043 30.375 34.5C30.3774 36.505 31.1749 38.4272 32.5926 39.8449C34.0103 41.2626 35.9325 42.0601 37.9375 42.0625ZM37.9375 28.3125C39.1613 28.3125 40.3576 28.6754 41.3751 29.3553C42.3926 30.0352 43.1857 31.0015 43.654 32.1321C44.1223 33.2628 44.2449 34.5069 44.0061 35.7071C43.7674 36.9074 43.1781 38.0099 42.3127 38.8752C41.4474 39.7406 40.3449 40.3299 39.1446 40.5686C37.9444 40.8074 36.7003 40.6848 35.5696 40.2165C34.439 39.7482 33.4727 38.9551 32.7928 37.9376C32.1129 36.9201 31.75 35.7238 31.75 34.5C31.7518 32.8595 32.4043 31.2868 33.5643 30.1268C34.7243 28.9668 36.297 28.3143 37.9375 28.3125Z" fill="#2A9DF4"/>
<path d="M36.3612 36.7639L34.0972 34.5L36.3612 32.236L35.389 31.2639L32.639 34.0139C32.5101 34.1428 32.4377 34.3177 32.4377 34.5C32.4377 34.6823 32.5101 34.8571 32.639 34.986L35.389 37.736L36.3612 36.7639Z" fill="#2A9DF4"/>
<path d="M40.486 37.736L43.236 34.986C43.3649 34.8571 43.4373 34.6823 43.4373 34.5C43.4373 34.3177 43.3649 34.1428 43.236 34.0139L40.486 31.2639L39.5139 32.236L41.7779 34.5L39.5139 36.7639L40.486 37.736Z" fill="#2A9DF4"/>
<path d="M36.5725 38.5244L37.9526 30.2774L39.3083 30.5043L37.9283 38.7513L36.5725 38.5244Z" fill="#2A9DF4"/>
<path d="M29 46.875H31.75V48.25H29V46.875Z" fill="#2A9DF4"/>
<path d="M33.125 46.875H45.5V48.25H33.125V46.875Z" fill="#2A9DF4"/>
<path d="M46.875 46.875H51V48.25H46.875V46.875Z" fill="#2A9DF4"/>
<path d="M29 49.625H51V51H29V49.625Z" fill="#2A9DF4"/>
<path d="M29 52.375H45.5V53.75H29V52.375Z" fill="#2A9DF4"/>
<path d="M46.875 52.375H51V53.75H46.875V52.375Z" fill="#2A9DF4"/>
<path d="M29 55.125H30.375V56.5H29V55.125Z" fill="#2A9DF4"/>
<path d="M31.75 55.125H51V56.5H31.75V55.125Z" fill="#2A9DF4"/>
</svg>
