<svg width="80" height="80" viewBox="0 0 80 80" fill="none" xmlns="http://www.w3.org/2000/svg">
<rect width="80" height="80" rx="40" fill="#2A9DF4" fill-opacity="0.15"/>
<path d="M24.9582 27.6005C27.939 24.0717 32.06 21.6965 36.6077 20.8862C41.1553 20.076 45.8431 20.8818 49.8592 23.1641L50.7801 22.149C51.0622 21.8381 51.4212 21.607 51.8209 21.4788C52.2206 21.3506 52.6471 21.3299 53.0573 21.4188C53.4676 21.5077 53.8472 21.703 54.1581 21.9851C54.4689 22.2673 54.7 22.6262 54.8281 23.026L57.324 30.8079C57.452 31.2075 57.4725 31.6338 57.3836 32.0438C57.2947 32.4539 57.0994 32.8333 56.8175 33.144C56.5355 33.4547 56.1768 33.6858 55.7772 33.814C55.3777 33.9421 54.9515 33.9629 54.5414 33.8743L46.5531 32.1446C46.1426 32.056 45.7627 31.8608 45.4517 31.5787C45.1406 31.2966 44.9093 30.9376 44.781 30.5377C44.6527 30.1378 44.632 29.7112 44.721 29.3008C44.8099 28.8904 45.0054 28.5107 45.2877 28.1998L46.2117 27.1832C43.9017 26.1046 41.3486 25.6525 38.8086 25.8722C36.2686 26.092 33.8311 26.9759 31.7406 28.4352C29.6501 29.8945 27.9802 31.878 26.8984 34.1866C25.8166 36.4952 25.361 39.0476 25.5772 41.5879C25.6947 43.0154 25.9487 44.4284 26.3359 45.8074C26.4221 46.0942 26.4186 46.4004 26.3259 46.6852C26.2331 46.9699 26.0556 47.2195 25.817 47.4005L23.8946 48.854C23.7108 48.9932 23.4968 49.0871 23.2698 49.128C23.0429 49.169 22.8096 49.1558 22.5887 49.0896C22.3678 49.0233 22.1657 48.9059 21.9988 48.7469C21.8318 48.5878 21.7047 48.3917 21.6279 48.1743C20.9565 46.1842 20.527 44.1206 20.3488 42.0279C20.1251 39.4378 20.4173 36.829 21.2085 34.3525C21.9997 31.8761 23.2742 29.5811 24.9582 27.6005Z" fill="#2A9DF4"/>
<path d="M44.5823 54.1932C45.8515 53.8123 47.0625 53.2589 48.1812 52.5485C48.4742 52.3611 48.8267 52.2897 49.1695 52.3484C49.5124 52.407 49.8211 52.5914 50.0352 52.8656L51.5525 54.8031C51.6711 54.9544 51.7571 55.1285 51.8052 55.3146C51.8532 55.5007 51.8623 55.6948 51.8318 55.8846C51.8013 56.0743 51.7319 56.2558 51.628 56.4174C51.524 56.5791 51.3878 56.7176 51.2278 56.8241C49.5873 57.9008 47.7947 58.7257 45.9098 59.2714C45.7263 59.3251 45.5336 59.3406 45.3438 59.3168C45.154 59.293 44.9711 59.2304 44.8065 59.1329C44.6418 59.0354 44.499 58.9052 44.3868 58.7502C44.2747 58.5953 44.1956 58.4189 44.1544 58.2321L43.6249 55.8333C43.5481 55.4896 43.6041 55.1295 43.7817 54.8253C43.9592 54.5212 44.2452 54.2953 44.5823 54.1932Z" fill="#2A9DF4"/>
<path d="M54.4913 41.6957C54.5199 41.3459 54.679 41.0197 54.9371 40.7819C55.1951 40.5441 55.5332 40.4121 55.8841 40.4121H58.3406C58.532 40.4123 58.7214 40.4518 58.8969 40.5282C59.0725 40.6046 59.2305 40.7163 59.3611 40.8563C59.4917 40.9962 59.5921 41.1616 59.6561 41.342C59.7202 41.5224 59.7465 41.7141 59.7334 41.9051C59.5927 43.8507 59.178 45.7667 58.5014 47.5962C58.434 47.7758 58.3302 47.9395 58.1967 48.0771C58.0631 48.2147 57.9026 48.3233 57.7252 48.396C57.5477 48.4688 57.3572 48.5042 57.1655 48.5C56.9738 48.4957 56.785 48.452 56.6109 48.3716L54.379 47.3429C54.062 47.1968 53.8112 46.9372 53.6762 46.6154C53.5411 46.2935 53.5315 45.9327 53.6493 45.6041C54.0982 44.3433 54.3812 43.0295 54.4913 41.6957Z" fill="#2A9DF4"/>
<path d="M30.1911 52.8064C30.4089 52.5341 30.7208 52.3532 31.0653 52.2993C31.4099 52.2453 31.7621 52.3224 32.0527 52.5151C33.1589 53.2464 34.3594 53.8237 35.6213 54.2311C35.953 54.3387 36.2326 54.5665 36.4049 54.8697C36.5773 55.1729 36.6301 55.5296 36.5529 55.8697L36.0066 58.2655C35.9639 58.4532 35.8828 58.6301 35.7684 58.785C35.654 58.9399 35.5089 59.0695 35.342 59.1657C35.1752 59.2618 34.9903 59.3225 34.7989 59.3438C34.6076 59.3651 34.4139 59.3467 34.23 59.2896C32.359 58.7063 30.5844 57.8499 28.9636 56.7482C28.8047 56.6398 28.6699 56.4996 28.5676 56.3366C28.4654 56.1736 28.3979 55.9912 28.3694 55.801C28.3409 55.6107 28.352 55.4165 28.4021 55.2307C28.4521 55.0449 28.54 54.8715 28.6602 54.7212L30.1911 52.8064Z" fill="#2A9DF4"/>
</svg>
