<svg width="20" height="20" viewBox="0 0 20 20" fill="none" xmlns="http://www.w3.org/2000/svg">
<path d="M3.9709 10.2507C3.75084 9.91645 3.24883 9.91645 3.02947 10.2507L0.11286 14.7033C-0.0167007 14.9022 -0.0366067 15.1648 0.0629716 15.3828C0.162699 15.6024 0.363543 15.7409 0.583548 15.7409H1.94434V18.3475C1.94434 18.7072 2.20564 19 2.5282 19H4.47221C4.79482 19 5.05608 18.7072 5.05608 18.3475V15.7409H6.41687C6.63608 15.7409 6.83757 15.6024 6.93665 15.3828C7.03638 15.1648 7.01717 14.9022 6.88746 14.7033L3.9709 10.2507ZM4.47221 14.436C4.1503 14.436 3.88899 14.7288 3.88899 15.0884V17.6951H3.11143V15.0884C3.11143 14.7288 2.85012 14.436 2.5282 14.436H1.73356L3.50016 11.7386L5.26685 14.436H4.47221Z" fill="#333333"/>
<path d="M11.2106 13H14.7897C15.1385 13 15.4202 12.7122 15.4202 12.3587V8.71855H18.3696C18.6066 8.71855 18.8246 8.5824 18.9316 8.36659C19.0394 8.15231 19.0184 7.89414 18.8784 7.69867L13.5087 0.246384C13.2715 -0.0821279 12.7288 -0.0821279 12.4909 0.246384L7.12193 7.69861C6.98111 7.89414 6.96109 8.15226 7.068 8.36654C7.17582 8.5824 7.3929 8.7185 7.63081 8.7185H10.5793V12.3586C10.5793 12.7122 10.862 13 11.2106 13ZM8.87344 7.4358L12.9998 1.70896L17.1262 7.4358H14.7896C14.4418 7.4358 14.1592 7.72364 14.1592 8.07718V11.7173H11.8411V8.07718C11.8411 7.72364 11.5586 7.4358 11.2106 7.4358H8.87344Z" fill="#333333"/>
</svg>
