<svg width="21" height="20" viewBox="0 0 21 20" fill="none" xmlns="http://www.w3.org/2000/svg">
<rect x="1.48389" y="0.75" width="18.5" height="18.5" rx="9.25" stroke="#333333" stroke-width="1.5"/>
<path d="M15.0192 15H14.0668V12.5986C14.0664 12.2252 13.9179 11.8673 13.654 11.6033C13.39 11.3393 13.032 11.1909 12.6587 11.1905H8.80823C8.4349 11.1909 8.07696 11.3393 7.81297 11.6033C7.54899 11.8673 7.40051 12.2252 7.40013 12.5986V15H6.44775V12.5986C6.44851 11.9728 6.69745 11.3728 7.13996 10.9303C7.58247 10.4878 8.18242 10.2389 8.80823 10.2381H12.6587C13.2845 10.2389 13.8845 10.4878 14.327 10.9303C14.7695 11.3728 15.0184 11.9728 15.0192 12.5986V15Z" fill="#333333"/>
<path d="M10.7336 9.28571C10.1685 9.28571 9.61612 9.11815 9.14627 8.8042C8.67641 8.49025 8.3102 8.04403 8.09395 7.52195C7.8777 6.99988 7.82112 6.4254 7.93137 5.87117C8.04161 5.31694 8.31373 4.80784 8.7133 4.40827C9.11288 4.00869 9.62198 3.73657 10.1762 3.62633C10.7304 3.51608 11.3049 3.57266 11.827 3.78891C12.3491 4.00517 12.7953 4.37137 13.1092 4.84123C13.4232 5.31108 13.5908 5.86348 13.5908 6.42857C13.59 7.1861 13.2887 7.91239 12.7531 8.44804C12.2174 8.9837 11.4911 9.28496 10.7336 9.28571ZM10.7336 4.52381C10.3569 4.52381 9.98862 4.63552 9.67538 4.84482C9.36214 5.05412 9.11801 5.3516 8.97384 5.69965C8.82967 6.0477 8.79195 6.43068 8.86545 6.80017C8.93894 7.16966 9.12035 7.50906 9.38674 7.77544C9.65312 8.04183 9.99252 8.22324 10.362 8.29673C10.7315 8.37023 11.1145 8.33251 11.4625 8.18834C11.8106 8.04418 12.1081 7.80004 12.3174 7.4868C12.5267 7.17356 12.6384 6.8053 12.6384 6.42857C12.6384 5.9234 12.4377 5.43891 12.0805 5.0817C11.7233 4.72449 11.2388 4.52381 10.7336 4.52381Z" fill="#333333"/>
</svg>
