<svg width="80" height="80" viewBox="0 0 80 80" fill="none" xmlns="http://www.w3.org/2000/svg">
<rect width="80" height="80" rx="40" fill="#2A9DF4" fill-opacity="0.15"/>
<path d="M54.3547 34.2388C53.6461 35.5541 52.7894 36.7086 51.8069 37.6704C50.8722 38.5844 49.1811 40.1369 46.7767 42.2866C46.1429 42.8646 45.6254 43.3821 45.2448 43.8185C44.8881 44.2277 44.6222 44.5987 44.4582 44.922C44.2862 45.2548 44.1525 45.5907 44.0601 45.9204C43.9566 46.2882 43.7974 46.9458 43.5888 47.8758C43.1429 50.2834 41.67 51.5557 39.3276 51.5557C38.1063 51.5557 37.0585 51.1465 36.2162 50.3391C35.3658 49.5239 34.9327 48.336 34.9327 46.8089C34.9327 45.0669 35.2114 43.5271 35.7576 42.2325C36.3006 40.9522 37.0299 39.8089 37.9295 38.836C38.7846 37.9108 39.9502 36.8009 41.3929 35.5366C42.6254 34.4586 43.5267 33.6353 44.0697 33.0908C44.5744 32.5876 45.0044 32.0191 45.3483 31.4013C45.6668 30.8296 45.8212 30.2245 45.8212 29.5525C45.8212 28.2038 45.3324 27.0971 44.3276 26.1672C43.3037 25.2213 42.0044 24.7611 40.3547 24.7611C38.4391 24.7611 37.0314 25.2261 36.1732 26.1417C35.24 27.1385 34.4295 28.6513 33.7655 30.6417C32.8006 33.8344 30.7687 34.5048 29.2321 34.5048C27.9216 34.5048 26.799 34.035 25.8961 33.1083C24.9996 32.1879 24.5442 31.1592 24.5442 30.0509C24.5442 28.0509 25.1875 26.0111 26.4534 23.9857C27.713 21.9729 29.5681 20.2866 31.9662 18.9745C34.3627 17.664 37.1843 17 40.3547 17C43.2974 17 45.9391 17.5541 48.2082 18.6481C50.4996 19.7516 52.2989 21.2818 53.5569 23.1927C54.8196 25.1162 55.4614 27.2357 55.4614 29.4936C55.4614 31.2802 55.0888 32.8774 54.3547 34.2388Z" fill="#2A9DF4"/>
<path d="M43.2241 61.6289C42.2002 62.5382 40.998 63 39.6509 63C38.3037 63 37.0426 62.5461 36.0107 61.6496C34.9455 60.7245 34.4056 59.4347 34.4056 57.8137C34.4056 56.3678 34.9184 55.1321 35.9327 54.1417C36.9407 53.156 38.1923 52.656 39.6509 52.656C41.1095 52.656 42.326 53.1576 43.3165 54.1481C44.3069 55.1385 44.8085 56.3726 44.8085 57.8137C44.8085 59.4108 44.2751 60.6958 43.2241 61.6289Z" fill="#2A9DF4"/>
</svg>
