<?xml version="1.0" encoding="UTF-8"?>
<svg version="1.1" xmlns="http://www.w3.org/2000/svg" width="324" height="425">
<path d="M0 0 C106.92 0 213.84 0 324 0 C324 140.25 324 280.5 324 425 C217.08 425 110.16 425 0 425 C0 284.75 0 144.5 0 0 Z " fill="#FDFDFD" transform="translate(0,0)"/>
<path d="M0 0 C0.06950833 9.18812922 0.12281539 18.37616794 0.15543652 27.56450272 C0.17109298 31.83101945 0.19233076 36.09735632 0.22631836 40.36376953 C0.25891271 44.48105386 0.27685316 48.59816516 0.28463173 52.71556854 C0.29017512 54.28646315 0.30100004 55.85734829 0.31719017 57.42816925 C0.33896601 59.62842783 0.34196695 61.82797133 0.34057617 64.02832031 C0.35056892 65.9069577 0.35056892 65.9069577 0.36076355 67.82354736 C-0.02772451 71.2441089 -0.55916181 72.61694331 -3 75 C-6.00240675 76.00080225 -7.98471459 76.12719286 -11.12126827 76.13142776 C-12.18721027 76.13526891 -13.25315227 76.13911005 -14.35139555 76.1430676 C-15.52666777 76.14220112 -16.70194 76.14133463 -17.91282654 76.14044189 C-19.15805102 76.14341302 -20.4032755 76.14638414 -21.68623406 76.1494453 C-25.14922878 76.15663414 -28.61217391 76.15930527 -32.07517254 76.16004276 C-35.80734319 76.16189199 -39.53950306 76.16943857 -43.27166748 76.17617798 C-51.43471972 76.18976614 -59.59776706 76.19578651 -67.76082873 76.20018864 C-72.85535013 76.20294973 -77.94986962 76.20718679 -83.04438972 76.21169281 C-97.14303563 76.22388513 -111.24168001 76.23418515 -125.34033108 76.2375679 C-126.2428409 76.23778747 -127.14535072 76.23800703 -128.07520932 76.23823325 C-128.97990232 76.23845153 -129.88459532 76.23866981 -130.81670326 76.2388947 C-132.65001897 76.23933817 -134.48333468 76.23978473 -136.31665039 76.24023438 C-137.22604215 76.2404558 -138.13543391 76.24067723 -139.07238299 76.24090537 C-153.8164264 76.24485561 -168.56042045 76.26231666 -183.30444478 76.2855939 C-198.43316707 76.30928624 -213.56186456 76.32176875 -228.6906057 76.32293582 C-237.1884375 76.32385367 -245.68620497 76.32963375 -254.18401909 76.34775543 C-261.4181432 76.36312774 -268.65218308 76.36829385 -275.8863204 76.36001733 C-279.57896116 76.35610085 -283.27143215 76.35708874 -286.9640522 76.37107468 C-290.96288845 76.38608235 -294.96133933 76.37797693 -298.96018982 76.36749268 C-300.13323132 76.37554908 -301.30627283 76.38360548 -302.51486105 76.39190602 C-303.5834108 76.38531618 -304.65196054 76.37872633 -305.75289059 76.3719368 C-306.67626309 76.37253389 -307.5996356 76.37313097 -308.55098909 76.37374616 C-311.50345137 75.92316775 -312.8573879 75.05577182 -315 73 C-316 70 -316 70 -316 62 C-234.49 61.67 -152.98 61.34 -69 61 C-76.26 53.74 -83.52 46.48 -91 39 C-91 38.67 -91 38.34 -91 38 C-89.73285156 38.03222656 -88.46570313 38.06445312 -87.16015625 38.09765625 C-77.68842386 38.30834098 -77.68842386 38.30834098 -68.98046875 35.2109375 C-66.73212613 32.9192818 -64.89430449 30.59161737 -63 28 C-57.88031435 21.81102922 -52.26745784 16.145196 -46.5625 10.5 C-45.73556641 9.67757813 -44.90863281 8.85515625 -44.05664062 8.0078125 C-42.04005041 6.00287887 -40.02114764 4.00033747 -38 2 C-34.87440171 4.40964928 -32.11690607 6.80479405 -29.5625 9.8125 C-28.9746875 10.49957031 -28.386875 11.18664062 -27.78125 11.89453125 C-27.1934375 12.58933594 -26.605625 13.28414063 -26 14 C-24.8546408 15.33374065 -23.70884353 16.66710528 -22.5625 18 C-21.716875 18.99 -20.87125 19.98 -20 21 C-15.62018911 17.82264629 -12.60240144 14.20671372 -9.375 9.9375 C-8.42630296 8.69521968 -7.47583795 7.45428711 -6.5234375 6.21484375 C-6.11013184 5.66948975 -5.69682617 5.12413574 -5.27099609 4.56225586 C-1.55930614 0 -1.55930614 0 0 0 Z " fill="#029BDF" transform="translate(321,349)"/>
<path d="M0 0 C31.58486952 -0.18255097 63.16958878 -0.3241028 94.75486267 -0.40852264 C98.48485072 -0.41852814 102.21483773 -0.42888273 105.94482422 -0.43945312 C106.68738881 -0.44155161 107.42995341 -0.44365009 108.19501996 -0.44581217 C120.21428413 -0.4806108 132.2332418 -0.54368047 144.25232422 -0.61722237 C156.58755909 -0.69206853 168.92263358 -0.7364773 181.2580862 -0.75270796 C188.86824618 -0.76367826 196.4775398 -0.79830829 204.08743304 -0.86333174 C209.92543032 -0.91067013 215.7629844 -0.91563312 221.60117912 -0.90486145 C223.99413319 -0.9070624 226.38712005 -0.92297719 228.77987862 -0.9536438 C232.04944265 -0.99349256 235.3153102 -0.98386936 238.58496094 -0.96203613 C239.53050433 -0.98533886 240.47604773 -1.0086416 241.45024395 -1.03265047 C247.01393277 -0.93232079 249.65255894 0.08941884 253.65093994 4.06012726 C254.79236769 5.35168466 255.9180528 6.65822204 257 8 C255.79637995 10.5702129 255.03943661 12.10914653 253 14 C249.73092839 14.92382595 246.50918673 14.79655487 243.13085938 14.74171448 C241.61088474 14.75257935 241.61088474 14.75257935 240.06020355 14.76366371 C236.6541345 14.78061363 233.24974399 14.75456097 229.84375 14.72875977 C227.40632672 14.73197751 224.96890567 14.7377925 222.53149414 14.74601746 C216.59219043 14.75906999 210.65334173 14.74421749 204.71412468 14.71646655 C197.79949349 14.68531901 190.88497072 14.685525 183.97028255 14.68698429 C171.63372839 14.68848637 159.29740748 14.66099621 146.9609375 14.61743164 C134.98693593 14.57516888 123.01313968 14.55391931 111.0390625 14.5559082 C109.93286891 14.55608801 109.93286891 14.55608801 108.80432796 14.55627144 C108.06814771 14.5563925 107.33196745 14.55651357 106.5734787 14.5566383 C92.9465816 14.55870754 79.31977184 14.54103931 65.69290304 14.51417865 C60.87168188 14.50512676 56.05047676 14.50193963 51.22924805 14.50058174 C44.74168949 14.49832235 38.25430449 14.47929863 31.76681519 14.44908333 C29.38192063 14.44030333 26.99700115 14.43663324 24.61209106 14.43836594 C21.36420889 14.43983295 18.11693785 14.42292242 14.86914062 14.40113831 C13.44327763 14.40810701 13.44327763 14.40810701 11.98860931 14.41521651 C5.65842088 14.3447823 5.65842088 14.3447823 2.44567871 12.66242886 C-0.80801581 8.92090897 -0.07632373 4.65574759 0 0 Z " fill="#272324" transform="translate(5,411)"/>
<path d="M0 0 C0.33 0 0.66 0 1 0 C1.06950833 9.18812922 1.12281539 18.37616794 1.15543652 27.56450272 C1.17109298 31.83101945 1.19233076 36.09735632 1.22631836 40.36376953 C1.25891271 44.48105386 1.27685316 48.59816516 1.28463173 52.71556854 C1.29017512 54.28646315 1.30100004 55.85734829 1.31719017 57.42816925 C1.33896601 59.62842783 1.34196695 61.82797133 1.34057617 64.02832031 C1.34723801 65.28074524 1.35389984 66.53317017 1.36076355 67.82354736 C0.97359362 71.23250303 0.36991634 72.5780088 -2 75 C-5.10492641 76.74034092 -7.56813772 76.88564188 -11 76 C-14.95598506 72.84351848 -18.25292331 69.25143215 -21.62353516 65.49023438 C-23.37859626 63.59011146 -25.27140056 61.91373391 -27.25 60.25 C-31.39453972 56.72365843 -35.19982046 52.89114129 -39 49 C-37.47269343 43.9474009 -34.39405041 40.71212851 -30.9375 36.875 C-29.74625834 35.52704606 -28.55615767 34.17808294 -27.3671875 32.828125 C-26.78678711 32.17134766 -26.20638672 31.51457031 -25.60839844 30.83789062 C-22.81200516 27.6424977 -20.14611168 24.34496955 -17.47265625 21.046875 C-14.16734081 16.97397446 -10.83394655 12.92447408 -7.5 8.875 C-6.87552979 8.11525879 -6.25105957 7.35551758 -5.60766602 6.57275391 C-5.02557373 5.86554199 -4.44348145 5.15833008 -3.84375 4.4296875 C-3.05774414 3.47425049 -3.05774414 3.47425049 -2.25585938 2.49951172 C-1 1 -1 1 0 0 Z " fill="#242122" transform="translate(320,349)"/>
<path d="M0 0 C15.18 0 30.36 0 46 0 C44.15494804 3.69010391 43.21146881 4.93390823 40.1875 7.4375 C35.64191681 11.29634041 31.55536175 15.33636043 27.6875 19.875 C24.62226203 23.43094492 21.31341819 26.46768358 17.69921875 29.45703125 C15.76731446 31.08567983 15.76731446 31.08567983 14 34 C9.38 34 4.76 34 0 34 C0 22.78 0 11.56 0 0 Z " fill="#CACED2" transform="translate(231,353)"/>
<path d="M0 0 C4.5609486 3.8007905 8.79663845 7.75937006 12.95703125 11.9921875 C15.50418447 14.49550825 18.19303464 16.79252862 20.9453125 19.06640625 C23.8652163 21.81422446 26.39063147 24.95573671 29 28 C12.17 28 -4.66 28 -22 28 C-20.05298228 24.10596456 -17.7596211 21.18238553 -14.9375 17.9375 C-13.94974809 16.78712138 -12.96278256 15.63606714 -11.9765625 14.484375 C-11.4805957 13.90623047 -10.98462891 13.32808594 -10.47363281 12.73242188 C-6.91273984 8.54618984 -3.46323104 4.26704269 0 0 Z " fill="#005FAC" transform="translate(280,397)"/>
<path d="M0 0 C3.77318094 -0.47577763 7.24635482 -0.69492449 11 0 C13.59113351 2.26252822 15.05913815 4.6949212 16 8 C15.46039967 12.18794288 13.12763421 15.4310652 11 19 C7.22681906 19.47577763 3.75364518 19.69492449 0 19 C-2.59113351 16.73747178 -4.05913815 14.3050788 -5 11 C-4.46039967 6.81205712 -2.12763421 3.5689348 0 0 Z " fill="#20B7F0" transform="translate(49,23)"/>
<path d="M0 0 C5.28 0 10.56 0 16 0 C16 4.95 16 9.9 16 15 C10.72 15 5.44 15 0 15 C0 10.05 0 5.1 0 0 Z " fill="#0BB0F0" transform="translate(44,385)"/>
<path d="M0 0 C5.28 0 10.56 0 16 0 C16 4.95 16 9.9 16 15 C10.72 15 5.44 15 0 15 C0 10.05 0 5.1 0 0 Z " fill="#363334" transform="translate(44,367)"/>
<path d="M0 0 C5.28 0 10.56 0 16 0 C16 4.95 16 9.9 16 15 C10.72 15 5.44 15 0 15 C0 10.05 0 5.1 0 0 Z " fill="#04AEEF" transform="translate(44,350)"/>
<path d="M0 0 C0.66 0 1.32 0 2 0 C2.66 0.66 3.32 1.32 4 2 C7.08347826 2.16681109 7.08347826 2.16681109 10 2 C10.33 2.99 10.66 3.98 11 5 C10.33333333 6.33333333 9.66666667 7.66666667 9 9 C8.83249586 11.66709069 8.83249586 11.66709069 9 14 C5.66666667 14 2.33333333 14 -1 14 C-0.49396008 11.83125748 -0.00016187 10.00032373 1 8 C0.01 8 -0.98 8 -2 8 C-2 9.98 -2 11.96 -2 14 C-2.99 13.67 -3.98 13.34 -5 13 C-5.33 13.33 -5.66 13.66 -6 14 C-6.598125 13.835 -7.19625 13.67 -7.8125 13.5 C-10.25988354 12.94059805 -11.63996734 13.24141807 -14 14 C-13.67 12.35 -13.34 10.7 -13 9 C-11.68 9 -10.36 9 -9 9 C-9.66 8.01 -10.32 7.02 -11 6 C-11 4.68 -11 3.36 -11 2 C-10.34 2 -9.68 2 -9 2 C-9 3.32 -9 4.64 -9 6 C-8.01 6 -7.02 6 -6 6 C-5.67 4.68 -5.34 3.36 -5 2 C-3.35 2 -1.7 2 0 2 C0 1.34 0 0.68 0 0 Z " fill="#BBBABB" transform="translate(129,26)"/>
<path d="M0 0 C5.75 -0.125 5.75 -0.125 8 1 C10.67578752 1.04247282 13.32680213 1.04764115 16 1 C18.62113708 1 20.50935112 1.31292445 23 2 C23 3.65 23 5.3 23 7 C21.68 6.34 20.36 5.68 19 5 C18.67 5.66 18.34 6.32 18 7 C17.67 6.67 17.34 6.34 17 6 C17 6.33 17 6.66 17 7 C15.33388095 7.042721 13.66617115 7.04063832 12 7 C11.67 6.67 11.34 6.34 11 6 C10.67 6.66 10.34 7.32 10 8 C9.34 8 8.68 8 8 8 C8 8.99 8 9.98 8 11 C9.32 10.67 10.64 10.34 12 10 C12 10.99 12 11.98 12 13 C10.02 13.33 8.04 13.66 6 14 C6 13.34 6 12.68 6 12 C5.34 12 4.68 12 4 12 C3.67 12.66 3.34 13.32 3 14 C-0.13269705 10.86730295 -0.05494397 8.02671577 -0.0625 3.75 C-0.0315625 1.89375 -0.0315625 1.89375 0 0 Z " fill="#DCDCDC" transform="translate(71,26)"/>
<path d="M0 0 C2.17578125 0.0234375 2.17578125 0.0234375 4.125 0.375 C6.1875 2.625 6.1875 2.625 7.125 5.375 C6.85330763 8.36361604 5.53275496 10.74719075 4.125 13.375 C-1.15997409 13.90349741 -1.15997409 13.90349741 -3.875 13.375 C-6.375 10.375 -6.375 10.375 -7.875 7.375 C-4.47802594 0.43335735 -4.47802594 0.43335735 0 0 Z " fill="#EDF9FD" transform="translate(54.875,25.625)"/>
<path d="M0 0 C3.96 0 7.92 0 12 0 C12 1.32 12 2.64 12 4 C10.02 4.99 10.02 4.99 8 6 C9.32 6.33 10.64 6.66 12 7 C12 8.32 12 9.64 12 11 C11.34 10.67 10.68 10.34 10 10 C8.65737935 10.29369827 7.32303717 10.6278958 6 11 C4 11 4 11 1.625 10.4375 C-1.01095061 9.9981749 -2.49887005 10.16629002 -5 11 C-5.1875 8.625 -5.1875 8.625 -5 6 C-4.01 5.34 -3.02 4.68 -2 4 C-1.34 2.68 -0.68 1.36 0 0 Z " fill="#EDEDED" transform="translate(97,352)"/>
<path d="M0 0 C3.87305673 0.43615504 7.71058594 0.36458182 11.6015625 0.29296875 C12.5915625 0.29296875 13.5815625 0.29296875 14.6015625 0.29296875 C14.2890625 2.23046875 14.2890625 2.23046875 13.6015625 4.29296875 C10.09751413 5.46098487 8.19069129 4.89115688 4.6015625 4.29296875 C3.6115625 4.62296875 2.6215625 4.95296875 1.6015625 5.29296875 C-0.51953125 5.2421875 -0.51953125 5.2421875 -2.8359375 4.98046875 C-3.59777344 4.90183594 -4.35960937 4.82320312 -5.14453125 4.7421875 C-7.51164547 4.27040564 -9.29901985 3.46462552 -11.3984375 2.29296875 C-11.3984375 2.95296875 -11.3984375 3.61296875 -11.3984375 4.29296875 C-14.74096474 4.36724713 -17.2020289 4.35843828 -20.3984375 3.29296875 C-20.0684375 2.30296875 -19.7384375 1.31296875 -19.3984375 0.29296875 C-18.5321875 0.49921875 -17.6659375 0.70546875 -16.7734375 0.91796875 C-13.44561151 1.54023919 -13.44561151 1.54023919 -10.6484375 0.29296875 C-6.75395662 -0.90533306 -3.9883214 -0.51209565 0 0 Z " fill="#CACACA" transform="translate(238.3984375,130.70703125)"/>
<path d="M0 0 C0.99 0.495 0.99 0.495 2 1 C2 0.67 2 0.34 2 0 C6.33333333 0 10.66666667 0 15 0 C15 1.32 15 2.64 15 4 C14.28972656 4.06058594 13.57945313 4.12117188 12.84765625 4.18359375 C11.92855469 4.26738281 11.00945312 4.35117187 10.0625 4.4375 C9.14597656 4.51871094 8.22945312 4.59992188 7.28515625 4.68359375 C5.03840268 4.76044976 5.03840268 4.76044976 4 6 C6.39068734 7.10636395 6.39068734 7.10636395 9 8 C9.66 7.67 10.32 7.34 11 7 C11 7.99 11 8.98 11 10 C8.24921116 10.91692961 6.64051087 11.10886083 3.8125 11.0625 C1.9253125 11.0315625 1.9253125 11.0315625 0 11 C0.185625 10.113125 0.37125 9.22625 0.5625 8.3125 C0.98042484 5.14821189 0.80777742 3.05160358 0 0 Z " fill="#D0D0D0" transform="translate(80,352)"/>
<path d="M0 0 C2.625 0.9375 2.625 0.9375 5 2 C5.33 1.67 5.66 1.34 6 1 C7.85287502 0.92773498 9.70833878 0.9161878 11.5625 0.9375 C12.57441406 0.94652344 13.58632812 0.95554688 14.62890625 0.96484375 C15.80259766 0.98224609 15.80259766 0.98224609 17 1 C17.33 1.99 17.66 2.98 18 4 C14.3535194 4.8410478 11.00049093 5.11764968 7.26171875 5.09765625 C6.19501953 5.09443359 5.12832031 5.09121094 4.02929688 5.08789062 C2.37510742 5.07532227 2.37510742 5.07532227 0.6875 5.0625 C-0.43462891 5.05798828 -1.55675781 5.05347656 -2.71289062 5.04882812 C-5.4753151 5.03707313 -8.23762998 5.02064077 -11 5 C-11 3.68 -11 2.36 -11 1 C-10.06027344 1.01740234 -10.06027344 1.01740234 -9.1015625 1.03515625 C-7.87566406 1.04869141 -7.87566406 1.04869141 -6.625 1.0625 C-5.40683594 1.07990234 -5.40683594 1.07990234 -4.1640625 1.09765625 C-1.95062858 1.14466334 -1.95062858 1.14466334 0 0 Z " fill="#C2C2C2" transform="translate(229,181)"/>
<path d="M0 0 C3.63 0.33 7.26 0.66 11 1 C10.67 1.66 10.34 2.32 10 3 C7.35139573 3.59355614 4.70802678 3.74209269 2 4 C8.32405816 6.10801939 14.40595082 6.11728546 21 6 C20.67 6.99 20.34 7.98 20 9 C13.26188501 10.41030314 6.80977041 9.66561666 0 9 C0 6.03 0 3.06 0 0 Z " fill="#B9B9BA" transform="translate(44,314)"/>
<path d="M0 0 C2.31 0 4.62 0 7 0 C7.33 0.99 7.66 1.98 8 3 C7.33333333 4.33333333 6.66666667 5.66666667 6 7 C5.83249586 9.66709069 5.83249586 9.66709069 6 12 C2.66666667 12 -0.66666667 12 -4 12 C-3.67 9.69 -3.34 7.38 -3 5 C-2.01 5 -1.02 5 0 5 C0 3.35 0 1.7 0 0 Z " fill="#E1E1E1" transform="translate(132,28)"/>
<path d="M0 0 C2.33294775 -0.04241723 4.66702567 -0.04092937 7 0 C8 1 8 1 8.1328125 3.03125 C8.13023438 3.8459375 8.12765625 4.660625 8.125 5.5 C8.12757812 6.3146875 8.13015625 7.129375 8.1328125 7.96875 C8 10 8 10 7 11 C4.66702567 11.04092937 2.33294775 11.04241723 0 11 C0 7.37 0 3.74 0 0 Z " fill="#7FD5F5" transform="translate(48,352)"/>
<path d="M0 0 C3.3 0 6.6 0 10 0 C10 1.98 10 3.96 10 6 C9.01 6 8.02 6 7 6 C8.65 6.33 10.3 6.66 12 7 C11.67 8.65 11.34 10.3 11 12 C4.375 12.125 4.375 12.125 1 11 C1.33 10.01 1.66 9.02 2 8 C2.66 8 3.32 8 4 8 C4 5.69 4 3.38 4 1 C3.34 1 2.68 1 2 1 C2 2.32 2 3.64 2 5 C1.34 5 0.68 5 0 5 C0 3.35 0 1.7 0 0 Z " fill="#989697" transform="translate(95,28)"/>
<path d="M0 0 C1.98 0.495 1.98 0.495 4 1 C3.01 1.66 2.02 2.32 1 3 C4.34939881 5.02558881 6.86962551 5.21738987 10.75 5.125 C11.73484375 5.10695313 12.7196875 5.08890625 13.734375 5.0703125 C14.48203125 5.04710937 15.2296875 5.02390625 16 5 C16.33 4.01 16.66 3.02 17 2 C17.99 2 18.98 2 20 2 C19.67 4.31 19.34 6.62 19 9 C13.06 9 7.12 9 1 9 C1.33 8.01 1.66 7.02 2 6 C1.01 5.34 0.02 4.68 -1 4 C-0.67 2.68 -0.34 1.36 0 0 Z " fill="#9E9D9E" transform="translate(73,298)"/>
<path d="M0 0 C3.3 0 6.6 0 10 0 C10 2.64 10 5.28 10 8 C6.7 8 3.4 8 0 8 C0 5.36 0 2.72 0 0 Z " fill="#696767" transform="translate(47,371)"/>
<path d="M0 0 C0.84256348 0.24447876 0.84256348 0.24447876 1.70214844 0.49389648 C4.13553181 1.02985098 6.27622228 1.11361396 8.765625 1.09765625 C9.65507813 1.09443359 10.54453125 1.09121094 11.4609375 1.08789062 C12.38132812 1.07951172 13.30171875 1.07113281 14.25 1.0625 C15.65378906 1.05573242 15.65378906 1.05573242 17.0859375 1.04882812 C19.39069041 1.03706918 21.69531227 1.02063426 24 1 C24 2.32 24 3.64 24 5 C19.73660933 5.07105651 16.12056892 5.10938394 12 4 C11.01 4.495 11.01 4.495 10 5 C8.125 5.1328125 8.125 5.1328125 6 5.125 C4.948125 5.12886719 4.948125 5.12886719 3.875 5.1328125 C2 5 2 5 0 4 C0 2.68 0 1.36 0 0 Z " fill="#AFAFAF" transform="translate(55,171)"/>
<path d="M0 0 C2.625 0.625 2.625 0.625 5 2 C6.0625 3.75 6.0625 3.75 6 6 C4.0625 9.25 4.0625 9.25 2 12 C-1.875 10.25 -1.875 10.25 -3 8 C-3.25 5 -3.25 5 -3 2 C-2.01 1.34 -1.02 0.68 0 0 Z " fill="#5DCAF3" transform="translate(51,386)"/>
<path d="M0 0 C2.26995419 0.06652855 4.54168695 0.08543751 6.8125 0.0625 C8.55466797 0.04896484 8.55466797 0.04896484 10.33203125 0.03515625 C11.21246094 0.02355469 12.09289062 0.01195312 13 0 C13 0.99 13 1.98 13 3 C12.28344238 2.99476318 11.56688477 2.98952637 10.82861328 2.98413086 C7.59408438 2.96339333 4.35956944 2.95035016 1.125 2.9375 C-0.00292969 2.92912109 -1.13085938 2.92074219 -2.29296875 2.91210938 C-3.36933594 2.90888672 -4.44570312 2.90566406 -5.5546875 2.90234375 C-7.04718018 2.89448853 -7.04718018 2.89448853 -8.56982422 2.88647461 C-11.00960773 2.8360585 -11.00960773 2.8360585 -13 4 C-13.66 3.67 -14.32 3.34 -15 3 C-15 2.01 -15 1.02 -15 0 C-13.43867691 -0.1970602 -11.87584736 -0.38220155 -10.3125 -0.5625 C-9.44238281 -0.66691406 -8.57226562 -0.77132813 -7.67578125 -0.87890625 C-4.90123717 -1.00446956 -2.71157617 -0.55538307 0 0 Z " fill="#B6B6B7" transform="translate(240,264)"/>
<path d="M0 0 C0 1.32 0 2.64 0 4 C-1.30195312 3.98839844 -2.60390625 3.97679687 -3.9453125 3.96484375 C-5.67187356 3.95546027 -7.39843618 3.94636066 -9.125 3.9375 C-9.9809375 3.92912109 -10.836875 3.92074219 -11.71875 3.91210938 C-16.26678411 3.89461694 -20.52383164 4.06807642 -25 5 C-25 3.68 -25 2.36 -25 1 C-16.65667456 -0.19190363 -8.40676978 -0.09283549 0 0 Z " fill="#BBBBBB" transform="translate(102,141)"/>
<path d="M0 0 C0.33 1.32 0.66 2.64 1 4 C-0.9375 4.5625 -0.9375 4.5625 -3 5 C-3.33 4.67 -3.66 4.34 -4 4 C-5.52009417 3.95258966 -7.04212021 3.96286095 -8.5625 4 C-13.15000669 4.05280583 -17.46533425 3.67180233 -22 3 C-22 2.01 -22 1.02 -22 0 C-19.33333333 0 -16.66666667 0 -14 0 C-13.319375 -0.185625 -12.63875 -0.37125 -11.9375 -0.5625 C-7.8557672 -1.17041765 -4.0640278 -0.57551592 0 0 Z " fill="#BEBEBE" transform="translate(100,233)"/>
<path d="M0 0 C1.87945312 0.10828125 1.87945312 0.10828125 3.796875 0.21875 C5.44791332 0.312559 7.09895517 0.40630574 8.75 0.5 C9.9875 0.57154297 9.9875 0.57154297 11.25 0.64453125 C12.04921875 0.68964844 12.8484375 0.73476562 13.671875 0.78125 C14.4050293 0.82314453 15.13818359 0.86503906 15.89355469 0.90820312 C17.92733614 0.99683338 19.96428825 1 22 1 C21.67 1.99 21.34 2.98 21 4 C18.5431099 4.38855926 16.08558167 4.76130088 13.625 5.125 C12.57699219 5.29322266 12.57699219 5.29322266 11.5078125 5.46484375 C9.68212086 5.72816466 7.8401238 5.8718116 6 6 C5.34 5.34 4.68 4.68 4 4 C1.93125966 3.3574765 1.93125966 3.3574765 0 3 C0 2.01 0 1.02 0 0 Z " fill="#C3C3C3" transform="translate(95,89)"/>
<path d="M0 0 C11.375 0 11.375 0 15 1 C15 2.65 15 4.3 15 6 C13.68 5.34 12.36 4.68 11 4 C10.67 4.66 10.34 5.32 10 6 C9.67 5.67 9.34 5.34 9 5 C9 5.33 9 5.66 9 6 C7.33388095 6.042721 5.66617115 6.04063832 4 6 C3.67 5.67 3.34 5.34 3 5 C2.67 5.66 2.34 6.32 2 7 C1.34 7 0.68 7 0 7 C0 4.69 0 2.38 0 0 Z " fill="#535050" transform="translate(79,27)"/>
<path d="M0 0 C0.62567871 0.03552979 1.25135742 0.07105957 1.89599609 0.10766602 C4.72204795 0.26496067 7.54848174 0.41383248 10.375 0.5625 C11.35984375 0.61857422 12.3446875 0.67464844 13.359375 0.73242188 C14.77089844 0.80493164 14.77089844 0.80493164 16.2109375 0.87890625 C17.08024902 0.9260376 17.94956055 0.97316895 18.84521484 1.02172852 C21.05142631 1.15685853 21.05142631 1.15685853 23 0 C23 1.65 23 3.3 23 5 C22.154375 4.814375 21.30875 4.62875 20.4375 4.4375 C16.9642035 3.83425034 16.9642035 3.83425034 13.375 4.5625 C9.77278944 5.02945322 9.01911816 4.66572036 6 3 C3.94603274 3.40929986 3.94603274 3.40929986 2 4 C1.01 3.67 0.02 3.34 -1 3 C-0.67 2.01 -0.34 1.02 0 0 Z " fill="#BDBDBD" transform="translate(208,253)"/>
<path d="M0 0 C-0.33 0.99 -0.66 1.98 -1 3 C-1.99 3.33 -2.98 3.66 -4 4 C-4.66 3.67 -5.32 3.34 -6 3 C-6.639375 3.165 -7.27875 3.33 -7.9375 3.5 C-10 4 -10 4 -13 3 C-13.99 3.33 -14.98 3.66 -16 4 C-18 3.66666667 -20 3.33333333 -22 3 C-22.99 3.33 -23.98 3.66 -25 4 C-25 1 -25 1 -24 0 C-20.40418863 -0.07273449 -16.81856215 0.0039705 -13.22265625 0.0625 C-1.17856719 -0.17108233 -1.17856719 -0.17108233 0 0 Z " fill="#CCCCCC" transform="translate(92,370)"/>
<path d="M0 0 C2.04159095 -0.0272616 4.08328963 -0.04651345 6.125 -0.0625 C7.26195312 -0.07410156 8.39890625 -0.08570313 9.5703125 -0.09765625 C12.81415578 -0.00529169 15.80820012 0.4559432 19 1 C21.76864953 0.63141012 21.76864953 0.63141012 24 0 C24.33 1.32 24.66 2.64 25 4 C23.22925083 4.02705729 21.45838289 4.04642195 19.6875 4.0625 C18.70136719 4.07410156 17.71523438 4.08570313 16.69921875 4.09765625 C14 4 14 4 11 3 C10.67 3.33 10.34 3.66 10 4 C8.31391034 4.07205511 6.62499341 4.08386068 4.9375 4.0625 C4.01839844 4.05347656 3.09929687 4.04445312 2.15234375 4.03515625 C1.44207031 4.02355469 0.73179687 4.01195312 0 4 C0 2.68 0 1.36 0 0 Z " fill="#B6B6B6" transform="translate(256,141)"/>
<path d="M0 0 C-0.33 1.32 -0.66 2.64 -1 4 C-7.33333333 4 -13.66666667 4 -20 4 C-18.02953947 1.33408282 -16.96905665 0.99426975 -13.625 0.375 C-12.42875 0.25125 -11.2325 0.1275 -10 0 C-9.13375 -0.20625 -8.2675 -0.4125 -7.375 -0.625 C-4.66049955 -1.05360533 -2.64461921 -0.68004494 0 0 Z " fill="#C9C9CA" transform="translate(115,182)"/>
<path d="M0 0 C0.99 0.33 1.98 0.66 3 1 C3 1.66 3 2.32 3 3 C3.66 3.33 4.32 3.66 5 4 C3.02 4.99 3.02 4.99 1 6 C0.34 5.34 -0.32 4.68 -1 4 C-3.33944736 4.28730055 -5.6739143 4.61936779 -8 5 C-8.33 4.67 -8.66 4.34 -9 4 C-11.69082872 4.17635452 -14.32851446 4.61835921 -17 5 C-17 3.68 -17 2.36 -17 1 C-15.41058594 1.01740234 -15.41058594 1.01740234 -13.7890625 1.03515625 C-12.40104342 1.04453476 -11.01302245 1.05363489 -9.625 1.0625 C-8.57699219 1.07506836 -8.57699219 1.07506836 -7.5078125 1.08789062 C-3.62704624 1.1835442 -3.62704624 1.1835442 0 0 Z " fill="#BABABA" transform="translate(120,222)"/>
<path d="M0 0 C6.93 0.33 13.86 0.66 21 1 C19 4 19 4 16 4.75 C13 5 13 5 11 4 C10.67 4.66 10.34 5.32 10 6 C8.88625 5.5359375 8.88625 5.5359375 7.75 5.0625 C5.12596918 3.95610347 5.12596918 3.95610347 2.75 3.5625 C2.1725 3.376875 1.595 3.19125 1 3 C0.67 2.01 0.34 1.02 0 0 Z " fill="#C5C5C5" transform="translate(66,393)"/>
<path d="M0 0 C5.66666667 0 11.33333333 0 17 0 C17 0.99 17 1.98 17 3 C11.02197063 5.20927172 6.26039609 4.93213141 0 4 C0 2.68 0 1.36 0 0 Z " fill="#C1C1C2" transform="translate(173,182)"/>
<path d="M0 0 C0.91007813 0.00902344 1.82015625 0.01804688 2.7578125 0.02734375 C3.80582031 0.04474609 3.80582031 0.04474609 4.875 0.0625 C4.875 1.3825 4.875 2.7025 4.875 4.0625 C-1.065 4.3925 -7.005 4.7225 -13.125 5.0625 C-13.455 3.7425 -13.785 2.4225 -14.125 1.0625 C-13.01125 1.083125 -11.8975 1.10375 -10.75 1.125 C-6.89456014 1.0585269 -3.93199862 -0.05041024 0 0 Z " fill="#C5C5C5" transform="translate(138.125,191.9375)"/>
<path d="M0 0 C0.80824219 0.10183594 1.61648437 0.20367187 2.44921875 0.30859375 C3.06410156 0.39238281 3.67898437 0.47617188 4.3125 0.5625 C3.6525 1.8825 2.9925 3.2025 2.3125 4.5625 C1.40886719 4.4903125 0.50523437 4.418125 -0.42578125 4.34375 C-1.60527344 4.2509375 -2.78476563 4.158125 -4 4.0625 C-5.17175781 3.9696875 -6.34351562 3.876875 -7.55078125 3.78125 C-9.592694 3.63885011 -11.6406279 3.5625 -13.6875 3.5625 C-15.0075 3.5625 -16.3275 3.5625 -17.6875 3.5625 C-17.6875 2.5725 -17.6875 1.5825 -17.6875 0.5625 C-17.00042969 0.57410156 -16.31335938 0.58570312 -15.60546875 0.59765625 C-14.25388672 0.61119141 -14.25388672 0.61119141 -12.875 0.625 C-11.53501953 0.64240234 -11.53501953 0.64240234 -10.16796875 0.66015625 C-6.46217441 0.51425884 -3.7854783 -0.49375804 0 0 Z " fill="#B2B2B3" transform="translate(129.6875,97.4375)"/>
<path d="M0 0 C2.79173055 -0.02690104 5.58320348 -0.04679053 8.375 -0.0625 C9.56609375 -0.07506836 9.56609375 -0.07506836 10.78125 -0.08789062 C16.7734375 -0.11328125 16.7734375 -0.11328125 19 1 C18.67 1.99 18.34 2.98 18 4 C12.06 4 6.12 4 0 4 C0 2.68 0 1.36 0 0 Z " fill="#97DCF7" transform="translate(57,75)"/>
<path d="M0 0 C0.825 0.185625 1.65 0.37125 2.5 0.5625 C5.41095256 0.92636907 7.24491612 0.92237026 10.0625 0.5 C14.72164685 -0.09163769 17.62273915 0.54091305 22 2 C21.67 2.66 21.34 3.32 21 4 C19.700625 3.814375 18.40125 3.62875 17.0625 3.4375 C14.91424457 3.1018371 14.91424457 3.1018371 13 3 C12.67 3.33 12.34 3.66 12 4 C9.98035801 4.07244053 7.95832876 4.08377188 5.9375 4.0625 C4.83277344 4.05347656 3.72804687 4.04445313 2.58984375 4.03515625 C1.30787109 4.01775391 1.30787109 4.01775391 0 4 C0 2.68 0 1.36 0 0 Z " fill="#B7B7B8" transform="translate(55,253)"/>
<path d="M0 0 C2.19176969 0.30240697 2.19176969 0.30240697 4.98046875 -0.84375 C5.31046875 0.47625 5.64046875 1.79625 5.98046875 3.15625 C4.30017578 3.13884766 4.30017578 3.13884766 2.5859375 3.12109375 C1.11328292 3.11171378 -0.35937347 3.1026138 -1.83203125 3.09375 C-2.57001953 3.08537109 -3.30800781 3.07699219 -4.06835938 3.06835938 C-7.31875193 3.05365172 -9.9135802 3.12093298 -13.01953125 4.15625 C-13.67953125 3.82625 -14.33953125 3.49625 -15.01953125 3.15625 C-15.01953125 2.16625 -15.01953125 1.17625 -15.01953125 0.15625 C-9.73632918 -0.70827397 -5.29232439 -0.82429123 0 0 Z " fill="#B7B7B7" transform="translate(273.01953125,222.84375)"/>
<path d="M0 0 C0.99 0.33 1.98 0.66 3 1 C3.845625 0.835 4.69125 0.67 5.5625 0.5 C10.15856152 -0.16851804 14.41641175 0.41119914 19 1 C19 1.99 19 2.98 19 4 C12.4 4 5.8 4 -1 4 C-0.67 2.68 -0.34 1.36 0 0 Z " fill="#C6C6C6" transform="translate(84,386)"/>
<path d="M0 0 C1.051875 0.185625 2.10375 0.37125 3.1875 0.5625 C6.62363423 0.95681049 8.70437302 0.73236155 12 0 C12.99 0.33 13.98 0.66 15 1 C15.66 0.67 16.32 0.34 17 0 C17 1.65 17 3.3 17 5 C16.154375 4.814375 15.30875 4.62875 14.4375 4.4375 C10.71680679 3.96395723 7.692658 4.45293956 4 5 C1.5625 4.5625 1.5625 4.5625 0 4 C0 2.68 0 1.36 0 0 Z " fill="#BEBEBF" transform="translate(200,192)"/>
<path d="M0 0 C0.99 0.66 1.98 1.32 3 2 C3.1875 5.125 3.1875 5.125 3 8 C2.01 7.67 1.02 7.34 0 7 C-0.33 7.33 -0.66 7.66 -1 8 C-1.598125 7.835 -2.19625 7.67 -2.8125 7.5 C-5.25988354 6.94059805 -6.63996734 7.24141807 -9 8 C-8.67 6.35 -8.34 4.7 -8 3 C-6 3 -4 3 -2 3 C-2 2.34 -2 1.68 -2 1 C-1.34 0.67 -0.68 0.34 0 0 Z " fill="#E3E3E3" transform="translate(124,32)"/>
<path d="M0 0 C1.17949219 0.01804688 2.35898438 0.03609375 3.57421875 0.0546875 C4.92966797 0.08949219 4.92966797 0.08949219 6.3125 0.125 C5.9825 1.445 5.6525 2.765 5.3125 4.125 C4.219375 4.104375 3.12625 4.08375 2 4.0625 C-1.63134191 3.93955548 -1.63134191 3.93955548 -4.6875 5.125 C-5.6775 4.795 -6.6675 4.465 -7.6875 4.125 C-9.68711564 4.08579185 -11.68799364 4.08056653 -13.6875 4.125 C-14.0175 3.135 -14.3475 2.145 -14.6875 1.125 C-13.5428125 1.434375 -13.5428125 1.434375 -12.375 1.75 C-8.3061419 2.31774764 -4.66086192 -0.0922943 0 0 Z " fill="#B9B9B9" transform="translate(95.6875,221.875)"/>
<path d="M0 0 C2.625 0.9375 2.625 0.9375 5 2 C4.67 3.32 4.34 4.64 4 6 C3.30132812 5.91621094 2.60265625 5.83242187 1.8828125 5.74609375 C0.97273437 5.64425781 0.06265625 5.54242188 -0.875 5.4375 C-1.77992188 5.33308594 -2.68484375 5.22867188 -3.6171875 5.12109375 C-6.01653057 4.80325148 -6.01653057 4.80325148 -8 6 C-10 4 -10 4 -12 1 C-10.95199219 1.01740234 -10.95199219 1.01740234 -9.8828125 1.03515625 C-8.97273437 1.04417969 -8.06265625 1.05320313 -7.125 1.0625 C-5.76761719 1.07990234 -5.76761719 1.07990234 -4.3828125 1.09765625 C-1.9831415 1.16249257 -1.9831415 1.16249257 0 0 Z " fill="#C7C7C7" transform="translate(166,181)"/>
<path d="M0 0 C4.62 0 9.24 0 14 0 C14 1.32 14 2.64 14 4 C9.38 4 4.76 4 0 4 C0 2.68 0 1.36 0 0 Z " fill="#D0D0D0" transform="translate(93,393)"/>
<path d="M0 0 C2.23915424 0.73602403 2.23915424 0.73602403 5.0625 -0.5 C7.39549825 -0.53954234 9.72958189 -0.54401732 12.0625 -0.5 C12.0625 0.82 12.0625 2.14 12.0625 3.5 C6.39583333 3.5 0.72916667 3.5 -4.9375 3.5 C-4.6075 2.51 -4.2775 1.52 -3.9375 0.5 C-1.9375 -0.5 -1.9375 -0.5 0 0 Z " fill="#BDBCBD" transform="translate(69.9375,182.5)"/>
<path d="M0 0 C0.66 0.33 1.32 0.66 2 1 C3.3921875 0.7525 3.3921875 0.7525 4.8125 0.5 C7.94650486 0.00839139 9.96719072 0.19719754 13 1 C13 1.99 13 2.98 13 4 C10.8125 5.125 10.8125 5.125 8 6 C6.31422289 5.38325228 4.64551962 4.71727778 3 4 C0.75759218 4.28739925 0.75759218 4.28739925 -1 5 C-1.33 3.68 -1.66 2.36 -2 1 C-1.34 0.67 -0.68 0.34 0 0 Z " fill="#C2C2C2" transform="translate(46,222)"/>
<path d="M0 0 C0.33 0.66 0.66 1.32 1 2 C1.99 1.34 2.98 0.68 4 0 C5.90112305 -0.22705078 5.90112305 -0.22705078 8.01171875 -0.1953125 C8.76904297 -0.18886719 9.52636719 -0.18242187 10.30664062 -0.17578125 C11.09232422 -0.15902344 11.87800781 -0.14226562 12.6875 -0.125 C13.48478516 -0.11597656 14.28207031 -0.10695312 15.10351562 -0.09765625 C17.069139 -0.07411585 19.03460775 -0.03824547 21 0 C21.33 1.32 21.66 2.64 22 4 C21.443125 3.835 20.88625 3.67 20.3125 3.5 C17.80008123 2.95677432 15.56453629 2.93424266 13 3 C8.66666667 3 4.33333333 3 0 3 C0 2.01 0 1.02 0 0 Z " fill="#ACACAD" transform="translate(125,213)"/>
<path d="M0 0 C2.62506802 -0.02690844 5.24986173 -0.04679404 7.875 -0.0625 C8.62136719 -0.07087891 9.36773437 -0.07925781 10.13671875 -0.08789062 C15.7734375 -0.11328125 15.7734375 -0.11328125 18 1 C18 1.99 18 2.98 18 4 C16.7315625 3.7525 16.7315625 3.7525 15.4375 3.5 C10.12117617 2.72671653 5.23043058 2.73201683 0 4 C0 2.68 0 1.36 0 0 Z " fill="#969596" transform="translate(57,314)"/>
<path d="M0 0 C0.91007812 0.10183594 1.82015625 0.20367187 2.7578125 0.30859375 C3.45648438 0.39238281 4.15515625 0.47617187 4.875 0.5625 C4.875 1.5525 4.875 2.5425 4.875 3.5625 C3.99457031 3.55089844 3.11414063 3.53929687 2.20703125 3.52734375 C1.04558594 3.51832031 -0.11585937 3.50929688 -1.3125 3.5 C-2.46105469 3.48839844 -3.60960938 3.47679687 -4.79296875 3.46484375 C-7.71800586 3.55057168 -10.28816291 3.88400977 -13.125 4.5625 C-13.125 3.2425 -13.125 1.9225 -13.125 0.5625 C-12.17625 0.583125 -11.2275 0.60375 -10.25 0.625 C-6.41965006 0.548393 -3.95608347 -0.45647117 0 0 Z " fill="#BABABA" transform="translate(115.125,263.4375)"/>
<path d="M0 0 C2.33299825 0.03954234 4.66708189 0.04401732 7 0 C6.67 0.99 6.34 1.98 6 3 C0.06 3 -5.88 3 -12 3 C-12 2.01 -12 1.02 -12 0 C-7.73004995 -1.42331668 -4.26995005 -1.42331668 0 0 Z " fill="#B9B9B9" transform="translate(94,213)"/>
<path d="M0 0 C2.5 -0.3125 2.5 -0.3125 5 0 C5.66 0.66 6.32 1.32 7 2 C6.625 4.625 6.625 4.625 6 7 C4.02 7 2.04 7 0 7 C-0.66 5.68 -1.32 4.36 -2 3 C-1.34 2.01 -0.68 1.02 0 0 Z " fill="#43C2F2" transform="translate(52,29)"/>
<path d="M0 0 C-0.33 0.99 -0.66 1.98 -1 3 C-6.28 3 -11.56 3 -17 3 C-17 2.01 -17 1.02 -17 0 C-15.10507254 -0.19644384 -13.20899097 -0.38177288 -11.3125 -0.5625 C-9.72888672 -0.71912109 -9.72888672 -0.71912109 -8.11328125 -0.87890625 C-5.18573914 -0.99277552 -2.82868856 -0.70848415 0 0 Z " fill="#B9B9B9" transform="translate(272,264)"/>
<path d="M0 0 C0 1.65 0 3.3 0 5 C-0.556875 4.649375 -1.11375 4.29875 -1.6875 3.9375 C-4.57301249 2.76769764 -6.01159182 3.32760816 -9 4 C-11.3125 3.5625 -11.3125 3.5625 -13 3 C-13 2.01 -13 1.02 -13 0 C-8.37078475 -1.0161692 -4.65537393 -0.83796731 0 0 Z " fill="#B7B7B7" transform="translate(248,172)"/>
<path d="M0 0 C2.0625 0.4375 2.0625 0.4375 4 1 C4.66 0.67 5.32 0.34 6 0 C6.33 0.66 6.66 1.32 7 2 C8.65 1.67 10.3 1.34 12 1 C11.34 2.32 10.68 3.64 10 5 C3.07 4.505 3.07 4.505 -4 4 C-3 2 -3 2 0 0 Z " fill="#B6B6B7" transform="translate(79,97)"/>
<path d="M0 0 C0.33 0 0.66 0 1 0 C1 1.65 1 3.3 1 5 C-3.62 5 -8.24 5 -13 5 C-13 3.68 -13 2.36 -13 1 C-11.71802734 1.01740234 -11.71802734 1.01740234 -10.41015625 1.03515625 C-8.75306641 1.04869141 -8.75306641 1.04869141 -7.0625 1.0625 C-5.40927734 1.07990234 -5.40927734 1.07990234 -3.72265625 1.09765625 C-1.08552366 1.31262571 -1.08552366 1.31262571 0 0 Z " fill="#231F20" transform="translate(58,377)"/>
<path d="M0 0 C1.72795352 0.06802967 3.45835365 0.08495645 5.1875 0.0625 C6.08855469 0.05347656 6.98960938 0.04445313 7.91796875 0.03515625 C8.94857422 0.01775391 8.94857422 0.01775391 10 0 C9.67 0.99 9.34 1.98 9 3 C3.72 3 -1.56 3 -7 3 C-6.67 2.01 -6.34 1.02 -6 0 C-3 -1 -3 -1 0 0 Z " fill="#CDCDCD" transform="translate(104,377)"/>
<path d="M0 0 C0 0.99 0 1.98 0 3 C-1.28745036 3.38922918 -2.58019597 3.76098036 -3.875 4.125 C-4.59429687 4.33382812 -5.31359375 4.54265625 -6.0546875 4.7578125 C-6.69664062 4.83773437 -7.33859375 4.91765625 -8 5 C-8.66 4.34 -9.32 3.68 -10 3 C-13.09926819 3.32198966 -13.09926819 3.32198966 -16 4 C-16 2.68 -16 1.36 -16 0 C-10.31302429 -0.91397824 -5.68697571 -0.91397824 0 0 Z " fill="#B9B9B9" transform="translate(253,213)"/>
<path d="M0 0 C4.62 0 9.24 0 14 0 C14 0.99 14 1.98 14 3 C14.66 3.33 15.32 3.66 16 4 C15.30132812 3.98839844 14.60265625 3.97679687 13.8828125 3.96484375 C12.97273438 3.95582031 12.06265625 3.94679687 11.125 3.9375 C10.22007813 3.92589844 9.31515625 3.91429687 8.3828125 3.90234375 C5.9831415 3.83750743 5.9831415 3.83750743 4 5 C1.875 4.5625 1.875 4.5625 0 4 C0 2.68 0 1.36 0 0 Z " fill="#C2C2C2" transform="translate(78,192)"/>
<path d="M0 0 C4.62 0 9.24 0 14 0 C13.67 1.32 13.34 2.64 13 4 C8.05632546 5.20577428 4.79137588 4.6290678 0 3 C0 2.01 0 1.02 0 0 Z " fill="#BDBDBE" transform="translate(194,182)"/>
<path d="M0 0 C0 0.99 0 1.98 0 3 C-5.15062288 4.13062453 -10.16365212 4.41817394 -15 2 C-15 1.34 -15 0.68 -15 0 C-10.61563621 -2.19218189 -4.63098598 -1.15774649 0 0 Z " fill="#B7B7B7" transform="translate(59,142)"/>
<path d="M0 0 C0.0825 0.515625 0.165 1.03125 0.25 1.5625 C1.33123236 5.07650515 2.45643132 8.27730676 5 11 C7.80244338 11.92164486 10.00211379 11.95003523 13 12 C13 12.33 13 12.66 13 13 C9.22681906 13.47577763 5.75364518 13.69492449 2 13 C-0.59113351 10.73747178 -2.05913815 8.3050788 -3 5 C-2.734375 2.796875 -2.734375 2.796875 -2 1 C-1.34 0.67 -0.68 0.34 0 0 Z " fill="#2DBBF1" transform="translate(47,29)"/>
<path d="M0 0 C1.99954746 -0.04254356 4.00041636 -0.04080783 6 0 C7 1 7 1 7.125 3.5 C7 6 7 6 6 7 C4.00041636 7.04080783 1.99954746 7.04254356 0 7 C0 4.69 0 2.38 0 0 Z " fill="#797777" transform="translate(71,26)"/>
<path d="M0 0 C0.33 1.32 0.66 2.64 1 4 C-4.61 4 -10.22 4 -16 4 C-16 3.01 -16 2.02 -16 1 C-14.92878906 1.01160156 -13.85757813 1.02320313 -12.75390625 1.03515625 C-11.35677257 1.04453299 -9.95963701 1.05363331 -8.5625 1.0625 C-7.85544922 1.07087891 -7.14839844 1.07925781 -6.41992188 1.08789062 C-4.61306441 1.09653588 -2.80612397 1.05220011 -1 1 C-0.67 0.67 -0.34 0.34 0 0 Z " fill="#B0B0B0" transform="translate(81,263)"/>
<path d="M0 0 C0.33 0.99 0.66 1.98 1 3 C0.01 3.33 -0.98 3.66 -2 4 C-2.66 3.67 -3.32 3.34 -4 3 C-5.66611905 2.957279 -7.33382885 2.95936168 -9 3 C-11.62113708 3 -13.50935112 2.68707555 -16 2 C-16 1.34 -16 0.68 -16 0 C-14.1746875 0.0309375 -14.1746875 0.0309375 -12.3125 0.0625 C-7.95831899 0.0778858 -4.14127276 -1.38042425 0 0 Z " fill="#B1B1B2" transform="translate(123,142)"/>
<path d="M0 0 C0.98484375 0.10183594 1.9696875 0.20367187 2.984375 0.30859375 C4.10585937 0.43427734 4.10585937 0.43427734 5.25 0.5625 C4.26 2.0475 4.26 2.0475 3.25 3.5625 C0.3125 3.6875 0.3125 3.6875 -2.75 3.5625 C-3.74 3.8925 -4.73 4.2225 -5.75 4.5625 C-8.4375 4.125 -8.4375 4.125 -10.75 3.5625 C-10.42 2.5725 -10.09 1.5825 -9.75 0.5625 C-6.49454896 -0.80389344 -3.44767963 -0.36939425 0 0 Z " fill="#BFBFBF" transform="translate(91.75,376.4375)"/>
<path d="M0 0 C0.9590625 0.2784375 0.9590625 0.2784375 1.9375 0.5625 C2.9584375 0.7790625 2.9584375 0.7790625 4 1 C4.33 0.67 4.66 0.34 5 0 C7.18639453 -0.07258946 9.37500389 -0.08373783 11.5625 -0.0625 C13.35880859 -0.04896484 13.35880859 -0.04896484 15.19140625 -0.03515625 C16.11824219 -0.02355469 17.04507812 -0.01195312 18 0 C18 0.99 18 1.98 18 3 C12 3 6 3 0 3 C0 2.01 0 1.02 0 0 Z " fill="#B5B5B5" transform="translate(258,254)"/>
<path d="M0 0 C1.13888672 0.10828125 1.13888672 0.10828125 2.30078125 0.21875 C3.29464844 0.3115625 4.28851563 0.404375 5.3125 0.5 C6.79169922 0.63921875 6.79169922 0.63921875 8.30078125 0.78125 C11.04702139 1.04038857 11.04702139 1.04038857 14 1 C14 1.66 14 2.32 14 3 C13.01 3 12.02 3 11 3 C11 3.99 11 4.98 11 6 C3.375 5.125 3.375 5.125 0 4 C0 2.68 0 1.36 0 0 Z " fill="#B8B8B8" transform="translate(144,171)"/>
<path d="M0 0 C2.76864953 -0.36858988 2.76864953 -0.36858988 5 -1 C5 0.32 5 1.64 5 3 C-0.28 3 -5.56 3 -11 3 C-11 2.01 -11 1.02 -11 0 C-6.96924328 -1.06696501 -4.07138656 -0.67856443 0 0 Z " fill="#ADADAD" transform="translate(74,152)"/>
<path d="M0 0 C4.29 0 8.58 0 13 0 C13 1.32 13 2.64 13 4 C8.71 4 4.42 4 0 4 C0 2.68 0 1.36 0 0 Z " fill="#D2D2D3" transform="translate(70,105)"/>
<path d="M0 0 C2.3431213 0.25561323 4.67843403 0.59270772 7 1 C8 3 8 3 7.375 5.0625 C6 7 6 7 3.5 7.875 C2.2625 7.936875 2.2625 7.936875 1 8 C0.34 7.34 -0.32 6.68 -1 6 C0.32 5.67 1.64 5.34 3 5 C1.68 4.34 0.36 3.68 -1 3 C-0.67 2.01 -0.34 1.02 0 0 Z " fill="#BCBBBC" transform="translate(109,26)"/>
<path d="M0 0 C3.96 0 7.92 0 12 0 C12 1.32 12 2.64 12 4 C7.46527914 4 3.43908976 3.93454521 -1 3 C-0.67 2.01 -0.34 1.02 0 0 Z " fill="#C6C6C6" transform="translate(97,352)"/>
<path d="M0 0 C4.29 0 8.58 0 13 0 C13 0.99 13 1.98 13 3 C10.27157939 4.36421031 8.39046682 3.87807211 5.375 3.5625 C4.37210938 3.46066406 3.36921875 3.35882813 2.3359375 3.25390625 C1.56507813 3.17011719 0.79421875 3.08632813 0 3 C0 2.01 0 1.02 0 0 Z " fill="#B6B6B6" transform="translate(173,264)"/>
<path d="M0 0 C0.66 -0.33 1.32 -0.66 2 -1 C4.00800456 -0.71887936 6.01014051 -0.38932033 8 0 C7.67 0.99 7.34 1.98 7 3 C2.20699867 4.39151652 -2.15135782 3.68662689 -7 3 C-7 2.01 -7 1.02 -7 0 C-4.33059475 -1.33470263 -2.86667247 -0.57333449 0 0 Z " fill="#B4B4B4" transform="translate(88,254)"/>
<path d="M0 0 C6.93 0.495 6.93 0.495 14 1 C14 1.99 14 2.98 14 4 C12.35 4.66 10.7 5.32 9 6 C9 5.34 9 4.68 9 4 C6.03 4 3.06 4 0 4 C0 2.68 0 1.36 0 0 Z " fill="#B4B4B5" transform="translate(262,212)"/>
<path d="M0 0 C0.556875 0.185625 1.11375 0.37125 1.6875 0.5625 C4.05608681 1.16536239 4.05608681 1.16536239 6.625 0.4375 C7.40875 0.293125 8.1925 0.14875 9 0 C9.66 0.66 10.32 1.32 11 2 C10.67 2.99 10.34 3.98 10 5 C8.54176788 5.0270043 7.08339325 5.04639787 5.625 5.0625 C4.81289062 5.07410156 4.00078125 5.08570313 3.1640625 5.09765625 C1 5 1 5 -1 4 C-0.67 2.68 -0.34 1.36 0 0 Z " fill="#B8B8B9" transform="translate(122,181)"/>
<path d="M0 0 C1.9490625 0.2475 1.9490625 0.2475 3.9375 0.5 C8.65419287 1.0315638 13.25638935 1.07529541 18 1 C18 1.99 18 2.98 18 4 C16.58344207 4.0272415 15.16672955 4.04650467 13.75 4.0625 C12.56664062 4.07990234 12.56664062 4.07990234 11.359375 4.09765625 C9.08786424 4.00363676 7.19405195 3.54851299 5 3 C2.31850007 3.38567131 2.31850007 3.38567131 0 4 C0 2.68 0 1.36 0 0 Z " fill="#AEAEAE" transform="translate(236,141)"/>
<path d="M0 0 C3.96 0 7.92 0 12 0 C12 1.32 12 2.64 12 4 C11.34 3.67 10.68 3.34 10 3 C8.65737935 3.29369827 7.32303717 3.6278958 6 4 C3.57202689 4 1.37092995 3.49914315 -1 3 C-0.67 2.01 -0.34 1.02 0 0 Z " fill="#BFBFBF" transform="translate(97,359)"/>
<path d="M0 0 C1.98 0 3.96 0 6 0 C6 2.31 6 4.62 6 7 C4.02 7 2.04 7 0 7 C0 4.69 0 2.38 0 0 Z " fill="#13B3F0" transform="translate(49,355)"/>
<path d="M0 0 C0.66 -0.165 1.32 -0.33 2 -0.5 C4 -1 4 -1 7 0 C6.67 1.32 6.34 2.64 6 4 C4.948125 3.814375 3.89625 3.62875 2.8125 3.4375 C-0.57119882 3.04920669 -2.76425888 3.11752515 -6 4 C-6 2.68 -6 1.36 -6 0 C-3 -1 -3 -1 0 0 Z " fill="#B8B8B9" transform="translate(164,264)"/>
<path d="M0 0 C2.02408755 0.09002398 4.04544287 0.24641038 6.0625 0.4375 C7.71958984 0.59025391 7.71958984 0.59025391 9.41015625 0.74609375 C10.26480469 0.82988281 11.11945313 0.91367188 12 1 C12 1.99 12 2.98 12 4 C7.33333333 4 2.66666667 4 -2 4 C-1 1 -1 1 0 0 Z " fill="#BABABA" transform="translate(136,253)"/>
<path d="M0 0 C2.31 0.33 4.62 0.66 7 1 C7 1.33 7 1.66 7 2 C5.35 2.33 3.7 2.66 2 3 C1.67 3.99 1.34 4.98 1 6 C1.33 6.66 1.66 7.32 2 8 C4.52733235 8.65555119 4.52733235 8.65555119 7 9 C4.82311446 10.32168051 3.44782067 11.0131712 0.875 10.9375 C-1 10 -1 10 -2.4375 7.75 C-3 5 -3 5 -1.625 2.1875 C-1.08875 1.465625 -0.5525 0.74375 0 0 Z " fill="#D5F1FB" transform="translate(50,27)"/>
<path d="M0 0 C1.21236328 0.02707031 1.21236328 0.02707031 2.44921875 0.0546875 C3.37154297 0.08949219 3.37154297 0.08949219 4.3125 0.125 C4.3125 1.445 4.3125 2.765 4.3125 4.125 C2.8754191 4.17922947 1.43774538 4.21789723 0 4.25 C-0.80050781 4.27320313 -1.60101563 4.29640625 -2.42578125 4.3203125 C-4.6875 4.125 -4.6875 4.125 -7.6875 2.125 C-4.48369983 -0.01086678 -3.66810033 -0.10632175 0 0 Z " fill="#CDCDCD" transform="translate(73.6875,351.875)"/>
<path d="M0 0 C0.639375 0.165 1.27875 0.33 1.9375 0.5 C5.97586652 1.15932515 9.91807258 1.08003779 14 1 C13.67 1.99 13.34 2.98 13 4 C12.31292969 3.98839844 11.62585938 3.97679687 10.91796875 3.96484375 C10.01691406 3.95582031 9.11585937 3.94679688 8.1875 3.9375 C7.29417969 3.92589844 6.40085937 3.91429687 5.48046875 3.90234375 C2.86586209 3.88990033 2.86586209 3.88990033 0 5 C0 3.35 0 1.7 0 0 Z " fill="#BFBFBF" transform="translate(70,273)"/>
<path d="M0 0 C3.63 0 7.26 0 11 0 C11 1.65 11 3.3 11 5 C3.57142857 5.14285714 3.57142857 5.14285714 0 4 C0 2.68 0 1.36 0 0 Z " fill="#BEBEBE" transform="translate(168,253)"/>
<path d="M0 0 C-0.33 0.99 -0.66 1.98 -1 3 C-5.62 3 -10.24 3 -15 3 C-15 2.01 -15 1.02 -15 0 C-9.65370398 -1.0024305 -5.37625234 -0.84888195 0 0 Z " fill="#B2B2B2" transform="translate(267,105)"/>
<path d="M0 0 C2.64 0 5.28 0 8 0 C8.33 0.99 8.66 1.98 9 3 C7.35 3.33 5.7 3.66 4 4 C4.33 5.32 4.66 6.64 5 8 C3.68 8.33 2.36 8.66 1 9 C-1.125 2.25 -1.125 2.25 0 0 Z " fill="#C8C7C7" transform="translate(85,31)"/>
<path d="M0 0 C1.22589844 0.01353516 1.22589844 0.01353516 2.4765625 0.02734375 C3.41628906 0.04474609 3.41628906 0.04474609 4.375 0.0625 C4.375 1.3825 4.375 2.7025 4.375 4.0625 C2.91676788 4.0895043 1.45839325 4.10889787 0 4.125 C-0.81210938 4.13660156 -1.62421875 4.14820313 -2.4609375 4.16015625 C-4.625 4.0625 -4.625 4.0625 -6.625 3.0625 C-6.625 2.4025 -6.625 1.7425 -6.625 1.0625 C-4.21954362 -0.14022819 -2.67503047 -0.03821472 0 0 Z " fill="#CECECE" transform="translate(73.625,358.9375)"/>
<path d="M0 0 C0 1.32 0 2.64 0 4 C-0.84304687 3.75443359 -0.84304687 3.75443359 -1.703125 3.50390625 C-4.13059056 2.97135003 -6.26889681 2.90101319 -8.75 2.9375 C-9.94882813 2.95103516 -9.94882813 2.95103516 -11.171875 2.96484375 C-12.07679687 2.98224609 -12.07679687 2.98224609 -13 3 C-13 2.01 -13 1.02 -13 0 C-8.38926889 -1.29676812 -4.66159911 -0.71109139 0 0 Z " fill="#B3B3B4" transform="translate(136,264)"/>
<path d="M0 0 C3.96 0 7.92 0 12 0 C12 1.32 12 2.64 12 4 C8.04 4 4.08 4 0 4 C0 2.68 0 1.36 0 0 Z " fill="#BDBDBE" transform="translate(133,131)"/>
<path d="M0 0 C1.62490954 -0.02698189 3.24994633 -0.04638757 4.875 -0.0625 C5.77992187 -0.07410156 6.68484375 -0.08570313 7.6171875 -0.09765625 C10 0 10 0 12 1 C12 1.99 12 2.98 12 4 C8.04 4 4.08 4 0 4 C0 2.68 0 1.36 0 0 Z " fill="#C3C3C3" transform="translate(82,131)"/>
<path d="M0 0 C4.29 0 8.58 0 13 0 C12.67 1.32 12.34 2.64 12 4 C11.0925 3.814375 10.185 3.62875 9.25 3.4375 C6.23057211 3.03103855 4.82825889 3.21979065 2 4 C1.01 3.67 0.02 3.34 -1 3 C-0.67 2.01 -0.34 1.02 0 0 Z " fill="#BFBFC0" transform="translate(201,131)"/>
<path d="M0 0 C6.93 0.495 6.93 0.495 14 1 C14 1.99 14 2.98 14 4 C8.97703996 5.13016601 5.02125926 4.77916092 0 4 C0 2.68 0 1.36 0 0 Z " fill="#AFAFB0" transform="translate(150,151)"/>
<path d="M0 0 C0.62648438 0.0721875 1.25296875 0.144375 1.8984375 0.21875 C3.12433594 0.35796875 3.12433594 0.35796875 4.375 0.5 C5.59316406 0.63921875 5.59316406 0.63921875 6.8359375 0.78125 C8.96912825 1.03352351 8.96912825 1.03352351 11 1 C11.33 1.99 11.66 2.98 12 4 C10.8553125 4.2165625 10.8553125 4.2165625 9.6875 4.4375 C6.91827092 4.9632594 6.91827092 4.9632594 4 6 C4 5.34 4 4.68 4 4 C2.68 4 1.36 4 0 4 C0 2.68 0 1.36 0 0 Z " fill="#C1C1C1" transform="translate(104,273)"/>
<path d="M0 0 C0.59167969 0.08378906 1.18335937 0.16757813 1.79296875 0.25390625 C6.09939457 0.80889424 9.75552644 1.23226652 14 0 C14 1.32 14 2.64 14 4 C9.38 4 4.76 4 0 4 C0 2.68 0 1.36 0 0 Z " fill="#B3B3B4" transform="translate(102,253)"/>
<path d="M0 0 C3.3 0 6.6 0 10 0 C10 1.32 10 2.64 10 4 C7.69 4 5.38 4 3 4 C2.67 3.01 2.34 2.02 2 1 C2 1.99 2 2.98 2 4 C1.01 3.67 0.02 3.34 -1 3 C-0.67 2.01 -0.34 1.02 0 0 Z " fill="#BBBBBB" transform="translate(88,105)"/>
<path d="M0 0 C4.95 0.33 9.9 0.66 15 1 C15 1.66 15 2.32 15 3 C9.91913204 3.84681133 5.15171623 4.09038099 0 4 C0 2.68 0 1.36 0 0 Z " fill="#C1C1C1" transform="translate(56,82)"/>
<path d="M0 0 C0.80824219 0.10183594 1.61648437 0.20367187 2.44921875 0.30859375 C3.06410156 0.39238281 3.67898437 0.47617188 4.3125 0.5625 C3.9825 1.5525 3.6525 2.5425 3.3125 3.5625 C-0.9893076 4.51845724 -4.41119155 4.98793615 -8.6875 3.5625 C-8.3575 2.5725 -8.0275 1.5825 -7.6875 0.5625 C-4.59271121 -0.46909626 -3.16118607 -0.41232862 0 0 Z " fill="#BEBEBE" transform="translate(61.6875,232.4375)"/>
<path d="M0 0 C3.63 0 7.26 0 11 0 C11 1.32 11 2.64 11 4 C7.37 4 3.74 4 0 4 C0 2.68 0 1.36 0 0 Z " fill="#BEBEBF" transform="translate(269,131)"/>
<path d="M0 0 C1.0725 0.165 2.145 0.33 3.25 0.5 C7.03028752 1.08810915 7.03028752 1.08810915 11 1 C11 2.32 11 3.64 11 5 C2.42857143 5.14285714 2.42857143 5.14285714 -1 4 C-0.67 2.68 -0.34 1.36 0 0 Z " fill="#BEBEBE" transform="translate(82,89)"/>
<path d="M0 0 C0.99 0.33 1.98 0.66 3 1 C3.639375 0.835 4.27875 0.67 4.9375 0.5 C7.31772734 -0.07702481 8.69706679 0.25977147 11 1 C11 1.99 11 2.98 11 4 C5.06 4.495 5.06 4.495 -1 5 C-0.67 3.35 -0.34 1.7 0 0 Z " fill="#99DDF7" transform="translate(45,75)"/>
<path d="M0 0 C2.02408755 0.09002398 4.04544287 0.24641038 6.0625 0.4375 C7.71958984 0.59025391 7.71958984 0.59025391 9.41015625 0.74609375 C10.26480469 0.82988281 11.11945313 0.91367188 12 1 C11.67 1.99 11.34 2.98 11 4 C9.01432292 3.96744792 7.02864583 3.93489583 5.04296875 3.90234375 C2.79694539 3.91736783 2.79694539 3.91736783 0 5 C-0.5625 3.0625 -0.5625 3.0625 -1 1 C-0.67 0.67 -0.34 0.34 0 0 Z " fill="#C0C0C0" transform="translate(112,212)"/>
<path d="M0 0 C4.62 0 9.24 0 14 0 C14 0.99 14 1.98 14 3 C9.71 3 5.42 3 1 3 C0.67 2.01 0.34 1.02 0 0 Z " fill="#B4B4B4" transform="translate(103,152)"/>
<path d="M0 0 C0.80824219 0.10183594 1.61648437 0.20367187 2.44921875 0.30859375 C3.06410156 0.39238281 3.67898437 0.47617188 4.3125 0.5625 C4.3125 1.5525 4.3125 2.5425 4.3125 3.5625 C0.3525 3.5625 -3.6075 3.5625 -7.6875 3.5625 C-7.6875 2.5725 -7.6875 1.5825 -7.6875 0.5625 C-4.59271121 -0.46909626 -3.16118607 -0.41232862 0 0 Z " fill="#BBBBBC" transform="translate(226.6875,141.4375)"/>
<path d="M0 0 C2.31 0 4.62 0 7 0 C7.33 0.99 7.66 1.98 8 3 C7.01 4.485 7.01 4.485 6 6 C3.03 5.505 3.03 5.505 0 5 C0 3.35 0 1.7 0 0 Z " fill="#BEBDBD" transform="translate(132,28)"/>
<path d="M0 0 C4.33333333 0 8.66666667 0 13 0 C13 1.32 13 2.64 13 4 C10.36 4 7.72 4 5 4 C5 3.01 5 2.02 5 1 C4.01 1.33 3.02 1.66 2 2 C1.34 1.34 0.68 0.68 0 0 Z " fill="#C6C6C6" transform="translate(82,352)"/>
<path d="M0 0 C0 0.99 0 1.98 0 3 C-4.71599818 3.92470553 -7.67265609 4.22923777 -12 2 C-11.67 1.34 -11.34 0.68 -11 0 C-3.82105263 -1.27368421 -3.82105263 -1.27368421 0 0 Z " fill="#BCBCBD" transform="translate(171,223)"/>
<path d="M0 0 C-2 3 -2 3 -4.3828125 3.51171875 C-5.28773438 3.56972656 -6.19265625 3.62773437 -7.125 3.6875 C-8.03507813 3.75324219 -8.94515625 3.81898438 -9.8828125 3.88671875 C-10.93082031 3.94279297 -10.93082031 3.94279297 -12 4 C-12 2.68 -12 1.36 -12 0 C-7.91556885 -1.53166168 -4.20544343 -0.63081652 0 0 Z " fill="#B8B8B8" transform="translate(229,223)"/>
<path d="M0 0 C4.62 0 9.24 0 14 0 C14 0.99 14 1.98 14 3 C9.71 3 5.42 3 1 3 C0.67 2.01 0.34 1.02 0 0 Z " fill="#B0B0B1" transform="translate(215,213)"/>
<path d="M0 0 C0.5775 0.165 1.155 0.33 1.75 0.5 C4.26664369 1.14462031 4.26664369 1.14462031 8 1 C8.33 1.66 8.66 2.32 9 3 C9.99 3.33 10.98 3.66 12 4 C9.75487738 5.12256131 8.48543351 5.13413762 6 5.125 C4.948125 5.12886719 4.948125 5.12886719 3.875 5.1328125 C2 5 2 5 0 4 C0 2.68 0 1.36 0 0 Z " fill="#C1C1C1" transform="translate(55,171)"/>
<path d="M0 0 C-1 2 -1 2 -2.6875 2.6875 C-5.61154153 3.08264075 -8.10682347 2.50316114 -11 2 C-11.99 2.495 -11.99 2.495 -13 3 C-13 1.68 -13 0.36 -13 -1 C-4.57142857 -2.42857143 -4.57142857 -2.42857143 0 0 Z " fill="#B0B0B1" transform="translate(138,153)"/>
<path d="M0 0 C0.66 0 1.32 0 2 0 C2 0.66 2 1.32 2 2 C2.66 2 3.32 2 4 2 C4 1.34 4 0.68 4 0 C6.64 0 9.28 0 12 0 C12.33 0.99 12.66 1.98 13 3 C9.10835652 4.29721449 6.10570774 4.13033993 2 4 C1.34 3.67 0.68 3.34 0 3 C0 2.01 0 1.02 0 0 Z " fill="#C0C0C0" transform="translate(62,90)"/>
<path d="M0 0 C0 1.32 0 2.64 0 4 C-6.625 5.25 -6.625 5.25 -10 3 C-10 2.34 -10 1.68 -10 1 C-6.52674819 -0.1577506 -3.63932552 -0.06866652 0 0 Z " fill="#B6B6B7" transform="translate(132,89)"/>
<path d="M0 0 C3.33333333 0 6.66666667 0 10 0 C10.66 1.32 11.32 2.64 12 4 C8.37 4 4.74 4 1 4 C0.67 2.68 0.34 1.36 0 0 Z " fill="#BBBBBC" transform="translate(110,192)"/>
<path d="M0 0 C0.33 1.65 0.66 3.3 1 5 C0.401875 4.814375 -0.19625 4.62875 -0.8125 4.4375 C-3.16408762 3.77906313 -3.16408762 3.77906313 -6 5 C-6.99 4.67 -7.98 4.34 -9 4 C-9 3.01 -9 2.02 -9 1 C-5.94152152 0.45627049 -3.11227195 0 0 0 Z " fill="#C5C5C5" transform="translate(263,181)"/>
<path d="M0 0 C0 0.99 0 1.98 0 3 C-3.63 3 -7.26 3 -11 3 C-11 2.01 -11 1.02 -11 0 C-3.375 -1.125 -3.375 -1.125 0 0 Z " fill="#BBBBBB" transform="translate(171,142)"/>
<path d="M0 0 C3.3 0 6.6 0 10 0 C10.33 0.99 10.66 1.98 11 3 C9.02 3 7.04 3 5 3 C5 3.33 5 3.66 5 4 C3.35 4 1.7 4 0 4 C0 2.68 0 1.36 0 0 Z " fill="#BEBEBE" transform="translate(153,131)"/>
<path d="M0 0 C2.64 0 5.28 0 8 0 C8 0.99 8 1.98 8 3 C7.01 3 6.02 3 5 3 C3.9739266 4.31337396 2.97272675 5.64664105 2 7 C1.34 7 0.68 7 0 7 C0 4.69 0 2.38 0 0 Z " fill="#7F7D7D" transform="translate(79,27)"/>
<path d="M0 0 C0.33 1.32 0.66 2.64 1 4 C2.32 4 3.64 4 5 4 C5.33 2.68 5.66 1.36 6 0 C6 2.31 6 4.62 6 7 C4.02 7.99 4.02 7.99 2 9 C0 7 0 7 -0.125 3.375 C-0.08375 2.26125 -0.0425 1.1475 0 0 Z " fill="#38BFF1" transform="translate(49,389)"/>
<path d="M0 0 C4.16138263 -0.08159574 7.9472484 0.01751476 12 1 C12 1.66 12 2.32 12 3 C9.75487738 4.12256131 8.48543351 4.13413762 6 4.125 C4.948125 4.12886719 4.948125 4.12886719 3.875 4.1328125 C2 4 2 4 0 3 C0 2.01 0 1.02 0 0 Z " fill="#B6B6B6" transform="translate(256,131)"/>
<path d="M0 0 C3.3 0.33 6.6 0.66 10 1 C9.67 1.99 9.34 2.98 9 4 C5.52176885 5.15941038 3.54104422 4.70820884 0 4 C0 2.68 0 1.36 0 0 Z " fill="#B7B7B7" transform="translate(241,104)"/>
<path d="M0 0 C2.5625 2.1875 2.5625 2.1875 5 5 C4.8125 7.8125 4.8125 7.8125 4 10 C3.34 10 2.68 10 2 10 C1.34 9.34 0.68 8.68 0 8 C-0.66 7.67 -1.32 7.34 -2 7 C-2 6.01 -2 5.02 -2 4 C-1.34 4 -0.68 4 0 4 C0 2.68 0 1.36 0 0 Z " fill="#F6F6F6" transform="translate(81,30)"/>
<path d="M0 0 C1.98 1.65 3.96 3.3 6 5 C4.3545622 6.68762851 2.68711423 8.3540349 1 10 C0.67 10 0.34 10 0 10 C0 6.7 0 3.4 0 0 Z " fill="#BFCCD4" transform="translate(231,389)"/>
<path d="M0 0 C2.97 0.33 5.94 0.66 9 1 C9.33 2.32 9.66 3.64 10 5 C6.7 4.67 3.4 4.34 0 4 C0 2.68 0 1.36 0 0 Z " fill="#B7B7B8" transform="translate(173,182)"/>
<path d="M0 0 C7.50769231 -0.36923077 7.50769231 -0.36923077 10 1.5 C10.495 2.2425 10.495 2.2425 11 3 C10.34 3.66 9.68 4.32 9 5 C8.34 4.34 7.68 3.68 7 3 C4.99363529 3.29259485 2.99285937 3.62633887 1 4 C0.34 3.67 -0.32 3.34 -1 3 C-0.67 2.01 -0.34 1.02 0 0 Z " fill="#B9B9B9" transform="translate(65,131)"/>
<path d="M0 0 C2.97 0.33 5.94 0.66 9 1 C9.33 2.65 9.66 4.3 10 6 C8.88625 5.5359375 8.88625 5.5359375 7.75 5.0625 C5.12596918 3.95610347 5.12596918 3.95610347 2.75 3.5625 C2.1725 3.376875 1.595 3.19125 1 3 C0.67 2.01 0.34 1.02 0 0 Z " fill="#CDCDCD" transform="translate(66,393)"/>
<path d="M0 0 C3.3 0 6.6 0 10 0 C9.67 0.99 9.34 1.98 9 3 C5.625 3.625 5.625 3.625 2 4 C1.34 3.34 0.68 2.68 0 2 C0 1.34 0 0.68 0 0 Z " fill="#B5B5B5" transform="translate(55,320)"/>
<path d="M0 0 C0.7425 0.185625 1.485 0.37125 2.25 0.5625 C4.94990963 0.99203108 6.44631077 0.85122974 9 0 C9.33 1.32 9.66 2.64 10 4 C6.7 4 3.4 4 0 4 C0 2.68 0 1.36 0 0 Z " fill="#B9B9B9" transform="translate(44,212)"/>
<path d="M0 0 C0.515625 0.165 1.03125 0.33 1.5625 0.5 C4.73363876 1.15049 7.77218334 1.0620734 11 1 C11 1.99 11 2.98 11 4 C7.33333333 4 3.66666667 4 0 4 C0 2.68 0 1.36 0 0 Z " fill="#C2C2C2" transform="translate(105,386)"/>
<path d="M0 0 C0.495 0.165 0.99 0.33 1.5 0.5 C5.03444089 1.20688818 8.39690701 1.06005155 12 1 C12 1.99 12 2.98 12 4 C8.04 4 4.08 4 0 4 C0 2.68 0 1.36 0 0 Z " fill="#B0B0B1" transform="translate(178,222)"/>
<path d="M0 0 C-1 3 -1 3 -3.0625 4.1875 C-3.701875 4.455625 -4.34125 4.72375 -5 5 C-7 3.625 -7 3.625 -9 2 C-9 1.34 -9 0.68 -9 0 C-5.93109813 -1.53445094 -3.29905734 -0.54984289 0 0 Z " fill="#B7B7B8" transform="translate(208,213)"/>
<path d="M0 0 C0.99 0.495 0.99 0.495 2 1 C3.70702735 1.06996014 5.41668003 1.08440154 7.125 1.0625 C8.03507813 1.05347656 8.94515625 1.04445312 9.8828125 1.03515625 C10.93082031 1.01775391 10.93082031 1.01775391 12 1 C11.67 1.99 11.34 2.98 11 4 C7.37 4 3.74 4 0 4 C0 2.68 0 1.36 0 0 Z " fill="#AEAEAE" transform="translate(167,212)"/>
<path d="M0 0 C0.33 1.32 0.66 2.64 1 4 C-6.75 4.125 -6.75 4.125 -9 3 C-9 2.34 -9 1.68 -9 1 C-5.92677456 0.08941469 -3.19902639 -0.08886184 0 0 Z " fill="#B7B7B7" transform="translate(168,192)"/>
<path d="M0 0 C2.64 0 5.28 0 8 0 C8 1.32 8 2.64 8 4 C5.36 4 2.72 4 0 4 C0 2.68 0 1.36 0 0 Z " fill="#BBBBBC" transform="translate(218,182)"/>
<path d="M0 0 C2.64 0.33 5.28 0.66 8 1 C7.34 2.65 6.68 4.3 6 6 C4.02 5.34 2.04 4.68 0 4 C0 2.68 0 1.36 0 0 Z " fill="#C0C0C0" transform="translate(218,171)"/>
<path d="M0 0 C-0.33 0.99 -0.66 1.98 -1 3 C-4.28696233 3.79953138 -5.71023192 4.09658936 -9 3 C-9 2.01 -9 1.02 -9 0 C-5.93109813 -1.53445094 -3.29905734 -0.54984289 0 0 Z " fill="#B6B6B6" transform="translate(96,152)"/>
<path d="M0 0 C2.64 0 5.28 0 8 0 C8 1.32 8 2.64 8 4 C5.36 4 2.72 4 0 4 C0 2.68 0 1.36 0 0 Z " fill="#B0B0B1" transform="translate(57,105)"/>
<path d="M0 0 C3.3 0 6.6 0 10 0 C9.67 0.99 9.34 1.98 9 3 C4.545 3.495 4.545 3.495 0 4 C0 2.68 0 1.36 0 0 Z " fill="#BDBDBD" transform="translate(107,90)"/>
<path d="M0 0 C2.97 0 5.94 0 9 0 C9 0.99 9 1.98 9 3 C4.545 3.495 4.545 3.495 0 4 C0 2.68 0 1.36 0 0 Z " fill="#D2D2D2" transform="translate(106,370)"/>
<path d="M0 0 C0.66 0.33 1.32 0.66 2 1 C1.67 1.66 1.34 2.32 1 3 C2.65 3 4.3 3 6 3 C6.33 4.32 6.66 5.64 7 7 C5.02 7 3.04 7 1 7 C1 6.34 1 5.68 1 5 C0.01 4.67 -0.98 4.34 -2 4 C-1.34 2.68 -0.68 1.36 0 0 Z " fill="#9D9C9C" transform="translate(52,300)"/>
<path d="M0 0 C2.97851562 0.390625 2.97851562 0.390625 5.95703125 0.78125 C8.15471706 1.053233 8.15471706 1.053233 11 1 C11 1.99 11 2.98 11 4 C7.37 4 3.74 4 0 4 C0 2.68 0 1.36 0 0 Z " fill="#AFAFB0" transform="translate(52,263)"/>
<path d="M0 0 C3.63 0 7.26 0 11 0 C10.67 0.99 10.34 1.98 10 3 C5.545 3.495 5.545 3.495 1 4 C0.67 2.68 0.34 1.36 0 0 Z " fill="#B7B7B7" transform="translate(155,254)"/>
<path d="M0 0 C-0.33 0.99 -0.66 1.98 -1 3 C-6.75 4.125 -6.75 4.125 -9 3 C-8.67 2.01 -8.34 1.02 -8 0 C-5.13822943 -1.43088528 -3.06624227 -0.59991697 0 0 Z " fill="#C7C7C7" transform="translate(53,233)"/>
<path d="M0 0 C0.495 0.165 0.99 0.33 1.5 0.5 C5.03444089 1.20688818 8.39690701 1.06005155 12 1 C12 1.66 12 2.32 12 3 C7.9472484 3.98248524 4.16138263 4.08159574 0 4 C0 2.68 0 1.36 0 0 Z " fill="#B0B0B0" transform="translate(178,141)"/>
<path d="M0 0 C2.64 0 5.28 0 8 0 C8 1.32 8 2.64 8 4 C2.25 4.125 2.25 4.125 0 3 C0 2.01 0 1.02 0 0 Z " fill="#C4C4C4" transform="translate(107,131)"/>
<path d="M0 0 C0.53625 0.165 1.0725 0.33 1.625 0.5 C4.45886009 1.09660212 7.1119806 1.0656368 10 1 C10 1.99 10 2.98 10 4 C6.7 4 3.4 4 0 4 C0 2.68 0 1.36 0 0 Z " fill="#AFAFAF" transform="translate(221,104)"/>
<path d="M0 0 C3.63 0.33 7.26 0.66 11 1 C10.67 1.66 10.34 2.32 10 3 C7.71484375 3.4140625 7.71484375 3.4140625 4.9375 3.625 C4.01839844 3.69976562 3.09929688 3.77453125 2.15234375 3.8515625 C1.44207031 3.90054687 0.73179688 3.94953125 0 4 C0 2.68 0 1.36 0 0 Z " fill="#898788" transform="translate(44,314)"/>
<path d="M0 0 C0.66 0 1.32 0 2 0 C2.33 0.66 2.66 1.32 3 2 C4.423125 1.4740625 4.423125 1.4740625 5.875 0.9375 C9 0 9 0 11 1 C10.67 1.99 10.34 2.98 10 4 C6.66666667 4 3.33333333 4 0 4 C0 2.68 0 1.36 0 0 Z " fill="#B1B1B1" transform="translate(245,253)"/>
<path d="M0 0 C0.99 0 1.98 0 3 0 C3 0.99 3 1.98 3 3 C0.03 3 -2.94 3 -6 3 C-6 2.01 -6 1.02 -6 0 C-3.47064411 -1.26467795 -2.65809097 -0.7249339 0 0 Z " fill="#BABABA" transform="translate(106,193)"/>
<path d="M0 0 C2.33944736 0.28730055 4.6739143 0.61936779 7 1 C7 1.99 7 2.98 7 4 C4.03 4 1.06 4 -2 4 C-1 1 -1 1 0 0 Z " fill="#BBBBBC" transform="translate(56,182)"/>
<path d="M0 0 C0 1.32 0 2.64 0 4 C-2.31 4 -4.62 4 -7 4 C-7.33 3.01 -7.66 2.02 -8 1 C-5.10765685 0.17361624 -3.11257569 0 0 0 Z " fill="#C0C0C0" transform="translate(138,141)"/>
<path d="M0 0 C3.3 0.33 6.6 0.66 10 1 C10 1.99 10 2.98 10 4 C7.03 4 4.06 4 1 4 C0.67 2.68 0.34 1.36 0 0 Z " fill="#ABABAB" transform="translate(62,141)"/>
<path d="M0 0 C0 1.32 0 2.64 0 4 C-2.31 4 -4.62 4 -7 4 C-7 3.01 -7 2.02 -7 1 C-4 0 -4 0 0 0 Z " fill="#BEBEBF" transform="translate(138,222)"/>
<path d="M0 0 C2.64 0 5.28 0 8 0 C7.67 0.99 7.34 1.98 7 3 C3.4375 4.1875 3.4375 4.1875 0 5 C-0.33 4.34 -0.66 3.68 -1 3 C-0.67 2.01 -0.34 1.02 0 0 Z " fill="#B4B4B4" transform="translate(272,172)"/>
<path d="M0 0 C1.65 0 3.3 0 5 0 C5.66 1.32 6.32 2.64 7 4 C3.98968256 4.93423645 3.13349732 5.04449911 0 4 C0 2.68 0 1.36 0 0 Z " fill="#BABABA" transform="translate(65,97)"/>
<path d="M0 0 C1.258125 -0.020625 2.51625 -0.04125 3.8125 -0.0625 C4.52019531 -0.07410156 5.22789063 -0.08570312 5.95703125 -0.09765625 C8 0 8 0 11 1 C10.67 1.66 10.34 2.32 10 3 C6.7 3 3.4 3 0 3 C0 2.01 0 1.02 0 0 Z " fill="#ACACAD" transform="translate(99,98)"/>
<path d="M0 0 C1.98 0.495 1.98 0.495 4 1 C4 2.98 4 4.96 4 7 C2.35 7 0.7 7 -1 7 C-0.67 4.69 -0.34 2.38 0 0 Z " fill="#DBDBDB" transform="translate(129,33)"/>
<path d="M0 0 C0.99 0 1.98 0 3 0 C2.67 2.31 2.34 4.62 2 7 C0.68 7 -0.64 7 -2 7 C-1.125 1.125 -1.125 1.125 0 0 Z " fill="#9B9B9B" transform="translate(90,300)"/>
<path d="M0 0 C3.3 0 6.6 0 10 0 C9.34 1.32 8.68 2.64 8 4 C7.67 3.34 7.34 2.68 7 2 C6.21625 2.165 5.4325 2.33 4.625 2.5 C2 3 2 3 0 3 C0 2.01 0 1.02 0 0 Z " fill="#B5B5B6" transform="translate(88,264)"/>
<path d="M0 0 C2.64 0 5.28 0 8 0 C8 0.99 8 1.98 8 3 C4.71303767 3.79953138 3.28976808 4.09658936 0 3 C0 2.01 0 1.02 0 0 Z " fill="#B3B3B3" transform="translate(234,254)"/>
<path d="M0 0 C2.64 0 5.28 0 8 0 C8 1.32 8 2.64 8 4 C5.36 4 2.72 4 0 4 C0 2.68 0 1.36 0 0 Z " fill="#BEBEBF" transform="translate(68,233)"/>
<path d="M0 0 C3.63 0 7.26 0 11 0 C11 0.99 11 1.98 11 3 C7.7 3 4.4 3 1 3 C0.67 2.01 0.34 1.02 0 0 Z " fill="#AFAFAF" transform="translate(238,223)"/>
<path d="M0 0 C2.97 0.33 5.94 0.66 9 1 C8.01 2.485 8.01 2.485 7 4 C5.0546875 4.29296875 5.0546875 4.29296875 2.875 4.1875 C1.59625 4.125625 0.3175 4.06375 -1 4 C-0.67 2.68 -0.34 1.36 0 0 Z " fill="#B1B1B1" transform="translate(66,222)"/>
<path d="M0 0 C0 0.99 0 1.98 0 3 C-2.64 3 -5.28 3 -8 3 C-7.67 2.01 -7.34 1.02 -7 0 C-4.3333581 -1.33332095 -2.83319697 -0.67102033 0 0 Z " fill="#BCBCBC" transform="translate(153,193)"/>
<path d="M0 0 C6.52307692 -0.36923077 6.52307692 -0.36923077 8.9375 1.5 C9.288125 1.995 9.63875 2.49 10 3 C9.34 3.66 8.68 4.32 8 5 C5.5 4.625 5.5 4.625 3 4 C2.34 4 1.68 4 1 4 C0.67 2.68 0.34 1.36 0 0 Z " fill="#B6B6B7" transform="translate(44,171)"/>
<path d="M0 0 C0 0.99 0 1.98 0 3 C-2.64 3.33 -5.28 3.66 -8 4 C-8.33 3.01 -8.66 2.02 -9 1 C-6.04335481 -0.4783226 -3.25770263 -0.06032783 0 0 Z " fill="#BABABB" transform="translate(128,131)"/>
<path d="M0 0 C2.97 0 5.94 0 9 0 C9 0.99 9 1.98 9 3 C5.7 3 2.4 3 -1 3 C-0.67 2.01 -0.34 1.02 0 0 Z " fill="#B6B6B6" transform="translate(55,98)"/>
<path d="M0 0 C1.32 0 2.64 0 4 0 C4.33 0.99 4.66 1.98 5 3 C4.34 3.66 3.68 4.32 3 5 C0.375 4.625 0.375 4.625 -2 4 C-1.34 2.68 -0.68 1.36 0 0 Z " fill="#CBCBCB" transform="translate(56,89)"/>
<path d="M0 0 C2.9375 0.8125 2.9375 0.8125 6 2 C6.33 2.99 6.66 3.98 7 5 C6.4225 4.814375 5.845 4.62875 5.25 4.4375 C2.79307475 3.95976454 1.35602466 4.24270636 -1 5 C-0.67 3.35 -0.34 1.7 0 0 Z " fill="#CECECE" transform="translate(116,35)"/>
<path d="M0 0 C0.33 0.99 0.66 1.98 1 3 C-1 5 -1 5 -2.9453125 5.1953125 C-4.96354167 5.13020833 -6.98177083 5.06510417 -9 5 C-9.33 4.34 -9.66 3.68 -10 3 C-7.36 3 -4.72 3 -2 3 C-2 2.34 -2 1.68 -2 1 C-1.34 0.67 -0.68 0.34 0 0 Z " fill="#0BB0EF" transform="translate(61,36)"/>
<path d="M0 0 C3.63 0.33 7.26 0.66 11 1 C10.67 1.99 10.34 2.98 10 4 C9.4225 3.814375 8.845 3.62875 8.25 3.4375 C5.77399031 2.95605367 4.39805371 3.36051901 2 4 C1.34 3.67 0.68 3.34 0 3 C0 2.01 0 1.02 0 0 Z " fill="#B2B2B2" transform="translate(181,253)"/>
<path d="M0 0 C2.64 0.33 5.28 0.66 8 1 C8 1.99 8 2.98 8 4 C5.69 4 3.38 4 1 4 C0.67 2.68 0.34 1.36 0 0 Z " fill="#B9B9BA" transform="translate(125,253)"/>
<path d="M0 0 C0.99 0.33 1.98 0.66 3 1 C3 1.66 3 2.32 3 3 C3.66 3.33 4.32 3.66 5 4 C3.02 4.99 3.02 4.99 1 6 C0.34 5.34 -0.32 4.68 -1 4 C-3.10820797 4.3185177 -3.10820797 4.3185177 -5 5 C-3.35 3.35 -1.7 1.7 0 0 Z " fill="#C6C6C6" transform="translate(120,222)"/>
<path d="M0 0 C2.64 0 5.28 0 8 0 C8.33 0.99 8.66 1.98 9 3 C7.35 3.66 5.7 4.32 4 5 C2 3 2 3 0 0 Z " fill="#B7B7B7" transform="translate(154,182)"/>
<path d="M0 0 C2.625 0.9375 2.625 0.9375 5 2 C4.67 2.66 4.34 3.32 4 4 C3.34 4 2.68 4 2 4 C1.67 4.66 1.34 5.32 1 6 C-0.32 5.34 -1.64 4.68 -3 4 C-2.67 3.01 -2.34 2.02 -2 1 C-1.34 0.67 -0.68 0.34 0 0 Z " fill="#B7B7B8" transform="translate(127,171)"/>
<path d="M0 0 C2.97 0.495 2.97 0.495 6 1 C6.33 1.99 6.66 2.98 7 4 C6.01 4.495 6.01 4.495 5 5 C4.67 4.67 4.34 4.34 4 4 C3.01 4.495 3.01 4.495 2 5 C1.01 4.67 0.02 4.34 -1 4 C-0.67 2.68 -0.34 1.36 0 0 Z " fill="#BBBBBC" transform="translate(174,171)"/>
<path d="M0 0 C6.75 -0.125 6.75 -0.125 9 1 C9 1.99 9 2.98 9 4 C6.36 4 3.72 4 1 4 C0.67 2.68 0.34 1.36 0 0 Z " fill="#B2B2B3" transform="translate(44,151)"/>
<path d="M0 0 C1.32 0 2.64 0 4 0 C4.33 0.99 4.66 1.98 5 3 C4.67 3.66 4.34 4.32 4 5 C2.35 4.67 0.7 4.34 -1 4 C-0.67 2.68 -0.34 1.36 0 0 Z " fill="#F2FAFD" transform="translate(53,30)"/>
<path d="M0 0 C1.485 0.99 1.485 0.99 3 2 C3.66 2 4.32 2 5 2 C5.33 2.99 5.66 3.98 6 5 C3.92446352 5.5534764 2.15634036 6 0 6 C-1.125 2.25 -1.125 2.25 0 0 Z " fill="#9F9E9F" transform="translate(60,301)"/>
<path d="M0 0 C-0.33 0.99 -0.66 1.98 -1 3 C-3.31 3.33 -5.62 3.66 -8 4 C-7.67 2.68 -7.34 1.36 -7 0 C-3.98968256 -0.93423645 -3.13349732 -1.04449911 0 0 Z " fill="#AFAFAF" transform="translate(214,264)"/>
<path d="M0 0 C2.64 0 5.28 0 8 0 C7.67 1.65 7.34 3.3 7 5 C6.01 4.34 5.02 3.68 4 3 C2.68 3 1.36 3 0 3 C0 2.01 0 1.02 0 0 Z " fill="#BABABA" transform="translate(191,223)"/>
<path d="M0 0 C-0.33 0.99 -0.66 1.98 -1 3 C-2.98 3.33 -4.96 3.66 -7 4 C-7.33 2.68 -7.66 1.36 -8 0 C-5.13822943 -1.43088528 -3.06624227 -0.59991697 0 0 Z " fill="#B3B3B3" transform="translate(52,223)"/>
<path d="M0 0 C2.64 0 5.28 0 8 0 C8 0.99 8 1.98 8 3 C5.69 3.33 3.38 3.66 1 4 C0.67 2.68 0.34 1.36 0 0 Z " fill="#B8B8B8" transform="translate(124,193)"/>
<path d="M0 0 C1.65 0.33 3.3 0.66 5 1 C4.67 2.65 4.34 4.3 4 6 C1.525 5.01 1.525 5.01 -1 4 C-0.67 2.68 -0.34 1.36 0 0 Z " fill="#BEBEBF" transform="translate(229,171)"/>
<path d="M0 0 C2.97 0 5.94 0 9 0 C9 0.99 9 1.98 9 3 C5.71023192 4.09658936 4.28696233 3.79953138 1 3 C0.67 2.01 0.34 1.02 0 0 Z " fill="#B7B7B7" transform="translate(185,172)"/>
<path d="M0 0 C2.64 0.33 5.28 0.66 8 1 C8 1.99 8 2.98 8 4 C4.65747276 4.07427838 2.1964086 4.06546953 -1 3 C-0.67 2.01 -0.34 1.02 0 0 Z " fill="#B8B8B9" transform="translate(219,131)"/>
<path d="M0 0 C-0.33 0.99 -0.66 1.98 -1 3 C-3.875 3.1875 -3.875 3.1875 -7 3 C-7.66 2.01 -8.32 1.02 -9 0 C-5.93109813 -1.53445094 -3.29905734 -0.54984289 0 0 Z " fill="#84D6F6" transform="translate(76,76)"/>
<path d="M0 0 C2.97 0 5.94 0 9 0 C8.67 0.99 8.34 1.98 8 3 C7.05125 2.979375 6.1025 2.95875 5.125 2.9375 C2.09333717 2.77448174 2.09333717 2.77448174 0 4 C0 2.68 0 1.36 0 0 Z " fill="#ADADAE" transform="translate(44,274)"/>
<path d="M0 0 C6.75 -0.125 6.75 -0.125 9 1 C8.67 1.99 8.34 2.98 8 4 C5.69 4 3.38 4 1 4 C0.67 2.68 0.34 1.36 0 0 Z " fill="#B3B3B3" transform="translate(44,253)"/>
<path d="M0 0 C-0.33 0.99 -0.66 1.98 -1 3 C-2.98 3.33 -4.96 3.66 -7 4 C-7.33 2.68 -7.66 1.36 -8 0 C-5.13822943 -1.43088528 -3.06624227 -0.59991697 0 0 Z " fill="#B8B8B8" transform="translate(215,223)"/>
<path d="M0 0 C-0.33 0.99 -0.66 1.98 -1 3 C-3.31 3 -5.62 3 -8 3 C-8 2.01 -8 1.02 -8 0 C-5.13822943 -1.43088528 -3.06624227 -0.59991697 0 0 Z " fill="#B7B7B7" transform="translate(110,213)"/>
<path d="M0 0 C0 0.99 0 1.98 0 3 C-2.64 3 -5.28 3 -8 3 C-8 2.01 -8 1.02 -8 0 C-4.71023192 -1.09658936 -3.28696233 -0.79953138 0 0 Z " fill="#B2B2B2" transform="translate(90,213)"/>
<path d="M0 0 C0.33 1.32 0.66 2.64 1 4 C-1.97 4 -4.94 4 -8 4 C-7.67 3.01 -7.34 2.02 -7 1 C-3.535 0.505 -3.535 0.505 0 0 Z " fill="#ACACAD" transform="translate(63,212)"/>
<path d="M0 0 C2.31 0 4.62 0 7 0 C7.33 0.66 7.66 1.32 8 2 C7.67 2.66 7.34 3.32 7 4 C4.69 4 2.38 4 0 4 C0 2.68 0 1.36 0 0 Z " fill="#B8B8B8" transform="translate(69,192)"/>
<path d="M0 0 C0 0.66 0 1.32 0 2 C-2.64 2 -5.28 2 -8 2 C-8 1.01 -8 0.02 -8 -1 C-3.375 -2.25 -3.375 -2.25 0 0 Z " fill="#BABABA" transform="translate(71,153)"/>
<path d="M0 0 C2.00720923 0.28674418 4.0085944 0.61866701 6 1 C6 1.99 6 2.98 6 4 C3.625 4.1875 3.625 4.1875 1 4 C0.34 3.01 -0.32 2.02 -1 1 C-0.67 0.67 -0.34 0.34 0 0 Z " fill="#C4C4C4" transform="translate(205,141)"/>
<path d="M0 0 C1.32 0.33 2.64 0.66 4 1 C4 1.99 4 2.98 4 4 C0.37 4 -3.26 4 -7 4 C-5 2 -5 2 -2.375 1.875 C-1.59125 1.91625 -0.8075 1.9575 0 2 C0 1.34 0 0.68 0 0 Z " fill="#ADADAE" transform="translate(79,105)"/>
<path d="M0 0 C1.65 0 3.3 0 5 0 C4.67 2.31 4.34 4.62 4 7 C1 5 1 5 0.3125 2.375 C0.209375 1.59125 0.10625 0.8075 0 0 Z " fill="#D3D2D2" transform="translate(71,33)"/>
<path d="M0 0 C2.31 0.33 4.62 0.66 7 1 C6.67 1.99 6.34 2.98 6 4 C4.02 4 2.04 4 0 4 C0 2.68 0 1.36 0 0 Z " fill="#CACACA" transform="translate(66,386)"/>
<path d="M0 0 C-1.1875 1.5 -1.1875 1.5 -3 3 C-5.6875 3.1875 -5.6875 3.1875 -8 3 C-7.67 2.01 -7.34 1.02 -7 0 C-4.05610218 -1.17755913 -3.10046087 -1.03348696 0 0 Z " fill="#C8C8C8" transform="translate(89,377)"/>
<path d="M0 0 C-2 3 -2 3 -4 3.75 C-6 4 -6 4 -8 3 C-8 2.34 -8 1.68 -8 1 C-5.29120665 -0.35439668 -2.99066732 -0.06501451 0 0 Z " fill="#CCCCCC" transform="translate(100,370)"/>
<path d="M0 0 C1.65 0 3.3 0 5 0 C4.67 1.32 4.34 2.64 4 4 C2.35 3.67 0.7 3.34 -1 3 C-0.67 2.01 -0.34 1.02 0 0 Z " fill="#D0D0D0" transform="translate(97,359)"/>
<path d="M0 0 C3.3 0 6.6 0 10 0 C10 1.32 10 2.64 10 4 C9.01 4 8.02 4 7 4 C6.34 3.34 5.68 2.68 5 2 C2.42938689 1.35232207 2.42938689 1.35232207 0 1 C0 0.67 0 0.34 0 0 Z " fill="#BCBBBB" transform="translate(78,303)"/>
<path d="M0 0 C0.928125 0.165 1.85625 0.33 2.8125 0.5 C5.95621353 1.07748388 5.95621353 1.07748388 9 1 C9 1.99 9 2.98 9 4 C6.03 3.67 3.06 3.34 0 3 C0 2.01 0 1.02 0 0 Z " fill="#ACACAC" transform="translate(173,264)"/>
<path d="M0 0 C2.31 0 4.62 0 7 0 C7 0.99 7 1.98 7 3 C4.69 3 2.38 3 0 3 C0 2.01 0 1.02 0 0 Z " fill="#B9B9B9" transform="translate(44,264)"/>
<path d="M0 0 C2.64 0 5.28 0 8 0 C7.67 0.99 7.34 1.98 7 3 C5.02 3.33 3.04 3.66 1 4 C0.67 2.68 0.34 1.36 0 0 Z " fill="#BDBDBD" transform="translate(139,223)"/>
<path d="M0 0 C2.64 0.33 5.28 0.66 8 1 C8 1.99 8 2.98 8 4 C5.69 4 3.38 4 1 4 C0.67 2.68 0.34 1.36 0 0 Z " fill="#B9B9BA" transform="translate(183,192)"/>
<path d="M0 0 C0.99 0.33 1.98 0.66 3 1 C3 2.32 3 3.64 3 5 C1.35 5 -0.3 5 -2 5 C-2 3.68 -2 2.36 -2 1 C-1.34 0.67 -0.68 0.34 0 0 Z " fill="#D2D2D3" transform="translate(229,181)"/>
<path d="M0 0 C1.65 0 3.3 0 5 0 C5 1.32 5 2.64 5 4 C2.36 4 -0.28 4 -3 4 C-2.67 3.34 -2.34 2.68 -2 2 C-1.34 2 -0.68 2 0 2 C0 1.34 0 0.68 0 0 Z " fill="#BABABA" transform="translate(74,172)"/>
<path d="M0 0 C3.625 -0.1875 3.625 -0.1875 7 0 C6.67 0.99 6.34 1.98 6 3 C2.71023192 4.09658936 1.28696233 3.79953138 -2 3 C-1.34 2.01 -0.68 1.02 0 0 Z " fill="#C4C4C4" transform="translate(85,370)"/>
<path d="M0 0 C2.31 0 4.62 0 7 0 C7 0.99 7 1.98 7 3 C4 4 4 4 1 4 C0.67 2.68 0.34 1.36 0 0 Z " fill="#BCBCBC" transform="translate(91,274)"/>
<path d="M0 0 C2.97 0.495 2.97 0.495 6 1 C6 1.99 6 2.98 6 4 C3.69 4 1.38 4 -1 4 C-0.67 2.68 -0.34 1.36 0 0 Z " fill="#B4B4B4" transform="translate(217,263)"/>
<path d="M0 0 C2.64 0.33 5.28 0.66 8 1 C8 1.99 8 2.98 8 4 C5.36 4 2.72 4 0 4 C0 2.68 0 1.36 0 0 Z " fill="#AEAEAE" transform="translate(140,263)"/>
<path d="M0 0 C2.64 0 5.28 0 8 0 C8 0.99 8 1.98 8 3 C5.36 2.67 2.72 2.34 0 2 C0 1.34 0 0.68 0 0 Z " fill="#AEAEAF" transform="translate(68,254)"/>
<path d="M0 0 C1.65 0 3.3 0 5 0 C5 1.32 5 2.64 5 4 C3.35 4 1.7 4 0 4 C0 2.68 0 1.36 0 0 Z " fill="#C7C7C8" transform="translate(194,192)"/>
<path d="M0 0 C-0.33 0.99 -0.66 1.98 -1 3 C-3.31 3.33 -5.62 3.66 -8 4 C-7.1875 2.0625 -7.1875 2.0625 -6 0 C-3 -1 -3 -1 0 0 Z " fill="#CCCCCC" transform="translate(103,183)"/>
<path d="M0 0 C0.598125 0.20625 1.19625 0.4125 1.8125 0.625 C0.4375 2.625 0.4375 2.625 -1.1875 4.625 C-1.8475 4.625 -2.5075 4.625 -3.1875 4.625 C-3.1875 3.965 -3.1875 3.305 -3.1875 2.625 C-3.8475 2.295 -4.5075 1.965 -5.1875 1.625 C-2.1875 -0.375 -2.1875 -0.375 0 0 Z " fill="#B5B5B5" transform="translate(93.1875,172.375)"/>
<path d="M0 0 C0.763125 0.20625 1.52625 0.4125 2.3125 0.625 C0.3125 3.625 0.3125 3.625 -2.3125 4.3125 C-3.488125 4.4671875 -3.488125 4.4671875 -4.6875 4.625 C-5.0175 3.635 -5.3475 2.645 -5.6875 1.625 C-2.6875 -0.375 -2.6875 -0.375 0 0 Z " fill="#B8B8B8" transform="translate(254.6875,171.375)"/>
<path d="M0 0 C2.64 0 5.28 0 8 0 C7.67 1.32 7.34 2.64 7 4 C6.01 3.34 5.02 2.68 4 2 C1.84725052 2.30840599 1.84725052 2.30840599 0 3 C0 2.01 0 1.02 0 0 Z " fill="#B4B4B5" transform="translate(191,142)"/>
<path d="M0 0 C2.31 0 4.62 0 7 0 C7 0.99 7 1.98 7 3 C4.36 3 1.72 3 -1 3 C-0.67 2.01 -0.34 1.02 0 0 Z " fill="#B8B8B8" transform="translate(247,142)"/>
<path d="M0 0 C0.33 0.99 0.66 1.98 1 3 C-2.13349732 4.04449911 -2.98968256 3.93423645 -6 3 C-6 2.01 -6 1.02 -6 0 C-3 -1 -3 -1 0 0 Z " fill="#C1C1C1" transform="translate(123,142)"/>
<path d="M0 0 C0 0.99 0 1.98 0 3 C-2.31 3 -4.62 3 -7 3 C-6.67 2.01 -6.34 1.02 -6 0 C-3.50907189 -1.24546405 -2.58919267 -0.7767578 0 0 Z " fill="#B9B9BA" transform="translate(183,132)"/>
<path d="M0 0 C2.31 0 4.62 0 7 0 C6.67 0.99 6.34 1.98 6 3 C4.02 3 2.04 3 0 3 C0 2.01 0 1.02 0 0 Z " fill="#C0C0C0" transform="translate(74,387)"/>
<path d="M0 0 C0.94875 0.350625 1.8975 0.70125 2.875 1.0625 C2.545 1.7225 2.215 2.3825 1.875 3.0625 C-0.435 3.0625 -2.745 3.0625 -5.125 3.0625 C-5.125 2.0725 -5.125 1.0825 -5.125 0.0625 C-3.125 -0.9375 -3.125 -0.9375 0 0 Z " fill="#B1B1B2" transform="translate(66.125,273.9375)"/>
<path d="M0 0 C1.32 0 2.64 0 4 0 C4.33 1.32 4.66 2.64 5 4 C3.68 4.33 2.36 4.66 1 5 C0.67 3.35 0.34 1.7 0 0 Z " fill="#D7D7D7" transform="translate(96,233)"/>
<path d="M0 0 C2.475 0.495 2.475 0.495 5 1 C5 2.32 5 3.64 5 5 C3.35 4.67 1.7 4.34 0 4 C0 2.68 0 1.36 0 0 Z " fill="#B6B6B6" transform="translate(78,192)"/>
<path d="M0 0 C0 0.66 0 1.32 0 2 C-4.625 4.125 -4.625 4.125 -8 3 C-8 2.34 -8 1.68 -8 1 C-5.07175348 0.02391783 -3.04386724 -0.08226668 0 0 Z " fill="#B9B9B9" transform="translate(96,182)"/>
<path d="M0 0 C0.99 0.33 1.98 0.66 3 1 C3 1.99 3 2.98 3 4 C1.02 4 -0.96 4 -3 4 C-2.67 3.01 -2.34 2.02 -2 1 C-1.34 0.67 -0.68 0.34 0 0 Z " fill="#B9B9B9" transform="translate(214,171)"/>
<path d="M0 0 C1.32 0 2.64 0 4 0 C4.33 0.66 4.66 1.32 5 2 C5.99 2.66 6.98 3.32 8 4 C5.69 4 3.38 4 1 4 C0.67 2.68 0.34 1.36 0 0 Z " fill="#D7D7D7" transform="translate(235,172)"/>
<path d="M0 0 C2.25 0.25 2.25 0.25 4 1 C3.01 2.485 3.01 2.485 2 4 C-1.125 4.1875 -1.125 4.1875 -4 4 C-2.25 1.9375 -2.25 1.9375 0 0 Z " fill="#D5D5D5" transform="translate(87,98)"/>
<path d="M0 0 C-0.99 1.485 -0.99 1.485 -2 3 C-5.125 3.1875 -5.125 3.1875 -8 3 C-8 2.34 -8 1.68 -8 1 C-5.29120665 -0.35439668 -2.99066732 -0.06501451 0 0 Z " fill="#C3C3C3" transform="translate(81,377)"/>
<path d="M0 0 C2.97 0.495 2.97 0.495 6 1 C6 1.99 6 2.98 6 4 C4.02 4 2.04 4 0 4 C0 2.68 0 1.36 0 0 Z " fill="#B3B3B4" transform="translate(104,273)"/>
<path d="M0 0 C-0.99 1.485 -0.99 1.485 -2 3 C-4.625 3.1875 -4.625 3.1875 -7 3 C-7 2.01 -7 1.02 -7 0 C-4.3333581 -1.33332095 -2.83319697 -0.67102033 0 0 Z " fill="#B5B5B6" transform="translate(157,264)"/>
<path d="M0 0 C2.64 0 5.28 0 8 0 C7.67 0.99 7.34 1.98 7 3 C4.69 3 2.38 3 0 3 C0 2.01 0 1.02 0 0 Z " fill="#B8B8B9" transform="translate(65,264)"/>
<path d="M0 0 C2.31 0 4.62 0 7 0 C7 0.99 7 1.98 7 3 C4.69 3 2.38 3 0 3 C0 2.01 0 1.02 0 0 Z " fill="#B7B7B7" transform="translate(198,254)"/>
<path d="M0 0 C2.625 -0.1875 2.625 -0.1875 5 0 C5 0.99 5 1.98 5 3 C2.69 3 0.38 3 -2 3 C-1.34 2.01 -0.68 1.02 0 0 Z " fill="#C8C8C9" transform="translate(143,254)"/>
<path d="M0 0 C0 1.32 0 2.64 0 4 C-1.65 4 -3.3 4 -5 4 C-5 3.01 -5 2.02 -5 1 C-3 0 -3 0 0 0 Z " fill="#BDBDBD" transform="translate(206,222)"/>
<path d="M0 0 C1.65 0 3.3 0 5 0 C5.33 0.99 5.66 1.98 6 3 C3.69 3 1.38 3 -1 3 C-0.67 2.01 -0.34 1.02 0 0 Z " fill="#ADADAE" transform="translate(183,213)"/>
<path d="M0 0 C2.97 0.495 2.97 0.495 6 1 C6 1.99 6 2.98 6 4 C4.35 4.33 2.7 4.66 1 5 C0.67 3.35 0.34 1.7 0 0 Z " fill="#ADADAE" transform="translate(72,212)"/>
<path d="M0 0 C2.97 0.495 2.97 0.495 6 1 C5.01 1.495 5.01 1.495 4 2 C4 2.66 4 3.32 4 4 C2.35 4 0.7 4 -1 4 C-0.67 2.68 -0.34 1.36 0 0 Z " fill="#B7B7B8" transform="translate(45,192)"/>
<path d="M0 0 C0 1.32 0 2.64 0 4 C-2.97 3.505 -2.97 3.505 -6 3 C-6 2.34 -6 1.68 -6 1 C-4 0 -4 0 0 0 Z " fill="#BABABA" transform="translate(143,192)"/>
<path d="M0 0 C2.31 0 4.62 0 7 0 C5 3 5 3 2.375 3.6875 C1.199375 3.8421875 1.199375 3.8421875 0 4 C0 2.68 0 1.36 0 0 Z " fill="#B4B4B4" transform="translate(166,172)"/>
<path d="M0 0 C2.31 0.33 4.62 0.66 7 1 C7 1.99 7 2.98 7 4 C4.69 4 2.38 4 0 4 C0 2.68 0 1.36 0 0 Z " fill="#A6A6A7" transform="translate(55,151)"/>
<path d="M0 0 C1.65 0 3.3 0 5 0 C5 1.32 5 2.64 5 4 C3.35 4 1.7 4 0 4 C0 2.68 0 1.36 0 0 Z " fill="#B8B8B8" transform="translate(270,104)"/>
<path d="M0 0 C0 3 0 3 -2 6 C-2.99 6 -3.98 6 -5 6 C-4.1875 3.5625 -4.1875 3.5625 -3 1 C-2.01 0.67 -1.02 0.34 0 0 Z " fill="#D3D3D3" transform="translate(57,298)"/>
<path d="M0 0 C1.98 0 3.96 0 6 0 C6 0.99 6 1.98 6 3 C3.69 3 1.38 3 -1 3 C-0.67 2.01 -0.34 1.02 0 0 Z " fill="#B3B3B3" transform="translate(273,264)"/>
<path d="M0 0 C0.33 1.32 0.66 2.64 1 4 C-1.31 4 -3.62 4 -6 4 C-6 3.34 -6 2.68 -6 2 C-4.02 1.34 -2.04 0.68 0 0 Z " fill="#AEAEAF" transform="translate(101,222)"/>
<path d="M0 0 C0.33 0.66 0.66 1.32 1 2 C1.99 1.34 2.98 0.68 4 0 C6.1875 0.375 6.1875 0.375 8 1 C7.67 1.66 7.34 2.32 7 3 C4.69 3 2.38 3 0 3 C0 2.01 0 1.02 0 0 Z " fill="#B6B6B6" transform="translate(125,213)"/>
<path d="M0 0 C0 1.32 0 2.64 0 4 C-1.65 4 -3.3 4 -5 4 C-5 3.01 -5 2.02 -5 1 C-3 0 -3 0 0 0 Z " fill="#B7B7B7" transform="translate(61,192)"/>
<path d="M0 0 C1.65 0 3.3 0 5 0 C5 1.32 5 2.64 5 4 C3.35 3.67 1.7 3.34 0 3 C0 2.01 0 1.02 0 0 Z " fill="#BBBBBC" transform="translate(211,182)"/>
<path d="M0 0 C1.32 0 2.64 0 4 0 C4 1.32 4 2.64 4 4 C2.35 4 0.7 4 -1 4 C-0.67 2.68 -0.34 1.36 0 0 Z " fill="#B7B7B7" transform="translate(103,182)"/>
<path d="M0 0 C2.475 0.495 2.475 0.495 5 1 C4.67 2.32 4.34 3.64 4 5 C2.68 4.67 1.36 4.34 0 4 C0 2.68 0 1.36 0 0 Z " fill="#D1D1D1" transform="translate(128,181)"/>
<path d="M0 0 C1.98 0 3.96 0 6 0 C6 0.99 6 1.98 6 3 C3.69 3 1.38 3 -1 3 C-0.67 2.01 -0.34 1.02 0 0 Z " fill="#B2B2B2" transform="translate(111,172)"/>
<path d="M0 0 C0.99 0.33 1.98 0.66 3 1 C3 1.99 3 2.98 3 4 C1.35 4 -0.3 4 -2 4 C-2 3.01 -2 2.02 -2 1 C-1.34 0.67 -0.68 0.34 0 0 Z " fill="#B2B2B2" transform="translate(83,151)"/>
<path d="M0 0 C0.99 0 1.98 0 3 0 C3.33 1.32 3.66 2.64 4 4 C2.02 4 0.04 4 -2 4 C-1 1 -1 1 0 0 Z " fill="#BBBBBB" transform="translate(102,131)"/>
<path d="M0 0 C-0.99 1.485 -0.99 1.485 -2 3 C-3.32 2.67 -4.64 2.34 -6 2 C-6 1.34 -6 0.68 -6 0 C-3.50907189 -1.24546405 -2.58919267 -0.7767578 0 0 Z " fill="#D2D2D2" transform="translate(134,99)"/>
<path d="M0 0 C1.65 0 3.3 0 5 0 C5.33 1.32 5.66 2.64 6 4 C3.03 3.505 3.03 3.505 0 3 C0 2.01 0 1.02 0 0 Z " fill="#BABABA" transform="translate(112,98)"/>
</svg>
